<?xml version="1.0" encoding="utf-8"?>
<!-- Generator: Adobe Illustrator 24.2.0, SVG Export Plug-In . SVG Version: 6.00 Build 0)  -->
<svg version="1.1" id="Capa_1" xmlns="http://www.w3.org/2000/svg" xmlns:xlink="http://www.w3.org/1999/xlink" x="0px" y="0px"
	 viewBox="0 0 320 200" style="enable-background:new 0 0 320 200;" xml:space="preserve">
<style type="text/css">
	.st0{fill:#B2B2B2;}
	.st1{fill-rule:evenodd;clip-rule:evenodd;fill:#B2B2B2;}
</style>
<g>
	<polygon class="st0" points="64.9,102.5 64.9,102.5 64.9,102.5 	"/>
	<polygon class="st1" points="38.4,102.5 27.8,115.4 65.7,102.5 65.7,102.5 	"/>
	<g>
		<path class="st1" d="M311.1,94.7v-0.6c3.2,0,5.8-2.6,5.8-5.8c0-3.1-2.6-5.7-5.8-5.7v-0.7c3.6,0,6.4,3,6.4,6.4
			C317.5,91.8,314.7,94.7,311.1,94.7 M311.1,89h0.2c0.4,0,0.7,0.1,0.8,0.2c0.1,0.1,0.2,0.4,0.2,0.9l0,0.6c0,0.2,0,0.4,0.1,0.6
			c0,0.1,0,0.2,0.1,0.4h1.6v-0.2c-0.1-0.1-0.2-0.2-0.3-0.4c0-0.1,0-0.3,0-0.6v-0.5c0-0.5-0.1-0.9-0.2-1.1c-0.1-0.2-0.4-0.4-0.7-0.5
			c0.4-0.1,0.7-0.4,0.8-0.7c0.2-0.3,0.3-0.6,0.3-1c0-0.3,0-0.5-0.1-0.7c-0.1-0.2-0.2-0.4-0.3-0.6c-0.2-0.2-0.4-0.4-0.7-0.5
			c-0.3-0.1-0.6-0.2-1.1-0.2h-0.7V86h0.4c0.3,0,0.5,0,0.7,0.1c0.3,0.2,0.4,0.4,0.4,0.9c0,0.4-0.1,0.7-0.4,0.8l1.7,3.4l-1.7-3.4
			c-0.2,0.1-0.4,0.1-0.7,0.1h-0.3V89z M311.1,81.8v0.7h-0.1c-3.1,0-5.7,2.6-5.7,5.7c0,3.2,2.6,5.8,5.7,5.8h0.1v0.6h-0.1
			c-3.5,0-6.4-2.8-6.4-6.4C304.6,84.8,307.6,81.8,311.1,81.8L311.1,81.8z M311.1,84.8h-2.7v7h1.4V89h1.2v-1.2h-1.2V86h1.2V84.8z
			 M280.8,124.4v-9.3c4.1-1.3,5.2-6.7,5.9-10.2c0.6-3.5,1.5-10.5-4-10.5c-0.7,0-1.3,0.1-1.8,0.3v-9.3c1.1-0.1,2.3-0.2,3.5-0.2
			c13.2,0,19.8,6.9,17.5,19.7C299.6,116.7,292,123.3,280.8,124.4 M280.8,85.4v9.3c-3.9,1.4-5.3,7.1-5.8,10.2
			c-0.7,4.1-1.3,10.5,3.9,10.5c0.7,0,1.4-0.1,2-0.3v9.3c-1.2,0.1-2.4,0.2-3.6,0.2c-8,0-13.6-2.5-16.1-7.4v-16.8
			C264.1,91.5,271.1,86.4,280.8,85.4 M261,95.5l1.6-9.1l-1.6-0.3V95.5z M261,86.1v9.4l-0.2,0.9c-2.2-0.8-4.5-1.4-7-1.4
			c-6.1,0-11.4,3.3-12.5,9.5c-1.2,6.6,2.5,9.9,8.5,9.9c2.6,0,5.3-0.5,8.1-1.5l-1.8,10.1c-2.8,0.8-7,1.5-10.6,1.5
			c-10.6,0-18.5-4.7-19.2-14.4v-3.1c0.1-0.9,0.2-1.8,0.4-2.8c2.3-12.8,13.9-19.1,26-19.1C256,85.2,258.2,85.6,261,86.1 M261,100.4
			c-0.5,1.4-0.9,2.9-1.2,4.5c-0.9,5.1-0.5,9.2,1.2,12.3V100.4z M226.3,86.8l0.1-0.3l-0.1,0V86.8z M226.3,86.5v0.3l-1.7,9.5
			c-3-1.1-6.7-1.9-10.8-1.9c-2.3,0-6.2,0.1-6.7,2.5c-0.9,5,19.7,0.3,17.1,14.9c-1.8,10.2-12.3,12.8-20.6,12.8c-5,0-9.2-0.4-13.8-1.5
			v-8.2l0.4-2c3.6,1.6,8.2,2.5,12.5,2.5c3.4,0,6.6-0.7,6.9-2.6c0.9-5.1-19.7-0.5-17-15.3c1.9-10.5,13-12.3,21.6-12.3
			C218.2,85.2,222.5,85.7,226.3,86.5 M226.3,107.1c-0.1,1.1-0.1,2.1,0,3.1V107.1z M189.8,93.7l1.4-7.9h-1.4V93.7z M189.8,85.9v7.9
			l-0.2,1.3h-18.5l-1,5.4h17.7l-1.7,9.2h-17.7l-0.9,5.2h18.9l-1.6,9.2h-30.9v-11.4l4.8-26.7H189.8z M189.8,114.9l-1.4,7.8
			c0.5,0.1,0.9,0.2,1.4,0.3V114.9z M153.8,97.1L153.8,97.1l2.1-11.2h-2.1V97.1z M99.2,85.9h-5.7v8.5h0.2c2.9,0,5.6,0.5,5,3.9
			c-0.6,3.2-2.7,4-5.2,4.2v21.5h14.3c-0.8-3.7,0.4-9.6-1.1-13.6c-1-2-2.6-3.5-5.6-4.1l0-0.1c5.6-1.3,9.8-4.3,10.8-10.1
			C113.2,88.7,108.2,85.9,99.2,85.9 M153.8,85.9v11.2h-12.7l-4.8,26.8h-14.5l4.8-26.8h-12.7l2-11.2H153.8z M153.8,112.5l-2.1,11.4
			h2.1V112.5z M93.5,85.9H75.8l-6.1,33.6v4.5h13.6l2.3-12.9H89c1.8,0,3.2,0.2,3.7,2c0.8,2.3-0.1,8.2,0,11h0.8v-21.5
			c-0.5,0-1,0-1.5,0h-3.8l1.5-8.1h3.8V85.9z M69.8,79.9v-4.5h0.8L69.8,79.9z M69.8,119.5l-0.8,4.5h0.8V119.5z M69.8,75.4v4.5
			l-4.1,22.6H54.1V75.4H69.8z M54.1,124v-17.5l11.6-4L61.9,124H54.1z M54.1,75.4v27.1h-6.2l4.2-16.6H52l-13.6,16.6l-10.6,13l-7,8.5
			H2.5l42.7-48.6H54.1z M54.1,106.5l-7.9,2.7L42.5,124h11.6V106.5z"/>
	</g>
</g>
</svg>
