<?xml version="1.0" encoding="utf-8"?>
<!-- Generator: Adobe Illustrator 24.2.0, SVG Export Plug-In . SVG Version: 6.00 Build 0)  -->
<svg version="1.1" id="Capa_1" xmlns="http://www.w3.org/2000/svg" xmlns:xlink="http://www.w3.org/1999/xlink" x="0px" y="0px"
	 viewBox="0 0 320 200" style="enable-background:new 0 0 320 200;" xml:space="preserve">
<style type="text/css">
	.st0{fill:#B2B2B2;}
</style>
<g>
	<path class="st0" d="M40.3,152.2c-5.9,0-10.9-0.9-14.9-2.5c-4.7-1.9-8.2-4.7-10.5-8.4c-2.3-3.7-3.4-8.2-3.4-13.3
		c0-6.2,1.7-13.4,4.9-21.5c4-10,7.7-18.3,12.1-25.6c4.5-7.4,9.6-13.8,16.2-19.6h0C59.7,48,68.6,48,76.6,48.1h0.7v0h183.2h0.1l0,0
		c1.6,0,3.2,0.2,4.7,0.5c1.6,0.3,3.1,0.7,4.5,1.3c7.6,2.9,13.6,9.2,14,17.5l0,0.1v0c0.1,1.5,0,3.7-0.2,6.2c-0.2,2.5-0.6,5.5-1.3,8.8
		c-3.2,16.8-12.1,42-32.9,58.7c-14.4,11.5-24.2,11.3-31.5,11.2c-0.5,0-0.9,0-2.1,0H40.3L40.3,152.2z M27.2,145.1
		c3.5,1.4,7.8,2.1,13.1,2.1h175.6c0.2,0,1.2,0,2.2,0c6.5,0.1,15.3,0.3,28.3-10.1c19.7-15.7,28.1-39.7,31.1-55.7
		c0.6-3.1,1-5.9,1.2-8.3c0.2-2.3,0.3-4.2,0.2-5.5l0-0.1c-0.3-6.1-4.9-10.8-10.7-13.1c-1.2-0.4-2.4-0.8-3.7-1
		c-1.3-0.2-2.6-0.4-3.8-0.4v0h-0.1H77.3v0h-0.7c-7.2,0-15,0-28.6,12l0,0c-6.2,5.5-11,11.4-15.2,18.4c-4.3,7.1-7.9,15.2-11.8,24.9
		c-3,7.4-4.5,14.1-4.5,19.7c0,4.2,0.9,7.8,2.6,10.6C20.9,141.5,23.6,143.6,27.2,145.1L27.2,145.1z"/>
	<path class="st0" d="M32.3,130.6c0,0,55.4,0,62.4,0c7,0,24.2-5.4,25.9-20.1c0.8-6.3-5.2-11.3-8.6-12.6c0,0,22.3-2.8,22.3-19.4
		c0-7.7-8.3-11.4-14.6-11.4c-6.3,0-55.6,0-55.6,0L32.3,130.6L32.3,130.6z M79.8,90.2L88.8,77c0,0,10.8,0,12.6,0
		c1.8,0,6.7,0.2,6.4,5.4c-0.2,5.2-9.2,7.8-12.2,7.8C92.5,90.2,79.8,90.2,79.8,90.2L79.8,90.2z M59.7,119l11.8-17.9
		c0,0,12.8,0,15.9,0c3,0,5.8,2.3,4.5,7.9c-1.3,5.7-10.4,9.9-13.2,9.9C75.9,119,59.7,119,59.7,119L59.7,119z"/>
	<polygon class="st0" points="121.4,130.6 151.1,130.6 169,81.4 150.7,81.4 121.4,130.6 	"/>
	<path class="st0" d="M165.9,80c5.1-0.7,8.7-4.6,8.2-8.8c-0.6-4.2-5.1-7-10.2-6.3c-5.1,0.7-8.7,4.6-8.2,8.7
		C156.3,77.8,160.8,80.7,165.9,80L165.9,80z"/>
	<path class="st0" d="M232.9,95.1h13l25.4-27.4h-26.2l-2.6,4.8c0,0-4.7-6.9-21.3-6.9c-16.6,0-40.8,9.4-46.6,31.1
		c-5.8,21.7,9.6,35,29.5,35c19.9,0,31.7-5.8,41.5-16.9l-7.7-7.3c0,0-10.8,16.6-31.1,11.8c-8.7-2-8.6-19.9,2.8-31.7
		c11.3-11.8,19-10.4,21.6-8.9C233.9,80.1,238.7,83.1,232.9,95.1L232.9,95.1z"/>
	<path class="st0" d="M298.8,67.1c-5.1,0-9.7-3.6-9.7-9.7c0-6.1,4.6-9.7,9.7-9.7c5.1,0,9.7,3.6,9.7,9.7
		C308.5,63.5,303.9,67.1,298.8,67.1L298.8,67.1z M298.8,50c-3.8,0-6.9,3-6.9,7.4c0,4.5,3.1,7.5,6.9,7.4v0c3.7,0,6.9-3,6.9-7.5
		C305.7,52.9,302.5,50,298.8,50L298.8,50z M297.2,62.6H295V52.2h3.9c2.7,0,4.3,0.8,4.3,3.1c0,1.9-1.1,2.6-2.5,2.7l2.7,4.5h-2.6
		l-2.4-4.4h-1.1V62.6L297.2,62.6z M299.2,56.5c1,0,1.6-0.2,1.6-1.4c0-1.1-1.1-1.2-2-1.2h-1.6v2.5H299.2L299.2,56.5z"/>
</g>
</svg>
