<?xml version="1.0" encoding="utf-8"?>
<!-- Generator: Adobe Illustrator 24.2.0, SVG Export Plug-In . SVG Version: 6.00 Build 0)  -->
<svg version="1.1" id="Capa_1" xmlns="http://www.w3.org/2000/svg" xmlns:xlink="http://www.w3.org/1999/xlink" x="0px" y="0px"
	 viewBox="0 0 320 200" style="enable-background:new 0 0 320 200;" xml:space="preserve">
<style type="text/css">
	.st0{fill:#B2B2B2;}
</style>
<g>
	<g id="g2212_4_" transform="matrix(1,0,0,-1,0,200)">
		<g id="g2214_4_" transform="scale(0.4,0.4)">
			<path id="path2216_4_" class="st0" d="M432.2,186c-1.9-1.2-3.9-2.2-5.8-3.3c-2.5-1.2-12.2-5.4-22.1-5.4c-9.1,0-15.7,3.4-18.6,5.1
				c-10.6,6.6-14.7,17.1-16.4,28.7c-0.7,4.9-0.7,9.9-0.7,11.4c0,18.6,5.6,28.8,11.5,35c3.3,3.2,10.4,9.5,22.8,9.5
				c7,0,16.4-1.2,22.6-4.2c0.7-0.4,3.6-2.1,5.3-3.3l0.7-8.1h2.6c0,1.8-0.1,3.7-0.1,5.5c0,3.8,0.1,7.6,0.1,11.6H431
				c-5.3,0-6.8,0.5-12,1.2c-6.2,0.8-9.6,0.8-12.5,0.8c-22.7,0-34-10.6-39.3-17.9c-8.8-12.1-9.2-25.6-9.2-30.5
				c0-5.4,0.7-26.4,16.8-39.3c10.9-8.8,22.3-9.1,27.4-9.1c15.1,0,24.7,5.7,29.8,8.5L432.2,186"/>
			<path id="path2218_4_" class="st0" d="M107.8,200.9c-8.6-0.1-16.2-0.1-24.7-0.1c1.5,4.1,3.5,8.1,5.3,12.1c3,6.4,5,10.6,7.9,17
				c1.8-4.7,3.3-7.1,4.9-11.8C103.5,212.3,105.7,206.7,107.8,200.9z M81.2,176.1c-2.7,0.1-5.2,0.3-7.9,0.5c1.9,5.4,4,11.2,6.3,16.5
				c0.8,1.7,1.7,3.4,2.4,5.1c9.3,0.3,17.6,0.4,26.9,0c1.4-3.6,2.8-7.1,4.1-10.6c1.3-3.5,2.1-7.5,3.3-11c-2.7-0.2-4.3-0.4-6.9-0.5
				v-2.2c8,0.2,16.1,0.3,24.1,0v2.2c-2.1,0.1-4.1,0.2-6.2,0.4c-8,15.4-14.4,31.7-20.4,47.7c-1.9,5.1-3.9,10.2-5.4,15.3h-4.3
				c-0.7-1.8-1.3-3.5-2.1-5.2c-1.8-4.2-3.9-8.3-5.9-12.4c-2.1-4.4-4.3-8.8-6.5-13.2c-2.2-4.5-4.6-8.8-6.9-13.2
				c-2.8-5.3-5.7-10.5-8.8-15.8c-0.5-0.9-1.1-2.2-1.8-3.1c-2.4-0.2-4.8-0.3-7.2-0.4l-0.1-2.2c7.8,0.3,15.4,0.3,23.2,0V176.1"/>
			<path id="path2220_4_" class="st0" d="M484.7,201.4c-8.5-0.1-16.2-0.1-24.7-0.1c1.6,4.1,3.6,8.1,5.3,12.1c3,6.4,5,10.6,7.9,17
				c1.8-4.7,3.3-7.1,4.9-11.8C480.3,212.8,482.6,207.2,484.7,201.4z M458,176.6c-2.7,0.1-5.2,0.3-7.9,0.4c1.9,5.4,4,11.2,6.3,16.6
				c0.8,1.7,1.7,3.4,2.4,5.1c9.3,0.3,17.6,0.4,26.9,0c1.3-3.6,2.8-7.1,4.1-10.6c1.4-3.5,2.1-7.5,3.4-11.1c-2.7-0.2-4.3-0.4-7-0.5
				v-2.2c8,0.2,16.1,0.3,24.1,0v2.2c-2.1,0.1-4.1,0.2-6.2,0.4c-8,15.4-14.4,31.7-20.4,47.8c-1.9,5.1-3.9,10.2-5.3,15.3h-4.3
				c-0.7-1.8-1.3-3.5-2.1-5.2c-1.8-4.1-3.9-8.3-5.9-12.4c-2.1-4.4-4.3-8.8-6.6-13.3c-2.2-4.5-4.5-8.8-6.9-13.3
				c-2.8-5.3-5.7-10.5-8.8-15.8c-0.5-0.9-1.1-2.2-1.8-3.1c-2.4-0.2-4.8-0.3-7.2-0.4l-0.1-2.2c7.8,0.3,15.5,0.3,23.2,0V176.6"/>
			<path id="path2222_4_" class="st0" d="M678.4,185.9c-0.1-2.4-0.2-5.4-0.8-6c-0.3-0.4-1.2-0.5-2.6-0.8c-7-1.5-16.7-1.9-17.3-1.9
				c-2.3-0.1-4.5,0-6.7,0c-0.3,2.1-0.5,4.1-0.6,6.2c-0.1,2.7-0.1,5.2-0.2,7.9c0,4.9,0,8.9,0.2,13.8c6.6,0.1,9.8,0.2,12.1-0.2
				c1.7-0.3,4.2-1,4.4-1.1c0.6-0.4,1.7-1.2,1.7-1.8c0.1-1.5,0.2-2.8,0.3-4.3l2.5,0.1c0,2.5-0.1,4.9-0.1,7.4c0,3.3,0.1,6.6,0.4,10
				h-2.4c0-0.7-0.2-4.8-0.9-5.5c-0.3-0.5-1.4-0.6-1.6-0.7c-5.5-0.9-10.6-0.6-16.2-0.5c0.1,3.5,0,6.5,0.1,10c0.1,6.1,0,12.2,0.5,18.1
				c1.6,0.2,3.2,0.2,4.8,0.2c8.5,0,13.9-1.3,16.5-1.8c3.4-0.8,3.3-3,3.6-7.2h2.3c0,3.4,0,8,0.1,11.4c-4.8-0.1-8.9-0.1-13.8-0.2
				c-5.6,0-11.3-0.1-16.9-0.1c-4.8,0-9.6,0.1-14.2,0.3l-0.1-2.1c2.4-0.2,5.5-0.3,7.9-0.4c0.4-3.9,0.5-7.9,0.6-11.7
				c0.1-4.9,0.1-9.6,0.1-14.4c0-5.2-0.1-10.4-0.2-15.6c-0.1-4.5,0-9.1-0.3-13.5c0-1.6-0.2-3-0.4-4.6c-2.8,0-6.5-0.1-9.3-0.2v-2.2
				c0.6,0,1.4,0,2,0.1c7.2,0.2,14.3,0.2,21.5,0.2h6.7c3.2,0.1,6.5,0.1,9.7,0.1c3-0.1,6-0.2,8.9-0.4c0.1,3.9,0,7.7,0.2,11.5H678.4"/>
			<path id="path2224_4_" class="st0" d="M735.3,186.6c-0.1-2-0.2-4.7-0.3-6.8c-2.6-0.6-5-1.1-7.7-1.5c-9.2-1.2-13.3-1.1-17.2-1.1
				c-0.3,3.7-0.6,6.9-0.8,10.6c-0.1,3.8-0.1,7.5-0.1,11.2v12.5c0,5.6,0,11.2,0.3,16.7c0.2,2.8,0.4,5.4,0.8,8.1
				c2.6,0.3,5.2,0.6,7.8,0.8v2.1c-3.1-0.1-8.3-0.2-11.5-0.2c-4.9,0-9.9,0-14.8,0.2l-0.1-2.1c2.8-0.3,5.5-0.6,8.2-0.7
				c0.6-7.2,1.2-14.4,1.2-21.6c0-6.6-0.1-13.2-0.1-19.8c-0.2-10.3-0.1-11.9-1.2-17.8c-2.7-0.1-6-0.2-8.7-0.2l-0.1-2.7
				c7,0.1,13.9,0,20.7,0c8.8-0.1,17.4,0.1,26.1,0c0,1.6-0.1,3.3-0.1,5c-0.1,2.1,0,5.2,0,7.2H735.3"/>
			<path id="path2226_4_" class="st0" d="M791.7,186.6c-0.1-2-0.2-4.7-0.3-6.8c-2.6-0.6-5.1-1.1-7.7-1.5c-9.2-1.2-13.3-1.1-17.2-1.1
				c-0.3,3.7-0.5,6.9-0.8,10.6c-0.1,3.8-0.1,7.5-0.1,11.2v12.5c0,5.6,0,11.2,0.3,16.7c0.2,2.8,0.4,5.4,0.8,8.1
				c2.6,0.3,5.2,0.6,7.8,0.8v2.1c-3.1-0.1-8.4-0.2-11.5-0.2c-4.9,0-9.9,0-14.8,0.2l-0.1-2.1c2.8-0.3,5.5-0.6,8.2-0.7
				c0.6-7.2,1.2-14.4,1.2-21.6c0-6.6-0.1-13.2-0.1-19.8c-0.2-10.3-0.1-11.9-1.2-17.8c-2.7-0.1-5.9-0.2-8.6-0.2l-0.1-2.7
				c6.9,0.1,13.9,0,20.8,0c8.8-0.1,17.4,0.1,26.1,0c0,1.6-0.1,3.3-0.1,5c-0.1,2.1,0,5.2,0,7.2H791.7"/>
			<path id="path2228_4_" class="st0" d="M141.1,173.7c3.2,0,6.4,0.1,9.6,0.1c2.6,0,5.4,0,8.1-0.1c2.6-0.1,5.2-0.3,7.8-0.3
				c3.2,0,10.3-0.1,17.6,4.1c2.3,1.4,3.7,2.8,4.4,3.5c2.4,2.9,3.6,7,3.6,10.5c0,3.9-1.5,6.8-2.3,8.2c-1.9,2.8-5,5.6-13,6.9
				c-1.9,0.3-3.8,0.5-5.6,0.6l-0.1,0.4c0.9,0.1,1.1,0.3,2,0.5c3.1,0.7,5.3,1.7,6.4,2.3c3,1.6,8.6,5.1,8.6,13c0,3.9-1.2,6.5-2,8
				c-0.3,0.6-1.4,2.5-3.4,3.8c-5,3.8-11.7,3.6-13.3,3.6c-2.8,0-5.5-0.2-8.3-0.3c-3.4-0.2-6.9-0.3-10.4-0.3c-3.3,0-6.5,0.1-9.7,0.3
				l-0.2-2.1c2.6-0.1,5.9-0.3,8.6-0.5c0.4-7.2,0.4-14.6,0.4-21.8c0-6.9,0-13.7-0.1-20.5c0-5.8,0-11.5-0.6-17.2
				c-2.6-0.2-5.6-0.3-8-0.4V173.7z M158.3,235.8c3,0.5,5.4,0.3,8.4,0.3c4,0,1.7,0,3.4-0.6c2-0.8,3.5-2.1,4.1-2.7
				c4-3.8,4.3-8.3,4.3-9.9c-0.1-6-3.3-11.7-10.4-14c-4-1.2-4.5-0.8-5.6-0.8c-1.5,0-3-0.3-4.7-0.2c-0.1,2.7-0.2,5.2-0.2,7.9
				c0,1.6,0.1,3.4,0.1,5c0,3,0,6.1,0.1,9.1C158,231.8,158.1,233.8,158.3,235.8z M157.8,205.6c2.3,0.2,4.8,0.3,7.2,0.3
				c9.5,0,11.4-2.4,14-5.2c2.2-2.4,3.1-5.8,3.1-8.8c0-1.5-0.2-11.9-10-15.1c-2.2-0.7-1.4-0.6-6.5-0.6c-3.5,0-6,0.3-7.2,0.5
				c-0.3,4-0.6,7.6-0.6,11.7C157.7,194.1,157.7,199.8,157.8,205.6"/>
			<path id="path2230_4_" class="st0" d="M326.7,176.5c-1.9,0.1-3.9,0.2-5.7,0.3c-1.2,1-2.5,2-3.6,3c-3.2,2.9-6,5.9-9.1,8.9
				c-2.5,2.5-3.9,4.9-6.4,7.4c-2.3,2.4-4.5,4.7-6.8,7c-1.1,1.3-2.1,2.5-3.3,3.6c0.8,0.1,2.3,0.5,4.9,1.2c2.7,0.7,4.3,1,6.7,2.3
				c3.2,1.7,9.4,5.6,9.4,13.8c0.1,3.8-1.4,6.4-2.3,7.7c-0.4,0.8-1.8,2.9-4,4.3c-5.2,3.3-12.8,3.2-13.9,3.2c-3.4,0-6.7-0.2-10.1-0.3
				c-6.2-0.1-12.2-0.1-18.5,0l-0.1-2.1c2.7-0.2,5.4-0.5,8.2-0.6c0.3-6.4,0.3-12.6,0.3-18.8c0-6.9,0-13.8-0.1-20.7V188
				c-0.1-3.7-0.4-7.5-0.9-11.3c-2.6-0.1-5.3-0.2-7.9-0.3l-0.1-2.2c3.1,0.1,6.1,0.1,9.3,0c5.1,0,11.5,0.1,16.7,0l0.1,2.2
				c-2.6,0.1-5.1,0.2-7.7,0.2c-0.5,3.9-0.8,8-1,11.9c-0.1,3.7-0.1,7.3-0.1,10.9c0,2.6-0.1,5.1-0.2,7.7l0.2-0.2
				c5.6-5.1,10.2-10.2,15.5-15.7c5.3-5.4,10.3-10.9,14.9-16.6c4.8,0.2,10.7-0.2,15.6-0.3L326.7,176.5z M282.3,235.9
				c3.1,0.3,2.7,0.4,5.6,0.4c3.4,0,5.1,0,6.7-0.3c3.9-1,9.2-4.1,9.2-11.8c0-3.6-1.2-7.9-4.3-10.6c-1.8-1.6-4.2-2.5-5.1-2.8
				c-6.8-2.6-11.3-2-13.4-1.9c0.1,3.8,0.1,7.6,0.2,11.4C281.4,225.7,281.8,230.6,282.3,235.9"/>
			<path id="path2232_4_" class="st0" d="M40.6,176.8c-3.4,0.1-6.7,0.3-10.1,0.3c-0.4,6.4-0.5,13-0.7,19.4c0,7.5,0,14.9-0.1,22.4
				c1.1,0.1,2.1,0.1,3.2,0.1c7.7,0,16-1.4,18.1-2c0.4-0.1,2.2-0.4,3-1c1.5-1.3,1.4-4.7,1.4-8.7l3.2-0.1c-0.2,3.8-0.3,7.3-0.3,11
				c0,4.7,0.1,9.4,0.3,14l-3,0.1c-0.3-3.5-0.3-6.9-1.2-8c-0.8-0.8-2.8-1-3.1-1c-8.2-1.8-20.2-1.6-21.6-1.4c0,7.3,0,14.8,0.1,22.1
				c0.3,6.3,0.5,12.6,0.9,18.9c2.6,0.1,5.1,0.1,7.6,0.1c9.7,0,17.6-1.3,21-2c0.3-0.1,2.2-0.5,3.6-1.3c1.6-0.8,1.8-2.1,1.9-2.8
				c0.4-1.3,0.5-2.1,0.5-4.6h3c-0.1,4.5,0,9,0.1,13.6c-7.7-0.3-15.1-0.1-22.8-0.1c-11.6,0-23.1-0.3-34.8,0.3l-0.1-2.8
				c3.2-0.3,6.6-0.7,9.8-1.1c0.5-6.7,0.7-13.3,0.7-19.9c0-9.8-0.1-19.4-0.1-29.1c-0.1-12.2,0-24.2-1.1-36.2c-3-0.3-6.1-0.3-9-0.4
				v-3.1c4.3,0.3,8.6,0.4,13.1,0.4c5.4,0,10.9-0.1,16.3-0.4L40.6,176.8"/>
			<path id="path2234_4_" class="st0" d="M249.5,185.6c-0.1-2.4-0.2-5.4-0.7-6.1c-0.3-0.4-1.2-0.5-2.6-0.8c-7-1.5-16.7-1.9-17.3-1.9
				c-2.3-0.1-4.5,0-6.7,0c-0.3,2.1-0.5,4.1-0.6,6.2c-0.1,2.7-0.1,5.2-0.2,7.9c0,4.9,0,8.9,0.2,13.8c6.6,0.1,9.8,0.2,12.1-0.1
				c1.7-0.3,4.2-1,4.4-1.1c0.6-0.4,1.7-1.2,1.7-1.8c0.1-1.5,0.2-2.8,0.3-4.3l2.5,0.1c0,2.5-0.1,4.9-0.1,7.4c0,3.3,0.1,6.6,0.3,10
				h-2.4c0-0.7-0.2-4.8-0.9-5.5c-0.3-0.6-1.4-0.6-1.6-0.7c-5.5-0.9-10.6-0.6-16.2-0.5c0.1,3.5,0,6.5,0.1,10c0.1,6,0,12.2,0.5,18.1
				c1.6,0.2,3.2,0.2,4.8,0.2c8.5,0,13.9-1.3,16.5-1.8c3.5-0.8,3.3-3,3.6-7.2h2.3c0,3.4,0,8,0.1,11.4c-4.9-0.1-9-0.1-13.8-0.2
				c-5.6,0-11.3-0.1-16.9-0.1c-4.9,0-9.6,0.1-14.2,0.3l-0.1-2.1c2.4-0.2,5.5-0.3,7.9-0.4c0.4-4,0.5-7.9,0.6-11.7
				c0.1-4.9,0.1-9.6,0.1-14.4c0-5.2-0.1-10.4-0.2-15.6c-0.1-4.5,0-9.1-0.3-13.5c0-1.6-0.2-3-0.4-4.6c-2.8,0-6.5-0.1-9.3-0.2v-2.2
				c0.6,0,1.4,0,2,0.1c7.2,0.2,14.3,0.2,21.5,0.2h6.7c3.2,0.1,6.5,0.1,9.7,0.1c3-0.1,6-0.2,8.9-0.4c0.1,3.8,0,7.7,0.2,11.5H249.5"/>
			<path id="path2236_4_" class="st0" d="M319.8,205.6c10.2,0.2,20.3,0,30.2,0l0.1,2.8h-11.6c-6.3-0.1-12.5-0.1-18.7,0V205.6"/>
			<path id="path2238_4_" class="st0" d="M553.8,228.7c0.1,3.4,0,6.8,0.2,10.3c-6.1,1.2-9,1.4-12,1.4c-3.4,0-16.4,0.1-22.5-9.5
				c-2.3-3.8-2.5-7-2.5-8.6c0-2.4,0.2-6.2,4.5-10.4c1-1,2.8-2.7,6.1-4.1c3.4-1.4,5.6-2.4,9-3.4c5.7-1.7,11.4-3.1,14.6-8
				c1.7-2.8,1.8-5.7,1.8-6.7c0-5.4-2.2-8-4.4-9.7c-3.6-3-7.4-4.4-12.4-4.4c-5.7,0-10.6,1.6-12.4,2.5c-1.5,0.6-2.5,1.4-2.9,1.7
				c-0.3,2.2-0.7,4.3-1,6.5l-2.6-0.1c0.1-1.9,0.1-3.8,0.1-5.9c0-1.9-0.1-3.8-0.2-5.8c2.9-0.7,7.1-1.5,14.3-1.5
				c11.3,0,17.5,2.5,21.5,5c5.7,3.7,8.2,8.4,8.2,14.3c0,8.1-6.3,12.1-9.2,13.8c-3.8,2-8,3.1-9.4,3.6c-6,1.7-12.1,3.1-15.4,8.1
				c-1.8,2.7-1.9,5.6-1.9,6.6c0,7.3,4.6,12.6,13.2,13c4.8,0.2,9.6-1.3,10.9-1.8c0.7-0.3,0.7-0.6,1.3-0.9c0.2-2,0.4-4,0.6-6.1H553.8"
				/>
			<path id="path2240_4_" class="st0" d="M623.2,227.5c0.1,3.4,0.1,8.1,0.2,11.5c-9.4-0.2-18.7-0.6-28-0.6c-9.2,0-18.3,0.5-27.4,0.6
				c-0.2-3.4-0.3-8.1-0.4-11.6h2.7c0.2,1.8,0.4,4.9,0.6,6.7c7.7,1.7,10.4,1.5,19.8,1.5c0.1-2.9,0.6-4.8,0.6-7.7
				c0-4.8-0.2-9.8-0.2-14.6c-0.1-4.6-0.1-9.4-0.1-14.2c-0.2-7.4-0.4-14.8-1-22.2c-2.7,0-5.5-0.1-8.2-0.2v-2.2
				c2.7,0.1,6.1,0.2,8.8,0.2c5.3,0.1,11.5,0.1,16.8-0.2l0.1,2.2c-2.6,0.1-5.5,0.2-8.1,0.2c-0.2,4.1-0.4,8.2-0.4,12.3
				c0,6.9,0.1,13.8,0.2,20.5c0.1,6,0.1,12,0.3,18c0.1,3,0.5,4.8,0.8,7.8c10.9,0,13.3-0.1,19.5-1.2c0.1-1.9,0.3-4.8,0.4-6.8H623.2"/>
			<path id="path2242_4_" class="st0" d="M378.7,360.9c0,0.9,0.7,1.3,1.7,1.3c1,0,2-0.3,2-1.2s-1-2.1-2-2.1
				C379.4,358.8,378.7,360,378.7,360.9"/>
			<path id="path2244_4_" class="st0" d="M364.7,355.1c0,0-3,0.1-3.2-2.4c-0.2-2.2,2.3-2.6,2.3-2.6s0.6,0,0.6-0.6
				c0-0.5-2.4-3.7,0.9-5c3.1-1.3,6.7,1.5,7.5,2.1c0.8,0.6,2.7,3.1,4,3.2c1.3,0.1,2.4,0.1,2.4-0.5c0-0.9-2.2-1-3-2.6
				c-0.4-0.9-0.2-3.6-0.2-3.6s-0.7-0.6-0.7-0.9c0-0.7,0.7-0.2,0.7-0.9c0-0.6-2.4-2.9-2.7-3.5c-0.2-0.5-0.4-2.3-0.4-2.3
				c-0.1,0.5,0.8-4,2.3-4.1c1.5-0.1,6.8,2.1,7.3,2.8c0.4,0.7,0.8,2.3,0.3,3.8c-0.5,1.5-0.9,2-0.9,2.4c0,0.4,0.9,2,2.6,2.4
				c0.6,0.2,0.3,1,0,1c-1.7,0.3-3.4,0.2-3.5,0.9c-0.1,0.6,2.7,0.5,2.7,1.2c0,0.7-2.2,1.4-2.2,2.6c0,0.5,1.7,1.5,1.7,1.7
				c0,0.1-1.4,0.5-1.5,1c-0.2,1.5-0.3,5.8-0.6,6.2c-0.3,0.3-1.7,0.8-1.9,0c-0.1-0.8-0.3-5.2-1.2-5.9c-0.9-0.6-4.2-1.3-5.3-2
				c-1.1-0.7-3.4-2.1-4.6-2.1c-1.2,0-2.2,0.2-2.2,1.5c0,1.3,7.8,1.7,7.8,2.3c0,0.6-8.7,0.8-9.1,2.1
				C364.3,354.4,364.7,355.1,364.7,355.1z M378,340.4c0,0,0.3-1.5,0.3-2.3c0-0.8-0.3-2.3,1.1-2.1c1.4,0.3,0.7,2.3,0.6,2.6
				C379.5,340.1,378,340.4,378,340.4"/>
			<path id="path2246_4_" class="st0" d="M339.4,333.2h33.4c0,0,1.1-0.8,0.9-2c-0.7,0-34.5,0-34.5,0s-1,0.3-1,1
				C338.3,333,339.4,333.2,339.4,333.2"/>
			<path id="path2248_4_" class="st0" d="M373.4,315.7v4.5c0,0,0,1-0.4,1.7c-0.4,0.7-2.6,3.7-2.8,3.9c-0.2,0.2-1,0.4-1.6,0
				c-0.5-0.4-0.2-1.1,0-1.3c0.2-0.2,1.4-2.1,1.5-2.2c0.2-0.1-0.1-0.5-0.3-0.5c-0.2,0-5.1,0.3-7.8-0.8c-2.7-1.1-2.8-1.3-3.4-1.3
				c-0.6,0-1.5,0.7-3.7,0.8c-1.3,0.1-2.6-0.5-3.9-0.6c-1.2-0.1-4.2-0.3-5.4-0.8c-1.2-0.6-3.2-1.8-4.6-3.3c-1.4-1.5-2-3.9-3.1-5.3
				c-1-1.3-2.4-3.2-3.7-3.7c-0.1,0,2.5-0.3,2.4-1.1c-0.2-1.1,0.1-1.7-1.1-4.1c-1.2-2.4-2-3.5-2.8-4.2c-0.8-0.7,1.5-0.2,1.8-0.1
				c0.3,0.2,1,0.8,1.5,0.6c0.5-0.2,0-2.4-0.3-2.9c-0.3-0.5-1.1-1.8-1.1-1.8s1.3-0.7,2.7-0.5c1.9,0.2,2.7,2,3.1,3.1
				c0.4,1.4,0.8,6.5,0.8,6.5s3.1-0.8,4.7-0.8c1.7,0,3.1,1,3.6,0.2c0.6-0.8-0.9-3.9-1.1-4.7c-0.2-0.7-3.8-9.5-4-10.1
				c-0.2-0.6-0.2-1.8-0.2-1.8h6.5c0,0,2.4,6.7,4.5,9.5c2.2,2.8,5.5,5.5,6.1,5.4c0.7-0.1-0.8-1.2-0.8-1.2s-3.3-4.2-4.4-6.6
				c-1-2.4-1.8-4.3-1.8-7.2c0-0.1,3.2,0,3.2,0s0.8,5.2,1.7,7.6c0.9,2.4,2.6,6.1,3.4,6.7c0.4,0.4-0.1,1.2-0.3,1.1
				c-0.2-0.1,0.6,0.5,0.8,0.6c0.2,0.1,2.8,0.7,2.7,2.2c-0.2,1.5-2.4,1.6-2.8,1.6c-0.4,0-4-0.3-4.3,2c-0.3,2.3,3.9,4.7,3.9,4.7
				s4,3,4.9,2.8c0.4-0.1-0.6-1.1-0.6-1.1s-4.6-4.5-4.8-5c-0.2-0.5-0.4-1.1-0.3-1.3c0.2-0.2,1.4,0.5,2.2,0.1c0.8-0.3,1-0.5,1.4-1.1
				c0.4-0.6,1.4-3,3.3-2.9c2,0.1,2.3,1.9,2.5,2.2c0.2,0.3,3.9,6,3.9,6s0.3,0.6-0.5,0.8c-0.7,0.2-4.8-0.8-5.3-0.5
				c-0.5,0.4-0.3,3.2-0.3,3.7c0,0.5-0.5,0.7-1.2,0.8c-0.6,0-2.1,0.3-7-2c-5-2.3-5.5-3-6.7-3c-1.2,0-2.1-0.3-2.3,0.1
				c-0.2,0.4-0.2,3.1,0.5,4.2c0.7,1.1,2.1,3.3,3.8,2.5c0.7-0.3,0.2-0.9,0.2-0.9s-1.6-3.4-0.6-3.4c1,0,4.6,0.2,4.6,0.2
				s0.8,2.4,1.6,3.2c0.9,0.8,1.6,2.1,4.7,1.9c3.1-0.2,3.8-1,3.8-1.3c0-0.3-0.4-4.7,0-4.8c0.4-0.1,5.4,0.5,5.6,0.7
				c0.2,0.2,0.6,0.8,0.6,1.1c0,0.4,0,0.8-0.9,1C375.1,315.7,373.4,315.7,373.4,315.7z M351.8,308.3c0,0-1-4.7-0.7-4.8
				c0.2-0.1,2.9,0.3,2.8,1.4C353.6,306.9,351.8,308.3,351.8,308.3z M353.2,301c-0.4-0.4-5.4-13.3-5.6-13.6c-0.2-0.4,0.1-0.8,0.8,0.6
				c0.8,1.5,8.6,12.3,9,12.7c0.3,0.4,0.8,0.8,0.6,1.1c-0.2,0.3-1.1,0.4-1.8,0.2C355.4,301.6,353.6,301.4,353.2,301z M347.1,315.8
				c-0.4-0.2-3.4-1.4-4-3.6c-0.7-2.2-2.1-6.7-1.6-7.5c0.5-0.8,1.4-0.7,2-0.2c0.6,0.5,1.4,1.6,1.4,2.4c0,0.8,0,2.1,0.4,3.5
				c0.4,1.4,1,3.3,1.4,4C347.1,315.1,347.4,315.7,347.1,315.8"/>
			<path id="path2250_4_" class="st0" d="M377.5,311.1c0,0-0.2,0.7-0.6,0.8c-0.4,0-0.8-0.9-0.8-0.9l-2.8-4.3c0,0-0.3-0.8,0.1-1
				c0.4-0.2,2.6-0.2,3.2,0c0.6,0.1,2,0.2,2.2,0.6C378.8,306.7,377.5,311.1,377.5,311.1"/>
			<path id="path2252_4_" class="st0" d="M377.4,304.3c0,0.7,0.5,1.2,1.2,1.2c0.7,0,1.2-0.6,1.2-1.2c0-0.7-0.5-1.3-1.2-1.3
				C378,303,377.4,303.6,377.4,304.3"/>
			<path id="path2254_4_" class="st0" d="M398.5,321.1c0,0,0.8,0.7,1.7,0.9c0.9,0.2,3.4,0.3,3.4,0.3l0.8,1.8c0,0,0.2,0.5,0.7,0.5
				c0.4,0,0.6-1.5,0.6-2c0-0.5,0.9-0.7,1.2-0.6c0.4,0.1,0.7,0.2,0.8,0.8c0.1,0.6,0.3,1.6,0.3,1.6s0.5,0.2,0.6-0.2
				c0.1-0.3,0-2.1,0.8-2c0.8,0,2.6,0,2.6,0l0.1,5.3c0,0,0,0.4-0.4,0.7c-0.3,0.3-2,0.1-2,0.1l-1.2,1.6c0,0-0.7,0.2-0.9,0.2
				c-0.2,0-3.8,0-3.8,0s-0.8-0.2-0.9-0.4c-0.1-0.2-0.1-0.8,0.1-0.9c0.2-0.1,1.1-1.1,1.7-1.6c0.2-0.4,0-1,0-1s-1.6-1-1.8-1
				c-0.2,0-0.4,0.3-0.5,0.9c-0.1,0.6-0.5,3.1-0.5,3.1s0,0.4-0.2,0.5c-0.2,0.2-6.8,0.4-6.8,0.4s-1.6-0.3-2.4-0.8
				c-0.8-0.5-1.1-0.9-1-1.2c0-0.3,1.2-1,1.4-1.1c0.2-0.1,6.8-3.2,7.5-3.3c0.7-0.1,1.2-0.6,1-0.6c-0.3,0-1,0.1-1.2,0.2
				c-0.2,0.1-7.5,3.2-7.7,3.4c-0.2,0.2-1.6,1.1-2,1.2c-0.3,0.1-0.9,0.2-1.6-0.5c-0.7-0.7-1.2-1-1.1-1.2c0.2-0.3,0.5-1.2,3.9-3.7
				c3.3-2.5,4.6-2.8,4.6-2.8s0.6,0,0.9,0.1L398.5,321.1"/>
			<path id="path2256_4_" class="st0" d="M381,316.8c0,0,1.2-0.4,1.6-1.1c0.3-0.7,0.8-5.6,1.6-6.2c0.8-0.7,1.6-0.2,1.9-0.5
				c0.3-0.4,2.2-0.2,2.2-0.2s0.1,1.1-0.4,1.5c-0.5,0.4-0.7,0.6-1,0.5c-0.3-0.1-1-0.8-1.4-0.8c-0.3,0.1-0.5,0.3-0.7,1.1
				c-0.2,0.8-0.8,5.9-1,6.2c-0.1,0.2-0.4,0.5-0.7,0.4c-0.3,0-0.8-0.5-1-0.6C381.8,317.1,381,316.8,381,316.8z M399.6,321.1
				c-1.1-0.3-1.9-1.9-2.4-2c-0.5-0.2-1.2,0-1.2,0s-2.2,1.2-4.6,2.9c-2.4,1.8-3.4,3-3.6,3.3c-0.2,0.3-0.6,0.5-0.8,0.5
				c-0.2,0-0.4-0.2-0.5-0.7c-0.1-0.5-1-6.5-1-6.5s-0.4-0.4-0.6-0.3c-0.2,0-2,1.4-2.3,1.5c-0.3,0.1-0.8,0.2-1,0.2
				c-0.2,0-1.6-0.9-1.7-0.7c-0.1,0.2,0.5,1.1,1.1,1.3c0.6,0.2,0.8,0.1,0.8,0.3c0,0.2-2,9.7-2,9.7s-0.2,0.8-0.5,1
				c-0.4,0.2-3.3-0.6-3.6-0.8c-0.3-0.2-0.4-1.3-0.4-1.3l-1-0.2c0,0-1-3.3-1.2-4.1c-0.1-0.8-0.8-2.2,0.1-2.4c0.9-0.2,1.2,1.5,1.8,2.2
				c1,1.2,1.9,1.1,1.9,1c0,0-2.3-2.6-2.1-3.6c0.2-1,2.8-3.7,3-5c0.3-1.8,3.4-13.1,3.4-13.1s0.3-0.4,0.7-0.4c0.4,0,2.3,1.4,2.3,1.4
				l0.3,1.8c0,0,1.4-0.9,1.8-0.8c0.3,0.2,3.6,2.1,6.2,3.1c2.6,1,3.8,1.7,5.4,1.8c1.5,0.1,2.7,0.1,2.8-0.3c0.1-0.4-0.5-1.6-3.2-2.8
				c-2.7-1.2-4.9-1.8-5.1-2c-0.2-0.2-1-1.3-1.2-2.3c-0.2-1-0.3-2.9-0.3-2.9s6,1.3,9.8,3.7c3.8,2.4,6.5,5,6.5,5l0.3,4.7l-5.1,2.4
				c0,0-0.8,0-0.7,0.5c0.1,0.5,1,3.4,0.9,3.7c-0.1,0.3-0.2,0.6-0.9,0.6C400.8,321.7,399.9,321.4,399.6,321.1z M394.6,313.4
				c-0.9,0-4.8-0.3-5.3-0.6c-0.5-0.2-1,0.2-0.5,0.6c0.5,0.4,2.1,1.8,5.4,1.8c3.3-0.1,6.2-1.3,6.5-1.5c0.4-0.2,0.8-0.8,0.6-0.9
				c-0.2-0.1-1.1-0.2-1.5,0C399.4,313,395.5,313.4,394.6,313.4"/>
			<path id="path2258_4_" class="st0" d="M386,328c0,0-0.9,0.6-1.8,0.1c-1-0.5-1.5-6.2-1.2-7.1c0.3-0.9,1-1.3,1.4-1.3
				c0.4,0,0.7,0,1,2.7C385.7,325,386,328,386,328"/>
			<path id="path2260_4_" class="st0" d="M387.4,335.9c0,0-0.1-1.5-0.1-1.8c0-0.3-0.5-0.5-0.7-0.6c-0.2-0.1-4.6-0.7-4.6-0.7
				s-0.5,0.2-0.7-0.1c-0.2-0.3-0.4-1-0.2-2.2c0.2-1.1,0.6-1.8,1-1.7c0.4,0.1,3.8,1.2,4.2,1.4c0.6,0.3,1-0.1,1-0.1l0.1-1.4l0.9,0
				c0,0,2.2,2.1,3.6,2.2c1.4,0,45.5,0.3,45.5,0.3l0.1,0.3h0.6c0,0,0.6-0.9,1.4-0.9c0.8,0.1,3.9,0.9,3.9,1.4c0,0.7-3,1.5-3.9,1.4
				c-1,0-1.3-0.8-1.3-0.8l-0.6-0.1l-0.4,0.5l-45.3,0.5c0,0-2.1,0.8-2.7,1.4c-0.6,0.6-0.8,0.9-1,1
				C388.1,335.9,387.4,335.9,387.4,335.9"/>
			<path id="path2262_4_" class="st0" d="M412.8,344.4c0,0-0.1-3.8-0.5-4.5c-0.4-0.8-2-1.6-2.8-0.7c-0.8,0.9-0.6,1-0.8,1
				c-0.3,0-0.5,0.1-0.7-0.2c-0.2-0.3-0.4-0.7-0.7-0.7c-0.3,0-1.1,0-1.1,0v-0.6c0,0,0.9-1.1,1.3-1.3c0.4-0.2,0.4-0.7,0.4-0.7
				s-1.1-0.4-1.1-1c-0.1-0.6,0.2-1.1-0.2-1.4c-0.4-0.2-2.7-0.4-3.5-0.4c-0.8,0-4.3,0.1-4.5,0.2c-0.2,0.1-0.3,2-0.4,2.2
				c-0.1,0.2-0.6,0.4-0.9,0.2c-0.3-0.3-2.1-2.6-2.8-2.6c-0.7,0-2-0.3-2.4,0.6c-0.3,0.9,0.6,2.4,1.9,3.6c1.3,1.2,5.2,4.2,8.2,4.2
				c3,0,7.9-0.1,7.9-0.1s2.1,2.2,2.3,2.2C412.5,344.5,412.8,344.4,412.8,344.4z M403.5,338.9c0,0-0.3,0.4-1.9-0.2
				c-1.5-0.6-2.1-0.8-1.8-1.1c0.2-0.3,1.2-0.8,1.8-0.8c0.5,0,1.2,0.5,1.5,0.9C403.3,338.1,403.5,338.9,403.5,338.9"/>
			<path id="path2264_4_" class="st0" d="M412.1,334.4c0,0.3,0.1,2-0.2,2.3c-0.3,0.3-1,0.6-1.7-0.2c-0.7-0.8-0.9-2.2-0.8-2.2
				c0.2-0.1,0.9-0.2,1.3-0.2C411.2,334,412.1,334,412.1,334.4"/>
			<path id="path2266_4_" class="st0" d="M423.7,342.2c0.3,0.1,1.2,0.3,2.6-0.7c1.4-1,1.5-1.3,1.3-1.6c-0.2-0.3-2-2.1-2-2.5
				c0-0.3-0.3-0.9,0-1c0.3-0.1,4.7-2.1,5.2-2.1c0.4,0,2.1-0.2,2.5-0.1c0.4,0.1,1.4,0.5,1.5,0.8c0,0.2-0.1,3.1-0.1,3.1
				s-0.2,1.1-1.3,2c-1.1,0.9-11.4,9.1-11.4,9.1s-0.5,0.7-1.8,0.6c-1.3-0.1-2.9-0.4-2.9-0.4s-0.4-2.4-0.1-2.5c0.2-0.1,0.4-0.6,1-0.7
				c0.5-0.2,2.5-0.3,2.5-0.9c0-0.7-0.4-1-1-1.4c-0.6-0.4-1.1-0.3-1.1-0.9c-0.1-0.6,0.7-1.2,1.1-1.2c0.4,0,0.5,0.3,1.1,0.4
				c0.6,0.1,1.1,0.3,1.3,0c0.2-0.3,0.2-1.1-0.3-1.8c-0.4-0.7-1.1-0.8-0.9-1.2c0.1-0.4-0.2-0.5,0.2-0.9c0.4-0.4,1-1,1.2-1.6
				c0.2-0.6,0.7-2.1,0.7-2.2c0-0.2,3.1-0.1,3.6,0.1c0.3,0.2,0.4,0.6,0.1,0.7c-0.3,0.1-3.7,1.6-3.9,2.2c-0.2,0.6,0,1,0.3,1.7
				C423.3,339.7,423.7,339.9,423.7,342.2"/>
			<path id="path2268_4_" class="st0" d="M416.6,356.5v-1.6l17.6-14.6c0,0,1.2-1.3,1.2-1.9c0.1-0.6,0.1-3,0.2-3.2
				c0.1-0.2,0.4-0.3,0.7-0.3c0.3,0,2.5,0.4,3.9,2.1c1.4,1.6,1.9,3,1.9,3.4c0,0.4,0,1.1-0.1,1.2c-0.2,0.1-3.4-0.1-4.1,0.1
				c-0.7,0.2-1.2,0.3-1.5,0.5c-0.3,0.1-18.9,14.2-18.9,14.2L416.6,356.5"/>
			<path id="path2270_4_" class="st0" d="M434.5,350.7c0,0,0.7-3-2.6-3.1c-3.3,0-2.9,2.6-2.9,2.6L434.5,350.7"/>
			<path id="path2272_4_" class="st0" d="M443.8,351.5v-0.8c0,0-0.7-0.9-1.2-1.3c-0.5-0.4-2-1.1-2-1.1s0.9-1.9,0.9-2.6
				s0.1-2.8,0.1-2.8s-0.2-0.7-1.9-0.7c-1.7,0-2.2,0.5-2.3,0.8c0,0.2-0.2,2.5-0.2,2.5s-0.4,1.1-0.8,1.5c-0.4,0.4-0.7,0.8-0.8,1.1
				c-0.1,0.3,0.8,2.3,0.9,2.5c0.1,0.2,0.5,0.5,0.5,0.5L443.8,351.5"/>
			<path id="path2274_4_" class="st0" d="M416.1,355.8v1.7L403,367.9l-1.3-0.1c0,0-0.2-0.8,0-0.9c0.2-0.1,13.3-11.1,13.6-11.1
				C415.5,355.7,416.1,355.8,416.1,355.8"/>
			<path id="path2276_4_" class="st0" d="M398.1,371.4c0,0,0-1.5,0.5-2.1c0.6-0.6,1.5-1,2.3-0.4c0.8,0.6,0.2,1.4-0.3,1.9
				C400,371.3,398.1,371.4,398.1,371.4"/>
			<path id="path2278_4_" class="st0" d="M458.8,350c0,0,1.6,0.4,2.4,2.5c0.8,2.1,1.1,4.5-1.1,6.6c-2.2,2-4.7,1.1-5.1,1
				c-0.5-0.1-2-0.8-2.1-1.3c-0.1-0.5-0.1-1,0.5-0.9c0.7,0.1,3.1,0.4,4.4-1.5c1.3-1.9,1.1-2.7,1.2-3.2c0.1-0.6,0-2.4-0.2-2.8
				C458.5,350,458.8,350,458.8,350"/>
			<path id="path2280_4_" class="st0" d="M447.4,343.3c-0.1-0.5,0.1-2,0.1-2s0.8-0.1,2-0.1c1.2,0.1,2.5-0.1,3-0.5
				c0.5-0.4,0.8-0.8,0.5-1.1c-0.3-0.3-2.4-0.3-3.3-0.2c-0.7,0.1-4,1.5-4.3,2c-0.3,0.5-0.8,0.4-1,0.1c-0.3-0.3-3.5-5.2-3.9-5.7
				c-0.4-0.5-0.4-1.1,0-1.2c0.5-0.2,1.2,0.2,1.6-0.1c0.4-0.3-0.3-1.2,1.1-1.5c1.3-0.4,1.5-0.5,1.9-0.1c0.3,0.3,2,3.1,2.1,3.3
				c0.1,0.2,0.1,0.5-0.4,0.8c-0.4,0.3-2,1.3-2,1.3s0.4,0.2,1,0.1c0.6-0.1,2.6-1.1,2.8-1.2c0.2-0.2,0.1-0.8,0-1
				c-0.1-0.2-2-3.5-2.4-3.9c-0.4-0.4-2-2.5-3.4-2.7c-1.4-0.3-1.4,0-1.6,0c-0.2,0.1-0.5,0.5-1.3,0.6c-0.8,0.1-18-0.1-18-0.1
				s-0.6-0.1-0.9-0.4c-0.3-0.3-0.4-1.7-0.5-2c-0.1-0.3-0.8-0.6-1.1-0.7c-0.3-0.1-1.4-0.2-2-0.6c-0.6-0.3-1.5-1.2-1.5-1.2l0-4
				c0,0,0.4-3.7,1.2-6.5c0.8-2.8,1.4-5.9,2.1-6.2c0.7-0.3,1.1-0.1,1.4,0c0.3,0.1,1.9,1.2,2.2,1.4c0.2,0.2,0.4,0.5,0.3,0.9
				c-0.1,0.4-1.2,2.9-1.5,4c-0.4,1.1-1,3.4-0.8,3.8c0.2,0.4,0.3,0.8,0.7,0.8c0.4,0,1.5-1.1,1.8-1.4c0.3-0.3,2.2-2.2,2.6-2.2
				c0.4,0,0.8,0,0.8,0l-0.1,5c0,0-0.4,0.6-2.3,1.4c-1.9,0.8-4.9,1.2-4.9,1.2s-0.2,0.6,0,0.7c0.2,0.1,4.2,0.6,5.9-0.2
				c1.7-0.8,1.6-0.8,1.8-1.1c0.2-0.3,0.3-2.2,0.4-2.5c0.2-0.3,0.1-0.8,0.9-0.7c0.8,0.1,0.7,0.5,1.5,0.5c0.8,0,2.7,0.2,3,0
				c0.3-0.1,0.2-0.2,0.5-0.2c0.2,0,1.2,0.1,1.2,0.1s-0.2,0.8-0.6,1.1c-0.4,0.3-0.8,0.6-0.9,1c-0.2,0.4-0.2,1.8-0.2,1.8
				s0.2-0.6,1-1.1c0.7-0.5,1.4-0.6,1.7-1.1c0.4-0.5,0.4-0.7,0.3-1c-0.1-0.3-0.7-0.9-0.8-1.3c-0.1-0.4-0.4-0.8-0.2-1
				c0.2-0.2,2.6-3.1,2.6-3.1s0.4-0.2,0.7-0.2c0.3,0.1,2.3,3.2,4,4.2c1.8,1,2,1.9,5.8,2.3c3.8,0.5,5.8,0.3,5.8,0.3s0.4,0.1,0.2,0.3
				c-0.2,0.2-2.5,1.5-5.5,1.3c-3-0.2-4.4-1.2-4.9-1.2c-0.4,0-2.1,0.4-2.9,1c-0.7,0.6-2.2,2.2-2.3,2.8c-0.1,0.7,0,0.7,0,0.7
				s0.3,0.1,0.6,0c0.3-0.2,0.7-0.6,0.9-0.6c0.2,0,2.2,0,2.4,0c0.3,0.1,1.2,0.2,2.5,1.1c1.2,0.9,4.3,4.6,5.8,7.7c1.5,3.1,2.5,3,2.5,3
				s-0.5-2.6-0.9-3.6c-0.4-1-0.8-1.8-0.8-2.3c0.1-0.5,0.5-1.3,1.7-2.1c1.2-0.7,1.7-0.6,1.7-0.4c0,0.2,0.7,4,0.8,5.1
				c0.1,1.1,0.1,2.4-0.1,3c-0.2,0.6-0.6,1-0.7,1.5c0,0.5-0.2,1.1,0,1.3c0.2,0.2,2.2,1.2,2.1,3.8c0,2.4-1.2,3.1-1.2,3.1
				s-0.2,0.6,0,0.8c0.2,0.2,2.8,1.9,2.2,4.3c-0.6,2.4-1.6,4-4.2,4c-2.5,0.1-4.1-2.1-4-3.2c0.1-1.1,1-2.4,2.5-2.4s1.1,0.8,2.3,0.7
				c1.2-0.1,1.3-1,1.3-1.4c0-0.3-0.7-1.9-1.6-2c-0.8-0.1-2.7-0.2-2.7-0.2s-1.2-0.3-2-0.8c-0.8-0.6-1.7-1.3-1.7-1.3l0.1-0.6
				c0,0,3-0.7,3-1c0-0.4-0.2-0.5-0.7-0.7C449.4,343.9,447.4,343.9,447.4,343.3z M430.2,325.8l2.6,0.2c0,0,0.7,0.9,1.7,1.3
				c1,0.4,2.2,1.1,2.2,1.1s-2.2,0.4-4-0.7C430.7,326.6,430.2,325.8,430.2,325.8z M440.3,321.6c0,0,0.1-0.3-0.2-0.5
				c-0.2-0.2-1.4-1.2-1.8-1.3c-0.4,0-1,0.6-1,1c0,0.3,0.2,0.8,0.2,0.8L440.3,321.6"/>
			<path id="path2282_4_" class="st0" d="M451.9,324.3c0,0,0.1,0.6,0,0.8c-0.1,0.2-3,2.8-3.6,3.2c-0.6,0.5-0.8,0.5-1.4,0.2
				c-0.5-0.3-2.1-1.6-2.8-1.9c-0.7-0.2-2.3-0.6-3.8-0.5c-1.4,0.1-1.2-0.6-0.8-0.9c0.4-0.2,1.1-1.1,2-1.1c0.9,0,3.4-0.1,3.6,0
				c0.2,0.1,3,0.7,3.7,0.7C449.8,324.8,451.9,324.3,451.9,324.3"/>
			<path id="path2284_4_" class="st0" d="M450.3,330.6l27.5-22c0,0,0.7-0.5,0.3-1.2c-0.4-0.7-1.1-0.2-1.1-0.2l-28.1,21.9
				c0,0-0.7,0.9-0.1,1.4C449.4,331,450.3,330.6,450.3,330.6"/>
			<path id="path2286_4_" class="st0" d="M474.3,292.7c0,0-5.1-0.3-8.3,3.6c-3.2,4-3.2,4.9-3.2,4.9s-0.8,2.1-0.7,2.7
				c0.1,0.6,1.7,2.6,1.6,5.7c-0.1,3.1-2.5,6.7-3.9,8.3c-1.2,1.3-4.5,3.4-7.5,3.5c-3.1,0.1-5.4-1.5-5.5-1.6c-0.1-0.2-0.5-0.5-0.4-0.7
				c0.2-0.2,0.3-0.5,0.6-0.4c0.2,0,3.5,0.1,4.5-1.4c1-1.5,1.4-2.8,1.3-3.3c-0.1-0.5-0.2-0.8-0.4-0.8c-0.3-0.1-2.8-1.4-3.6-3
				c-0.8-1.6-1.3-3.4-1.4-3.7c-0.1-0.3-0.2-0.9-0.6-0.8c-0.4,0.1-1.5,2.7-1.7,3.8c-0.2,1.1-0.7,2.9-0.4,4.9c0.4,2,1.2,2.8,1,3.1
				c-0.2,0.3-0.2,0.6-0.7,0.6c-0.6,0-1.7-2.1-1.9-2.4c-0.2-0.3-0.8-2.1-0.9-2.4c-0.1-0.3-0.2-0.4-0.4-0.3c-0.2,0.1-2.2,2.1-2.2,2.1
				l-0.6,0.1v-0.8c0,0,1.8-4.4,2.3-6.2c0.5-1.9,1.3-5.1,1.3-5.2c0-0.1,0-0.6,0.3-0.7c0.3-0.1,3.3-0.8,5-2c1.7-1.2,3.1-2.3,3.6-2.8
				c0.4-0.6,0.5-1-0.2-1.3c-0.7-0.2-2.5-0.4-3.2-0.8c-0.7-0.3-1-0.4-1.2-0.3c-0.3,0.1-3.6,3.6-4.4,4.4c-0.8,0.8-1.8,2.8-2.2,4.1
				c-0.4,1.3-1,5.7-1.4,6.7c-0.4,1-1.1,2.7-1.9,3.5c-0.8,0.8-3,2-3,2v2.9c0,0,0.3,0.1,0.2,0.3c-0.2,0.2-1,0.8-1.7,0.9
				c-0.7,0.1-2.5-0.1-3.3-0.4c-0.8-0.3-1.3-0.4-1.3-0.7c0-0.3,0.4-4.7,0.3-4.9c0-0.2,0-0.6-0.4-0.6c-0.4,0-3.3,0.8-3.5,0.7
				c-0.2,0-0.3-0.4,0-0.7c0.3-0.3,2.6-3.1,2.6-3.1s0.2-0.2,0.5-0.1c0.3,0.1,0.4,0.9,0.6,0.8c0.2-0.1,0.8-1.4,0.9-1.9
				c0.1-0.5,0.1-1.4,0.3-1.5c0.2-0.1,1.9-0.1,1.9-0.1s0.1-1,0.5-1.5c0.4-0.5,1.4-0.8,2-0.4c0.5,0.5,0.5,1.6,0.1,2.1
				c-0.4,0.5-1.5,0.6-1.5,0.6s0.5,1.8,0.6,2.5c0.1,0.6,0.3,2.6,0.3,2.6s0.1,0.1,0.3,0c0.3,0,1.4-1,1.6-2.1c0.2-1.1,1.3-3.9,1-6.7
				c-0.3-2.8-0.4-3.2-0.6-3.4c-0.1-0.2-0.9-1.4-2.1-2.2c-1.2-0.8-4-2.2-7-4.8c-3-2.6-5.7-6.2-6.2-7.5c-0.5-1.3-0.2-1.1-0.2-1.1
				s0.8-0.3,1-0.3c0.2,0,5.9,0,5.9,0s0.5,0.1,0.6,0.3c0.1,0.2,1.6,3.9,6.1,5.5c4.5,1.7,6,1.9,6.9,1.9c1,0,1.1,0.1,1.3,0
				c0.2-0.2,1.5-3.7,2.6-3.8c1.1-0.1,1.7-0.5,2.7,0.2c1,0.6,2.1,2.7,3.3,3.5c1.2,0.8,2.2,1.9,3.4,1.9c1.2,0,0.9-0.4,1.1-0.6
				c0.2-0.3,0.7-1.6,1.4-2.3c0.7-0.6,2.3-1.6,2.3-1.6h3.4v0.8c0,0-1.9,1.3-2.8,3.2c-0.9,1.9-1.1,3.5-1.2,5c-0.1,1.5,0,3.5-0.4,4.5
				c-0.4,1-1.3,2.3-1.8,2.6c-0.5,0.3-1.3,0.7-1.3,0.7s-0.3,0.4,0.5,0.9c0.8,0.5,2.3,0.5,2.8,0.2c0.5-0.2,1.4-1,1.6-1.7
				c0.2-0.6,0.4-2.8,0.2-3.7c-0.2-0.9-1.6-5.5,1.1-8c2.6-2.5,5.6-3.4,6.6-3.7c1-0.2,4-0.3,4.9,0c0.9,0.3,2.1,1.1,2.1,1.1
				L474.3,292.7z M458,311.8c0,0-4.1,0.4-4.6-1.9c-0.5-2.6-0.4-3.2-0.2-3.6c0.2-0.4,1.2-1,1.4-1.7c0.2-0.7,0.1-5.7,0.1-5.7l-0.2-3.1
				c0,0-0.4-0.4-0.8-0.2c-0.4,0.2-1.1,0.9-1.4,2.7c-0.3,1.9-1.2,6.7-1,8.5c0.2,1.8,0.8,4.7,1.9,5.4c1,0.7,1.8,0.9,2.5,0.9
				c0.7,0,2.4-0.9,2.4-0.9l-0.3-0.5L458,311.8z M424.2,287.8l0.1,0.9c0,0,2.7,3.7,6.6,5.8c3.9,2.1,5.8,2.8,5.8,2.8s1.8,0.8,2.2-0.3
				c0.4-1.1-0.3-1.1-1.4-1.4c-1.1-0.3-4.9-1.5-6.9-3.4c-2-1.8-4.1-4.4-4.1-4.4H424.2"/>
			<path id="path2288_4_" class="st0" d="M350.7,155.7c-0.2-0.9-0.6-1.9-1.5-2.1c-1.1-0.4-1.9,0.4-2.1,1.3c0.2,1.1,0.4,2.1,1.5,2.5
				C349.9,157.8,350.7,156.5,350.7,155.7"/>
			<path id="path2290_4_" class="st0" d="M471.4,159.3c-2.5-8.6-5.9-17.5-8.7-26c-0.4-0.8,0.2-2.1,1.5-2.1c0.4,0,1.1,0,1.3-0.6
				l-0.4-0.4h-9.7l-0.4,0.4c1.5,0.6,3.8,1.3,4.6,3.4c2.3,7.4,5.7,14.8,7.2,22.6c-0.6,1.5-2.5-0.4-3,0.8
				C466.3,158,468.9,158.7,471.4,159.3"/>
			<path id="path2292_4_" class="st0" d="M421.3,159.1c-2.9-8.9-6.1-17.5-8.9-26.4c-0.2-0.8,0.9-1.7,1.5-1.9h1.1v-0.6
				c-3.4-0.2-7.2-0.4-10.4,0c0.6,1.1,2.3,0.8,3.4,1.7c3.6,7.4,5.9,15.8,8.7,23.9c0,0.6-0.6,1.1-1.3,1.1c-0.6,0-1.5-0.2-1.9,0.2
				C415.8,158,418.8,158.5,421.3,159.1"/>
			<path id="path2294_4_" class="st0" d="M441.2,158.2c-5.9-9.3-11-19.6-16.9-28.5c-0.4,0.2-1.1,0.2-1.3,0.8c4,8,9.5,16.2,13.9,24.5
				l-0.8,0.6c-4.2,0.2-8.7,0.2-10.7-3.4l-0.2,0.2l3.2,5.9c4,0.6,8.2,0.2,12.5,0.4L441.2,158.2"/>
			<path id="path2296_4_" class="st0" d="M385.4,146.4c0.2-1.3-0.2-2.5-1.5-2.3c-2.1,0-0.2,2.3-2.1,2.7c-4.4,0-6.5-5.1-7.6-8.5
				c-0.6-2.1-0.8-4.8,0.6-6.3c1.1-1.1,3-0.8,4.4-0.2c0.4,0.4,1.1,1.1,1.7,0.8c-0.2-1-1.1-2.3-2.3-3.2c-1.9-0.6-4.7-1.2-6.4,0.2
				c-1.7,2.1-2.1,4.2-1.5,7.4c0.6,4.6,4.2,9.1,8.7,10.8C381.4,148.3,384.4,148.5,385.4,146.4"/>
			<path id="path2298_4_" class="st0" d="M348.5,146.4c-1.5-4.7-3.8-9.5-5.3-13.7c0-0.4,0.2-1,0.8-0.8c1.7,0.8,2.7,2.1,4,3.4
				l0.4-0.6c-2.1-2.5-4.4-6.1-8.2-5.5l-0.6,1.5c1.2,4.6,4.2,8.9,5.5,14.1c-0.4,0.6-1.3,0.2-1.7-0.2c-0.4-0.4-0.8-0.9-1.5-0.9
				l-0.2,0.2c1.1,1.7,2.8,3.6,4.9,4C347.6,148.1,348.7,147.5,348.5,146.4"/>
			<path id="path2300_4_" class="st0" d="M358.4,146.4c0-1.7-1-3.2-0.6-4.4c3,2.5,5.7,7,10.1,5.7c1.3-1,0.8-3.2,0.2-4.4
				c-1.5-3.4-3.2-7.2-4.4-9.9c1.7-2.4,2.9,1.3,4.6,1.7c0.4-1.3-1-2.1-2.1-3.2c-1.5-1.5-3.6-2.9-5.5-2.5l-0.6,1.1
				c1.5,4.2,3.8,8.6,5.9,13.7c0.2,1.1-0.4,2.1-1.7,1.9c-4.2-2.3-6.9-7.4-9.1-11c-1.1-1.9-1.7-4.9-3.6-6.1c-0.6,0.2-1.5,0.8-1.3,1.5
				c1.7,3.8,4.7,8.5,5.5,13.7c-0.6,1.5-1.7-0.2-2.5-0.4c-0.2-0.4-0.6-1-1.1-1c0.4,1.9,1.9,4.2,3.8,5.3
				C357.4,148.3,358.4,147.5,358.4,146.4"/>
			<path id="path2302_4_" class="st0" d="M339.6,146.2c0-0.8-0.4-1.7-1.3-1.7c-1.5,0-2.3,2.9-4.2,1.2c-2.9-3.2,1.5-6.3,2.7-9.3
				c0.4-2.5-0.8-4-2.5-6.1c-1.7-1.3-4.4-2.5-6.3-1.1c-1.1,0.6-1.1,1.9-0.4,2.5c2.1,1.7,2.9-2.7,5.5-0.9c5,4.4-5.5,7.6-1.7,13.1
				c1.1,1.5,2.3,3.4,4.2,3.8C337.1,147.9,339.4,148.1,339.6,146.2"/>
			<path id="path2304_4_" class="st0" d="M458.5,158.7c-5.3-1.3-9.5-5.5-12-10.1c2.3,0.6,5.3,0.8,7-1.3c1.7-2.3,1.5-5.5,0.8-8.2
				c-1.1-3.8-3.6-6.8-7-8.9c-1.7-0.8-4.4-0.8-5.9,0.4c-3.4,3.6-3.4,6.3-2.3,11c2.1,8.5,10.1,17.1,19.2,17.7
				C458.5,159.3,458.5,158.9,458.5,158.7z M447.9,147.3c-1.3-0.2-2.3-0.6-3.4-1.5c-1.9-4.2-4.8-10.3-1.3-14.4
				c1.1-0.6,2.7-0.2,3.8,0.7c2.7,3.6,4.6,8.2,3.8,12.9C450.3,146,449.4,147.3,447.9,147.3"/>
			<path id="path2306_4_" class="st0" d="M398.5,146.2c0-1.5,0-3.4-1.5-4.7c-2.5-2.1-5.9-2.9-9.3-3.2c-1.3-2.1-1.1-3.8-0.2-5.9
				c1.1-1.5,3.6-1.5,5.1-0.4c0.8,0.2,1.5,1.7,2.1,1c-0.8-3-4-4-6.8-4.2c-1.7,0.2-3.6,1.1-4,2.8c-0.9,4.6,1.2,9.9,4.4,13.7
				C390.9,148.3,396.4,149.8,398.5,146.2z M393.9,147c-3.2-1.1-4.6-4.4-5.5-7c0.8-0.6,2.5,0,3.6,0.2c2.1,0.8,3.8,3,3.8,5.3
				C395.8,146.4,394.7,147,393.9,147"/>
		</g>
	</g>
	<line class="st0" x1="1.5" y1="144.6" x2="127.9" y2="144.6"/>
	<line class="st0" x1="192.1" y1="144.6" x2="318.5" y2="144.6"/>
</g>
</svg>
