<?xml version="1.0" encoding="utf-8"?>
<!-- Generator: Adobe Illustrator 24.2.0, SVG Export Plug-In . SVG Version: 6.00 Build 0)  -->
<svg version="1.1" id="Capa_1" xmlns="http://www.w3.org/2000/svg" xmlns:xlink="http://www.w3.org/1999/xlink" x="0px" y="0px"
	 viewBox="0 0 320 200" style="enable-background:new 0 0 320 200;" xml:space="preserve">
<style type="text/css">
	.st0{fill:#B2B2B2;}
</style>
<g>
	<path class="st0" d="M273.8,120.4c0,0,8.5,14.3,25.4,8.7c16.9-5.6,13.2-19.8,13.2-19.8l-7.6-7.7c0,0,1,12.3-9.8,18
		C284.3,125.2,273.8,120.4,273.8,120.4z"/>
	<path class="st0" d="M300.7,89.5h2.1c1,0,1.7-0.2,2.1-0.5c0.4-0.3,0.6-0.7,0.6-1.2c0-0.3-0.1-0.6-0.3-0.9c-0.2-0.3-0.4-0.5-0.7-0.6
		c-0.3-0.1-0.9-0.2-1.8-0.2h-2V89.5z M299,95.7V84.7h3.7c1.3,0,2.2,0.1,2.8,0.3c0.6,0.2,1,0.6,1.4,1.1c0.3,0.5,0.5,1,0.5,1.6
		c0,0.8-0.3,1.5-0.9,2.1c-0.6,0.6-1.3,0.9-2.3,1c0.4,0.2,0.7,0.4,0.9,0.6c0.4,0.4,1,1.2,1.6,2.2l1.3,2.1H306l-1-1.7
		c-0.8-1.4-1.4-2.2-1.8-2.6c-0.3-0.2-0.8-0.4-1.4-0.4h-1v4.6H299z M303.4,81.6c-1.4,0-2.8,0.4-4.1,1.1c-1.4,0.7-2.4,1.8-3.2,3.1
		c-0.8,1.4-1.1,2.8-1.1,4.3c0,1.5,0.4,2.9,1.1,4.2c0.8,1.3,1.8,2.4,3.1,3.1c1.3,0.7,2.7,1.1,4.2,1.1c1.4,0,2.8-0.4,4.2-1.1
		c1.3-0.8,2.4-1.8,3.1-3.1c0.7-1.3,1.1-2.7,1.1-4.2c0-1.5-0.4-2.9-1.1-4.3c-0.8-1.4-1.8-2.4-3.1-3.1
		C306.2,81.9,304.8,81.6,303.4,81.6 M303.4,79.9c1.7,0,3.3,0.4,5,1.3c1.6,0.9,2.9,2.1,3.8,3.8c0.9,1.6,1.3,3.3,1.3,5.1
		c0,1.7-0.4,3.4-1.3,5c-0.9,1.6-2.1,2.9-3.7,3.8c-1.6,0.9-3.3,1.3-5,1.3c-1.8,0-3.4-0.5-5-1.3c-1.6-0.9-2.8-2.2-3.7-3.8
		c-0.9-1.6-1.3-3.3-1.3-5c0-1.8,0.5-3.5,1.4-5.1c0.9-1.6,2.2-2.9,3.8-3.8C300.1,80.3,301.7,79.9,303.4,79.9"/>
	<path class="st0" d="M37.5,92.4c0,0,2.7-21.2,5.8-29.5c3.1-8.2,7.6-11.9,8.2-11.8c0.7,0.1,5.5-1.6,2.4-6.8
		c-3.1-5.2-6.6-4.6-9.5-2.3c-2.9,2.3-10.9,8.6-13.8,26.4c-2.9,17.7-3.2,17.3-3.7,24H11.5h-0.9c0,0-4.4-0.6-4.2,4.5
		c2.5,6.8,5.9,7.1,5.3,7.1c0,0,2.5,0.3,7.4,0c4.9-0.3,6.6-0.5,6.2,0.5c-0.4,1-3.3,16-4.9,19.7c-1.6,3.6-2.1,7.8-3.1,9.9
		c-1,2.1-2.1,2.8,0.3,6c2.4,3.2,5.2,7.4,9,1.2c3.9-10.5,5.2-17.3,5.6-18.8c0.4-1.4,3.4-16.6,3.6-18.3c0.1-1.3,0.8-1,1.3-1
		c0,0,10.6-0.1,10.9-0.1c0.3-0.1,6.6-1.2,3.3-6.7c-1.8-2.3-2.4-3.2-2.4-3.2s-0.4-0.9-3.3-0.8C42.8,92.4,37.5,92.4,37.5,92.4z"/>
	<path class="st0" d="M93.6,100.8c-0.5-9.9-7.2-17.5-14.8-20.9c-7.6-3.3-21.6,1-27.4,6.2c-3.5,5.5-2,6.9,0.9,10.9c2.9,4,6.8,1,6.9-1
		c0.1-2,2.2-2.6,2.2-2.6c6.5-2.7,7.5-4.5,14.2-4c9.8,1.4,8.3,15.1,8.3,15.1s0.2,0.9-0.6,0.7c-12.2-10.8-26.6-3.6-33.4,3.1
		c-6.7,6.8-3.5,16.6,4,20.1c7.5,3.5,17.4,1.9,24.5,1.5c7.2-0.4,6.8-3,6.8-3c4,1.8,6.4-1.1,7.3-6.3C93.4,115.6,94.1,110.7,93.6,100.8
		z M80.4,119c-2.3-0.4-2.7-0.5-3.7-0.3c-1,0.2-14.5,2.4-19.7-0.1c0,0,3-8.7,14.5-8.1c10.6,1,10.6,6.9,10.6,7.3
		C82,118.2,82.7,119.5,80.4,119z"/>
	<path class="st0" d="M95.6,84c0,0-0.9-4.5,4.8-4.6c4.4,1.2,5.6,6.7,5.6,6.7v14c0,0,0.1,1.2,0.6-0.3c0.6-1.5,9.6-17.7,11.2-19.6
		c1.7-1.9,4.2-5.5,8.3-1.4c4.1,4.1,3.5,5,3.8,6.2c0.3,1.2,7.1,29.7,8.5,32.3c1.4,2.6,7,14.1,7.8,15.4c0.8,1.2,1.7,0.3,2,0
		c0.3-0.3,3.2-0.5,4.1,1.7c0,0,0.9,1.9,1.7,2.5c0.8,0.6,3.2,4.8-1.9,7.2c-7.5,1.7-8.6-1.9-8.6-1.9s-13.4-12.4-20.5-47.3
		c0,0-0.3-1.7-1.2,0.5c-0.9,2.3-8.2,14.1-15.2,31.5c-5.6,10.7-11-3.6-11.1-4.7c-0.1-1.1,0-1.3,0-2.9C95.5,117.7,95.6,84,95.6,84z"/>
	<path class="st0" d="M147.3,79.7c0,0,0.5,2,3.3,1.9c2.8-0.1,27.9,0,27.9,0s1.9-0.1,2.9-1.9c1.5-1.9,2.5-2,3.6,0.5
		c1.1,2.5,5.6,13.2,5.6,13.8c0,0.6-0.1,2.5-2.5,0.4c-2.3-2.1-4.5-4.9-8.6-7.6c-4.1-2.7-8.3-2.6-9.5-0.8c-1.2,1.7-1.5,2.3-1.5,6.1
		c0,3.7-0.1,29.8-0.1,29.8s-0.5,4.8,4.2,5c4.7,0.1,6.4,0.1,6.5,2.1c0.1,2-2.6,1.7-2.8,1.7c-0.2,0-25.8,0-25.8,0s-2.3,0.5-2.3-1.9
		c0.1-2.5,2.6-1.8,2.6-1.8s8.3,0.6,8.2-6.1V91.8c0,0,0.5-5.6-1.4-6.8c-1.9-1.2-6.9-1-10.4,2.3c-3.5,3.3-7.4,7.1-7.4,7.1
		s-1.5,1.2-2.1-0.1c-0.6-1.2,1.4-5.1,1.6-5.9c0.3-0.8,3.9-8.8,3.9-8.8S145.3,76,147.3,79.7z"/>
	<path class="st0" d="M216.2,121.9c-1.2,0-2.1,1.8-2.1,2.4c-0.1,0.6-0.5,2.1-2.2,1.8c-1.7-0.3-1.4-2.8-1.4-2.8s0-16,0-19.4
		c0-3.4-3.2-5.5-11-6.4c-7.8-0.9-12.2,1.1-15.7,3.7c-3.5,2.6-2.5,5.9-1.8,7.5c0.7,1.6,5,2.8,7.6,1c2.5-1.9,1.9-5.1,1.1-6
		c-0.8-0.9,1.4-2.5,1.4-2.5c0.5-0.4,1.9-0.6,5.2-0.6c5.3,0.5,4.8,3.5,4.8,3.5l-0.1,6.1c-14.4,0.2-17.3,3.7-20.1,6.1
		c-2.8,2.5-2.8,12.1,6.7,14c9.9,1,13.2-4.9,13.5-5.7c0.3-0.8,0.7-0.3,0.7-0.3s-0.1,0.6-0.1,1.3c0.9,3.4,4.3,5,7.9,4.7
		c3.7-0.3,6.1-2.7,7.4-4.8C219.4,123.3,217.4,121.9,216.2,121.9z M201.8,118.3c-0.1,0.5-0.3,5.7-6.6,6.9c-5.4,0.3-6.4-5-6.3-5.4
		c0.1-0.3,0.1-6.3,8-6.8h5C201.8,113.1,201.9,117.9,201.8,118.3z"/>
	<path class="st0" d="M262.3,81.4C248,83.9,246,96.8,245.5,97.5c-0.5-0.1-1.2-0.1-1.2-0.1s-8.8-2.8-13,3.2c0,0-0.6,0.9-0.6-0.5
		c0.1-1.4,0.1-2.5,0.1-2.5s-0.3-1.7-2.2-0.5c-1.9,1.2-4.4,3.2-8.5,3.3c-2.1,0-3.6,0.1-3.6,0.1s-2.3-0.3-2.2,1.7
		c0.1,2,2.2,1.9,2.2,1.9h3.1c0,0,2.6,0,2.6,3c0,3,0,29.8,0,29.8s0.2,3.4-2.8,3.4c-3,0-3.7,0-3.7,0s-1.7,0-1.7,2.2c0,2.2,2,2,2,2
		h22.6c0,0,2,0.2,2-2.4c0-2.5-2.6-1.7-2.6-1.7h-3.5c0,0-3.7,0.5-3.7-4.5s0.1-9.7,0.1-9.7s-0.1-0.4,0.5,0.4c0.6,0.8,1.1,3.6,9.2,3.9
		c8.1,0.3,16.8-2.5,17.3-13.6c0.5-11.1-4.3-13.5-4.5-14.5c0.1-0.5,0.1-0.5,0.5-1.5c0.4-1,9.4-19.6,29.6-9.8
		C283.6,91.3,276.5,78.9,262.3,81.4z M240.4,127.6c-5.4,0-9.8-6.3-9.8-14c0-7.7,4.4-14,9.8-14c5.4,0,9.8,6.3,9.8,14
		C250.2,121.4,245.8,127.6,240.4,127.6z"/>
	<path class="st0" d="M283.9,91.6c0,0,2.8,4.1,2.8,10.2h-23.5c0,0,0.3,13.1,10.2,18c0,0-3.1-4.1-2.7-10.5h23.3
		C294.1,109.3,295.6,98.6,283.9,91.6z"/>
	<g>
		<path class="st0" d="M14.7,159.5v-12.9H25v2.2h-7.4v2.9h6.9v2.2h-6.9v3.5h7.7v2.2H14.7z"/>
		<path class="st0" d="M26.3,159.5l3.6-4.8l-3.5-4.5h3.2l1.8,2.6l1.9-2.6h3.1l-3.4,4.4l3.7,4.9h-3.2l-2-2.9l-2,2.9H26.3z"/>
		<path class="st0" d="M47,152.9l-2.6,0.4c-0.1-0.5-0.3-0.9-0.6-1.1c-0.3-0.2-0.7-0.4-1.2-0.4c-0.7,0-1.2,0.2-1.6,0.6
			c-0.4,0.4-0.6,1.1-0.6,2.1c0,1.1,0.2,1.9,0.6,2.3c0.4,0.5,0.9,0.7,1.6,0.7c0.5,0,0.9-0.1,1.2-0.4c0.3-0.3,0.5-0.7,0.7-1.4l2.6,0.4
			c-0.3,1.1-0.8,2-1.6,2.5c-0.8,0.6-1.8,0.9-3.1,0.9c-1.5,0-2.6-0.4-3.5-1.3c-0.9-0.9-1.3-2-1.3-3.6c0-1.5,0.4-2.7,1.3-3.6
			c0.9-0.9,2.1-1.3,3.5-1.3c1.2,0,2.2,0.2,2.9,0.7C46.2,151.2,46.7,151.9,47,152.9z"/>
		<path class="st0" d="M54.8,156.5l2.6,0.4c-0.3,0.9-0.9,1.6-1.6,2.1c-0.7,0.5-1.6,0.7-2.7,0.7c-1.7,0-3-0.5-3.9-1.6
			c-0.7-0.8-1-1.9-1-3.2c0-1.5,0.4-2.8,1.3-3.6c0.9-0.9,2-1.3,3.3-1.3c1.5,0,2.7,0.5,3.5,1.4c0.9,0.9,1.3,2.3,1.2,4.2H51
			c0,0.7,0.2,1.3,0.6,1.7c0.4,0.4,0.9,0.6,1.5,0.6c0.4,0,0.8-0.1,1-0.3C54.4,157.3,54.7,157,54.8,156.5z M55,154
			c0-0.7-0.2-1.3-0.6-1.6c-0.4-0.4-0.8-0.6-1.4-0.6c-0.6,0-1.1,0.2-1.4,0.6c-0.4,0.4-0.6,0.9-0.6,1.6H55z"/>
		<path class="st0" d="M59.7,159.5v-12.9h2.6v12.9H59.7z"/>
		<path class="st0" d="M70.9,156.5l2.6,0.4c-0.3,0.9-0.9,1.6-1.6,2.1c-0.7,0.5-1.6,0.7-2.7,0.7c-1.7,0-3-0.5-3.9-1.6
			c-0.7-0.8-1-1.9-1-3.2c0-1.5,0.4-2.8,1.3-3.6c0.9-0.9,2-1.3,3.3-1.3c1.5,0,2.7,0.5,3.5,1.4c0.9,0.9,1.3,2.3,1.2,4.2H67
			c0,0.7,0.2,1.3,0.6,1.7c0.4,0.4,0.9,0.6,1.5,0.6c0.4,0,0.8-0.1,1-0.3C70.5,157.3,70.7,157,70.9,156.5z M71,154
			c0-0.7-0.2-1.3-0.6-1.6c-0.4-0.4-0.8-0.6-1.4-0.6c-0.6,0-1.1,0.2-1.4,0.6c-0.4,0.4-0.6,0.9-0.6,1.6H71z"/>
		<path class="st0" d="M84.9,159.5h-2.6v-4.8c0-1-0.1-1.7-0.2-2c-0.1-0.3-0.3-0.5-0.5-0.7c-0.3-0.2-0.6-0.2-0.9-0.2
			c-0.5,0-0.9,0.1-1.2,0.3c-0.4,0.2-0.6,0.5-0.7,0.9c-0.1,0.4-0.2,1.1-0.2,2.1v4.2h-2.6v-9.3h2.5v1.4c0.9-1.1,2-1.6,3.3-1.6
			c0.6,0,1.1,0.1,1.6,0.3c0.5,0.2,0.9,0.4,1.1,0.8c0.2,0.3,0.4,0.7,0.5,1c0.1,0.4,0.1,0.9,0.1,1.7V159.5z"/>
		<path class="st0" d="M96.3,152.9l-2.6,0.4c-0.1-0.5-0.3-0.9-0.6-1.1c-0.3-0.2-0.7-0.4-1.2-0.4c-0.7,0-1.2,0.2-1.6,0.6
			c-0.4,0.4-0.6,1.1-0.6,2.1c0,1.1,0.2,1.9,0.6,2.3c0.4,0.5,0.9,0.7,1.6,0.7c0.5,0,0.9-0.1,1.2-0.4c0.3-0.3,0.5-0.7,0.7-1.4l2.6,0.4
			c-0.3,1.1-0.8,2-1.6,2.5c-0.8,0.6-1.8,0.9-3.1,0.9c-1.5,0-2.6-0.4-3.5-1.3c-0.9-0.9-1.3-2-1.3-3.6c0-1.5,0.4-2.7,1.3-3.6
			c0.9-0.9,2-1.3,3.5-1.3c1.2,0,2.2,0.2,2.9,0.7C95.5,151.2,96,151.9,96.3,152.9z"/>
		<path class="st0" d="M98.3,148.9v-2.3h2.6v2.3H98.3z M98.3,159.5v-9.3h2.6v9.3H98.3z"/>
		<path class="st0" d="M105.7,153l-2.4-0.4c0.3-0.9,0.7-1.6,1.4-2c0.7-0.4,1.6-0.6,2.9-0.6c1.2,0,2.1,0.1,2.6,0.4
			c0.6,0.3,1,0.6,1.2,1c0.2,0.4,0.4,1.1,0.4,2.2l0,2.9c0,0.8,0,1.4,0.1,1.8c0.1,0.4,0.2,0.8,0.5,1.2h-2.6c-0.1-0.2-0.2-0.4-0.3-0.7
			c0-0.1-0.1-0.2-0.1-0.3c-0.5,0.4-0.9,0.7-1.5,0.9c-0.5,0.2-1.1,0.3-1.6,0.3c-1,0-1.8-0.3-2.4-0.8c-0.6-0.5-0.9-1.2-0.9-2
			c0-0.5,0.1-1,0.4-1.4c0.3-0.4,0.6-0.7,1.1-0.9c0.5-0.2,1.2-0.4,2.1-0.6c1.2-0.2,2.1-0.4,2.6-0.6v-0.2c0-0.5-0.1-0.8-0.4-1
			c-0.2-0.2-0.7-0.3-1.4-0.3c-0.5,0-0.8,0.1-1.1,0.3C106,152.3,105.8,152.6,105.7,153z M109.2,155c-0.3,0.1-0.9,0.2-1.6,0.4
			c-0.7,0.1-1.2,0.3-1.4,0.4c-0.3,0.2-0.5,0.5-0.5,0.9c0,0.3,0.1,0.6,0.4,0.9c0.3,0.3,0.6,0.4,1.1,0.4c0.5,0,0.9-0.1,1.4-0.4
			c0.3-0.2,0.5-0.5,0.6-0.8c0.1-0.2,0.1-0.6,0.1-1.2V155z"/>
		<path class="st0" d="M131.5,159.5h-3l-1.2-2.9h-5.5l-1.1,2.9h-3l5.4-12.9h3L131.5,159.5z M126.4,154.4l-1.9-4.8l-1.9,4.8H126.4z"
			/>
		<path class="st0" d="M139.6,159.5v-1.4c-0.4,0.5-0.8,0.9-1.4,1.2c-0.6,0.3-1.2,0.4-1.9,0.4c-0.7,0-1.3-0.1-1.8-0.4
			c-0.5-0.3-0.9-0.7-1.2-1.2c-0.2-0.5-0.4-1.2-0.4-2.1v-5.9h2.6v4.3c0,1.3,0.1,2.1,0.1,2.4c0.1,0.3,0.3,0.5,0.5,0.7
			c0.3,0.2,0.6,0.3,1,0.3c0.5,0,0.9-0.1,1.2-0.3c0.4-0.2,0.6-0.5,0.7-0.9c0.1-0.3,0.2-1.2,0.2-2.5v-3.9h2.7v9.3H139.6z"/>
		<path class="st0" d="M149.3,150.2v2h-1.8v3.7c0,0.8,0,1.2,0.1,1.3c0,0.1,0.1,0.2,0.2,0.3c0.1,0.1,0.3,0.1,0.4,0.1
			c0.2,0,0.6-0.1,1.1-0.2l0.2,1.9c-0.6,0.2-1.3,0.4-2.1,0.4c-0.5,0-0.9-0.1-1.3-0.2c-0.4-0.1-0.7-0.3-0.8-0.6
			c-0.2-0.2-0.3-0.6-0.4-1c-0.1-0.3-0.1-0.9-0.1-1.7v-4.1h-1.2v-2h1.2v-1.9l2.7-1.4v3.3H149.3z"/>
		<path class="st0" d="M150.6,154.7c0-0.8,0.2-1.6,0.6-2.4c0.4-0.8,1.1-1.4,1.8-1.8c0.8-0.4,1.7-0.6,2.7-0.6c1.5,0,2.8,0.5,3.7,1.4
			c1,0.9,1.4,2.1,1.4,3.5c0,1.4-0.5,2.6-1.5,3.5c-1,0.9-2.2,1.4-3.7,1.4c-0.9,0-1.8-0.2-2.6-0.6c-0.8-0.4-1.5-0.9-1.9-1.7
			C150.8,156.7,150.6,155.7,150.6,154.7z M153.3,154.8c0,0.9,0.2,1.6,0.7,2.1c0.5,0.5,1.1,0.7,1.7,0.7c0.7,0,1.3-0.2,1.7-0.7
			c0.5-0.5,0.7-1.2,0.7-2.1c0-0.9-0.2-1.6-0.7-2.1c-0.5-0.5-1-0.7-1.7-0.7c-0.7,0-1.3,0.2-1.7,0.7
			C153.5,153.2,153.3,153.9,153.3,154.8z"/>
		<path class="st0" d="M164.9,153l-2.4-0.4c0.3-0.9,0.7-1.6,1.4-2c0.7-0.4,1.6-0.6,2.9-0.6c1.2,0,2.1,0.1,2.6,0.4
			c0.6,0.3,1,0.6,1.2,1c0.2,0.4,0.3,1.1,0.3,2.2l0,2.9c0,0.8,0,1.4,0.1,1.8c0.1,0.4,0.2,0.8,0.5,1.2H169c-0.1-0.2-0.2-0.4-0.3-0.7
			c0-0.1-0.1-0.2-0.1-0.3c-0.5,0.4-0.9,0.7-1.5,0.9c-0.5,0.2-1.1,0.3-1.6,0.3c-1,0-1.8-0.3-2.4-0.8c-0.6-0.5-0.9-1.2-0.9-2
			c0-0.5,0.1-1,0.4-1.4c0.3-0.4,0.7-0.7,1.1-0.9c0.5-0.2,1.2-0.4,2.1-0.6c1.2-0.2,2.1-0.4,2.6-0.6v-0.2c0-0.5-0.1-0.8-0.4-1
			c-0.3-0.2-0.7-0.3-1.4-0.3c-0.5,0-0.8,0.1-1.1,0.3C165.3,152.3,165.1,152.6,164.9,153z M168.5,155c-0.3,0.1-0.9,0.2-1.6,0.4
			c-0.7,0.1-1.2,0.3-1.4,0.4c-0.3,0.2-0.5,0.5-0.5,0.9c0,0.3,0.1,0.6,0.4,0.9c0.3,0.3,0.6,0.4,1.1,0.4c0.5,0,0.9-0.1,1.4-0.4
			c0.3-0.2,0.5-0.5,0.6-0.8c0.1-0.2,0.1-0.6,0.1-1.2V155z"/>
		<path class="st0" d="M182.8,159.5h-2.5v-1.4c-0.4,0.5-0.9,0.9-1.4,1.2c-0.6,0.3-1.1,0.4-1.7,0.4c-1.1,0-2.1-0.4-2.9-1.3
			c-0.8-0.9-1.2-2.1-1.2-3.6c0-1.6,0.4-2.8,1.2-3.6c0.8-0.8,1.8-1.2,3-1.2c1.1,0,2.1,0.4,2.9,1.3v-4.6h2.6V159.5z M175.8,154.6
			c0,1,0.1,1.7,0.4,2.2c0.4,0.6,1,1,1.8,1c0.6,0,1.1-0.2,1.6-0.7c0.4-0.5,0.6-1.2,0.6-2.2c0-1.1-0.2-1.8-0.6-2.3
			c-0.4-0.5-0.9-0.7-1.6-0.7c-0.6,0-1.2,0.2-1.6,0.7C176,153,175.8,153.7,175.8,154.6z"/>
		<path class="st0" d="M188.1,146.6v4.7c0.9-0.9,1.9-1.4,3.1-1.4c0.6,0,1.2,0.1,1.6,0.3c0.5,0.2,0.9,0.5,1.1,0.8
			c0.2,0.3,0.4,0.7,0.5,1.1c0.1,0.4,0.1,1,0.1,1.8v5.5h-2.6v-4.9c0-1-0.1-1.6-0.2-1.9c-0.1-0.3-0.3-0.5-0.5-0.6
			c-0.3-0.2-0.6-0.2-1-0.2c-0.4,0-0.8,0.1-1.2,0.3c-0.4,0.2-0.6,0.5-0.8,0.9c-0.2,0.4-0.2,1-0.2,1.8v4.7h-2.6v-12.9H188.1z"/>
		<path class="st0" d="M203,156.5l2.6,0.4c-0.3,0.9-0.9,1.6-1.6,2.1c-0.7,0.5-1.6,0.7-2.7,0.7c-1.7,0-3-0.5-3.9-1.6
			c-0.7-0.8-1-1.9-1-3.2c0-1.5,0.4-2.8,1.3-3.6c0.9-0.9,2-1.3,3.3-1.3c1.5,0,2.7,0.5,3.5,1.4c0.9,0.9,1.3,2.3,1.2,4.2h-6.6
			c0,0.7,0.2,1.3,0.6,1.7c0.4,0.4,0.9,0.6,1.5,0.6c0.4,0,0.8-0.1,1-0.3C202.7,157.3,202.9,157,203,156.5z M203.2,154
			c0-0.7-0.2-1.3-0.6-1.6c-0.4-0.4-0.8-0.6-1.4-0.6c-0.6,0-1.1,0.2-1.4,0.6c-0.4,0.4-0.6,0.9-0.6,1.6H203.2z"/>
		<path class="st0" d="M207,156.8l2.7-0.4c0.1,0.5,0.3,0.8,0.7,1.1c0.3,0.2,0.8,0.4,1.4,0.4c0.7,0,1.2-0.1,1.5-0.4
			c0.2-0.2,0.3-0.4,0.3-0.7c0-0.2-0.1-0.3-0.2-0.5c-0.1-0.1-0.4-0.2-0.9-0.3c-2.1-0.4-3.5-0.8-4.1-1.2c-0.8-0.5-1.2-1.2-1.2-2.1
			c0-0.8,0.3-1.5,1-2c0.7-0.6,1.8-0.8,3.2-0.8c1.4,0,2.4,0.2,3,0.6c0.7,0.4,1.1,1,1.4,1.8l-2.5,0.4c-0.1-0.4-0.3-0.6-0.6-0.8
			c-0.3-0.2-0.7-0.3-1.3-0.3c-0.7,0-1.2,0.1-1.5,0.3c-0.2,0.1-0.3,0.3-0.3,0.5c0,0.2,0.1,0.3,0.3,0.4c0.2,0.2,1.1,0.4,2.5,0.7
			c1.4,0.3,2.4,0.7,2.9,1.1c0.6,0.4,0.8,1,0.8,1.8c0,0.9-0.4,1.6-1.2,2.2c-0.8,0.6-1.9,0.9-3.4,0.9c-1.4,0-2.4-0.3-3.2-0.8
			C207.8,158.4,207.3,157.7,207,156.8z"/>
		<path class="st0" d="M218.7,148.9v-2.3h2.6v2.3H218.7z M218.7,159.5v-9.3h2.6v9.3H218.7z"/>
		<path class="st0" d="M226.8,159.5l-4-9.3h2.8l1.9,4.8l0.5,1.6c0.1-0.4,0.2-0.7,0.3-0.8c0.1-0.3,0.2-0.5,0.3-0.8l1.9-4.8h2.7
			l-4,9.3H226.8z"/>
		<path class="st0" d="M236.7,153l-2.4-0.4c0.3-0.9,0.7-1.6,1.4-2c0.7-0.4,1.6-0.6,2.9-0.6c1.2,0,2.1,0.1,2.6,0.4
			c0.6,0.3,1,0.6,1.2,1c0.2,0.4,0.4,1.1,0.4,2.2l0,2.9c0,0.8,0,1.4,0.1,1.8c0.1,0.4,0.2,0.8,0.5,1.2h-2.6c-0.1-0.2-0.2-0.4-0.3-0.7
			c0-0.1-0.1-0.2-0.1-0.3c-0.5,0.4-0.9,0.7-1.5,0.9c-0.5,0.2-1.1,0.3-1.6,0.3c-1,0-1.8-0.3-2.4-0.8c-0.6-0.5-0.9-1.2-0.9-2
			c0-0.5,0.1-1,0.4-1.4c0.3-0.4,0.6-0.7,1.1-0.9c0.5-0.2,1.2-0.4,2.1-0.6c1.2-0.2,2.1-0.4,2.6-0.6v-0.2c0-0.5-0.1-0.8-0.4-1
			c-0.3-0.2-0.7-0.3-1.4-0.3c-0.5,0-0.8,0.1-1.1,0.3C237.1,152.3,236.9,152.6,236.7,153z M240.3,155c-0.3,0.1-0.9,0.2-1.6,0.4
			c-0.7,0.1-1.2,0.3-1.4,0.4c-0.3,0.2-0.5,0.5-0.5,0.9c0,0.3,0.1,0.6,0.4,0.9c0.3,0.3,0.6,0.4,1,0.4c0.5,0,0.9-0.1,1.4-0.4
			c0.3-0.2,0.5-0.5,0.6-0.8c0.1-0.2,0.1-0.6,0.1-1.2V155z"/>
	</g>
</g>
</svg>
