<?xml version="1.0" encoding="utf-8"?>
<!-- Generator: Adobe Illustrator 24.2.0, SVG Export Plug-In . SVG Version: 6.00 Build 0)  -->
<svg version="1.1" id="Capa_1" xmlns="http://www.w3.org/2000/svg" xmlns:xlink="http://www.w3.org/1999/xlink" x="0px" y="0px"
	 viewBox="0 0 320 200" style="enable-background:new 0 0 320 200;" xml:space="preserve">
<style type="text/css">
	.st0{fill:#B2B2B2;}
</style>
<g>
	<path class="st0" d="M303.4,118.8h1.4c0.7,0,1.2-0.1,1.4-0.3c0.3-0.2,0.4-0.5,0.4-0.8c0-0.2-0.1-0.4-0.2-0.6
		c-0.1-0.2-0.3-0.3-0.5-0.4c-0.2-0.1-0.6-0.1-1.2-0.1h-1.3V118.8z M302.2,123v-7.4h2.5c0.9,0,1.5,0.1,1.9,0.2
		c0.4,0.1,0.7,0.4,0.9,0.7c0.2,0.3,0.3,0.7,0.3,1.1c0,0.5-0.2,1-0.6,1.4c-0.4,0.4-0.9,0.6-1.5,0.7c0.3,0.1,0.5,0.2,0.6,0.4
		c0.3,0.3,0.7,0.8,1.1,1.5l0.9,1.4h-1.4l-0.7-1.2c-0.5-0.9-0.9-1.5-1.2-1.7c-0.2-0.1-0.5-0.2-0.9-0.2h-0.7v3.1H302.2z M305.2,113.5
		c-1,0-1.9,0.3-2.8,0.7c-0.9,0.5-1.6,1.2-2.1,2.1c-0.5,0.9-0.8,1.9-0.8,2.9c0,1,0.3,1.9,0.8,2.8c0.5,0.9,1.2,1.6,2.1,2.1
		c0.9,0.5,1.8,0.8,2.8,0.8c1,0,1.9-0.3,2.8-0.8c0.9-0.5,1.6-1.2,2.1-2.1c0.5-0.9,0.8-1.9,0.8-2.8c0-1-0.3-1.9-0.8-2.9
		c-0.5-0.9-1.2-1.6-2.1-2.1C307.1,113.7,306.1,113.5,305.2,113.5 M305.2,112.4c1.1,0,2.3,0.3,3.3,0.9c1.1,0.6,1.9,1.4,2.6,2.5
		c0.6,1.1,0.9,2.2,0.9,3.4c0,1.2-0.3,2.3-0.9,3.4c-0.6,1.1-1.4,1.9-2.5,2.5c-1.1,0.6-2.2,0.9-3.4,0.9c-1.2,0-2.3-0.3-3.4-0.9
		c-1.1-0.6-1.9-1.5-2.5-2.5c-0.6-1.1-0.9-2.2-0.9-3.4c0-1.2,0.3-2.3,0.9-3.4c0.6-1.1,1.5-1.9,2.6-2.5
		C302.9,112.6,304,112.4,305.2,112.4"/>
	<path class="st0" d="M274.2,96.8c5.7,2.2,8,4.2,8,7.5c0,3.6-2.6,5.9-7.6,5.9c-4.6,0-9.2-1.7-12-3.3l-0.5,2.1
		c10.2,2,18.9,4.1,26.3,6.3c3.2-3,4.7-7.2,4.7-11.7c0-7.6-3.9-12.6-12.3-16.1c-6.2-2.7-8.9-4.2-8.9-7.6c0-2.7,2.3-5.2,7-5.2
		c4.6,0,8.1,1.5,9.9,2.6l2.4-9.7c-2.8-1.5-6.7-2.7-12.2-2.7c-11.2,0-18.1,6.9-18.1,16.1C261,88.7,266.2,93.6,274.2,96.8z"/>
	<g>
		<path class="st0" d="M235.2,104.6v-9.8h17.6v-9.9h-17.6v-9.4h18.7v-10h-29.5v37.7C228.2,103.7,231.7,104.1,235.2,104.6z"/>
	</g>
	<g>
		<path class="st0" d="M174.1,100l0.1-1.2c0.3-6.7,0.6-15,0.8-22.2h0.1c1.2,7.1,2.8,14.7,4.3,21l0.6,2.5c3,0.1,6.1,0.2,9,0.4
			c-1-5.7-2.3-11.5-3.7-17l-4.7-18h-14.4l-2,34.2C167.7,99.8,170.9,99.9,174.1,100z"/>
		<path class="st0" d="M197.8,101l1-3.6c1.8-6.3,3.8-13.9,5.4-20.8h0.1c0,7.9,0.2,15.6,0.4,22l0.1,2.8c3.5,0.3,7,0.5,10.4,0.8
			l-1.7-36.8h-14.2l-5,17.8c-1.5,5.4-2.9,11.5-4.1,17.2C192.7,100.7,195.3,100.9,197.8,101z"/>
	</g>
	<g>
		<path class="st0" d="M153.7,99.7c0.4,0,0.8,0,1.2,0V65.6H145v15.6c0,6.7,0.2,12.7,0.6,18.6C148.2,99.8,150.9,99.7,153.7,99.7z"/>
		<path class="st0" d="M125.2,100.4c0-7.6-0.2-14.4-0.5-20.9h0.3c2.3,6.3,5.5,13.1,8.3,19l0.8,1.5c3.3-0.1,6.7-0.2,10.1-0.3
			c-1.9-5-4.1-10.1-6.4-14.6L128,65.6h-12.6V101C118.6,100.8,121.9,100.6,125.2,100.4z"/>
	</g>
	<g>
		<path class="st0" d="M88.3,103.7v-8.9h17.6v-9.9H88.3v-9.4h18.7v-10H77.5v39.6C80.9,104.7,84.6,104.2,88.3,103.7z"/>
	</g>
	<g>
		<path class="st0" d="M51.1,98h7.4v10.6c3.3-0.7,6.8-1.3,10.4-2V88.5H51.1V98z"/>
		<path class="st0" d="M35.2,114.3c5.1-1.5,10.8-2.9,17-4.3c-8.3-0.5-14.1-6.8-14.1-17.6C38.1,80.8,45,75,54,75
			c5.2,0,8.4,1,11.1,2.3l2.3-9.8C65,66.4,60.3,65,54.1,65c-15.7,0-27.2,10.2-27.3,28c0,7.9,2.4,14.9,6.7,19.6
			C34.1,113.2,34.6,113.7,35.2,114.3z"/>
	</g>
	<g>
		<path class="st0" d="M1.5,135.3c0,0,47.8-27.9,152.2-27.9c122.3,0,164.8,27.9,164.8,27.9H1.5z"/>
	</g>
</g>
</svg>
