<?xml version="1.0" encoding="utf-8"?>
<!-- Generator: Adobe Illustrator 24.2.0, SVG Export Plug-In . SVG Version: 6.00 Build 0)  -->
<svg version="1.1" id="Capa_1" xmlns="http://www.w3.org/2000/svg" xmlns:xlink="http://www.w3.org/1999/xlink" x="0px" y="0px"
	 viewBox="0 0 320 200" style="enable-background:new 0 0 320 200;" xml:space="preserve">
<style type="text/css">
	.st0{fill-rule:evenodd;clip-rule:evenodd;fill:#B2B2B2;}
</style>
<g>
	<path class="st0" d="M157.9,113L157.9,113h-27.3l1.9-7h24.2l3.8-15.3h-24.2l1.3-6.4h26.1l3.8-15.3H116l-15.6,59.1h54.1L157.9,113z"
		/>
	<path class="st0" d="M19.3,69.1L4.5,128.3h21.9l14.3-59.2H19.3L19.3,69.1z M79,98.4c-1.9,5.7-3.2,10.2-5.7,12.7
		c-2.5,2.5-5.1,3.8-9.5,3.8h-2.5l7.6-33.1h2.5c4.5,0,7,1.3,8.3,3.8C80.9,88.2,80.2,92.6,79,98.4L79,98.4z M107.6,92.6
		c1.9-14-5.7-23.5-29.2-23.5H45.9l-14.6,59.1H65c19.1,0,34.5-9.2,40.1-23.5C107,99.7,107.6,92.6,107.6,92.6z"/>
	<path class="st0" d="M295.2,120.7c0-5.7,4.5-10.2,10.2-10.2c5.7,0,10.2,4.5,10.2,10.2c0,5.7-4.5,10.2-10.2,10.2
		C299.6,130.9,295.2,126.4,295.2,120.7L295.2,120.7z M313.6,120.7c0-4.5-3.8-8.3-8.3-8.3c-4.5,0-8.3,3.8-8.3,8.3
		c0,4.5,3.8,8.3,8.3,8.3C309.8,129,313.6,125.2,313.6,120.7L313.6,120.7z M310.4,126.4h-2.5l-2.5-5.1h-1.9v5.1h-1.9V115h5.1
		c0.6,0,1.9,0,3.2,0.6c0.6,0.6,1.3,1.9,1.3,3.2c0,1.9-1.3,2.5-3.2,2.5L310.4,126.4L310.4,126.4z M306.6,120.1c1.3,0,1.9-0.6,1.9-1.9
		c0-1.3-1.3-1.3-2.5-1.3h-2.5v3.2H306.6L306.6,120.1z"/>
	<path class="st0" d="M164.7,113 M226.4,69.1h-35l-35.6,59.1h25.5l5.1-9.5h19.7v9.5h28L226.4,69.1z M107.2,128.3 M204.8,104.1h-11.4
		l11.4-22.3l0,0V104.1L204.8,104.1z"/>
	<path class="st0" d="M168.4,113 M235.5,128.3h51.8l3.8-15.9h-24.8l10.2-43.2h-26.7L235.5,128.3z M110.8,128.3"/>
</g>
</svg>
