<?xml version="1.0" encoding="utf-8"?>
<!-- Generator: Adobe Illustrator 24.2.0, SVG Export Plug-In . SVG Version: 6.00 Build 0)  -->
<svg version="1.1" id="Capa_1" xmlns="http://www.w3.org/2000/svg" xmlns:xlink="http://www.w3.org/1999/xlink" x="0px" y="0px"
	 viewBox="0 0 320 200" style="enable-background:new 0 0 320 200;" xml:space="preserve">
<style type="text/css">
	.st0{fill:#B2B2B2;}
	.st1{opacity:0.68;fill:#B2B2B2;}
	.st2{opacity:0.51;fill:#B2B2B2;}
</style>
<g>
	<g>
		<path class="st0" d="M10.3,166.9L4,162.3c0,0-1.1-0.9,0-3.2c0,0,20.5-27.4,22.8-66.9c0,0,2.6-16.3-4.1-44.8c0,0-0.8-1.5,0.5-2.2
			l4.1-0.7c0,0,4.3,9,6.8,29.4c0,0,3.9,21.2-4.2,51C29.8,124.9,25.8,144.6,10.3,166.9z"/>
		<path class="st0" d="M16,165.6c0,0-0.9,0.8,0.3,0.7c0,0,31-4.7,37.6-34.4c0,0,4.1-18.8,3.2-42.2l25.9,42.3c0,0,3.1,7.9,13.1,5.3
			c0,0,9.4-1.5,9.9-6c0,0-0.2-17.6-4.6-37c0,0-2.2-12.3-9.6-19.1c0,0-6.1-6.7-11.8-8.7c0,0,8.6,19.3,10.7,37
			c0,0-28.6-35.8-36.1-44.5c0,0-7.9-9.6-21.6-14.5c0,0-2.2-0.6-0.5,2.1c0,0,12.8,30.7,3.3,71.8C36,118.4,30.6,144.6,16,165.6z"/>
		<path class="st1" d="M17.8,165.3c0,0,19.8-12.5,29.2-38.9c0,0,9-21.9,10.2-33.4c0,0,0.5,13.9-2.3,33.4c0,0-1.3,24.2-24.7,35.2
			c0,0-9.9,4.4-13.9,4.8L17.8,165.3z"/>
		<path class="st1" d="M35.6,55.7c0,0,9.4,2,39.2,27.7c0,0-19.9-24.9-22.1-26.7c-1.6-1.3-6.6-7.2-19.1-12c0,0-2.1-0.9-1.2,1.3
			C32.4,46.1,33.9,48.8,35.6,55.7z"/>
		<path class="st0" d="M52.6,56.7"/>
		<path class="st2" d="M40.5,94.2c0,0,10.7-22.4,12.2-37.5c2.4,1.9,28.5,34.6,28.5,34.6l7.3,22.5c0,0,4.9-7.5,3.6-38.5
			c0,0,7.5,5.7,10.2,21.9c0,0,0.6,17.7-4,39.8l-3.4,0.7c0,0-7.9,1.9-11.6-5.6c-0.4-0.7-0.8-1.1-1.2-2L57.2,89.8
			c0,0,0.4,7.1-0.2,17.9c0,0-17.7,32.2-28.7,35.1c0,0,9.7-21.8,11-46.6L40.5,94.2z"/>
	</g>
	<path class="st0" d="M155.2,110.3c-0.1-21.2-23-20.5-23-20.5c-22.2-0.6-23.7,16.5-23.7,16.5c-2.1,11.7,2,17.8,2,17.8
		c6.7,13.7,26.9,10,26.9,10C157.8,130.7,155.2,110.3,155.2,110.3z M132.5,125.6c0,0-13.7,2.3-10.7-17.8v-0.4c0,0,1-8.2,7.9-8.4
		c0,0,9.6-1.5,11.4,7.2C141.2,106.1,145.3,125.6,132.5,125.6z"/>
	<path class="st0" d="M159.3,131.2c0,0,0.3,2,1.7,2.3h9.6c0,0,2.3-0.4,2.2-2.3l0-21.9c0,0-0.3-7.4,7.8-8.1h6.2c0,0,5.1,1.4,5.8-2
		v-6.4c0,0-0.3-2.7-3.8-2.2c0,0-8.2-0.7-16,5.3l-0.1-2.9c0,0,0.3-1.9-2.1-2.5h-9.3c0,0-2,0.1-2,2.4V131.2z"/>
	<path class="st0" d="M196.7,131.4c0,0,0.4,2,2.3,2.1h8.8c0,0,2.3,0.3,2.3-2.1v-26.5c0,0,3.4-6.4,9.3-5.6c0,0,6-0.1,6,5.7v27
		c0,0,0.9,1.4,2,1.5h9.2c0,0,2,0,2.4-2v-26.8c0,0,3.1-6.1,10.2-5.5c0,0,4.9,0.7,5,5v27.7c0,0,0.4,1.6,2.3,1.6h9.1c0,0,1.8-0.2,2-1.9
		v-27.2c0,0,0.3-12.5-14.9-14.4c0,0-7.8-1.7-16.4,7.3c0,0-4.3-8.2-16.5-7.5c0,0-5.9,1.1-9.4,5.6l-0.5-2.9c0,0,0.3-1.7-2.5-2h-8.7
		c0,0-2.3,0.7-2,3V131.4z"/>
	<path class="st0" d="M298.6,89.9c0,0-22.8-2.4-23.9,10.7c0,0-0.6,2.4,1.3,2.8h8.2c0,0,1.7,0,2-1c0,0,1.1-3.6,7.6-3.5
		c0,0,8.2-1.3,9.3,5.1v3.2h-14.5c0,0-15.8-0.7-16.8,12.2c0,0-1.7,10.3,10.2,14.1c0,0,10.2,2.8,18-1.1c0,0,3.6-2.2,4.2-2.6v1.9
		c0,0,0.7,2,2.3,1.7l8.1,0.2c0,0,2-0.8,1.9-2.4l0-25.8C316.5,105.5,316.8,91,298.6,89.9z M303,116v6.1c-5.2,2.6-8.3,3-8.3,3
		c-9.1,1.8-9.7-3.6-9.7-3.6c-0.4-6.1,5.8-5.7,5.8-5.7H303V116z"/>
	<path class="st0" d="M92.2,88.4c0,0-3.9-5.7-6.9-8.4l-4.7-12.5c0,0-1.2-1.9,0.5-0.8c0,0,4.8,2.1,10.9,8.5
		C92,75.3,92.4,85.1,92.2,88.4z"/>
</g>
</svg>
