<?xml version="1.0" encoding="utf-8"?>
<!-- Generator: Adobe Illustrator 24.2.0, SVG Export Plug-In . SVG Version: 6.00 Build 0)  -->
<svg version="1.1" id="Capa_1" xmlns="http://www.w3.org/2000/svg" xmlns:xlink="http://www.w3.org/1999/xlink" x="0px" y="0px"
	 viewBox="0 0 320 200" style="enable-background:new 0 0 320 200;" xml:space="preserve">
<style type="text/css">
	.st0{fill:#B2B2B2;}
	.st1{fill-rule:evenodd;clip-rule:evenodd;fill:#B2B2B2;}
</style>
<g>
	<path class="st0" d="M93.2,106.9h5.4V91.4h3.7c6.8,0,13.1-3.4,13.1-11.7c0.1-8.1-6.2-11.6-14-11.6h-8.2V106.9z M98.6,73.1h3
		c3.3,0,8.3,0.9,8.3,6.6c0,5.8-4.2,6.8-7.6,6.8h-3.8V73.1z"/>
	<path class="st0" d="M120.5,68.1v38.9h5.4V89.9h1.3c2.8,0,4.8,1.1,9.8,9.1l5,8h6.3c-2.6-3.7-4.9-7.7-4.9-7.7s-4.8-8.4-8.2-10.8
		c4-1.6,6.3-5,6.3-9.5c0-6.7-4.8-10.9-12.4-10.9H120.5z M126,72.8h2.5c5.2,0,7.3,2.2,7.4,5.9c0.1,3.3-1.6,6.3-7.4,6.3H126V72.8z"/>
	<polygon class="st0" points="150.9,68.2 168.8,68.2 168.8,72.9 156.3,72.9 156.3,84.4 167.4,84.4 167.4,89.1 156.3,89.1 156.3,102 
		168.8,102 168.8,106.9 150.9,106.9 	"/>
	<path class="st0" d="M200.7,74.6c-2.4-1.4-4.8-2.2-7.6-2.2c-8.7,0-14,6.5-14,15.2c0,9.1,5.9,15.2,13.7,15.2c2.7,0,6.1-0.8,8-2
		l0.3,5.4c-2.9,1.2-6.2,1.4-8.4,1.4c-11.9,0-19.2-7.9-19.2-20.2c0-12,7.8-19.9,19.3-19.9c2.9,0,5.6,0.4,8.3,1.7L200.7,74.6z"/>
	<rect x="207.7" y="68.2" class="st0" width="5.4" height="38.8"/>
	<path class="st0" d="M220.2,87.6c0,11.8,6,20.1,17.5,20.1c11.4,0,17.5-8.3,17.5-20.1c0-11.5-6.1-20.1-17.5-20.1
		C226.3,67.5,220.2,76.1,220.2,87.6 M225.7,87.6c0-7.9,3.7-15.3,11.9-15.2c8.3,0,12,7.3,12,15.2c0,7.7-3.3,15.2-12,15.2
		S225.7,95.3,225.7,87.6"/>
	<path class="st0" d="M278.4,74c-2.8-1.1-4-1.8-6.7-1.8c-3,0-6.3,1.3-6.3,5.4c0,7.4,16.2,6,16.2,18.5c0,8.3-6.2,11.6-13.7,11.6
		c-2.6,0-4.8-0.8-7.3-1.6l0.5-5.2c1.8,0.8,4.7,1.9,7.4,1.9c3.5,0,7.3-1.8,7.4-6.3c0.2-9.1-16.2-7.7-16.2-18.3
		c0-6.9,5.1-10.6,11.9-10.6c2.5,0,5,0.4,7.6,1.4L278.4,74z"/>
	<path class="st0" d="M283.3,106.9h5.5l3.4-9.8h16.8l3.4,9.8h5.7l-14.5-38.8H298L283.3,106.9z M307.3,92.6H294l6.7-19.2L307.3,92.6z
		"/>
	<path class="st1" d="M43.8,81.2l2.7-21.6c-8.9,0-17,2.6-23.1,7L43.8,81.2z"/>
	<path class="st1" d="M49.3,81.2l20.5-14.6c-6.2-4.3-14.3-6.9-23.1-7L49.3,81.2z"/>
	<path class="st1" d="M53.7,84.7l27.9,2.7c0-8.2-4.6-15.6-11.7-20.7L53.7,84.7z"/>
	<path class="st1" d="M49.3,93.7l-2.7,21.6c8.9,0,17-2.6,23.2-7L49.3,93.7z"/>
	<path class="st1" d="M69.9,108.2c7.2-5.1,11.7-12.4,11.7-20.7l-27.9,2.7L69.9,108.2z"/>
	<path class="st1" d="M39.3,84.7l-16.2-18c-7.2,5.1-11.7,12.4-11.7,20.7L39.3,84.7z"/>
	<path class="st1" d="M23.1,108.2l16.2-18l-27.9-2.7C11.4,95.8,15.9,103.1,23.1,108.2"/>
	<path class="st1" d="M43.8,93.7l-20.5,14.6c6.2,4.3,14.3,7,23.2,7L43.8,93.7z"/>
	<polygon class="st1" points="22.9,33.2 21.3,46 10.1,38.3 10.1,38.3 18.7,48 2,49.6 2,49.7 18.7,51.3 10,61 10.1,61.1 21.3,53.3 
		22.9,66.3 23,66.3 24.5,53.3 35.7,61.1 35.8,61 27.1,51.3 43.9,49.7 43.9,49.6 27.1,48 35.8,38.3 35.7,38.2 24.5,46 23,33.2 	"/>
	<path class="st0" d="M7.6,149.8H1.5v-2.4h14.9v2.4h-6.1v16.5H7.6V149.8z M17.5,153.7h2.4v1.9H20c0.2-0.3,0.4-0.6,0.6-0.9
		c0.3-0.3,0.6-0.5,0.9-0.7c0.3-0.2,0.7-0.4,1.1-0.5c0.4-0.1,0.8-0.2,1.2-0.2c0.4,0,0.8,0.1,1.1,0.2l-0.1,2.6c-0.2,0-0.4-0.1-0.6-0.1
		c-0.2,0-0.4-0.1-0.6-0.1c-1.2,0-2.1,0.3-2.7,1c-0.6,0.7-0.9,1.7-0.9,3.1v6.3h-2.4V153.7z M29,155.2c0.7-0.6,1.5-1.1,2.4-1.4
		c0.9-0.3,1.8-0.5,2.7-0.5c0.9,0,1.7,0.1,2.4,0.3c0.7,0.2,1.2,0.5,1.7,0.9c0.4,0.4,0.7,0.8,0.9,1.3c0.2,0.5,0.3,1,0.3,1.6v6.5
		c0,0.4,0,0.8,0,1.2c0,0.4,0,0.7,0.1,1.1h-2.2c-0.1-0.6-0.1-1.3-0.1-1.9h-0.1c-0.5,0.8-1.2,1.4-1.9,1.7c-0.7,0.3-1.6,0.5-2.6,0.5
		c-0.6,0-1.2-0.1-1.7-0.2c-0.5-0.2-1-0.4-1.4-0.7c-0.4-0.3-0.7-0.7-1-1.2c-0.2-0.5-0.3-1-0.3-1.6c0-0.8,0.2-1.5,0.6-2.1
		c0.4-0.5,0.9-1,1.5-1.3c0.6-0.3,1.4-0.6,2.2-0.7c0.9-0.2,1.8-0.2,2.7-0.2h1.8v-0.5c0-0.3-0.1-0.6-0.2-1c-0.1-0.3-0.3-0.6-0.6-0.9
		c-0.3-0.3-0.6-0.5-0.9-0.6c-0.4-0.2-0.8-0.2-1.3-0.2c-0.5,0-0.9,0-1.2,0.1c-0.3,0.1-0.7,0.2-1,0.3c-0.3,0.1-0.5,0.3-0.8,0.5
		c-0.2,0.2-0.5,0.3-0.7,0.5L29,155.2z M35.9,160.2c-0.6,0-1.2,0-1.8,0.1c-0.6,0.1-1.2,0.2-1.6,0.4c-0.5,0.2-0.9,0.4-1.2,0.7
		c-0.3,0.3-0.5,0.7-0.5,1.2c0,0.7,0.2,1.2,0.7,1.6c0.5,0.3,1.2,0.5,2,0.5c0.7,0,1.2-0.1,1.7-0.3c0.5-0.2,0.8-0.5,1.1-0.9
		c0.3-0.4,0.5-0.7,0.6-1.2c0.1-0.4,0.2-0.9,0.2-1.3v-0.8H35.9z M57.3,166.3h-2.4v-1.8h-0.1c-0.5,0.7-1.1,1.2-1.9,1.6
		c-0.8,0.4-1.7,0.6-2.5,0.6c-1,0-1.9-0.2-2.7-0.5c-0.8-0.3-1.5-0.8-2-1.4c-0.6-0.6-1-1.3-1.3-2.1c-0.3-0.8-0.5-1.7-0.5-2.6
		s0.2-1.8,0.5-2.6c0.3-0.8,0.7-1.5,1.3-2.1c0.6-0.6,1.2-1.1,2-1.4c0.8-0.3,1.7-0.5,2.7-0.5c0.9,0,1.8,0.2,2.6,0.6
		c0.8,0.4,1.4,0.9,1.9,1.6h0.1v-9.3h2.4V166.3z M50.6,164.4c0.6,0,1.2-0.1,1.8-0.3c0.5-0.2,1-0.5,1.3-0.9c0.3-0.4,0.6-0.8,0.8-1.4
		c0.2-0.5,0.3-1.1,0.3-1.8c0-0.6-0.1-1.2-0.3-1.8c-0.2-0.5-0.5-1-0.8-1.4c-0.4-0.4-0.8-0.7-1.3-0.9c-0.5-0.2-1.1-0.3-1.8-0.3
		c-0.6,0-1.2,0.1-1.7,0.3c-0.5,0.2-1,0.5-1.3,0.9c-0.4,0.4-0.6,0.8-0.8,1.4c-0.2,0.5-0.3,1.1-0.3,1.8c0,0.6,0.1,1.2,0.3,1.8
		c0.2,0.5,0.5,1,0.8,1.4c0.4,0.4,0.8,0.7,1.3,0.9C49.4,164.3,50,164.4,50.6,164.4 M62.6,153.7H65v12.6h-2.4V153.7z M62,149.1
		c0-0.5,0.2-0.9,0.5-1.2c0.4-0.3,0.8-0.5,1.2-0.5c0.5,0,0.9,0.2,1.3,0.5c0.4,0.3,0.5,0.8,0.5,1.2c0,0.5-0.2,0.9-0.5,1.2
		c-0.3,0.3-0.8,0.5-1.3,0.5c-0.5,0-0.9-0.2-1.2-0.5C62.2,150,62,149.6,62,149.1 M77.2,155.7h-3.5v5.7c0,0.4,0,0.7,0,1.1
		c0,0.3,0.1,0.7,0.2,0.9c0.1,0.3,0.3,0.5,0.5,0.7c0.2,0.2,0.6,0.3,1.1,0.3c0.3,0,0.6,0,0.9-0.1c0.3-0.1,0.6-0.1,0.8-0.3v2.2
		c-0.3,0.2-0.7,0.3-1.1,0.3c-0.5,0.1-0.8,0.1-1.1,0.1c-0.9,0-1.7-0.1-2.2-0.4c-0.5-0.3-0.9-0.6-1.1-1c-0.3-0.4-0.4-0.9-0.4-1.4
		c0-0.5-0.1-1-0.1-1.5v-6.6h-2.8v-2.1h2.8v-3.5h2.4v3.5h3.5V155.7z M82,153.7h2.4v12.6H82V153.7z M81.5,149.1c0-0.5,0.2-0.9,0.5-1.2
		c0.3-0.3,0.8-0.5,1.3-0.5c0.5,0,0.9,0.2,1.3,0.5c0.4,0.3,0.5,0.8,0.5,1.2c0,0.5-0.2,0.9-0.5,1.2c-0.3,0.3-0.8,0.5-1.3,0.5
		c-0.5,0-0.9-0.2-1.3-0.5C81.6,150,81.5,149.6,81.5,149.1 M91.8,160c0,0.6,0.1,1.2,0.3,1.8c0.2,0.5,0.5,1,0.8,1.4
		c0.4,0.4,0.8,0.7,1.3,0.9c0.5,0.2,1.1,0.3,1.8,0.3c0.6,0,1.2-0.1,1.8-0.3c0.5-0.2,1-0.5,1.3-0.9c0.4-0.4,0.6-0.8,0.8-1.4
		c0.2-0.5,0.3-1.1,0.3-1.8c0-0.6-0.1-1.2-0.3-1.8c-0.2-0.5-0.5-1-0.8-1.4c-0.4-0.4-0.8-0.7-1.3-0.9c-0.5-0.2-1.1-0.3-1.8-0.3
		c-0.6,0-1.2,0.1-1.8,0.3c-0.5,0.2-1,0.5-1.3,0.9c-0.4,0.4-0.6,0.8-0.8,1.4C91.9,158.7,91.8,159.3,91.8,160 M89.2,160
		c0-0.9,0.2-1.8,0.5-2.6c0.4-0.8,0.8-1.5,1.4-2.1c0.6-0.6,1.3-1.1,2.2-1.4c0.8-0.3,1.7-0.5,2.7-0.5c1,0,1.8,0.2,2.7,0.5
		c0.8,0.4,1.5,0.8,2.2,1.4c0.6,0.6,1.1,1.3,1.4,2.1c0.3,0.8,0.5,1.7,0.5,2.6s-0.2,1.8-0.5,2.6c-0.4,0.8-0.8,1.5-1.4,2.1
		c-0.6,0.6-1.3,1.1-2.2,1.4c-0.8,0.3-1.7,0.5-2.7,0.5c-0.9,0-1.8-0.2-2.7-0.5c-0.8-0.3-1.5-0.8-2.2-1.4c-0.6-0.6-1.1-1.3-1.4-2.1
		C89.4,161.8,89.2,160.9,89.2,160 M107.3,153.7h2.4v1.9h0.1c0.3-0.7,0.8-1.2,1.6-1.6c0.8-0.4,1.6-0.6,2.6-0.6c0.6,0,1.2,0.1,1.8,0.3
		c0.6,0.2,1.1,0.5,1.5,0.9c0.4,0.4,0.8,0.9,1,1.5c0.3,0.6,0.4,1.3,0.4,2.2v8.1h-2.4v-7.5c0-0.6-0.1-1.1-0.2-1.5s-0.4-0.7-0.7-1
		c-0.3-0.3-0.6-0.4-0.9-0.6c-0.4-0.1-0.7-0.2-1.1-0.2c-0.5,0-1,0.1-1.4,0.2c-0.4,0.2-0.8,0.4-1.1,0.8c-0.3,0.3-0.6,0.8-0.8,1.3
		c-0.2,0.5-0.3,1.2-0.3,1.9v6.5h-2.4V153.7z M123.8,155.2c0.7-0.6,1.5-1.1,2.4-1.4c0.9-0.3,1.8-0.5,2.7-0.5c0.9,0,1.7,0.1,2.4,0.3
		c0.7,0.2,1.2,0.5,1.7,0.9c0.4,0.4,0.8,0.8,1,1.3c0.2,0.5,0.3,1,0.3,1.6v6.5c0,0.4,0,0.8,0,1.2c0,0.4,0,0.7,0.1,1.1h-2.2
		c0-0.6-0.1-1.3-0.1-1.9h-0.1c-0.5,0.8-1.2,1.4-1.9,1.7c-0.7,0.3-1.6,0.5-2.6,0.5c-0.6,0-1.2-0.1-1.7-0.2c-0.5-0.2-1-0.4-1.4-0.7
		c-0.4-0.3-0.7-0.7-1-1.2c-0.2-0.5-0.3-1-0.3-1.6c0-0.8,0.2-1.5,0.6-2.1c0.4-0.5,0.9-1,1.5-1.3c0.6-0.3,1.4-0.6,2.2-0.7
		c0.9-0.2,1.8-0.2,2.7-0.2h1.8v-0.5c0-0.3-0.1-0.6-0.2-1c-0.1-0.3-0.3-0.6-0.6-0.9c-0.2-0.3-0.6-0.5-0.9-0.6
		c-0.4-0.2-0.8-0.2-1.4-0.2c-0.5,0-0.9,0-1.2,0.1c-0.4,0.1-0.7,0.2-1,0.3c-0.3,0.1-0.5,0.3-0.8,0.5c-0.2,0.2-0.5,0.3-0.7,0.5
		L123.8,155.2z M130.7,160.2c-0.6,0-1.2,0-1.8,0.1c-0.6,0.1-1.2,0.2-1.6,0.4c-0.5,0.2-0.9,0.4-1.2,0.7c-0.3,0.3-0.5,0.7-0.5,1.2
		c0,0.7,0.2,1.2,0.7,1.6c0.5,0.3,1.2,0.5,2,0.5c0.7,0,1.2-0.1,1.7-0.3c0.5-0.2,0.9-0.5,1.1-0.9c0.3-0.4,0.5-0.7,0.6-1.2
		c0.1-0.4,0.2-0.9,0.2-1.3v-0.8H130.7z M139.5,146.1h2.4v20.2h-2.4V146.1z M167.1,151.5c-0.5-0.7-1.2-1.2-2-1.6
		c-0.8-0.4-1.7-0.6-2.6-0.6c-1.1,0-2.1,0.2-2.9,0.6c-0.9,0.4-1.6,0.9-2.2,1.6c-0.6,0.7-1.1,1.5-1.4,2.4c-0.3,0.9-0.5,1.9-0.5,3
		c0,1,0.2,1.9,0.5,2.8c0.3,0.9,0.8,1.7,1.4,2.3c0.6,0.7,1.4,1.2,2.2,1.6c0.9,0.4,1.9,0.6,3,0.6c1.1,0,2.1-0.2,2.9-0.7
		c0.8-0.4,1.5-1.1,2.1-1.9l2.2,1.6c-0.1,0.2-0.4,0.5-0.7,0.8c-0.4,0.4-0.8,0.7-1.4,1.1c-0.6,0.4-1.3,0.7-2.1,1
		c-0.8,0.3-1.8,0.4-2.9,0.4c-1.5,0-2.9-0.3-4.1-0.9c-1.2-0.6-2.2-1.3-3.1-2.2c-0.9-0.9-1.5-2-2-3.1c-0.4-1.2-0.7-2.3-0.7-3.5
		c0-1.5,0.2-2.8,0.7-4c0.5-1.2,1.2-2.3,2-3.2c0.9-0.9,1.9-1.6,3.1-2.1c1.2-0.5,2.6-0.7,4-0.7c1.3,0,2.5,0.2,3.7,0.7
		c1.2,0.5,2.2,1.2,3,2.2L167.1,151.5z M172.8,164.1l7.2-8.4h-7v-2.1h10v2.1l-7.3,8.4h7.7v2.1h-10.6V164.1z M189.5,160.9
		c0,0.5,0.1,1,0.4,1.5c0.2,0.5,0.6,0.8,1,1.2c0.4,0.3,0.9,0.6,1.4,0.7c0.5,0.2,1.1,0.3,1.6,0.3c0.8,0,1.4-0.2,2-0.5
		c0.6-0.4,1.1-0.8,1.5-1.4l1.8,1.4c-1.4,1.7-3.2,2.6-5.7,2.6c-1,0-1.9-0.2-2.7-0.5c-0.8-0.3-1.5-0.8-2.1-1.4c-0.6-0.6-1-1.3-1.3-2.1
		c-0.3-0.8-0.5-1.7-0.5-2.6s0.2-1.8,0.5-2.6c0.3-0.8,0.8-1.5,1.4-2.1c0.6-0.6,1.3-1.1,2.1-1.4c0.8-0.3,1.7-0.5,2.6-0.5
		c1.1,0,2.1,0.2,2.9,0.6c0.8,0.4,1.4,0.9,1.9,1.5c0.5,0.6,0.9,1.3,1.1,2.1c0.2,0.8,0.3,1.6,0.3,2.4v0.9H189.5z M197.1,158.9
		c0-0.5-0.1-1-0.3-1.5c-0.2-0.5-0.4-0.8-0.7-1.2c-0.3-0.3-0.7-0.6-1.1-0.8c-0.5-0.2-1-0.3-1.6-0.3c-0.6,0-1.1,0.1-1.6,0.3
		c-0.5,0.2-0.9,0.5-1.2,0.9c-0.3,0.4-0.6,0.7-0.8,1.2c-0.2,0.4-0.3,0.9-0.3,1.3H197.1z M213.3,157c-0.5-0.5-0.9-0.8-1.4-1.1
		c-0.5-0.2-1.1-0.4-1.8-0.4c-0.7,0-1.2,0.1-1.7,0.4c-0.5,0.2-0.9,0.6-1.2,1c-0.3,0.4-0.6,0.9-0.7,1.4c-0.2,0.5-0.3,1.1-0.3,1.7
		c0,0.6,0.1,1.1,0.3,1.7c0.2,0.5,0.5,1,0.8,1.4c0.4,0.4,0.8,0.7,1.3,0.9c0.5,0.2,1.1,0.3,1.7,0.3c0.7,0,1.3-0.1,1.7-0.4
		c0.5-0.2,0.9-0.6,1.3-1.1l1.7,1.7c-0.6,0.7-1.4,1.2-2.2,1.5c-0.8,0.3-1.7,0.4-2.7,0.4c-1,0-1.9-0.2-2.7-0.5
		c-0.8-0.3-1.5-0.8-2.1-1.3c-0.6-0.6-1-1.3-1.4-2.1c-0.3-0.8-0.5-1.7-0.5-2.7c0-1,0.2-1.9,0.5-2.7c0.3-0.8,0.8-1.5,1.4-2.1
		c0.6-0.6,1.3-1,2.1-1.4c0.8-0.3,1.7-0.5,2.7-0.5c0.9,0,1.8,0.2,2.7,0.5c0.9,0.3,1.6,0.8,2.2,1.5L213.3,157z M218.6,146.1h2.4v9.5
		h0.1c0.3-0.7,0.8-1.2,1.6-1.6c0.8-0.4,1.6-0.6,2.6-0.6c0.6,0,1.2,0.1,1.8,0.3c0.6,0.2,1.1,0.5,1.5,0.9c0.4,0.4,0.8,0.9,1,1.5
		c0.2,0.6,0.4,1.3,0.4,2.2v8.1h-2.4v-7.5c0-0.6-0.1-1.1-0.2-1.5c-0.2-0.4-0.4-0.7-0.6-1c-0.3-0.3-0.6-0.4-0.9-0.6
		c-0.4-0.1-0.7-0.2-1.1-0.2c-0.5,0-1,0.1-1.4,0.2c-0.4,0.2-0.8,0.4-1.1,0.8c-0.3,0.3-0.6,0.8-0.8,1.3c-0.2,0.5-0.3,1.2-0.3,1.9v6.5
		h-2.4V146.1z M241.7,147.4h6.6c0.8,0,1.6,0.1,2.3,0.3c0.7,0.2,1.3,0.5,1.8,0.9c0.5,0.4,0.9,0.9,1.2,1.5c0.3,0.6,0.4,1.3,0.4,2.1
		c0,1.1-0.3,2-0.9,2.6c-0.6,0.7-1.4,1.2-2.4,1.5v0c0.6,0,1.1,0.2,1.6,0.4c0.5,0.3,0.9,0.6,1.3,1c0.4,0.4,0.7,0.9,0.9,1.5
		c0.2,0.5,0.3,1.1,0.3,1.8c0,0.9-0.2,1.6-0.5,2.3c-0.4,0.7-0.8,1.2-1.4,1.6c-0.6,0.4-1.3,0.8-2.1,1c-0.8,0.2-1.7,0.3-2.6,0.3h-6.6
		V147.4z M244.3,155.3h3.5c0.5,0,1,0,1.4-0.2c0.4-0.1,0.8-0.3,1.1-0.5c0.3-0.2,0.6-0.5,0.8-0.9c0.2-0.4,0.3-0.8,0.3-1.3
		c0-0.7-0.2-1.4-0.7-1.9c-0.5-0.5-1.2-0.8-2.3-0.8h-4.1V155.3z M244.3,164.1h3.8c0.4,0,0.8,0,1.3-0.1c0.5-0.1,0.9-0.2,1.3-0.5
		c0.4-0.2,0.8-0.6,1-1c0.3-0.4,0.4-0.9,0.4-1.6c0-1.1-0.4-2-1.1-2.5c-0.7-0.6-1.7-0.8-3-0.8h-3.8V164.1z M261.4,160.9
		c0,0.5,0.1,1,0.4,1.5c0.2,0.5,0.6,0.8,1,1.2c0.4,0.3,0.8,0.6,1.4,0.7c0.5,0.2,1.1,0.3,1.6,0.3c0.8,0,1.4-0.2,2-0.5
		c0.6-0.4,1.1-0.8,1.5-1.4l1.8,1.4c-1.4,1.7-3.2,2.6-5.7,2.6c-1,0-1.9-0.2-2.7-0.5c-0.8-0.3-1.5-0.8-2.1-1.4c-0.6-0.6-1-1.3-1.3-2.1
		c-0.3-0.8-0.5-1.7-0.5-2.6s0.2-1.8,0.5-2.6c0.3-0.8,0.8-1.5,1.4-2.1c0.6-0.6,1.3-1.1,2.1-1.4c0.8-0.3,1.7-0.5,2.6-0.5
		c1.1,0,2.1,0.2,2.9,0.6c0.8,0.4,1.4,0.9,1.9,1.5c0.5,0.6,0.9,1.3,1.1,2.1c0.2,0.8,0.3,1.6,0.3,2.4v0.9H261.4z M269,158.9
		c0-0.5-0.1-1-0.3-1.5c-0.1-0.5-0.4-0.8-0.7-1.2c-0.3-0.3-0.7-0.6-1.1-0.8c-0.5-0.2-1-0.3-1.6-0.3c-0.6,0-1.1,0.1-1.6,0.3
		c-0.5,0.2-0.9,0.5-1.3,0.9c-0.3,0.4-0.6,0.7-0.8,1.2c-0.2,0.4-0.3,0.9-0.3,1.3H269z M276.1,155.2c0.7-0.6,1.5-1.1,2.4-1.4
		c0.9-0.3,1.8-0.5,2.7-0.5c0.9,0,1.7,0.1,2.4,0.3c0.7,0.2,1.2,0.5,1.7,0.9c0.4,0.4,0.8,0.8,1,1.3c0.2,0.5,0.3,1,0.3,1.6v6.5
		c0,0.4,0,0.8,0,1.2c0,0.4,0,0.7,0.1,1.1h-2.2c-0.1-0.6-0.1-1.3-0.1-1.9h-0.1c-0.5,0.8-1.2,1.4-1.9,1.7c-0.7,0.3-1.6,0.5-2.6,0.5
		c-0.6,0-1.2-0.1-1.7-0.2c-0.5-0.2-1-0.4-1.4-0.7c-0.4-0.3-0.7-0.7-1-1.2c-0.2-0.5-0.4-1-0.4-1.6c0-0.8,0.2-1.5,0.6-2.1
		c0.4-0.5,0.9-1,1.5-1.3c0.6-0.3,1.4-0.6,2.2-0.7c0.8-0.2,1.8-0.2,2.7-0.2h1.8v-0.5c0-0.3-0.1-0.6-0.2-1c-0.1-0.3-0.3-0.6-0.6-0.9
		c-0.3-0.3-0.6-0.5-0.9-0.6c-0.4-0.2-0.8-0.2-1.4-0.2c-0.5,0-0.9,0-1.2,0.1c-0.4,0.1-0.7,0.2-1,0.3c-0.3,0.1-0.5,0.3-0.8,0.5
		c-0.2,0.2-0.5,0.3-0.7,0.5L276.1,155.2z M282.9,160.2c-0.6,0-1.2,0-1.8,0.1c-0.6,0.1-1.2,0.2-1.6,0.4c-0.5,0.2-0.9,0.4-1.2,0.7
		c-0.3,0.3-0.5,0.7-0.5,1.2c0,0.7,0.3,1.2,0.7,1.6c0.5,0.3,1.2,0.5,2,0.5c0.7,0,1.2-0.1,1.7-0.3c0.5-0.2,0.8-0.5,1.1-0.9
		c0.3-0.4,0.5-0.7,0.6-1.2c0.1-0.4,0.2-0.9,0.2-1.3v-0.8H282.9z M304.3,166.3h-2.4v-1.8h0c-0.5,0.7-1.1,1.2-1.9,1.6
		c-0.8,0.4-1.7,0.6-2.5,0.6c-1,0-1.9-0.2-2.7-0.5c-0.8-0.3-1.5-0.8-2-1.4c-0.6-0.6-1-1.3-1.3-2.1c-0.3-0.8-0.5-1.7-0.5-2.6
		s0.2-1.8,0.5-2.6c0.3-0.8,0.7-1.5,1.3-2.1c0.6-0.6,1.2-1.1,2-1.4c0.8-0.3,1.7-0.5,2.7-0.5c0.9,0,1.8,0.2,2.6,0.6
		c0.8,0.4,1.4,0.9,1.9,1.6h0v-9.3h2.4V166.3z M297.7,164.4c0.7,0,1.2-0.1,1.8-0.3c0.5-0.2,1-0.5,1.3-0.9c0.4-0.4,0.6-0.8,0.8-1.4
		c0.2-0.5,0.3-1.1,0.3-1.8c0-0.6-0.1-1.2-0.3-1.8c-0.2-0.5-0.5-1-0.8-1.4c-0.4-0.4-0.8-0.7-1.3-0.9c-0.5-0.2-1.1-0.3-1.8-0.3
		c-0.6,0-1.2,0.1-1.7,0.3c-0.5,0.2-1,0.5-1.3,0.9c-0.3,0.4-0.6,0.8-0.8,1.4c-0.2,0.5-0.3,1.1-0.3,1.8c0,0.6,0.1,1.2,0.3,1.8
		c0.2,0.5,0.5,1,0.8,1.4c0.4,0.4,0.8,0.7,1.3,0.9C296.5,164.3,297,164.4,297.7,164.4 M316.3,156.8c-0.3-0.4-0.6-0.7-1.1-0.9
		c-0.4-0.2-0.9-0.4-1.6-0.4c-0.6,0-1.1,0.1-1.5,0.4c-0.4,0.2-0.6,0.6-0.6,1.1c0,0.4,0.1,0.7,0.4,0.9c0.2,0.2,0.5,0.4,0.9,0.6
		c0.3,0.1,0.7,0.2,1.1,0.3c0.4,0.1,0.7,0.1,1,0.2c0.5,0.1,1,0.3,1.5,0.5c0.5,0.2,0.9,0.4,1.2,0.7c0.3,0.3,0.6,0.6,0.8,1
		c0.2,0.4,0.3,0.9,0.3,1.5c0,0.7-0.2,1.3-0.5,1.8c-0.3,0.5-0.7,0.9-1.2,1.2c-0.5,0.3-1,0.5-1.7,0.7c-0.6,0.1-1.2,0.2-1.9,0.2
		c-1.1,0-2-0.2-2.8-0.5c-0.8-0.3-1.5-0.9-2.1-1.8l1.8-1.5c0.4,0.4,0.8,0.7,1.3,1c0.5,0.3,1.1,0.5,1.8,0.5c0.3,0,0.6,0,0.9-0.1
		c0.3-0.1,0.6-0.2,0.8-0.3c0.2-0.1,0.4-0.3,0.6-0.5c0.2-0.2,0.2-0.4,0.2-0.7c0-0.4-0.1-0.6-0.3-0.9c-0.2-0.2-0.5-0.4-0.8-0.5
		c-0.3-0.1-0.6-0.2-1-0.3c-0.4-0.1-0.7-0.1-0.9-0.2c-0.5-0.1-1-0.3-1.5-0.4c-0.5-0.2-0.9-0.4-1.2-0.6c-0.4-0.3-0.6-0.6-0.9-1
		c-0.2-0.4-0.3-0.9-0.3-1.5c0-0.7,0.1-1.2,0.4-1.7c0.3-0.5,0.7-0.9,1.1-1.2c0.5-0.3,1-0.6,1.6-0.7c0.6-0.2,1.2-0.2,1.8-0.2
		c0.9,0,1.7,0.2,2.5,0.5c0.8,0.3,1.4,0.8,1.9,1.6L316.3,156.8z"/>
</g>
</svg>
