<?xml version="1.0" encoding="utf-8"?>
<!-- Generator: Adobe Illustrator 24.2.0, SVG Export Plug-In . SVG Version: 6.00 Build 0)  -->
<svg version="1.1" id="Capa_1" xmlns="http://www.w3.org/2000/svg" xmlns:xlink="http://www.w3.org/1999/xlink" x="0px" y="0px"
	 viewBox="0 0 320 200" style="enable-background:new 0 0 320 200;" xml:space="preserve">
<style type="text/css">
	.st0{fill-rule:evenodd;clip-rule:evenodd;fill:#B2B2B2;}
	.st1{fill:#B2B2B2;}
</style>
<g>
	<g>
		<g>
			<g>
				<g>
					<path class="st0" d="M266,119.2v-13.9h0.6c0.6-4.3,1.6-9.9,2.8-16.2c-1.4,2.8-2.4,5.5-3.4,7.7V80.3h13.4l-3.8,38.8H266
						L266,119.2z M316.5,80.3l-10.6,38.8h-10.2l-1.2-17.7l-4.8,17.7H280l10.6-38.8h9.6l1.8,17.4l4.8-17.4H316.5z M266,80.3v16.4
						c-1.4,3.7-2.6,6.4-3.4,8.5h3.4v13.9h-2.2l1.2-7h-4l-2.6,7h-8.8v-7l13.2-31.8H266L266,80.3z M249.6,91.2l3-10.9h-3V91.2z
						 M249.6,80.3v10.9l-7.6,28h-10l7.2-26.3l-11.2,26.3h-7.2l2.8-25.6l-7,25.6h-7.2v-10.4l7.8-28.5h14.8c-0.2,2.3-0.4,5-0.8,8.2
						l-1,9.9l7.4-18.1H249.6L249.6,80.3z M249.6,112.1l-3,7h3V112.1L249.6,112.1z M209.3,87.4l2.8-7h-2.8V87.4z M209.3,80.3v7
						l-12.8,31.8h-14.4c0.4-6,1-12.9,2.2-20.4c-1.4,3.3-4.4,10-8.8,20.4h-14.2l5.4-38.8h11.2l-2.6,13.6l-2.4,13.1
						c2.4-6.9,5.8-15.7,10.4-26.6h12c-0.2,1.2-0.8,5.4-2.2,12.7l-2.8,14.7c3.2-9.4,6.8-18.6,10.8-27.5H209.3L209.3,80.3z
						 M209.3,108.8l-2.8,10.4h2.8V108.8L209.3,108.8z M143.4,119.2v-12.9l4.4-16.1c0.4-1.7,0.6-2.8,0.6-3.4
						c-0.2-0.5-0.6-0.8-1.2-0.8c-0.6,0-1.2,0.2-1.6,0.7c-0.4,0.3-0.8,1.5-1.4,3.5l-0.8,2.8V80.2c1.6-0.5,3.6-0.7,5.4-0.7
						c2.4,0,4.4,0.3,6.2,1c1.6,0.7,3,1.7,3.8,3c0.6,1.3,1,2.8,0.8,4.5c-0.2,1.5-1,4.4-2,8.4l-1.8,6.7c-1,3.9-2,6.5-2.6,8.2
						c-0.6,1.7-1.6,3-3.2,4.5c-1.4,1.3-3.2,2.3-5.2,3C144.2,119,143.8,119.2,143.4,119.2z M143.4,80.2v12.9l-4.2,15.4
						c-0.6,2.2-0.8,3.5-0.8,4c0,0.7,0.4,0.8,1.2,0.8c0.8,0,1.4-0.3,1.8-0.8c0.4-0.7,0.8-2,1.6-4.3l0.4-1.8v12.9
						c-1.8,0.5-3.6,0.7-5.6,0.7c-2.2,0-4.4-0.3-6-1c-1.8-0.7-3-1.7-3.8-3c0-0.2,0-0.3-0.2-0.5v-6.9c0.4-1.5,0.8-3.3,1.4-5.4l1.8-6.7
						c1-3.8,2-6.7,2.6-8.4c0.6-1.5,1.6-3,3.2-4.3c1.4-1.3,3.2-2.3,5.2-3.2C142.4,80.5,143,80.3,143.4,80.2L143.4,80.2z M127.8,82.7
						l0.6-2.3h-0.6V82.7z M92.9,82.7c0.4,0.5,0.6,0.8,0.6,1.3c0.4,1.2,0.2,3.2-0.6,5.9V82.7L92.9,82.7z M127.8,80.3h-9l-4.6,17.4
						l-1.8-17.4h-9.6l-9.8,36v2.8h8.8l4.8-17.7l1.2,17.7h10.2l9.8-36.5V80.3L127.8,80.3z M127.8,108.5v6.9c-0.6-1.2-0.8-2.5-0.6-3.8
						C127.4,110.6,127.6,109.6,127.8,108.5z M92.3,92.1H81.7l0.8-2.8c0.4-1.3,0.4-2.2,0.2-2.7c0-0.3-0.6-0.5-1.2-0.5
						c-0.6,0-1.2,0.3-1.8,0.8c-0.4,0.5-0.8,1.2-1,2.2c-0.4,1.3-0.4,2.3-0.2,3c0.2,0.5,1,1.3,2.6,2.3c4.4,2.7,7,4.9,7.8,6.5
						c0.8,1.7,0.8,4.5-0.2,8.2c-0.8,2.9-1.8,4.9-2.8,6.2c-1.2,1.3-2.8,2.3-5.2,3.2c-2.4,1-5,1.3-7.8,1.3c-3,0-5.4-0.5-7.4-1.5
						c-1.8-1-3-2.3-3.2-3.9c-0.2-1.7,0-3.8,0.8-6.7l0.8-2.5h10.6l-1.2,4.7c-0.4,1.3-0.6,2.4-0.4,2.7c0.2,0.5,0.6,0.7,1.4,0.7
						c0.8,0,1.4-0.2,2-0.8c0.4-0.5,0.8-1.2,1.2-2.3c0.6-2.2,0.6-3.7,0.2-4.4c-0.6-0.8-2-2-4.4-3.5c-2.6-1.7-4-2.9-4.8-3.7
						c-0.8-0.7-1.2-1.8-1.4-3.2c-0.2-1.2-0.2-3,0.4-5c0.8-3,1.8-5.2,3-6.5c1.4-1.3,3-2.3,5.2-3.2c2-0.8,4.6-1.2,7.2-1.2
						c3,0,5.4,0.5,7.4,1.3c1.2,0.5,2,1.2,2.6,1.8v7.2c0,0.3,0,0.5-0.2,0.7L92.3,92.1L92.3,92.1z M92.9,116.3l-0.8,2.8h0.8V116.3z"/>
				</g>
			</g>
		</g>
		<g>
			<g>
				<g>
					<path class="st0" d="M266,119.2v-13.9h0.6c0.6-4.3,1.6-9.9,2.8-16.2c-1.4,2.8-2.4,5.5-3.4,7.7V80.3h13.4l-3.8,38.8H266
						L266,119.2z M316.5,80.3l-10.6,38.8h-10.2l-1.2-17.7l-4.8,17.7H280l10.6-38.8h9.6l1.8,17.4l4.8-17.4H316.5z M266,80.3v16.4
						c-1.4,3.7-2.6,6.4-3.4,8.5h3.4v13.9h-2.2l1.2-7h-4l-2.6,7h-8.8v-7l13.2-31.8H266L266,80.3z M249.6,91.2l3-10.9h-3V91.2z
						 M249.6,80.3v10.9l-7.6,28h-10l7.2-26.3l-11.2,26.3h-7.2l2.8-25.6l-7,25.6h-7.2v-10.4l7.8-28.5h14.8c-0.2,2.3-0.4,5-0.8,8.2
						l-1,9.9l7.4-18.1H249.6L249.6,80.3z M249.6,112.1l-3,7h3V112.1L249.6,112.1z M209.3,87.4l2.8-7h-2.8V87.4z M209.3,80.3v7
						l-12.8,31.8h-14.4c0.4-6,1-12.9,2.2-20.4c-1.4,3.3-4.4,10-8.8,20.4h-14.2l5.4-38.8h11.2l-2.6,13.6l-2.4,13.1
						c2.4-6.9,5.8-15.7,10.4-26.6h12c-0.2,1.2-0.8,5.4-2.2,12.7l-2.8,14.7c3.2-9.4,6.8-18.6,10.8-27.5H209.3L209.3,80.3z
						 M209.3,108.8l-2.8,10.4h2.8V108.8L209.3,108.8z M143.4,119.2v-12.9l4.4-16.1c0.4-1.7,0.6-2.8,0.6-3.4
						c-0.2-0.5-0.6-0.8-1.2-0.8c-0.6,0-1.2,0.2-1.6,0.7c-0.4,0.3-0.8,1.5-1.4,3.5l-0.8,2.8V80.2c1.6-0.5,3.6-0.7,5.4-0.7
						c2.4,0,4.4,0.3,6.2,1c1.6,0.7,3,1.7,3.8,3c0.6,1.3,1,2.8,0.8,4.5c-0.2,1.5-1,4.4-2,8.4l-1.8,6.7c-1,3.9-2,6.5-2.6,8.2
						c-0.6,1.7-1.6,3-3.2,4.5c-1.4,1.3-3.2,2.3-5.2,3C144.2,119,143.8,119.2,143.4,119.2z M143.4,80.2v12.9l-4.2,15.4
						c-0.6,2.2-0.8,3.5-0.8,4c0,0.7,0.4,0.8,1.2,0.8c0.8,0,1.4-0.3,1.8-0.8c0.4-0.7,0.8-2,1.6-4.3l0.4-1.8v12.9
						c-1.8,0.5-3.6,0.7-5.6,0.7c-2.2,0-4.4-0.3-6-1c-1.8-0.7-3-1.7-3.8-3c0-0.2,0-0.3-0.2-0.5v-6.9c0.4-1.5,0.8-3.3,1.4-5.4l1.8-6.7
						c1-3.8,2-6.7,2.6-8.4c0.6-1.5,1.6-3,3.2-4.3c1.4-1.3,3.2-2.3,5.2-3.2C142.4,80.5,143,80.3,143.4,80.2L143.4,80.2z M127.8,82.7
						l0.6-2.3h-0.6V82.7z M92.9,82.7c0.4,0.5,0.6,0.8,0.6,1.3c0.4,1.2,0.2,3.2-0.6,5.9V82.7L92.9,82.7z M127.8,80.3h-9l-4.6,17.4
						l-1.8-17.4h-9.6l-9.8,36v2.8h8.8l4.8-17.7l1.2,17.7h10.2l9.8-36.5V80.3L127.8,80.3z M127.8,108.5v6.9c-0.6-1.2-0.8-2.5-0.6-3.8
						C127.4,110.6,127.6,109.6,127.8,108.5z M92.3,92.1H81.7l0.8-2.8c0.4-1.3,0.4-2.2,0.2-2.7c0-0.3-0.6-0.5-1.2-0.5
						c-0.6,0-1.2,0.3-1.8,0.8c-0.4,0.5-0.8,1.2-1,2.2c-0.4,1.3-0.4,2.3-0.2,3c0.2,0.5,1,1.3,2.6,2.3c4.4,2.7,7,4.9,7.8,6.5
						c0.8,1.7,0.8,4.5-0.2,8.2c-0.8,2.9-1.8,4.9-2.8,6.2c-1.2,1.3-2.8,2.3-5.2,3.2c-2.4,1-5,1.3-7.8,1.3c-3,0-5.4-0.5-7.4-1.5
						c-1.8-1-3-2.3-3.2-3.9c-0.2-1.7,0-3.8,0.8-6.7l0.8-2.5h10.6l-1.2,4.7c-0.4,1.3-0.6,2.3-0.4,2.7c0.2,0.5,0.6,0.7,1.4,0.7
						c0.8,0,1.4-0.2,2-0.8c0.4-0.5,0.8-1.2,1.2-2.3c0.6-2.2,0.6-3.7,0.2-4.4c-0.6-0.8-2-2-4.4-3.5c-2.6-1.7-4-2.9-4.8-3.7
						c-0.8-0.7-1.2-1.8-1.4-3.2c-0.2-1.2-0.2-3,0.4-5c0.8-3,1.8-5.2,3-6.5c1.4-1.3,3-2.3,5.2-3.2c2-0.8,4.6-1.2,7.2-1.2
						c3,0,5.4,0.5,7.4,1.3c1.2,0.5,2,1.2,2.6,1.8v7.2c0,0.3,0,0.5-0.2,0.7L92.3,92.1L92.3,92.1z M92.9,116.3l-0.8,2.8h0.8V116.3z"/>
				</g>
			</g>
		</g>
	</g>
	<g>
		<path class="st1" d="M196.1,144l0.8-5.2c0.2-1.4,0.5-3.1,0.8-5h-0.1c-0.7,1.6-1.5,3.4-2.2,4.8l-2.6,5.2h-2.1l-0.5-5.1
			c-0.1-1.4-0.2-3.1-0.3-4.8h0c-0.4,1.7-0.7,3.6-1.1,5l-1.3,5.2h-2.5l3.2-12.7h3.6l0.4,4.8c0.1,1.2,0.2,2.6,0.2,4.1h0.1
			c0.5-1.4,1.2-2.9,1.7-4.1l2.4-4.8h3.7l-1.7,12.7H196.1z"/>
		<path class="st1" d="M206.9,144c0-0.5,0.1-1.2,0.1-1.8h0c-0.8,1.5-2,2-3.1,2c-1.7,0-2.8-1.3-2.8-3.2c0-3.1,2.1-6.4,6.6-6.4
			c1.1,0,2.3,0.2,3.1,0.5l-1,4.8c-0.2,1.2-0.4,3-0.4,4.1H206.9z M207.7,136.7c-0.2,0-0.5-0.1-0.7-0.1c-1.8,0-3,2.2-3,3.9
			c0,0.9,0.4,1.5,1.1,1.5c0.8,0,1.8-0.9,2.2-3.2L207.7,136.7z"/>
		<path class="st1" d="M222.2,130.6l-1.9,9.8c-0.2,1.2-0.4,2.5-0.4,3.6h-2.5l0.1-1.5h0c-0.8,1.2-1.9,1.7-3,1.7
			c-1.6,0-2.8-1.2-2.8-3.5c0-3.2,2.3-6.2,5.8-6.2c0.4,0,0.9,0.1,1.3,0.2l0.8-4.2H222.2z M218.3,136.9c-0.2-0.2-0.6-0.3-1.1-0.3
			c-1.6,0-2.8,1.9-2.8,3.7c0,1.1,0.5,1.7,1.3,1.7c0.8,0,1.8-0.8,2.1-2.6L218.3,136.9z"/>
		<path class="st1" d="M229.6,143.4c-1.1,0.5-2.4,0.7-3.5,0.7c-2.6,0-4-1.5-4-3.9c0-2.8,2-5.7,5.4-5.7c1.9,0,3.2,1.1,3.2,2.8
			c0,2.3-2.3,3.2-6,3.1c0,0.3,0.1,0.7,0.3,0.9c0.4,0.5,1,0.7,1.8,0.7c1,0,1.8-0.2,2.6-0.6L229.6,143.4z M227.2,136.5
			c-1.3,0-2,1.1-2.2,1.9c2.1,0,3.2-0.3,3.2-1.1C228.2,136.8,227.8,136.5,227.2,136.5z"/>
		<path class="st1" d="M234.8,144l1.8-9.2h2.7l-1.8,9.2H234.8z M238.2,133.6c-0.8,0-1.3-0.5-1.3-1.3c0-0.9,0.7-1.5,1.6-1.5
			c0.8,0,1.4,0.5,1.4,1.3C239.9,133,239.1,133.6,238.2,133.6L238.2,133.6z"/>
		<path class="st1" d="M239.8,144l1.2-6.2c0.2-1.2,0.4-2.2,0.5-3h2.4l-0.2,1.5h0c0.9-1.2,2-1.7,3.2-1.7c1.5,0,2.4,0.9,2.4,2.5
			c0,0.4-0.1,1.1-0.2,1.5l-1,5.4h-2.7l1-5.1c0.1-0.3,0.1-0.7,0.1-1c0-0.7-0.2-1.1-0.9-1.1c-0.9,0-1.9,1.1-2.3,3.2l-0.8,4.1H239.8z"
			/>
		<path class="st1" d="M258.8,131.3h2.7l-1.6,8.4c-0.6,3.2-2,4.5-4.9,4.5c-0.8,0-1.7-0.1-2.1-0.3l0.5-2.3c0.4,0.1,0.9,0.2,1.5,0.2
			c1.2,0,1.9-0.6,2.3-2.5L258.8,131.3z"/>
		<path class="st1" d="M264.8,140.7l-1.5,3.3h-2.9l6.2-12.7h3.5l1.5,12.7h-2.9l-0.2-3.3H264.8z M268.4,138.6l-0.3-2.7
			c0-0.7-0.1-1.7-0.2-2.5h0c-0.3,0.8-0.7,1.8-1,2.5l-1.3,2.7H268.4z"/>
		<path class="st1" d="M275.3,131.5c0.8-0.2,2.1-0.3,3.3-0.3c1.2,0,2.5,0.2,3.4,0.8c0.9,0.6,1.4,1.5,1.4,2.7c0,1.6-0.7,2.8-1.7,3.6
			c-1,0.8-2.5,1.2-4.1,1.2c-0.5,0-0.8-0.1-1.1-0.1l-0.9,4.6H273L275.3,131.5z M276.9,137.2c0.3,0.1,0.6,0.1,1.1,0.1
			c1.6,0,2.7-1,2.7-2.3c0-1.2-0.9-1.6-1.9-1.6c-0.5,0-0.9,0-1.1,0.1L276.9,137.2z"/>
		<path class="st1" d="M285.9,140.7l-1.5,3.3h-2.9l6.2-12.7h3.5l1.5,12.7h-2.9l-0.2-3.3H285.9z M289.5,138.6l-0.3-2.7
			c0-0.7-0.1-1.7-0.2-2.5h0c-0.3,0.8-0.7,1.8-1,2.5l-1.3,2.7H289.5z"/>
		<path class="st1" d="M294.1,144l2.4-12.7h3.2l1.7,4.8c0.5,1.6,0.8,2.9,1.2,4.3h0.1c0.1-1.3,0.2-2.7,0.6-4.6l0.9-4.6h2.5l-2.4,12.7
			h-2.8l-1.8-5.1c-0.6-1.7-0.9-2.9-1.2-4.4h-0.1c-0.1,1.2-0.4,3.1-0.8,5.1l-0.8,4.4H294.1z"/>
	</g>
	<g>
		<path class="st1" d="M59.6,69.7l0.8-5.7c0.2-1.5,0.5-3.4,0.9-5.3h-0.1c-0.8,1.8-1.6,3.7-2.4,5.2l-2.9,5.6h-2.3L53.2,64
			c-0.1-1.5-0.2-3.4-0.3-5.2h0c-0.4,1.8-0.8,3.9-1.2,5.3l-1.4,5.7h-2.7L51.1,56h4l0.4,5.2c0.1,1.3,0.2,2.8,0.2,4.4h0.1
			c0.5-1.5,1.3-3.1,1.9-4.4l2.6-5.2h4l-1.9,13.7H59.6z"/>
		<path class="st1" d="M68.8,66.2l-1.6,3.6H64L70.8,56h3.8l1.6,13.7h-3.1l-0.3-3.6H68.8z M72.7,64L72.4,61c0-0.8-0.1-1.8-0.2-2.7h0
			c-0.4,0.8-0.7,1.9-1.1,2.7L69.7,64H72.7z"/>
		<path class="st1" d="M80.4,56.3c0.9-0.2,2.3-0.3,3.7-0.3c1.3,0,2.7,0.2,3.7,0.8c0.9,0.5,1.6,1.4,1.6,2.7c0,2-1.4,3.3-3.2,3.9v0.1
			c0.8,0.4,1.2,1.3,1.3,2.5c0.2,1.5,0.3,3.3,0.5,3.9h-3.1c-0.1-0.4-0.3-1.5-0.4-3.2c-0.1-1.7-0.7-2.2-1.9-2.2h-0.9l-1,5.4h-2.9
			L80.4,56.3z M82.2,62.1h1.2c1.6,0,2.8-1,2.8-2.3c0-1.1-0.9-1.6-2.1-1.6c-0.6,0-0.9,0-1.2,0.1L82.2,62.1z"/>
		<path class="st1" d="M100.2,69.4c-0.7,0.3-2,0.6-3.7,0.6c-3.7,0-6.2-2.2-6.2-5.8c0-3.1,1.4-5.5,3.5-6.9c1.5-1,3.1-1.4,5.1-1.4
			c1.5,0,2.7,0.3,3.1,0.6l-0.8,2.4c-0.4-0.2-1.3-0.5-2.5-0.5c-1.2,0-2.3,0.4-3.2,1.1c-1.2,1-1.9,2.5-1.9,4.4c0,2.2,1.3,3.6,3.7,3.6
			c1,0,2-0.2,2.7-0.5L100.2,69.4z"/>
		<path class="st1" d="M105.9,66.2l-1.6,3.6H101l6.8-13.7h3.8l1.6,13.7h-3.1l-0.3-3.6H105.9z M109.7,64l-0.3-2.9
			c0-0.8-0.1-1.8-0.2-2.7h0c-0.4,0.8-0.7,1.9-1.1,2.7l-1.4,2.9H109.7z"/>
		<path class="st1" d="M117.4,56.2c1.2-0.2,2.5-0.3,3.9-0.3c2.2,0,3.9,0.5,5.1,1.5c1.1,0.9,1.8,2.3,1.8,4.3c0,2.7-1.1,4.9-2.9,6.3
			c-1.6,1.3-3.7,1.8-6.7,1.8c-1.7,0-3.1-0.1-3.8-0.3L117.4,56.2z M118.2,67.4c0.4,0,0.8,0.1,1.3,0.1c1.6,0,3-0.5,4-1.6
			c1-1.1,1.4-2.5,1.4-4.1c0-2.2-1.2-3.5-3.7-3.5c-0.5,0-1,0-1.3,0.1L118.2,67.4z"/>
		<path class="st1" d="M142.8,61.5c0,2.5-0.9,4.9-2.5,6.5c-1.3,1.2-3.1,2-5.2,2c-3.6,0-5.7-2.5-5.7-5.7c0-2.5,0.9-4.9,2.6-6.5
			c1.3-1.2,3.1-2,5.1-2C140.8,55.8,142.8,58.3,142.8,61.5z M134.4,59.3c-1.1,1.1-1.7,3.2-1.7,4.9c0,1.9,0.9,3.4,2.9,3.4
			c0.9,0,1.7-0.4,2.3-1c1.1-1.1,1.7-3.3,1.7-4.9c0-1.7-0.6-3.4-2.8-3.4C135.9,58.3,135,58.6,134.4,59.3z"/>
		<path class="st1" d="M146.1,56.3c0.9-0.2,2.3-0.3,3.7-0.3c1.3,0,2.7,0.2,3.7,0.8c0.9,0.5,1.6,1.4,1.6,2.7c0,2-1.4,3.3-3.2,3.9v0.1
			c0.8,0.4,1.2,1.3,1.3,2.5c0.2,1.5,0.3,3.3,0.5,3.9h-3.1c-0.1-0.4-0.3-1.5-0.4-3.2c-0.1-1.7-0.7-2.2-1.9-2.2h-0.9l-1,5.4h-2.9
			L146.1,56.3z M147.9,62.1h1.2c1.6,0,2.8-1,2.8-2.3c0-1.1-0.9-1.6-2.1-1.6c-0.6,0-0.9,0-1.2,0.1L147.9,62.1z"/>
		<path class="st1" d="M164.6,63.9h-4.9l-0.6,3.3h5.6l-0.5,2.5h-8.6l2.7-13.7h8.3l-0.5,2.5h-5.3l-0.6,2.9h5L164.6,63.9z"/>
		<path class="st1" d="M166.8,66.6c0.8,0.5,2,0.9,3.3,0.9c1.2,0,2.2-0.5,2.2-1.6c0-0.8-0.6-1.3-1.9-1.9c-1.5-0.8-2.9-1.8-2.9-3.6
			c0-2.8,2.4-4.5,5.5-4.5c1.7,0,2.7,0.4,3.3,0.7l-0.9,2.4c-0.5-0.2-1.4-0.6-2.6-0.6c-1.4,0-2.1,0.7-2.1,1.4c0,0.8,0.8,1.3,2,1.9
			c1.7,0.9,2.8,2,2.8,3.6c0,3.1-2.6,4.6-5.7,4.6c-1.9,0-3.3-0.5-4-1L166.8,66.6z"/>
	</g>
	<g>
		<path class="st1" d="M196.1,144l0.8-5.2c0.2-1.4,0.5-3.1,0.8-5h-0.1c-0.7,1.6-1.5,3.4-2.2,4.8l-2.6,5.2h-2.1l-0.5-5.1
			c-0.1-1.4-0.2-3.1-0.3-4.8h0c-0.4,1.7-0.7,3.6-1.1,5l-1.3,5.2h-2.5l3.2-12.7h3.6l0.4,4.8c0.1,1.2,0.2,2.6,0.2,4.1h0.1
			c0.5-1.4,1.2-2.9,1.7-4.1l2.4-4.8h3.7l-1.7,12.7H196.1z"/>
		<path class="st1" d="M206.9,144c0-0.5,0.1-1.2,0.1-1.8h0c-0.8,1.5-2,2-3.1,2c-1.7,0-2.8-1.3-2.8-3.2c0-3.1,2.1-6.4,6.6-6.4
			c1.1,0,2.3,0.2,3.1,0.5l-1,4.8c-0.2,1.2-0.4,3-0.4,4.1H206.9z M207.7,136.7c-0.2,0-0.5-0.1-0.7-0.1c-1.8,0-3,2.2-3,3.9
			c0,0.9,0.4,1.5,1.1,1.5c0.8,0,1.8-0.9,2.2-3.2L207.7,136.7z"/>
		<path class="st1" d="M222.2,130.6l-1.9,9.8c-0.2,1.2-0.4,2.5-0.4,3.6h-2.5l0.1-1.5h0c-0.8,1.2-1.9,1.7-3,1.7
			c-1.6,0-2.8-1.2-2.8-3.5c0-3.2,2.3-6.2,5.8-6.2c0.4,0,0.9,0.1,1.3,0.2l0.8-4.2H222.2z M218.3,136.9c-0.2-0.2-0.6-0.3-1.1-0.3
			c-1.6,0-2.8,1.9-2.8,3.7c0,1.1,0.5,1.7,1.3,1.7c0.8,0,1.8-0.8,2.1-2.6L218.3,136.9z"/>
		<path class="st1" d="M229.6,143.4c-1.1,0.5-2.4,0.7-3.5,0.7c-2.6,0-4-1.5-4-3.9c0-2.8,2-5.7,5.4-5.7c1.9,0,3.2,1.1,3.2,2.8
			c0,2.3-2.3,3.2-6,3.1c0,0.3,0.1,0.7,0.3,0.9c0.4,0.5,1,0.7,1.8,0.7c1,0,1.8-0.2,2.6-0.6L229.6,143.4z M227.2,136.5
			c-1.3,0-2,1.1-2.2,1.9c2.1,0,3.2-0.3,3.2-1.1C228.2,136.8,227.8,136.5,227.2,136.5z"/>
		<path class="st1" d="M234.8,144l1.8-9.2h2.7l-1.8,9.2H234.8z M238.2,133.6c-0.8,0-1.3-0.5-1.3-1.3c0-0.9,0.7-1.5,1.6-1.5
			c0.8,0,1.4,0.5,1.4,1.3C239.9,133,239.1,133.6,238.2,133.6L238.2,133.6z"/>
		<path class="st1" d="M239.8,144l1.2-6.2c0.2-1.2,0.4-2.2,0.5-3h2.4l-0.2,1.5h0c0.9-1.2,2-1.7,3.2-1.7c1.5,0,2.4,0.9,2.4,2.5
			c0,0.4-0.1,1.1-0.2,1.5l-1,5.4h-2.7l1-5.1c0.1-0.3,0.1-0.7,0.1-1c0-0.7-0.2-1.1-0.9-1.1c-0.9,0-1.9,1.1-2.3,3.2l-0.8,4.1H239.8z"
			/>
		<path class="st1" d="M258.8,131.3h2.7l-1.6,8.4c-0.6,3.2-2,4.5-4.9,4.5c-0.8,0-1.7-0.1-2.1-0.3l0.5-2.3c0.4,0.1,0.9,0.2,1.5,0.2
			c1.2,0,1.9-0.6,2.3-2.5L258.8,131.3z"/>
		<path class="st1" d="M264.8,140.7l-1.5,3.3h-2.9l6.2-12.7h3.5l1.5,12.7h-2.9l-0.2-3.3H264.8z M268.4,138.6l-0.3-2.7
			c0-0.7-0.1-1.7-0.2-2.5h0c-0.3,0.8-0.7,1.8-1,2.5l-1.3,2.7H268.4z"/>
		<path class="st1" d="M275.3,131.5c0.8-0.2,2.1-0.3,3.3-0.3c1.2,0,2.5,0.2,3.4,0.8c0.9,0.6,1.4,1.5,1.4,2.7c0,1.6-0.7,2.8-1.7,3.6
			c-1,0.8-2.5,1.2-4.1,1.2c-0.5,0-0.8-0.1-1.1-0.1l-0.9,4.6H273L275.3,131.5z M276.9,137.2c0.3,0.1,0.6,0.1,1.1,0.1
			c1.6,0,2.7-1,2.7-2.3c0-1.2-0.9-1.6-1.9-1.6c-0.5,0-0.9,0-1.1,0.1L276.9,137.2z"/>
		<path class="st1" d="M285.9,140.7l-1.5,3.3h-2.9l6.2-12.7h3.5l1.5,12.7h-2.9l-0.2-3.3H285.9z M289.5,138.6l-0.3-2.7
			c0-0.7-0.1-1.7-0.2-2.5h0c-0.3,0.8-0.7,1.8-1,2.5l-1.3,2.7H289.5z"/>
		<path class="st1" d="M294.1,144l2.4-12.7h3.2l1.7,4.8c0.5,1.6,0.8,2.9,1.2,4.3h0.1c0.1-1.3,0.2-2.7,0.6-4.6l0.9-4.6h2.5l-2.4,12.7
			h-2.8l-1.8-5.1c-0.6-1.7-0.9-2.9-1.2-4.4h-0.1c-0.1,1.2-0.4,3.1-0.8,5.1l-0.8,4.4H294.1z"/>
	</g>
	<g>
		<path class="st1" d="M59.6,69.7l0.8-5.7c0.2-1.5,0.5-3.4,0.9-5.3h-0.1c-0.8,1.8-1.6,3.7-2.4,5.2l-2.9,5.6h-2.3L53.2,64
			c-0.1-1.5-0.2-3.4-0.3-5.2h0c-0.4,1.8-0.8,3.9-1.2,5.3l-1.4,5.7h-2.7L51.1,56h4l0.4,5.2c0.1,1.3,0.2,2.8,0.2,4.4h0.1
			c0.5-1.5,1.3-3.1,1.9-4.4l2.6-5.2h4l-1.9,13.7H59.6z"/>
		<path class="st1" d="M68.8,66.2l-1.6,3.6H64L70.8,56h3.8l1.6,13.7h-3.1l-0.3-3.6H68.8z M72.7,64L72.4,61c0-0.8-0.1-1.8-0.2-2.7h0
			c-0.4,0.8-0.7,1.9-1.1,2.7L69.7,64H72.7z"/>
		<path class="st1" d="M80.4,56.3c0.9-0.2,2.3-0.3,3.7-0.3c1.3,0,2.7,0.2,3.7,0.8c0.9,0.5,1.6,1.4,1.6,2.7c0,2-1.4,3.3-3.2,3.9v0.1
			c0.8,0.4,1.2,1.3,1.3,2.5c0.2,1.5,0.3,3.3,0.5,3.9h-3.1c-0.1-0.4-0.3-1.5-0.4-3.2c-0.1-1.7-0.7-2.2-1.9-2.2h-0.9l-1,5.4h-2.9
			L80.4,56.3z M82.2,62.1h1.2c1.6,0,2.8-1,2.8-2.3c0-1.1-0.9-1.6-2.1-1.6c-0.6,0-0.9,0-1.2,0.1L82.2,62.1z"/>
		<path class="st1" d="M100.2,69.4c-0.7,0.3-2,0.6-3.7,0.6c-3.7,0-6.2-2.2-6.2-5.8c0-3.1,1.4-5.5,3.5-6.9c1.5-1,3.1-1.4,5.1-1.4
			c1.5,0,2.7,0.3,3.1,0.6l-0.8,2.4c-0.4-0.2-1.3-0.5-2.5-0.5c-1.2,0-2.3,0.4-3.2,1.1c-1.2,1-1.9,2.5-1.9,4.4c0,2.2,1.3,3.6,3.7,3.6
			c1,0,2-0.2,2.7-0.5L100.2,69.4z"/>
		<path class="st1" d="M105.9,66.2l-1.6,3.6H101l6.8-13.7h3.8l1.6,13.7h-3.1l-0.3-3.6H105.9z M109.7,64l-0.3-2.9
			c0-0.8-0.1-1.8-0.2-2.7h0c-0.4,0.8-0.7,1.9-1.1,2.7l-1.4,2.9H109.7z"/>
		<path class="st1" d="M117.4,56.2c1.2-0.2,2.5-0.3,3.9-0.3c2.2,0,3.9,0.5,5.1,1.5c1.1,0.9,1.8,2.3,1.8,4.3c0,2.7-1.1,4.9-2.9,6.3
			c-1.6,1.3-3.7,1.8-6.7,1.8c-1.7,0-3.1-0.1-3.8-0.3L117.4,56.2z M118.2,67.4c0.4,0,0.8,0.1,1.3,0.1c1.6,0,3-0.5,4-1.6
			c1-1.1,1.4-2.5,1.4-4.1c0-2.2-1.2-3.5-3.7-3.5c-0.5,0-1,0-1.3,0.1L118.2,67.4z"/>
		<path class="st1" d="M142.8,61.5c0,2.5-0.9,4.9-2.5,6.5c-1.3,1.2-3.1,2-5.2,2c-3.6,0-5.7-2.5-5.7-5.7c0-2.5,0.9-4.9,2.6-6.5
			c1.3-1.2,3.1-2,5.1-2C140.8,55.8,142.8,58.3,142.8,61.5z M134.4,59.3c-1.1,1.1-1.7,3.2-1.7,4.9c0,1.9,0.9,3.4,2.9,3.4
			c0.9,0,1.7-0.4,2.3-1c1.1-1.1,1.7-3.3,1.7-4.9c0-1.7-0.6-3.4-2.8-3.4C135.9,58.3,135,58.6,134.4,59.3z"/>
		<path class="st1" d="M146.1,56.3c0.9-0.2,2.3-0.3,3.7-0.3c1.3,0,2.7,0.2,3.7,0.8c0.9,0.5,1.6,1.4,1.6,2.7c0,2-1.4,3.3-3.2,3.9v0.1
			c0.8,0.4,1.2,1.3,1.3,2.5c0.2,1.5,0.3,3.3,0.5,3.9h-3.1c-0.1-0.4-0.3-1.5-0.4-3.2c-0.1-1.7-0.7-2.2-1.9-2.2h-0.9l-1,5.4h-2.9
			L146.1,56.3z M147.9,62.1h1.2c1.6,0,2.8-1,2.8-2.3c0-1.1-0.9-1.6-2.1-1.6c-0.6,0-0.9,0-1.2,0.1L147.9,62.1z"/>
		<path class="st1" d="M164.6,63.9h-4.9l-0.6,3.3h5.6l-0.5,2.5h-8.6l2.7-13.7h8.3l-0.5,2.5h-5.3l-0.6,2.9h5L164.6,63.9z"/>
		<path class="st1" d="M166.8,66.6c0.8,0.5,2,0.9,3.3,0.9c1.2,0,2.2-0.5,2.2-1.6c0-0.8-0.6-1.3-1.9-1.9c-1.5-0.8-2.9-1.8-2.9-3.6
			c0-2.8,2.4-4.5,5.5-4.5c1.7,0,2.7,0.4,3.3,0.7l-0.9,2.4c-0.5-0.2-1.4-0.6-2.6-0.6c-1.4,0-2.1,0.7-2.1,1.4c0,0.8,0.8,1.3,2,1.9
			c1.7,0.9,2.8,2,2.8,3.6c0,3.1-2.6,4.6-5.7,4.6c-1.9,0-3.3-0.5-4-1L166.8,66.6z"/>
	</g>
	<path class="st0" d="M30.9,72.6C15.8,72.6,3.5,84.9,3.5,100c0,15.1,12.3,27.4,27.4,27.4c15.1,0,27.4-12.3,27.4-27.4
		C58.3,84.9,46,72.6,30.9,72.6z M52.5,112.3c-0.3,0.5-0.9,0.7-1.4,0.4l-5.7-3.3l-1.9,3.4l-1.3-5.3l-1.2-0.7l-1.9,3.4l-1.3-5.3
		l-2.7-1.5l-3.1,1.8v3.1l3.9,3.8h-3.9v1.4l3.9,3.8h-3.9v6.6c0,0.6-0.5,1-1,1c-0.6,0-1-0.5-1-1v-6.6h-3.9l3.9-3.8v-1.4h-3.9l3.9-3.8
		v-3.1l-3.1-1.8L24,105l-1.3,5.3l-1.9-3.4l-1.2,0.7l-1.3,5.3l-1.9-3.4l-5.7,3.3c-0.5,0.3-1.1,0.1-1.4-0.4c-0.3-0.5-0.1-1.1,0.4-1.4
		l5.7-3.3l-1.9-3.4l5.2,1.5l1.2-0.7l-1.9-3.4l5.2,1.5l2.7-1.6l0-3.5L23,96.6l-5.2,1.5l1.9-3.4l-1.2-0.7l-5.2,1.5l1.9-3.4l-5.7-3.3
		c-0.5-0.3-0.7-0.9-0.4-1.4c0.3-0.5,0.9-0.7,1.4-0.4l5.7,3.3l1.9-3.4l1.3,5.3l1.2,0.7l1.9-3.4l1.3,5.3l2.7,1.6l3.1-1.8v-3.1
		l-3.9-3.8h3.9v-1.4l-3.9-3.8h3.9V76c0-0.6,0.5-1,1-1c0.6,0,1,0.5,1,1v6.6h3.9l-3.9,3.8v1.4h3.9l-3.9,3.8v3.1l3.1,1.8l2.7-1.5
		l1.3-5.3l1.9,3.4l1.2-0.7l1.3-5.3l1.9,3.4l5.7-3.3c0.5-0.3,1.1-0.1,1.4,0.4c0.3,0.5,0.1,1.1-0.4,1.4l-5.7,3.3l1.9,3.4l-5.2-1.5
		l-1.2,0.7l1.9,3.4l-5.2-1.5l-2.7,1.6l0,3.5l2.7,1.5l5.2-1.5l-1.9,3.4l1.2,0.7l5.2-1.5l-1.9,3.4l5.7,3.3
		C52.6,111.2,52.8,111.8,52.5,112.3z"/>
</g>
</svg>
