<?xml version="1.0" encoding="utf-8"?>
<!-- Generator: Adobe Illustrator 24.2.0, SVG Export Plug-In . SVG Version: 6.00 Build 0)  -->
<svg version="1.1" id="Capa_1" xmlns="http://www.w3.org/2000/svg" xmlns:xlink="http://www.w3.org/1999/xlink" x="0px" y="0px"
	 viewBox="0 0 320 200" style="enable-background:new 0 0 320 200;" xml:space="preserve">
<style type="text/css">
	.st0{fill-rule:evenodd;clip-rule:evenodd;fill:#B2B2B2;}
	.st1{fill:#B2B2B2;}
</style>
<g>
	<path class="st0" d="M105,110.9l-3.5,6.4H94l14.8-27.2c0,0,0.8-1.1,1.4-1.6c1.3-1.1,2.4-1.5,4-1.5h12.1v30.3h-6.6v-6.4H105
		L105,110.9z M119.9,104.9V93h-3c-1,0-1.6,0.3-2.1,0.7c-0.5,0.3-1.2,1.2-1.4,1.6l-5.1,9.6H119.9L119.9,104.9L119.9,104.9z"/>
	<polygon class="st1" points="75.5,87.2 101.6,87.2 101.6,93.5 90.6,93.5 90.6,117.4 83.9,117.4 83.9,93.5 75.5,93.5 75.5,87.2 	"/>
	<path class="st0" d="M285.9,105.1h-4.1v12.3h-6.9V87.1h16.8c4.4,0,8.1,3.3,8.1,8c0,4.3-3.2,7.3-7.3,7.6c1.2,0.2,2.3,0.7,3,1.2
		c0.7,0.6,1,1.1,1.4,2l5.2,11.4h-7.5l-4.1-9.1c-0.4-1-1-1.7-1.6-2.2C288.1,105.4,287.1,105.1,285.9,105.1L285.9,105.1z M281.7,99.2
		h7.9c1.7,0,3-1.4,3-3c0-1.7-1.4-3-3-3h-7.9V99.2L281.7,99.2L281.7,99.2z"/>
	<path class="st1" d="M71.5,87.1l-15.5,0c-4.9,0-9,4-9,8.9c0,4.9,3.8,9,8.8,9H65c1.7,0,3.1,1.4,3.1,3.1c0,1.7-1.4,3.2-3.1,3.2
		l-18.1,0l0,6h19.2c5,0,9.2-4.2,9.2-9.2c0-5-4.1-9.1-9.2-9.1h-9c-1.7,0-3-1.4-3-3c0-1.7,1.4-2.6,3.1-2.6h14.1L71.5,87.1L71.5,87.1z"
		/>
	<path class="st0" d="M311.7,88.4l1.9,2.8h-1l-1.9-2.8h-1v2.8h-0.9v-6.2h2.7c1.1,0,2.2,0.3,2.2,1.6C313.6,88,312.8,88.4,311.7,88.4
		L311.7,88.4z M309.6,87.6h1c0.8,0,2.1,0.1,2.1-0.8c0-0.6-0.8-0.7-1.5-0.7h-1.7V87.6L309.6,87.6L309.6,87.6z"/>
	<path class="st0" d="M310.8,93.9c-3.2,0-5.7-2.5-5.7-5.6s2.5-5.6,5.7-5.6c3.2,0,5.7,2.5,5.7,5.6S314,93.9,310.8,93.9L310.8,93.9z
		 M310.8,93c2.6,0,4.8-2.1,4.8-4.8c0-2.7-2.2-4.8-4.8-4.8c-2.6,0-4.8,2.1-4.8,4.8C306,90.9,308.2,93,310.8,93L310.8,93L310.8,93z"/>
	<path class="st1" d="M3.6,101.1c0,0,10.9-8,13.6-9.5c1-0.5,4.9-1,7.1,1.7c2,2.5,0.7,6-0.1,7.4c-0.8,1.3-3.5,6.2-3.5,6.2h-7.1
		l1.4-5.8H3.6L3.6,101.1z"/>
	<path class="st1" d="M20.4,82.9c3.7,0.1,8.3,1.6,10.9,5.4c2.3,3.3,2.9,6.8,2,11.2c-1.1,4.9-7.5,14.4-7.5,14.4l-3.9-5.7
		c0.1,0,2.1-3.8,4.3-7.8c1.1-2,1.2-5.1,0-7.2c-1.4-2.4-4.2-3.4-6.5-3.4c-2.8,0-5.2,1.5-8,3.7l-4.1-5.8C9.6,85.9,15.1,82.7,20.4,82.9
		L20.4,82.9z"/>
	<polygon class="st1" points="4.8,102.6 12.9,102.6 11.6,108.3 19.9,108.3 25.9,117.2 13.8,117.2 11.1,113.3 6,113.3 5.6,108.1 
		3.5,108.1 4.8,102.6 	"/>
	<polygon class="st1" points="132.7,87.1 156.3,87.1 156.3,93.3 139.5,93.4 139.6,99.2 154.3,99.2 154.3,105.1 139.6,105.1 
		139.6,111.4 156.3,111.5 156.3,117.4 132.7,117.4 132.7,87.1 	"/>
	<polygon class="st1" points="193,87.1 219.3,87.1 219.3,93.4 209.5,93.4 209.5,117.4 202.9,117.4 202.9,93.4 193,93.4 193,87.1 	
		"/>
	<polygon class="st1" points="242.3,111.4 242.3,117.4 222.4,117.4 222.4,87.1 229.3,87.1 229.3,111.4 242.3,111.4 	"/>
	<polygon class="st1" points="246.8,87.1 270.4,87.1 270.4,93.3 253.6,93.3 253.6,99.2 268.4,99.2 268.4,105.1 253.6,105.1 
		253.6,111.4 270.4,111.4 270.4,117.4 246.8,117.4 246.8,87.1 	"/>
	<path class="st0" d="M192.1,101.9c0,10.2-4.6,15.5-12,15.5h-18.1V87.1l18,0C187.4,87.1,192,94.2,192.1,101.9L192.1,101.9z
		 M168.8,111.4h9.4c4.5,0,7.1-2.9,7.1-9.4c0-5.7-2.6-9-7.1-9h-9.4V111.4L168.8,111.4L168.8,111.4z"/>
</g>
</svg>
