<?xml version="1.0" encoding="utf-8"?>
<!-- Generator: Adobe Illustrator 24.2.0, SVG Export Plug-In . SVG Version: 6.00 Build 0)  -->
<svg version="1.1" id="Capa_1" xmlns="http://www.w3.org/2000/svg" xmlns:xlink="http://www.w3.org/1999/xlink" x="0px" y="0px"
	 viewBox="0 0 320 200" style="enable-background:new 0 0 320 200;" xml:space="preserve">
<style type="text/css">
	.st0{fill-rule:evenodd;clip-rule:evenodd;fill:#B2B2B2;}
</style>
<g>
	<path class="st0" d="M105.6,49.4v58.9c0,29-18.2,42.2-46.1,42.2c-27.9,0-46.1-13.2-46.1-42.2V49.4h36.2v55.4
		c0,7.8,0.3,14.7,9.9,14.7c9.6,0,9.9-6.9,9.9-14.7V49.4H105.6L105.6,49.4z"/>
	<polygon class="st0" points="114.2,49.4 149,49.4 149,83 171.2,83 171.2,49.4 206.1,49.4 206.1,149 171.2,149 171.2,114.4 
		149,114.4 149,149 114.2,149 114.2,49.4 	"/>
	<path class="st0" d="M306.5,49.4v58.9c0,29-18.2,42.2-46.1,42.2c-27.9,0-46.1-13.2-46.1-42.2V49.4h36.2v55.4
		c0,7.8,0.3,14.7,9.9,14.7c9.6,0,9.9-6.9,9.9-14.7V49.4H306.5L306.5,49.4z"/>
</g>
</svg>
