<?xml version="1.0" encoding="utf-8"?>
<!-- Generator: Adobe Illustrator 24.2.0, SVG Export Plug-In . SVG Version: 6.00 Build 0)  -->
<svg version="1.1" id="Capa_1" xmlns="http://www.w3.org/2000/svg" xmlns:xlink="http://www.w3.org/1999/xlink" x="0px" y="0px"
	 viewBox="0 0 320 200" style="enable-background:new 0 0 320 200;" xml:space="preserve">
<style type="text/css">
	.st0{fill:#B2B2B2;}
</style>
<g>
	<g>
		<path class="st0" d="M3.5,78.4l12.8,2.8l7.7,33.5c0,0,4.7-32.4,6.2-32.2l11.4,2.1l8.4,31.1l7.3-28.3L72,88.4
			c0,0-9.6,33.8-13.3,50.3H44L34.7,109l-3.9,29.7H18.1C18.1,138.8,4.4,95.7,3.5,78.4z"/>
		<polygon class="st0" points="66,79.9 57.7,84.4 61.9,74.7 55.8,67.2 64.6,68.3 69.8,58.9 70.9,69 80.6,69.6 72,76.3 73.3,85.9 		
			"/>
		<path class="st0" d="M108.9,91l-28.3-2.1c0,0-7.7-1-8.6,11.4c0,0,1.5,36,2.1,38.5h35.6v-10.5L87,128.1v-8.8l18.4,0.9l-0.6-11.6H87
			l-0.2-7.7l21.6,2.1L108.9,91z"/>
		<path class="st0" d="M112.3,91.2c0,0,13.5,1.3,15.2,1.1l1.5,36.4h21.6v11.1l-37.3-1.1C113.4,138.8,111.7,98.9,112.3,91.2z"/>
		<path class="st0" d="M196.5,92.9v11.6H169c0,0-4.9-0.4-4.5,4.1c0,0,0,3.4,4.9,3.2l16.7,0c0,0,10.3,0,10.3,15.6
			c0,0-0.9,11.8-10.1,12.4h-31.5l-1.1-11.4l23.6,0.6c0,0,3.4,0.6,3.6-3.4c0,0,0-3.2-4.7-3.6H168c0,0-15.2,0.8-15.1-16.3
			c0,0,0.1-12.2,12.1-12.4L196.5,92.9z"/>
		<path class="st0" d="M198.4,92.9v10.7l12,0v36.1h15v-37.7l10.5-0.8l2.8-12.5C238.7,88.8,219.4,92.7,198.4,92.9z"/>
		<path class="st0" d="M242.5,88.8l18.9-2.1c0,0,8.4,30.6,12.6,53.1h-13.5l-4.7-19.5l6-7l-6.9,1.1l-2.6-8.8l-2.4,8.8h-6l4.2,6
			l-5.7,19.5h-14.1C228.4,139.8,238.6,104.5,242.5,88.8z"/>
		<path class="st0" d="M265.2,86.7c-0.5,0.1,2.4,11.4,2.4,11.4l32.9-3.4c0,0,3-1.1,4,4.9c0,0,1.6,4.9-5.3,5.6l-22.2,2.1l-0.9,32.6
			h13.4l0.8-21.2l12.8,22.5h13.4l-12-23.6l3.3,0.2c0,0,8.3-0.2,8.7-21c0,0-0.9-17.3-12-17.1C304.5,79.7,281.9,83.7,265.2,86.7z"/>
	</g>
</g>
</svg>
