<?xml version="1.0" encoding="utf-8"?>
<!-- Generator: Adobe Illustrator 24.2.0, SVG Export Plug-In . SVG Version: 6.00 Build 0)  -->
<svg version="1.1" id="Capa_1" xmlns="http://www.w3.org/2000/svg" xmlns:xlink="http://www.w3.org/1999/xlink" x="0px" y="0px"
	 viewBox="0 0 320 200" style="enable-background:new 0 0 320 200;" xml:space="preserve">
<style type="text/css">
	.st0{fill:#B2B2B2;}
	.st1{fill:#FFFFFF;}
</style>
<g>
	<g>
		<g>
			<path class="st0" d="M163.1,110.6c0,7.1-3.4,12.3-10.1,15.7c-4.9,2.5-10.5,3.7-16.8,3.7c-1,0-4-0.5-9-1.4
				c-6.6-1.1-10.9-1.8-12.8-2c-0.8,1.4-1.1,3.5-1,6.5h-5l-1.8-2c-6.4,15.4-20.9,23-43.6,23c-11.6,0-17.5-2.7-17.5-8
				c0-2.5,1.1-5.8,3.3-9.8c-7.3-0.5-15.2-2.2-23.9-5c-14.9-5-22.3-11.5-22.3-19.6c0-9.5,5.6-17,16.8-22.2c8.2-3.8,16.3-5.7,24.4-5.7
				c5.6,0,12.6,1.9,20.9,5.6c8,3.7,14.2,7.7,18.5,12c0.2-0.5,0.6-1.2,1.3-2c0.7-0.8,1-1.4,1-1.8c0-0.5-0.4-1.1-1.2-1.8h-4.5
				c-0.6-1.5-2.3-3.6-4.9-6.1c-3.2-3.4-5.1-5.5-5.8-6.4c-5.4-7-9.2-13.5-11.1-19.6c-1.4-6.1-2.7-12.2-3.9-18.3
				c-2.6-9-6-13.4-10.2-13.4c-2.3,0-3.9,1.7-5,5.2c-0.6,2-0.9,3.9-0.9,5.7c0,3.5,0.7,7.3,2,11.2c1.6,4.6,3.5,6.8,5.8,6.5
				c0.3-1,0.4-2.2,0.4-3.5c0-2.5-0.5-5.7-1.6-9.5c2.9,0,4.3,1.2,4.2,3.5v10.4c-0.1,0.9-1,1.4-2.7,1.4c-3.1,0-5.9-3-8.5-9.1
				c-2-4.8-3-8.4-3-10.8c0-3.3,0.9-6.5,2.7-9.5c1.8-3.1,4-4.6,6.5-4.6c4.3,0,8.6,5.6,13,16.9c1.8,5.8,3.6,11.6,5.5,17.5
				c2.2,4.5,4.4,9.1,6.5,13.6C72,82.8,75.4,87.3,79,90.4c0.6-1.7,2-4.1,4-7.2c-5.3-7.5-8.8-13.7-10.6-18.7
				c-1.7-4.7-2.6-10.2-2.6-16.4c0-5.5,0.7-11.4,2.2-17.6c2-8.5,4.7-12.7,8.2-12.7c2.9,0,5.1,2.7,6.7,8c1.1,3.6,1.6,6.8,1.6,9.5
				c0,0.9-0.2,3-0.7,6.3c-0.5,4.1-0.7,6.6-0.8,7.6c-0.9,1.2-2,2.8-3.6,4.8c-1.3-0.5-3-2.9-5-7.1l1.7-8.3c0,4.6,0.7,8.2,2.1,11
				c1.6-1.5,2.5-3.6,2.7-6.1c0,0.4,0-1.6,0-6c0-0.7,0-1.7,0-3s0-2.2,0-2.7c0-3.9-1.6-7.5-4.8-10.8c-4.7,6.5-7,12.8-7,18.8
				c0,0.6,0,1.7,0,3.3c0,1.5,0,2.8,0,3.8c0,6.9,1.1,13.4,3.3,19.5c3,8.5,7.6,14.3,13.8,17.4c0.4,2.5,1.3,6.1,2.4,10.8h0.8
				c1.2-10.7,6-22.7,14.6-36c9.4-14.8,18.7-22.2,27.8-22.2c6.9,0,12.2,2.3,15.8,6.8c3.4,4.1,5,9.5,5,16.2c0,5.5-1,11.2-3,17
				c-2.2,6.5-5.2,11.5-9.1,15.3c6.6,2.5,11.3,5,13.9,7.4C161.5,102,163.1,105.8,163.1,110.6z M103.7,128
				c-5.5-4.5-11.7-10.8-18.5-18.8c-0.5-0.5-1-1.7-1.5-3.4c-0.5-1.5-1-2.4-1.5-2.9c-10.5-8.5-24.1-12.7-40.6-12.7
				c-5.6,0-11.6,1.2-17.9,3.7c-9,3.4-13.5,8.2-13.5,14.5c0,6.9,4.9,12.3,14.6,16.1c7.2,2.8,14,4.2,20.6,4.2c5.1,0,8.3-0.1,9.5-0.3
				c0.6-0.1,1.7-0.6,3.3-1.6s2.8-1.4,3.6-1.4c2.7,0,5,1.3,6.7,3.9c-1.9,1.8-4,3.3-6.3,4.4c-1.8,0.7-3.7,1.5-5.6,2.2
				c-2.4,1.6-3.5,3.1-3.4,4.7v9.1l1.6-1.1c3,0.7,7,1.1,12,1.1c6.4,0,13.5-2.2,21.4-6.5C96.6,138.5,101.7,133.5,103.7,128z
				 M86.8,88.1c-1.8,0-2.7,1-2.7,3.1c0.5,0,1.1,0.4,1.6,1.3s0.8,1.6,0.8,2.1C88.1,91.6,88.2,89.4,86.8,88.1z M156.5,110
				c0-2.5-1.7-5.1-5.2-7.8c-3.5-2.8-6.9-4.2-10.2-4.2c-1.1,0-3.8,1.5-8.2,4.4s-7.7,4.4-10,4.4c-1.8,0-3-0.1-3.4-0.3
				c-0.5-0.2-1.3-1.1-2.6-2.5c1.5-3.8,4.8-6.9,10-9.1c3.2-1.3,6.4-2.5,9.5-3.8c6-4.4,10.7-11.4,14-20.9c0.4-0.8,0.6-3.2,0.6-7.2
				c0-3.9-0.7-7.9-2.2-11.9c-2.1-6.1-5.2-9.1-9.4-9.1c-5.3,0-11.6,3.5-19,10.5c-6.7,6.4-12.7,13.9-17.9,22.6
				c-5.2,8.7-7.8,15.7-7.8,20.9c0,0.9,1.4,2.8,4.2,5.6c3.5,3.5,5.6,5.9,6.5,7.2c0.4,0.6,1.4,3.1,3.3,7.5c1.3,3.1,2.5,5,3.8,5.7
				c3.1,1.6,9.4,2.5,18.9,2.5c5.2,0,10.1-0.9,14.9-2.7C153.2,119.1,156.5,115.2,156.5,110z"/>
			<path class="st0" d="M63,154.1c-5.8,0-10.2-0.7-13.1-2c-2.9-1.3-4.4-3.4-4.4-6.1c0-2.5,1.1-5.8,3.2-9.8c-7.2-0.6-15.2-2.3-23.8-5
				c-7.4-2.4-13.1-5.3-16.8-8.5c-3.7-3.3-5.6-7-5.6-11.1c0-4.8,1.4-9.1,4.2-12.8c2.8-3.7,7-6.9,12.6-9.5c8.1-3.8,16.4-5.7,24.4-5.7
				c5.6,0,12.7,1.9,20.9,5.6c7.9,3.7,14.1,7.7,18.5,11.9c0.2-0.5,0.6-1.2,1.3-1.9c0.7-0.8,1-1.4,1-1.8c0-0.5-0.4-1.1-1.2-1.7h-4.5
				l0,0c-0.6-1.5-2.3-3.6-4.9-6.1c-3.1-3.3-5.1-5.5-5.9-6.4c-5.4-7-9.2-13.6-11.2-19.7c-1.3-6-2.7-12.1-3.9-18.3
				C51.4,36.5,48,32,43.8,32c-2.2,0-3.9,1.7-5,5.1c-0.6,2-0.9,3.9-0.9,5.7c0,3.5,0.7,7.3,2,11.2c1.5,4.3,3.3,6.5,5.3,6.5
				c0.1,0,0.2,0,0.3,0c0.3-1,0.4-2.1,0.4-3.5c0-2.5-0.5-5.7-1.6-9.5v-0.1h0.1c1.6,0,2.8,0.4,3.5,1.1c0.6,0.6,0.8,1.4,0.8,2.5v10.4
				c-0.1,1-1,1.4-2.8,1.4c-3.1,0-6-3.1-8.5-9.2c-2-4.8-3-8.4-3-10.8c0-3.3,0.9-6.5,2.7-9.6s4-4.7,6.6-4.7c4.3,0,8.7,5.7,13,17l0.6,2
				c1.6,5.1,3.2,10.3,4.8,15.4l1.9,3.9c1.6,3.2,3.1,6.5,4.7,9.7c3.1,5.8,6.5,10.3,10.1,13.4c0.7-1.7,2-4.1,3.9-7.1
				c-5.2-7.4-8.8-13.7-10.6-18.7c-1.7-4.7-2.6-10.2-2.6-16.4c0-5.5,0.7-11.5,2.2-17.6c2-8.4,4.8-12.7,8.3-12.7
				c2.9,0,5.2,2.7,6.8,8.1c1.1,3.6,1.6,6.9,1.6,9.6c0,0.9-0.2,3-0.7,6.3C87.2,45.5,87,48,86.9,49l0,0l0,0c-0.7,1.4-1.9,3-3.4,5l0,0
				h-0.1c-1.3-0.6-3-2.9-5.1-7.1l0,0l0,0l1.7-8.3h0.2c0,4.5,0.7,8.1,2.1,10.9c1.5-1.5,2.4-3.5,2.6-6V31.8c0-3.8-1.6-7.4-4.7-10.7
				c-4.6,6.5-7,12.8-7,18.7v7.1c0,6.9,1.1,13.4,3.3,19.5c3,8.4,7.6,14.3,13.7,17.4l0,0l0,0c0.4,2.5,1.2,6,2.4,10.7h0.7
				c1.2-10.7,6.1-22.8,14.6-36c4.7-7.4,9.4-13,14-16.7s9.3-5.6,13.8-5.6c6.9,0,12.2,2.3,15.8,6.8c3.4,4.1,5.1,9.6,5.1,16.3
				c0,5.5-1,11.3-3,17.1c-2.2,6.4-5.2,11.5-9.1,15.2c6.5,2.5,11.2,5,13.8,7.3c3.2,2.9,4.8,6.8,4.8,11.5c0,7.1-3.4,12.4-10.1,15.7
				c-4.9,2.4-10.5,3.7-16.8,3.7c-1,0-4-0.4-9-1.4c-6.6-1.1-10.9-1.8-12.8-2c-0.8,1.3-1.1,3.5-0.9,6.5v0.1h-5.2l-1.7-2
				c-3.2,7.6-8.4,13.4-15.7,17.2C83.7,152.2,74.3,154.1,63,154.1L63,154.1z M43.7,83.8c-8,0-16.2,1.9-24.4,5.7
				c-11,5.2-16.6,12.7-16.6,22.2c0,4.1,1.9,7.7,5.6,11c3.7,3.2,9.3,6.1,16.7,8.5c8.6,2.8,16.6,4.5,23.8,5h0.1l-0.1,0.1
				c-2.2,4-3.3,7.3-3.3,9.8c0,2.6,1.5,4.6,4.3,6c2.9,1.3,7.3,2,13.1,2c22.6,0,37.2-7.7,43.6-23l0.1-0.1l1.8,2.1h4.9
				c-0.2-3,0.2-5.1,1-6.5l0,0l0,0c1.9,0.3,6.2,1,12.8,2c5.1,0.9,8,1.4,9,1.4c6.2,0,11.9-1.2,16.7-3.7c6.7-3.3,10-8.6,10-15.6
				c0-4.7-1.6-8.5-4.7-11.4c-2.6-2.3-7.3-4.8-13.9-7.3h-0.1l0.1-0.1c3.9-3.7,6.9-8.8,9.1-15.2c2-5.8,3-11.5,3-17
				c0-6.7-1.7-12.1-5-16.2c-3.6-4.5-8.9-6.8-15.7-6.8c-4.5,0-9.1,1.9-13.7,5.5c-4.6,3.7-9.3,9.3-14,16.7
				c-8.5,13.2-13.4,25.3-14.6,36V95h-0.9v-0.1c-1.2-4.7-2-8.2-2.4-10.7c-6.1-3.2-10.8-9.1-13.8-17.5C74.1,60.3,73,53.8,73,46.9v-7.1
				c0-6,2.4-12.3,7.1-18.9v-0.1l0.1,0.1c3.2,3.3,4.8,6.9,4.8,10.8v11.8c-0.2,2.5-1.1,4.6-2.7,6.1l-0.1,0.1v-0.1
				c-1.3-2.7-2.1-6.2-2.1-10.4l-1.6,7.6c2,4.1,3.7,6.4,4.9,7c1.5-2,2.6-3.5,3.4-4.7c0.1-1,0.4-3.5,0.8-7.6c0.4-3.3,0.7-5.4,0.7-6.3
				c0-2.7-0.5-5.9-1.6-9.5c-1.5-5.3-3.8-8-6.6-8c-3.4,0-6.1,4.2-8.1,12.6c-1.4,6.1-2.2,12.1-2.2,17.6c0,6.1,0.9,11.6,2.6,16.3
				c1.8,5,5.4,11.2,10.6,18.7l0,0l0,0c-2,3.1-3.3,5.5-4,7.2v0.1l-0.1-0.1c-3.6-3.1-7.1-7.6-10.2-13.5c-1.6-3.2-3.1-6.5-4.7-9.7
				L62.1,63c-1.6-5.1-3.2-10.3-4.8-15.4l-0.6-2c-4.4-11.1-8.7-16.8-13-16.8c-2.5,0-4.7,1.5-6.5,4.6s-2.7,6.3-2.7,9.5
				c0,2.3,1,6,3,10.7c2.5,6,5.3,9.1,8.4,9.1c1.7,0,2.6-0.4,2.7-1.3V51.1c0-1-0.2-1.8-0.8-2.4c-0.7-0.7-1.8-1-3.3-1.1
				c1.1,3.8,1.6,6.9,1.6,9.5c0,1.4-0.1,2.6-0.4,3.6l0,0l0,0c-2.3,0.3-4.2-1.9-5.8-6.6c-1.3-3.9-2-7.7-2-11.2c0-1.8,0.3-3.8,1-5.8
				c1.1-3.5,2.8-5.2,5.1-5.2c4.3,0,7.7,4.5,10.1,13.3c1.3,6.1,2.6,12.3,3.9,18.3c2,6,5.7,12.7,11.1,19.6c0.7,0.9,2.7,3.1,5.8,6.4
				c2.6,2.5,4.2,4.6,4.9,6.1h4.5l0,0c0.8,0.6,1.3,1.3,1.3,1.8s-0.3,1.1-1,1.9s-1.1,1.4-1.3,2v0.1l-0.1-0.1
				c-4.3-4.2-10.6-8.3-18.5-12C56.4,85.7,49.4,83.8,43.7,83.8L43.7,83.8z M53.2,149.8v-9.2c-0.1-1.6,1.1-3.2,3.4-4.7l0,0
				c2-0.8,3.8-1.5,5.6-2.2c2.2-1.1,4.3-2.5,6.2-4.4c-1.7-2.5-3.9-3.8-6.6-3.8c-0.8,0-2,0.5-3.6,1.4c-1.6,1-2.7,1.5-3.4,1.6
				c-1.3,0.2-4.4,0.3-9.6,0.3c-6.5,0-13.5-1.4-20.6-4.2c-4.9-1.9-8.5-4.2-11-6.9c-2.4-2.7-3.7-5.8-3.7-9.3c0-6.3,4.6-11.2,13.5-14.5
				c6.2-2.4,12.3-3.7,17.9-3.7c8.2,0,15.8,1.1,22.6,3.2c6.7,2.1,12.8,5.3,18.1,9.5c0.6,0.5,1.1,1.4,1.5,2.9c0.5,1.7,1,2.8,1.5,3.4
				c6.8,8,13,14.3,18.5,18.8l0,0l0,0c-2,5.4-7.2,10.5-15.4,15.2c-7.9,4.3-15.1,6.6-21.4,6.6c-5,0-9-0.4-12-1.1L53.2,149.8
				L53.2,149.8z M54.9,148.5L54.9,148.5c3,0.7,7,1.1,12,1.1c6.3,0,13.5-2.2,21.4-6.5c8.2-4.6,13.4-9.6,15.4-15
				c-5.5-4.5-11.7-10.8-18.5-18.8c-0.5-0.6-1-1.7-1.5-3.4c-0.5-1.5-0.9-2.4-1.5-2.8C71.7,94.6,58,90.3,41.6,90.3
				C36,90.3,30,91.6,23.7,94c-8.9,3.3-13.5,8.2-13.5,14.4c0,6.8,4.9,12.2,14.5,16c7.1,2.8,14.1,4.2,20.6,4.2c5.1,0,8.3-0.1,9.5-0.3
				c0.6-0.1,1.7-0.6,3.3-1.6s2.8-1.4,3.6-1.4c2.7,0,5,1.3,6.7,3.9l0,0l0,0c-1.9,1.8-4,3.3-6.3,4.4c-1.8,0.7-3.6,1.4-5.6,2.2
				c-2.3,1.5-3.5,3.1-3.4,4.6v9L54.9,148.5L54.9,148.5z M131.7,124.4c-9.5,0-15.9-0.8-19-2.5c-1.3-0.7-2.6-2.7-3.8-5.8
				c-1.8-4.3-2.9-6.9-3.3-7.5c-0.9-1.4-3.1-3.8-6.5-7.2c-2.9-2.9-4.2-4.7-4.2-5.6c0-5.2,2.6-12.2,7.8-20.9
				c5.2-8.7,11.2-16.3,17.9-22.6c7.3-7,13.7-10.5,19-10.5c4.2,0,7.4,3.1,9.5,9.2c1.4,4,2.2,8,2.2,11.9c0,4-0.2,6.4-0.6,7.3
				c-3.3,9.4-8.1,16.5-14.1,20.9l0,0c-2.1,0.8-4.2,1.7-6.3,2.5l-3.2,1.3c-5.1,2.2-8.4,5.3-9.9,9c1.2,1.4,2.1,2.2,2.5,2.5
				c0.4,0.2,1.6,0.3,3.4,0.3c2.2,0,5.6-1.5,9.9-4.3c4.4-2.9,7.1-4.4,8.2-4.4c3.4,0,6.8,1.4,10.3,4.2c3.5,2.8,5.2,5.4,5.2,7.9
				c0,5.2-3.4,9.1-10,11.7C141.9,123.5,136.9,124.4,131.7,124.4L131.7,124.4z M139.5,41.9c-5.2,0-11.6,3.5-18.9,10.5
				c-6.7,6.3-12.7,13.9-17.8,22.6C97.6,83.7,95,90.7,95,95.8c0,0.9,1.4,2.7,4.2,5.5c3.4,3.4,5.6,5.9,6.6,7.2
				c0.4,0.6,1.5,3.2,3.3,7.5c1.3,3.1,2.5,5,3.8,5.7c3.1,1.6,9.4,2.4,18.9,2.4c5.2,0,10.1-0.9,14.8-2.7c6.6-2.5,9.9-6.4,9.9-11.5
				c0-2.4-1.7-5-5.2-7.8c-3.4-2.8-6.8-4.1-10.2-4.1c-1.1,0-3.8,1.5-8.1,4.3c-4.4,2.9-7.7,4.4-10,4.4c-1.9,0-3-0.1-3.4-0.3
				c-0.5-0.2-1.3-1.1-2.6-2.5l0,0l0,0c1.5-3.8,4.8-6.9,10-9.2l3.2-1.3c2.1-0.8,4.2-1.7,6.3-2.5c6-4.4,10.7-11.4,14-20.8
				c0.4-0.8,0.5-3.2,0.5-7.2c0-3.9-0.7-7.9-2.2-11.8C146.7,45,143.6,41.9,139.5,41.9L139.5,41.9z M86.6,94.6L86.6,94.6
				c-0.1-0.5-0.4-1.2-0.9-2.1c-0.5-0.8-1.1-1.3-1.6-1.3H84v-0.1c0-2.1,0.9-3.2,2.8-3.2l0,0l0,0C88.3,89.4,88.2,91.6,86.6,94.6
				L86.6,94.6z M84.2,91.1c0.5,0,1.1,0.5,1.6,1.3c0.5,0.7,0.7,1.4,0.8,1.9c1.4-2.8,1.5-4.9,0.2-6.2C85.1,88.2,84.2,89.1,84.2,91.1
				L84.2,91.1z"/>
		</g>
	</g>
	<g>
		<path class="st0" d="M42.7,129.1c-2.1,0-4-0.3-5.9-0.8c-1.9-0.6-3.5-1.4-4.8-2.3c-1.4-1-2.4-2.1-3.2-3.4c-0.8-1.3-1.2-2.7-1.2-4.2
			c0-1.1,0.2-2.3,0.7-3.7c0.4-1.2,1.1-2.5,2.2-4.1c1-1.5,2.1-2.8,3.3-4c0.7-0.8,1.5-1.5,2.2-2.2s1.6-1.3,2.5-2c1-0.7,2-1.3,3-1.9
			c1.1-0.6,2.1-1.1,2.9-1.6c1.9-0.9,3.5-1.5,4.9-2c1.7-0.6,3.3-1,4.7-1.3c1.6-0.3,2.8-0.4,4-0.4c2.9,0,5.3,0.6,7,1.7
			s2.5,2.7,2.5,4.7s-0.7,4.2-2.1,6.5c-1.5,2.3-3.3,4.2-5.6,5.9c-1.6,1.2-3.2,2.1-4.8,2.8c-1.6,0.7-3,1-4.3,1l0,0
			c-1.5,0-1.8-0.7-1.8-1.3c0-0.4,0.3-0.9,0.9-1.6c0.8-0.8,1.6-1.9,2.8-3.9c0.9-1.7,1.6-3.5,2.2-5.4c0.6-2,0.9-3.7,0.9-5
			c0-0.5-0.1-0.8-0.3-1c-0.1-0.1-0.2-0.2-0.4-0.2c-0.5,0-1.4,0.5-2.8,1.5c-2.1,1.6-3.9,3.4-5.4,5.4s-2.8,4.1-3.7,6.3
			c-0.9,2.2-1.3,4.2-1.3,6.3c0,1.6,0.2,2.7,0.7,3.3c0.5,0.5,1.3,0.8,2.6,0.8c1.2,0,2.6-0.2,4.3-0.7c4-1.2,8.2-2.8,12.4-4.8
			c2-0.9,3.2-1.3,3.8-1.3l0,0c0.5,0,0.8,0.1,1,0.3c0.1,0.2,0.2,0.4,0.2,0.6v0.1l0,0c-0.1,0.8-0.5,1.6-1.1,2.5
			c-1.2,1.8-2.2,3-3.1,3.5c-1.5,1-3.5,1.9-6,2.7c-2.4,0.9-5,1.6-7.7,2.2C46.7,128.8,44.5,129.1,42.7,129.1L42.7,129.1z M58.1,95.5
			c-1.1,0-2.3,0.1-3.9,0.4c-1.4,0.3-3,0.7-4.7,1.3c-1.5,0.5-3,1.1-4.9,2c-0.9,0.4-1.9,0.9-2.9,1.5c-1,0.5-2,1.2-3,1.9
			c-0.9,0.7-1.8,1.3-2.5,2c-0.7,0.6-1.4,1.3-2.1,2.2c-1.2,1.2-2.3,2.5-3.2,4c-1,1.6-1.7,2.9-2.1,4.1c-0.5,1.3-0.7,2.5-0.7,3.6
			c0,1.5,0.4,2.8,1.1,4.1c0.8,1.3,1.8,2.4,3.1,3.4c1.3,0.9,2.9,1.7,4.7,2.3c1.8,0.5,3.7,0.8,5.8,0.8c1.7,0,4-0.3,6.6-0.8
			c2.7-0.6,5.3-1.3,7.7-2.2c2.4-0.8,4.4-1.7,5.9-2.7c0.8-0.5,1.9-1.7,3-3.4c0.6-0.9,0.9-1.7,1-2.4l0,0l0,0c0-0.2,0-0.3-0.1-0.4
			c-0.1-0.2-0.4-0.2-0.8-0.2l0,0c-0.5,0-1.7,0.4-3.7,1.3c-4.2,2-8.3,3.6-12.4,4.8c-1.7,0.5-3.2,0.7-4.4,0.7c-1.4,0-2.3-0.3-2.8-0.9
			s-0.8-1.8-0.8-3.4c0-2.1,0.4-4.1,1.3-6.4c0.9-2.2,2.1-4.3,3.7-6.3c1.5-2,3.4-3.9,5.5-5.5c1.4-1,2.3-1.5,2.9-1.5
			c0.3,0,0.5,0.1,0.6,0.2c0.2,0.2,0.3,0.6,0.3,1.2c0,1.3-0.3,3-1,5c-0.6,1.9-1.3,3.7-2.2,5.5c-1.2,2-2.1,3.1-2.9,3.9
			c-0.6,0.6-0.9,1.1-0.9,1.4c0,0.7,0.5,1,1.5,1l0,0c1.2,0,2.6-0.3,4.2-1c1.6-0.7,3.2-1.6,4.7-2.8c2.3-1.6,4.1-3.5,5.5-5.8
			c1.4-2.2,2.1-4.3,2.1-6.3c0-1.9-0.8-3.4-2.4-4.5C63.3,96,61,95.5,58.1,95.5L58.1,95.5z"/>
	</g>
	<g>
		<path class="st0" d="M82,129.5L82,129.5c-2.5,0-4.7-0.6-6.3-1.8c-1.7-1.3-2.5-2.8-2.5-4.7c0-1.2,0.4-2.5,1.2-4.1
			c0.8-1.5,1.9-3.1,3.4-4.6c2.4-2.5,5.3-4.5,8.9-6.3c3.7-1.8,7.3-2.7,10.7-2.7c2.9,0,5.3,0.4,7.2,1.3c1.9,0.8,2.8,2,2.8,3.3
			c0,0.9-0.4,1.9-1.2,2.9c1.1,0,1.8,0.1,2.1,0.3c0.3,0.2,0.5,0.6,0.5,1.3l0,0v0.1c0,0,0,0,0,0.1h-0.1h0.1c0,0,0,0.1-0.2,1
			c-0.1,1.4-0.2,2.9-0.2,4.5c0,0.7,0,1.2,0,1.5v0.1c0,0.3,0,0.6,0.1,1v0.3c0.1,0.5,0.1,0.9,0.2,1.2c0.2,0.7,0.5,1.5,0.9,2.2l0.1,0.1
			l-0.1,0.1c-1.4,1-2.7,1.7-3.9,2.1c-1.2,0.4-2.5,0.7-3.8,0.7l0,0c-3.5,0-5.3-2.2-5.4-6.4c0-0.3,0-0.6,0.1-0.9c0,0,0,0,0-0.1
			c-2,1.6-3.8,3.1-5.6,4.2c-1.8,1.2-3.4,2-4.9,2.5C84.6,129.3,83.3,129.5,82,129.5L82,129.5z M97.5,105.5c-3.4,0-6.9,0.9-10.6,2.6
			c-3.6,1.8-6.5,3.8-8.9,6.2c-1.5,1.6-2.5,3-3.3,4.6s-1.2,2.9-1.2,4c0,1.8,0.8,3.3,2.4,4.5s3.7,1.8,6.1,1.8c1.2,0,2.5-0.3,4-0.8
			c1.5-0.6,3.1-1.4,4.8-2.5c1.8-1.2,3.7-2.6,5.7-4.3l0.1-0.1l0,0l0.2,0.2l0,0h0.1v0.4l0,0c0,0.2,0,0.5,0,0.8c0,4.1,1.7,6.1,5.1,6.1
			l0,0c1.2,0,2.5-0.2,3.7-0.7c1.2-0.4,2.4-1.1,3.8-2c-0.4-0.7-0.7-1.5-0.8-2.2c-0.1-0.3-0.1-0.7-0.2-1.2v-0.3c0-0.4-0.1-0.7-0.1-1
			v-0.1c0-0.3,0-0.9,0-1.5c0-1.6,0.1-3.1,0.2-4.5c0.1-0.6,0.1-0.8,0.2-1l0,0l0,0l0,0l0,0c0-0.6-0.1-1-0.4-1.2s-1-0.3-2.2-0.3h-0.3
			l0.2-0.2c0.9-1.1,1.3-2,1.3-3c0-1.2-0.9-2.3-2.7-3.1C102.7,105.9,100.3,105.5,97.5,105.5L97.5,105.5z M88.4,122.4
			c-0.8,0-1.5-0.3-2-0.9s-0.8-1.4-0.8-2.3c0-1.4,0.6-2.9,1.9-4.7c1.2-1.7,2.9-3.4,5-5c0.7-0.6,1.3-0.8,1.7-0.8l0,0
			c0.5,0,0.9,0.3,1.2,0.9c0.3,0.6,0.5,1.2,0.5,2c0,1.2-0.6,2.6-1.9,4c-0.4,0.5-0.5,0.7-0.5,0.8c0,0.1,0,0.2,0.2,0.2
			c0.2,0.1,0.5,0.1,0.9,0.1h0.1h0.1c0.7,0,1.8-0.2,3.5-0.5l0.7-0.1l0.3,0.2l-1,0.6c-2.2,1.6-4.2,3-6.1,4
			C90.3,121.9,89.1,122.4,88.4,122.4L88.4,122.4z M94.2,108.8c-0.3,0-0.9,0.3-1.5,0.8c-2.1,1.6-3.8,3.3-5,5s-1.8,3.2-1.8,4.5
			c0,0.9,0.3,1.6,0.7,2.1c0.5,0.5,1.1,0.8,1.8,0.8c0.6,0,1.8-0.5,3.6-1.5c1.8-1,3.8-2.4,6-4l0.5-0.3l-0.2,0.1
			c-1.6,0.3-2.8,0.5-3.5,0.5h-0.1h-0.1c-0.4,0-0.7,0-1-0.1s-0.4-0.3-0.4-0.5s0.4-0.7,0.6-0.9c1.2-1.4,1.9-2.7,1.9-3.8
			c0-0.7-0.2-1.3-0.5-1.8C94.9,109.1,94.5,108.8,94.2,108.8L94.2,108.8z"/>
	</g>
	<g>
		<path class="st0" d="M123.5,128.4c-2.4,0-4.3-0.6-5.8-1.7c-1.5-1.2-2.2-2.7-2.2-4.7c0-0.8,0.2-1.8,0.6-3.2
			c0.4-1.2,0.9-2.9,1.9-5.3c0.1-0.3,0.2-0.8,0.4-1.3c0.1-0.2,0.1-0.4,0.2-0.5l0,0c-0.9,0-1.5-0.2-1.8-0.4c-0.4-0.3-0.6-0.7-0.6-1.4
			c0-1,0.5-2,1.7-3c1.1-0.9,2.4-1.5,3.9-1.7l0.1-0.2c1.5-3,2.8-5.1,3.9-6.4c0.5-0.6,1.3-1.1,2.2-1.6c1.8-0.8,3.4-1.2,5-1.2
			c0.9,0,1.6,0.2,2.1,0.5s0.8,0.8,0.8,1.4c0,0.4-0.3,1.1-1,2.3c-1,1.7-1.9,3.4-2.5,5.2h0.1c0.3,0,0.6,0.1,0.9,0.1
			c1.4,0.2,2.2,0.3,2.7,0.5s0.7,0.6,0.7,1.1c0,0.9-0.3,1.7-0.9,2.5c-0.6,0.7-1.5,1.3-2.5,1.6c-0.7,0.2-1.8,0.4-3.6,0.5
			c-0.3,0.6-0.6,1.4-0.9,2.5c-0.2,1.2-0.5,2.5-0.7,4l0,0c-0.1,0.6-0.2,1.2-0.2,1.7c0,2.5,1.7,3.7,5.1,3.7h0.2h0.1l0,0
			c0.4,0,0.7,0,0.7,0.3s-0.3,0.7-1.2,1.4c-0.8,0.6-1.6,1.2-2.6,1.7c-0.9,0.5-2,0.9-3.3,1.2C125.6,128.3,124.5,128.4,123.5,128.4
			L123.5,128.4z M132.8,96c-1.5,0-3.1,0.4-4.9,1.2c-0.9,0.4-1.6,0.9-2.1,1.5c-1.1,1.2-2.4,3.4-3.8,6.3l-0.1,0.4h-0.1
			c-1.5,0.2-2.7,0.7-3.8,1.7c-1.1,0.9-1.6,1.8-1.6,2.8c0,0.5,0.2,0.9,0.5,1.1s0.9,0.4,1.9,0.4h0.2v0.2c0,0,0,0.1-0.1,0.2
			c0,0.1-0.1,0.3-0.2,0.5c-0.2,0.5-0.3,0.9-0.4,1.2c-0.9,2.4-1.5,4-1.8,5.3c-0.4,1.3-0.6,2.4-0.6,3.1c0,1.9,0.7,3.3,2.1,4.5
			c1.5,1.1,3.4,1.7,5.7,1.7c0.9,0,2-0.1,3.2-0.4s2.3-0.7,3.2-1.1c0.9-0.5,1.7-1,2.5-1.6c0.3-0.2,1.1-0.9,1.1-1.2c0,0-0.2,0-0.4,0
			H133c-3.5,0-5.3-1.3-5.3-4c0-0.6,0.1-1.2,0.2-1.8c0.2-1.5,0.4-2.9,0.7-4l0,0c0.4-1.1,0.7-2,1-2.6v-0.1h0.1
			c1.8-0.1,2.9-0.3,3.6-0.5c1-0.3,1.8-0.8,2.4-1.5c0.6-0.7,0.9-1.5,0.9-2.3c0-0.4-0.2-0.7-0.6-0.9c-0.4-0.2-1.3-0.3-2.6-0.5
			c-0.3-0.1-0.6-0.1-0.9-0.1h-0.4l0.1-0.2c0.7-1.8,1.5-3.6,2.6-5.4c0.8-1.4,1-2,1-2.2c0-0.5-0.2-0.9-0.6-1.2
			C134.3,96.2,133.6,96,132.8,96L132.8,96z"/>
	</g>
	<g>
		<path class="st0" d="M150.8,129.6L150.8,129.6c-2.5,0-4.7-0.6-6.3-1.8c-1.7-1.2-2.5-2.8-2.5-4.7c0-1.2,0.4-2.6,1.2-4.1
			c0.8-1.6,1.9-3.1,3.4-4.6c2.4-2.5,5.3-4.5,8.9-6.3c3.7-1.8,7.3-2.7,10.7-2.7l0,0c2.9,0,5.3,0.4,7.2,1.3c1.9,0.8,2.9,2,2.9,3.3
			c0,0.9-0.4,1.8-1.3,2.9c1.1,0,1.8,0.1,2.1,0.3c0.4,0.2,0.5,0.6,0.5,1.4h-0.1h0.1c0,0,0,0.1,0,0.2c0,0.2-0.1,0.4-0.1,0.8
			c-0.1,1.7-0.2,3.2-0.2,4.5v0.2c0,0.6,0,1.1,0.1,1.4l0,0c0,0.3,0,0.8,0.1,1.3c0,0.4,0.1,0.8,0.2,1.1v0.1c0.2,0.8,0.5,1.5,0.9,2.2
			l0.1,0.1l-0.1,0.1c-1.4,1-2.7,1.7-3.9,2.1c-1.3,0.5-2.5,0.7-3.8,0.7l0,0c-1.8,0-3.1-0.5-4-1.6s-1.3-2.7-1.3-4.8c0-0.3,0-0.7,0-0.9
			c-2,1.7-3.9,3.1-5.7,4.2s-3.3,2-4.8,2.6C153.4,129.3,152.1,129.6,150.8,129.6L150.8,129.6z M166.3,105.5c-3.4,0-6.9,0.9-10.6,2.6
			c-3.6,1.8-6.5,3.8-8.9,6.2c-1.5,1.5-2.6,3-3.3,4.6c-0.8,1.5-1.2,2.9-1.2,4c0,1.9,0.8,3.3,2.4,4.5c1.6,1.2,3.7,1.8,6.2,1.8
			c1.2,0,2.5-0.3,4-0.8c1.5-0.6,3-1.4,4.8-2.5c1.8-1.2,3.7-2.6,5.8-4.3l0.1-0.1l0.2,0.2l0,0h0.1v0.4h-0.1c0,0.2,0,0.5,0,0.8
			c0,2,0.4,3.6,1.3,4.6c0.8,1,2.1,1.5,3.8,1.5l0,0c1.2,0,2.5-0.2,3.7-0.7c1.1-0.4,2.4-1.1,3.8-2c-0.4-0.7-0.7-1.4-0.9-2.2V124
			c-0.1-0.3-0.1-0.7-0.2-1.1c-0.1-0.5-0.1-1-0.1-1.3s-0.1-0.8-0.1-1.4V120c0-1.3,0.1-2.8,0.2-4.5c0.1-0.4,0.1-0.7,0.1-0.8
			c0-0.1,0-0.2,0-0.2c0-0.6-0.1-1-0.4-1.2c-0.3-0.2-1-0.3-2.2-0.3h-0.3l0.2-0.2c0.9-1.1,1.4-2.1,1.4-3c0-1.2-0.9-2.3-2.7-3.1
			C171.5,106,169.1,105.5,166.3,105.5L166.3,105.5L166.3,105.5z M157.2,122.4c-0.8,0-1.5-0.3-2-0.9s-0.8-1.4-0.8-2.3
			c0-1.4,0.6-3,1.9-4.7c1.2-1.7,2.9-3.4,5-5c0.7-0.6,1.3-0.8,1.7-0.8l0,0l0,0c0.5,0,0.8,0.3,1.2,0.9s0.5,1.3,0.5,2
			c0,1.2-0.7,2.5-1.9,4c-0.5,0.6-0.5,0.8-0.5,0.8c0,0.1,0,0.1,0.1,0.1c0.1,0.1,0.3,0.2,1.1,0.2c0.7,0,1.9-0.2,3.5-0.5l0.7-0.1
			l0.3,0.2l-1.1,0.6c-2.2,1.6-4.2,3-6,4C159.2,121.9,157.9,122.4,157.2,122.4L157.2,122.4z M163,108.9L163,108.9
			c-0.4,0-0.9,0.3-1.6,0.8c-2.1,1.6-3.8,3.3-4.9,5c-1.2,1.7-1.8,3.2-1.8,4.5c0,0.8,0.2,1.6,0.7,2.1c0.5,0.6,1.1,0.8,1.8,0.8
			c0.6,0,1.9-0.5,3.6-1.5c1.8-1,3.8-2.3,6-4l0,0l0.5-0.3l-0.3,0.1c-1.6,0.3-2.8,0.5-3.5,0.5s-1.1-0.1-1.3-0.3
			c-0.1-0.1-0.1-0.2-0.1-0.3c0-0.1,0.2-0.5,0.6-1c1.2-1.4,1.8-2.7,1.9-3.8c0-0.7-0.2-1.3-0.5-1.8C163.7,109.2,163.4,108.9,163,108.9
			L163,108.9z"/>
	</g>
	<g>
		<path class="st0" d="M194.4,129L194.4,129c-3.1,0-5.5-0.7-7.5-2.1c-1.9-1.4-2.9-3.3-2.9-5.5c0-1.8,0.5-4,1.6-6.4
			c1-2.4,2.5-4.8,4.3-7.4c1.9-2.6,3.9-4.7,6-6.7c2.2-2.1,4.4-3.6,6.4-4.7c1.3-0.7,2.8-1,4.4-1c1.3,0,2.4,0.3,3.4,0.8
			c1.1,0.6,1.8,1.4,2.4,2.3c0.6,1,0.8,2.2,0.8,3.3c0,2.6-0.7,5.1-2.1,7.5c-1.5,2.5-3.4,4.6-5.8,6.4c-1.4,1-2.4,1.6-3.4,2
			c-1.1,0.5-2.1,0.7-2.9,0.7l0,0c-0.9,0-1.3-0.3-1.3-0.8c0-0.3,0.3-0.7,0.9-1.5c0.8-0.9,1.7-2.3,2.8-4c0-0.1,0.1-0.1,0.1-0.2
			c0.1-0.1,0.1-0.2,0.2-0.4c0.1-0.1,0.1-0.3,0.2-0.4c0-0.1,0.1-0.2,0.2-0.4c0.9-1.9,1.7-3.8,2.3-5.7c0.6-2,0.9-3.5,0.9-4.6
			c0-0.3-0.1-0.3-0.2-0.3c-0.5,0-1.5,1.3-1.8,1.7c-1,1.2-1.7,2.4-2.3,3.5c-1.5,3-2.4,5-3,6.6c-0.8,1.9-1.3,3.3-1.5,4.4
			c-0.3,1.2-0.4,2.4-0.4,3.6c0,1,0.2,1.8,0.4,2.2c0.3,0.5,0.8,0.7,1.5,0.7c1.2,0,2.5-0.4,4.1-1.2c1.5-0.8,2.8-1.8,4.1-3.1
			c1-1,1.7-1.5,2.3-1.5c0.4,0,0.6,0.1,0.8,0.3c0.2,0.2,0.3,0.6,0.3,1c0,1.8-0.8,3.5-2.2,5.2c-1.5,1.7-3.5,3-5.9,4.1
			C199.3,128.5,196.9,129,194.4,129L194.4,129z M206.8,95.4c-1.6,0-3,0.3-4.3,1c-2.1,1-4.2,2.6-6.4,4.6c-2.1,1.9-4,4.1-5.9,6.7
			c-1.8,2.5-3.3,5-4.3,7.4c-1.1,2.4-1.6,4.5-1.6,6.3c0,2.2,0.9,3.9,2.8,5.3c1.9,1.4,4.3,2,7.3,2c2.4,0,4.9-0.5,7.2-1.5
			s4.3-2.4,5.8-4c1.4-1.6,2.2-3.3,2.2-5c0-0.4-0.1-0.7-0.3-0.8c-0.1-0.1-0.4-0.2-0.6-0.2c-0.5,0-1.2,0.5-2.1,1.4
			c-1.3,1.3-2.7,2.4-4.2,3.1c-1.6,0.8-3,1.2-4.2,1.2c-0.8,0-1.3-0.3-1.7-0.8c-0.3-0.5-0.5-1.4-0.5-2.4c0-1.2,0.1-2.4,0.4-3.6
			c0.2-1.1,0.7-2.5,1.5-4.4c0.6-1.6,1.5-3.6,3-6.6c0.6-1.2,1.3-2.3,2.3-3.6c1-1.2,1.6-1.8,2-1.8s0.4,0.4,0.4,0.6
			c0,1.1-0.3,2.6-0.9,4.6c-0.6,1.9-1.4,3.9-2.3,5.8c-0.1,0.1-0.1,0.3-0.2,0.4c-0.1,0.2-0.2,0.3-0.2,0.5c-0.1,0.1-0.1,0.2-0.2,0.3
			c0,0.1-0.1,0.1-0.1,0.2c-1,1.8-2,3.1-2.8,4c-0.4,0.4-0.9,1-0.9,1.3c0,0.1,0,0.5,1.1,0.5l0,0c0.8,0,1.7-0.2,2.8-0.7
			c1-0.4,2-1,3.3-2c2.4-1.8,4.3-3.8,5.8-6.3c1.4-2.4,2.1-4.9,2-7.4c0-1.1-0.3-2.2-0.8-3.2c-0.5-0.9-1.2-1.7-2.2-2.2
			C209.1,95.7,208,95.4,206.8,95.4L206.8,95.4z"/>
	</g>
	<g>
		<path class="st0" d="M224.1,129.1c-1,0-1.9-0.4-2.7-1c-0.8-0.6-1.4-1.4-1.8-2.1c-0.4-0.7-0.5-1.7-0.5-2.9c0-2.7,0.7-5.7,2-9
			c1.4-3.4,3-5.8,4.7-7.3c0.7-0.6,1.7-1,2.9-1c1.3,0,2.3,0.4,3.1,1.3s1.2,2,1.2,3.4c0,2.1-0.4,4.5-1.2,7.2c-0.8,2.8-2,5.6-3.5,8.6
			c-0.6,1.2-1.3,2-2.1,2.4C225.7,129,225,129.1,224.1,129.1L224.1,129.1z"/>
	</g>
	<g>
		<path class="st0" d="M244.8,129.8L244.8,129.8c-1.5,0-2.7-0.4-3.6-1.2c-0.9-0.8-1.4-1.9-1.4-3.1c0-0.8,0.1-1.7,0.4-2.8
			c0.2-1.1,0.6-2.3,1-3.5c0.4-1.4,0.9-2.7,1.5-3.9c0.5-1.3,1.2-2.6,1.9-3.8c1-2,2.3-3.6,3.8-4.7c1-0.8,2.3-1.1,3.8-1.1
			c1.2,0,2.2,0.3,2.8,0.9s0.9,1.4,0.9,2.5c0,1.6-0.5,3.9-1.3,6.8l1.9-1.6c2.2-1.7,3.7-2.9,4.9-3.7c1.2-0.8,2.3-1.4,3.3-1.8
			c1-0.3,1.9-0.5,3-0.5c1.7,0,2.8,0.3,3.5,1s1,1.8,1,3.3c0,0.5-0.1,1.4-0.3,2.8c-0.3,1.8-0.4,3.3-0.4,4.6c0,1.6,0.1,2.9,0.3,3.9
			c0.2,0.6,0.4,1.2,0.7,1.8c0.3,0.7,0.3,1.1,0.3,1.2c0,0.3-0.1,0.6-0.4,0.7c-0.7,0.5-1.7,0.9-2.8,1.2c-1.1,0.3-2.1,0.5-2.9,0.5
			c-1.4,0-2.5-0.3-3.6-1c-1-0.6-1.9-1.5-2.5-2.7c-0.6-1.1-0.9-2.4-0.9-3.8c0-0.9,0.1-2,0.4-3.2c-0.9,0.7-1.6,1.3-2.2,1.8l-0.3,0.2
			c-0.5,0.4-1,0.7-1.4,1.1c-2.5,2.1-4.7,3.9-6.4,5.6c-0.2,0.2-0.4,0.4-0.6,0.5c-0.5,0.4-0.9,0.8-1.3,1.2
			C246.9,129.5,245.9,129.8,244.8,129.8L244.8,129.8z M252.2,105.9c-1.4,0-2.6,0.4-3.6,1.1c-1.5,1.1-2.7,2.6-3.7,4.6
			c-0.7,1.2-1.3,2.5-1.9,3.8c-0.5,1.2-1,2.5-1.5,3.9c-0.4,1.3-0.8,2.4-1,3.5s-0.4,2-0.4,2.8c0,1.2,0.4,2.1,1.3,2.9
			c0.9,0.7,2,1.1,3.4,1.1c1,0,2-0.3,2.7-0.9c0.4-0.3,0.8-0.7,1.3-1.2c0.2-0.2,0.4-0.3,0.6-0.5c1.7-1.7,3.9-3.5,6.4-5.6
			c0.4-0.4,0.9-0.7,1.4-1.1l0.3-0.2c0.6-0.5,1.4-1.1,2.3-1.8l0.1-0.1l0.3,0.2v0.1c-0.3,1.2-0.4,2.4-0.4,3.3c0,1.4,0.3,2.6,0.8,3.7
			c0.6,1.1,1.4,2,2.4,2.6s2.1,0.9,3.4,0.9c0.8,0,1.8-0.2,2.9-0.5s2.1-0.7,2.7-1.1l0,0c0.2-0.1,0.3-0.2,0.3-0.5c0-0.1,0-0.5-0.3-1.1
			s-0.6-1.3-0.7-1.8c-0.2-1-0.3-2.4-0.3-4c0-1.3,0.1-2.8,0.4-4.6c0.2-1.4,0.3-2.3,0.3-2.8c0-1.5-0.3-2.5-0.9-3.1s-1.7-0.9-3.3-0.9
			c-1,0-1.9,0.2-2.9,0.5c-0.9,0.4-2,1-3.2,1.7c-1.2,0.8-2.8,2-4.9,3.7l-2.1,1.8l-0.3-0.2V116c0.9-2.9,1.4-5.2,1.4-6.9
			c0-1-0.3-1.8-0.8-2.3C254.2,106.2,253.3,105.9,252.2,105.9L252.2,105.9z"/>
	</g>
	<g>
		<path class="st0" d="M286.9,129.7c-2.5,0-4.7-0.6-6.3-1.8c-1.7-1.2-2.5-2.8-2.5-4.7c0-1.1,0.4-2.5,1.2-4.1
			c0.8-1.6,1.9-3.1,3.4-4.6c2.3-2.5,5.3-4.5,8.9-6.3c3.7-1.8,7.3-2.7,10.7-2.7l0,0c2.9,0,5.3,0.4,7.1,1.3c1.9,0.8,2.9,2,2.9,3.3
			c0,0.9-0.4,1.9-1.2,2.9c1.1,0,1.8,0.1,2.1,0.3c0.3,0.2,0.5,0.6,0.5,1.4h-0.1h0.1c0,0.1-0.1,0.7-0.1,1c-0.2,1.5-0.2,3.1-0.2,4.5
			c0,0.7,0,1.3,0,1.6c0,0.3,0.1,0.7,0.1,1.1v0.2c0.1,0.4,0.1,0.9,0.2,1.2c0.2,0.7,0.5,1.5,0.9,2.2l0.1,0.1l-0.1,0.1
			c-1.4,1-2.7,1.7-3.9,2.1c-1.2,0.4-2.5,0.7-3.8,0.7h-0.1c-3.5,0-5.3-2.2-5.3-6.4c0-0.4,0-0.7,0-0.9c-2,1.7-3.9,3.1-5.7,4.2
			c-1.7,1.1-3.4,2-4.9,2.6C289.5,129.4,288.1,129.7,286.9,129.7L286.9,129.7z M302.3,105.6c-3.3,0-6.9,0.9-10.6,2.6
			c-3.6,1.8-6.5,3.8-8.9,6.2c-1.4,1.5-2.5,3-3.3,4.6s-1.2,2.9-1.2,4c0,1.9,0.8,3.3,2.4,4.5c1.6,1.2,3.7,1.8,6.2,1.8
			c1.2,0,2.5-0.3,4-0.8c1.5-0.6,3.1-1.4,4.8-2.5c1.8-1.2,3.7-2.6,5.7-4.3l0.1-0.1l0.2,0.1l0,0h0.1v0.4h-0.1c0,0.2,0,0.5,0,0.8
			c0,4.1,1.7,6.1,5.1,6.1h0.1c1.2,0,2.5-0.2,3.7-0.7c1.2-0.4,2.4-1.1,3.8-2c-0.4-0.7-0.7-1.4-0.8-2.2c-0.1-0.3-0.1-0.7-0.2-1.2v-0.2
			c-0.1-0.4-0.1-0.8-0.1-1.2c0-0.4,0-0.9,0-1.6c0-1.4,0.1-2.9,0.2-4.5c0.1-0.6,0.1-0.8,0.2-1l0,0l0,0l0,0l0,0l0,0l0,0l0,0l0,0l0,0
			l0,0l0,0l0,0l0,0c0-0.6-0.1-1-0.4-1.2s-1-0.3-2.2-0.3h-0.3l0.2-0.2c0.9-1,1.4-2,1.4-2.9c0-1.3-0.9-2.3-2.7-3.1
			C307.6,106.1,305.2,105.6,302.3,105.6L302.3,105.6L302.3,105.6z M293.3,122.5L293.3,122.5c-0.8,0-1.5-0.3-2-0.9s-0.8-1.4-0.8-2.3
			c0-1.4,0.6-2.9,1.8-4.7c1.3-1.8,2.9-3.4,5-5c0.8-0.6,1.4-0.8,1.7-0.8l0,0l0,0c0.5,0,0.9,0.3,1.2,0.9c0.3,0.6,0.5,1.2,0.5,2
			c0,1.2-0.6,2.6-1.9,4c-0.5,0.6-0.5,0.8-0.5,0.8c0,0.2,0.4,0.4,1.2,0.4c0.7,0,1.8-0.2,3.5-0.5l0.7-0.1l0.3,0.2l-1,0.5
			c-2.3,1.7-4.3,3-6,4C295.2,122,294,122.5,293.3,122.5L293.3,122.5z M299.1,109L299.1,109c-0.2,0-0.7,0.1-1.6,0.8
			c-2,1.6-3.7,3.2-5,5c-1.2,1.7-1.8,3.2-1.8,4.5c0,0.9,0.2,1.6,0.7,2.1c0.5,0.6,1.1,0.8,1.8,0.8l0,0c0.7,0,1.9-0.5,3.6-1.5
			s3.7-2.3,6-4l0.5-0.3l-0.3,0.1c-1.7,0.3-2.9,0.5-3.6,0.5c-1,0-1.4-0.2-1.4-0.6c0-0.1,0-0.2,0.6-1c1.2-1.4,1.8-2.7,1.8-3.8
			c0-0.7-0.1-1.3-0.5-1.8C299.8,109.2,299.4,109,299.1,109L299.1,109z"/>
	</g>
	<g>
		<path class="st0" d="M240.6,96.8c-0.7-0.3-1.4-0.4-2.1-0.5v-0.1v-0.1c0.7-0.1,1.5-0.2,2.2-0.6c1.9-1,2.9-2.8,2-4s-3.2-1.4-5.1-0.4
			c-0.7,0.4-1.2,0.8-1.6,1.3c-0.1-0.1-0.2-0.1-0.3-0.1c0.2-0.5,0.4-1,0.4-1.6c0-1.9-1.4-3.5-3-3.5c-1.7,0-3.1,1.6-3.1,3.5
			c0,0.7,0.2,1.3,0.5,1.8l-0.1,0.1c-0.5-0.6-1.1-1-2-1.4c-2.1-0.8-4.3-0.4-5,0.8c-0.7,1.3,0.4,3,2.4,3.8c0.8,0.3,1.6,0.4,2.4,0.4
			v0.1c-0.8,0-1.7,0.3-2.5,0.7c-1.9,1.1-2.7,2.9-1.7,4.1c0.9,1.2,3.2,1.2,5.1,0.2c0.7-0.4,1.2-0.9,1.6-1.4h0.1
			c-0.4,0.6-0.6,1.3-0.5,2c0.1,1.9,1.6,3.4,3.2,3.3c1.7-0.1,2.9-1.7,2.8-3.6c0-0.7-0.3-1.2-0.6-1.8c0,0,0.1,0,0.2,0
			c0.4,0.5,1,1,1.8,1.3c2,0.9,4.3,0.6,5.1-0.6C243.6,99.5,242.6,97.8,240.6,96.8 M233.1,99c-1.7,0-3-1.2-3-2.6s1.4-2.5,3.1-2.5
			c1.7,0,3,1.1,3,2.5C236.2,97.8,234.8,99,233.1,99"/>
	</g>
	<g>
		<g>
			<path class="st0" d="M42.7,132c-2.4,0-4.6-0.3-6.7-1l0,0c-2.2-0.7-4-1.6-5.6-2.7c-1.7-1.2-3-2.6-4-4.3c-1-1.7-1.6-3.6-1.6-5.7
				c0-1.5,0.3-3,0.9-4.7c0.5-1.4,1.3-2.9,2.4-4.7l0,0c1.1-1.6,2.2-3.1,3.6-4.4c0.8-0.9,1.6-1.6,2.3-2.3c0.8-0.7,1.7-1.5,2.8-2.2
				c1.1-0.8,2.2-1.4,3.2-2c1.1-0.6,2.2-1.2,3.1-1.6c0,0,0.1,0,0.1-0.1c2-0.9,3.6-1.5,5.2-2.1c1.8-0.6,3.5-1.1,5-1.4c0,0,0,0,0.1,0
				c1.8-0.3,3.2-0.5,4.5-0.5c3.5,0,6.4,0.7,8.6,2.2l0,0c2.5,1.7,3.8,4.2,3.8,7.1c0,2.6-0.9,5.2-2.6,8c-0.9,1.4-2,2.8-3.2,4
				c0.5-0.1,0.8-0.1,1.1-0.1l0,0c1.6,0,2.5,0.6,3,1.2c0.6,0.6,1,1.5,1,2.4c0,0.3,0,0.5,0,0.8c-0.2,1.2-0.7,2.4-1.5,3.6
				c-1.4,2.2-2.7,3.6-4,4.4c-1.7,1.1-3.9,2.1-6.5,3c-2.5,0.9-5.2,1.7-8,2.3l0,0C47.1,131.7,44.7,132,42.7,132L42.7,132z M37.8,125.3
				c1.6,0.5,3.2,0.7,4.9,0.7c0.2,0,0.3,0,0.5,0c-1.2-0.3-2.1-0.9-2.8-1.7l0,0c-1-1.2-1.4-2.8-1.4-5.2c0-2.4,0.5-4.9,1.5-7.4l0,0
				c1-2.4,2.4-4.8,4.1-7c1-1.3,2.1-2.5,3.3-3.7c-0.6,0.3-1.3,0.6-2.1,0.9c-0.8,0.4-1.8,0.9-2.7,1.4l0,0c-0.9,0.5-1.8,1-2.7,1.7
				c-0.8,0.6-1.6,1.2-2.2,1.8c-0.6,0.6-1.3,1.2-1.9,1.9l-0.1,0.1c-1.1,1.1-2,2.2-2.9,3.5c-0.9,1.4-1.5,2.5-1.8,3.5
				c-0.4,1-0.5,1.8-0.5,2.5l0,0c0,0.9,0.2,1.8,0.7,2.6l0,0c0.6,0.9,1.3,1.7,2.3,2.5l0,0C35,124.1,36.3,124.8,37.8,125.3L37.8,125.3z
				 M45.1,120.2c0.1,0,0.2,0,0.4,0c0.5,0,1.3-0.1,2.5-0.3c-1.2-0.8-1.8-2.1-1.8-3.4l0,0c0-1.5,0.9-2.6,1.7-3.5l0.1-0.1
				c0.8-0.8,1.7-2.2,2.4-3.3c0.8-1.5,1.4-3,1.9-4.6c-1,1-2,2-2.9,3.2l0,0c-1.4,1.8-2.5,3.6-3.3,5.6c-0.7,1.8-1.1,3.5-1.1,5.2
				C45,119.5,45,119.9,45.1,120.2L45.1,120.2z M58.1,106.5c-0.6,2.1-1.4,4.1-2.4,6c0,0.1-0.1,0.1-0.1,0.2c-0.1,0.2-0.2,0.4-0.3,0.5
				c1-0.5,1.9-1.1,2.9-1.8c0,0,0,0,0.1-0.1c2-1.4,3.5-3,4.8-5c1.1-1.7,1.6-3.4,1.6-4.8c0-0.9-0.3-1.5-1.1-2.1
				c-1.1-0.7-2.7-1.1-4.8-1.2c0.4,0.7,0.5,1.4,0.5,2.3C59.1,102.3,58.8,104.2,58.1,106.5L58.1,106.5z"/>
		</g>
		<g>
			<path class="st0" d="M82,132.4L82,132.4c-3.2,0-5.9-0.8-8-2.4c-2.4-1.8-3.7-4.2-3.7-7c0-1.6,0.5-3.4,1.5-5.4l0,0
				c0.9-1.8,2.2-3.5,3.8-5.3l0,0c2.6-2.7,5.8-5,9.8-6.9l0,0c4.1-1.9,8.1-2.9,11.9-2.9l0,0c3.3,0,6.1,0.5,8.4,1.6
				c3.9,1.8,4.5,4.5,4.5,5.9c0,0.4,0,0.7-0.1,1.1c0.7,0.6,1.5,1.6,1.5,3.6c0,0.2,0,0.5-0.1,0.7c0,0.1,0,0.3-0.1,0.7
				c-0.1,1.3-0.2,2.7-0.2,4.1v0.1c0,0.6,0,1,0,1.4v0.1v0.1c0,0.2,0,0.4,0.1,0.7v0.3c0.1,0.5,0.1,0.8,0.1,0.9c0.1,0.5,0.3,1,0.6,1.5
				c0.7,1.3,0.3,3-0.9,3.9c-1.6,1.1-3.1,1.9-4.6,2.5c-1.6,0.6-3.2,0.8-4.8,0.8l0,0c-3.3,0-5.2-1.4-6.2-2.6c-0.5-0.6-1-1.4-1.3-2.2
				c-0.6,0.5-1.3,0.9-1.9,1.3l0,0c-2,1.3-3.7,2.2-5.4,2.8C85.3,132.1,83.6,132.4,82,132.4L82,132.4z M99.7,122.9
				c0,1.8,0.4,2.5,0.6,2.8c0.1,0.1,0.4,0.5,1.6,0.5v3v-3c0.9,0,1.8-0.2,2.7-0.5c0.4-0.1,0.8-0.3,1.2-0.5c0-0.1-0.1-0.2-0.1-0.3l0,0
				c-0.1-0.4-0.2-0.9-0.2-1.5v-0.2c-0.1-0.4-0.1-0.9-0.1-1.3v-0.1c0-0.4,0-0.9,0-1.7c0-1.4,0-2.8,0.1-4.1c-1-0.2-1.8-0.8-2.3-1.7
				c-0.5-1.1-0.3-2.3,0.4-3.2c0.4-0.5,0.6-0.8,0.6-1c-0.1-0.1-0.4-0.3-1-0.6c0,0,0,0-0.1,0c-1.3-0.6-3.1-1-5.2-1
				c0.5,1,0.7,2,0.7,3.1c0,0.5-0.1,1.1-0.2,1.6c0.7-0.1,1.4,0.2,2,0.6l0.1,0.1c0.8,0.6,1.2,1.5,1.2,2.5s-0.6,1.9-1.4,2.4l-0.8,0.5
				c-0.2,0.2-0.5,0.3-0.7,0.5c0.4,0.5,0.7,1.2,0.7,1.9v0.1c0,0.2,0,0.3,0,0.4l0,0C99.7,122.4,99.7,122.6,99.7,122.9L99.7,122.9z
				 M77.2,120.3c-0.8,1.5-0.9,2.4-0.9,2.7l0,0c0,0.7,0.1,1.4,1.2,2.2c1.1,0.8,2.6,1.2,4.4,1.2c0.8,0,1.8-0.2,3-0.7
				c0.5-0.2,1.1-0.5,1.7-0.7c-0.9-0.3-1.8-0.9-2.5-1.6c-1-1.1-1.5-2.6-1.5-4.2l0,0c0-2,0.8-4,2.4-6.3l0,0c0.2-0.3,0.4-0.5,0.6-0.8
				c-2.2,1.3-4.1,2.7-5.6,4.3C78.8,117.7,77.9,119,77.2,120.3L77.2,120.3z M90,116.3c-1.1,1.5-1.3,2.4-1.3,2.8
				c0.4-0.2,1-0.4,1.8-0.9c0.1-0.1,0.2-0.1,0.3-0.2c-0.3-0.5-0.5-1.1-0.5-1.7v-0.1c0-0.1,0-0.3,0-0.4
				C90.3,115.9,90.1,116.1,90,116.3L90,116.3z"/>
		</g>
		<g>
			<path class="st0" d="M123.5,131.3c-3,0-5.6-0.8-7.6-2.3l0,0c-2.2-1.7-3.3-4.1-3.3-7c0-1.1,0.2-2.3,0.7-4c0.3-1.1,0.8-2.6,1.6-4.5
				c-1-0.8-1.6-2.1-1.6-3.5c0-1.3,0.4-3.3,2.7-5.2l0,0c1.1-0.9,2.3-1.6,3.7-2c1.4-2.7,2.7-4.7,3.8-6c0,0,0,0,0.1-0.1
				c0.8-0.8,1.8-1.6,3-2.2h0.1c2.2-1,4.2-1.5,6.2-1.5c1.5,0,2.7,0.3,3.7,0.9l0,0c1.3,0.8,2.1,2.2,2.1,3.8c0,1-0.4,2.1-1.4,3.8
				c-0.3,0.5-0.6,1-0.8,1.5c0.2,0.1,0.4,0.1,0.6,0.2c1.6,0.6,2.5,2.1,2.5,3.8c0,1.5-0.5,3-1.6,4.3l0,0c-1,1.1-2.3,2-3.8,2.5
				c-0.6,0.2-1.4,0.4-2.4,0.5c-0.1,0.2-0.1,0.3-0.2,0.5c-0.2,0.8-0.4,2-0.6,3.7c0,0.1,0,0.2-0.1,0.4c-0.1,0.4-0.1,0.7-0.1,1
				s0.1,0.4,0.1,0.4l0,0c0,0,0.4,0.4,2.1,0.4h0.2h0.1h0.1l0,0c2.8,0,3.6,2,3.6,3.1l0,0c0,1.8-1.3,2.9-2.2,3.7l0,0
				c-0.9,0.7-1.9,1.4-3,1.9c0,0,0,0-0.1,0c-1.1,0.6-2.4,1-3.8,1.4l0,0C126,131.1,124.7,131.3,123.5,131.3L123.5,131.3z M119.6,124.2
				c1,0.7,2.2,1.1,3.9,1.1c0.7,0,1.5-0.1,2.5-0.3c0.2-0.1,0.5-0.1,0.7-0.2c-1-0.9-2.1-2.5-2.1-5c0-0.8,0.1-1.5,0.3-2.3
				c0.2-1.5,0.4-2.9,0.7-4.1c0-0.1,0.1-0.2,0.1-0.3c0.4-1.2,0.8-2.2,1.1-2.9c0.5-1,1.4-1.7,2.5-1.8c0.8-0.1,1.5-0.1,2-0.2
				c-0.8-0.2-1.5-0.7-1.9-1.4c-0.5-0.8-0.6-1.8-0.3-2.6c0.7-1.8,1.5-3.5,2.5-5.2c-0.7,0.1-1.5,0.4-2.4,0.8c-0.5,0.3-1,0.6-1.2,0.8
				c-0.5,0.6-1.6,2.1-3.3,5.6l-0.1,0.2c-0.4,1-1.3,1.7-2.4,1.9c-0.7,0.1-1.3,0.3-1.9,0.7c0.3,0.2,0.6,0.5,0.9,0.8
				c0.5,0.7,0.7,1.6,0.5,2.5c-0.1,0.2-0.1,0.4-0.2,0.6c0,0.1-0.1,0.3-0.2,0.4c0,0.1,0,0.1-0.1,0.2c-0.2,0.4-0.3,0.7-0.4,1
				c0,0.1,0,0.1-0.1,0.2c-0.9,2.3-1.4,3.9-1.8,5c-0.4,1.4-0.5,2.1-0.5,2.3C118.6,123,118.9,123.6,119.6,124.2L119.6,124.2z"/>
		</g>
		<g>
			<path class="st0" d="M150.8,132.4c-3.2,0-5.9-0.8-8-2.4c-2.4-1.8-3.7-4.2-3.7-7l0,0c0-1.6,0.5-3.5,1.5-5.4
				c0.9-1.8,2.2-3.5,3.8-5.3c2.6-2.7,5.8-5,9.8-6.9l0,0c4.1-2,8.1-2.9,11.9-2.9l0,0c3.3,0,6.1,0.5,8.4,1.6c4,1.8,4.6,4.5,4.6,6
				c0,0.4,0,0.7-0.1,1.1c0.7,0.6,1.5,1.7,1.4,3.5c0,0.2,0,0.4-0.1,0.6c0,0.2-0.1,0.4-0.1,0.7c-0.1,1.6-0.2,2.9-0.2,4.1v0.2
				c0,0.4,0,0.9,0,1c0,0.2,0,0.3,0,0.5s0,0.5,0.1,0.8c0,0.1,0,0.1,0,0.2c0,0.3,0.1,0.6,0.1,0.8c0.1,0.5,0.3,1,0.6,1.4
				c0.8,1.4,0.4,3.1-0.9,4c-1.6,1.1-3.1,1.9-4.6,2.5c-1.6,0.6-3.1,0.8-4.7,0.8l0,0c-3.3,0-5.2-1.5-6.2-2.7c-0.5-0.6-1-1.4-1.3-2.2
				c-0.6,0.5-1.3,0.9-1.9,1.3c-1.9,1.3-3.7,2.2-5.4,2.8l0,0C154.1,132.1,152.4,132.4,150.8,132.4L150.8,132.4L150.8,132.4z
				 M145.2,123c0,0.7,0.2,1.4,1.2,2.2c1.1,0.8,2.6,1.2,4.4,1.2c0.9,0,1.9-0.2,3-0.7c0.5-0.2,1.1-0.5,1.7-0.7c-1-0.3-1.8-0.9-2.5-1.7
				c-1-1.1-1.5-2.5-1.5-4.1c0-2,0.8-4.2,2.4-6.4c0.2-0.3,0.4-0.6,0.6-0.8c-2.2,1.3-4.1,2.8-5.7,4.4c-1.3,1.3-2.2,2.6-2.8,3.9l0,0
				C145.3,121.8,145.2,122.7,145.2,123L145.2,123z M168.6,122.5c0,0.1,0,0.2,0,0.3c0,1.3,0.2,2.3,0.6,2.8c0.1,0.1,0.4,0.5,1.6,0.5
				l0,0c0.9,0,1.8-0.2,2.7-0.5c0.4-0.1,0.8-0.3,1.2-0.5c0-0.1-0.1-0.2-0.1-0.3c0-0.1,0-0.1,0-0.2v-0.1c-0.1-0.3-0.2-0.8-0.2-1.3
				c-0.1-0.6-0.1-1.1-0.1-1.5c-0.1-0.5-0.1-1-0.1-1.6v-0.2l0,0c0-1.2,0.1-2.6,0.2-4.1c-1-0.2-1.8-0.8-2.3-1.7
				c-0.5-1.1-0.3-2.3,0.4-3.2c0.4-0.5,0.6-0.8,0.7-1c-0.1-0.1-0.4-0.3-1-0.6l0,0c-1.4-0.6-3.1-1-5.3-1c0.5,1,0.8,2,0.8,3.1l0,0
				c0,0.5-0.1,1.1-0.2,1.6c0.7-0.1,1.5,0.1,2.1,0.6l0.1,0.1c0.8,0.6,1.3,1.6,1.2,2.6s-0.6,1.9-1.5,2.4l-0.8,0.5
				c-0.2,0.2-0.4,0.3-0.6,0.5c0.5,0.5,0.7,1.2,0.7,2v0.1C168.6,122.1,168.6,122.3,168.6,122.5L168.6,122.5z M159.2,115.8
				c-0.1,0.2-0.3,0.4-0.4,0.5c0,0,0,0,0,0.1c-1,1.4-1.2,2.3-1.3,2.7c0.4-0.2,1-0.4,1.8-0.9l0,0c0.1-0.1,0.2-0.1,0.3-0.2
				c-0.3-0.5-0.5-1.1-0.5-1.6C159.2,116.2,159.2,116,159.2,115.8L159.2,115.8z"/>
		</g>
		<g>
			<path class="st0" d="M194.4,131.9L194.4,131.9c-3.6,0-6.7-0.9-9.1-2.6c0,0,0,0-0.1,0c-2.7-2-4.1-4.7-4.1-7.8
				c0-2.2,0.6-4.7,1.9-7.6c1.1-2.5,2.7-5.2,4.6-7.9l0,0c2-2.7,4.1-5,6.3-7.1c2.4-2.2,4.8-4,7.1-5.1c1.7-0.9,3.7-1.4,5.7-1.4
				c1.8,0,3.4,0.4,4.8,1.2c1.5,0.9,2.7,2,3.5,3.5s1.2,3,1.2,4.6c0,3.1-0.8,6.1-2.5,8.9l0,0c-0.8,1.4-1.8,2.8-2.9,4
				c0.3,0.2,0.5,0.4,0.8,0.6c0.5,0.5,1.2,1.5,1.2,3.1c0,2.5-1,4.9-3,7.1l0,0c-1.8,2-4.1,3.6-6.9,4.7
				C200.1,131.3,197.3,131.9,194.4,131.9L194.4,131.9z M188.7,124.4c1.4,1,3.3,1.5,5.7,1.5c0.8,0,1.7-0.1,2.5-0.2
				c-1.2-0.3-2.2-0.9-2.9-2c0,0,0,0,0-0.1c-0.6-1-0.9-2.3-0.9-3.9c0-1.4,0.2-2.8,0.5-4.2c0.3-1.3,0.8-2.8,1.6-4.9
				c0.6-1.6,1.6-3.7,3.1-6.8c0.3-0.6,0.6-1.1,0.9-1.7c-0.4,0.3-0.8,0.7-1.2,1c-2,1.8-3.8,3.9-5.6,6.3c-1.7,2.4-3.1,4.7-4,6.8
				c-0.9,2.1-1.4,3.8-1.4,5.1l0,0C187.1,122.7,187.6,123.5,188.7,124.4L188.7,124.4z M208.5,100.3c0,1.4-0.3,3.1-1,5.5l0,0
				c-0.6,2-1.4,4-2.3,5.9c1.4-1.2,2.5-2.6,3.4-4.2c1.1-2,1.7-3.9,1.7-6l0,0c0-0.6-0.1-1.2-0.5-1.8l0,0c-0.2-0.4-0.6-0.7-1.1-1
				c-0.2-0.1-0.4-0.2-0.6-0.3C208.3,99,208.5,99.6,208.5,100.3L208.5,100.3z"/>
		</g>
		<g>
			<path class="st0" d="M224.2,132.1L224.2,132.1c-0.1,0-0.2,0-0.2,0c-1.6-0.1-3.1-0.6-4.4-1.6c0,0,0,0-0.1,0
				c-1.2-0.9-2.1-2-2.7-3.2c-0.6-1.1-0.8-2.5-0.8-4.3c0-3,0.8-6.5,2.2-10.1l0,0c1.6-3.8,3.4-6.6,5.5-8.4c1.3-1.1,2.9-1.7,4.9-1.7
				c2.1,0,3.9,0.8,5.3,2.2l0,0c1.3,1.4,2,3.2,2,5.4c0,2.4-0.5,5.1-1.4,8.1s-2.1,6-3.7,9.1c-0.9,1.8-2,3-3.5,3.8
				c-0.1,0-0.1,0.1-0.2,0.1C226.5,131.9,225.4,132.1,224.2,132.1L224.2,132.1z M224.2,126.1L224.2,126.1c0.3,0,0.6,0,0.8-0.1
				c0.1-0.1,0.4-0.4,0.7-1c0,0,0,0,0-0.1c1.4-2.8,2.5-5.5,3.3-8.1l0,0c0.7-2.4,1.1-4.5,1.1-6.3c0-0.9-0.2-1.2-0.4-1.3
				c-0.2-0.2-0.5-0.4-1-0.4c-0.3,0-0.7,0-0.9,0.2c0,0,0,0-0.1,0.1c-1.4,1.2-2.7,3.2-3.9,6.1c-1.2,3-1.8,5.6-1.8,7.9
				c0,1.1,0.2,1.5,0.2,1.6v0.1c0.1,0.3,0.4,0.7,0.8,1C223.5,125.9,223.8,126,224.2,126.1L224.2,126.1z"/>
		</g>
		<g>
			<path class="st0" d="M244.8,132.7L244.8,132.7c-2.2,0-4-0.6-5.5-1.9l0,0c-1.5-1.4-2.4-3.2-2.3-5.3c0-1,0.1-2.1,0.4-3.4
				c0.3-1.2,0.6-2.5,1.1-3.8c0.5-1.5,1-2.8,1.6-4.1c0.6-1.4,1.2-2.7,2-4c1.3-2.4,2.8-4.2,4.6-5.6l0,0c1.5-1.1,3.4-1.7,5.4-1.7
				s3.6,0.6,4.8,1.8c0.8,0.8,1.6,2.1,1.7,4.3c0.4-0.3,0.7-0.5,1-0.7c1.4-0.9,2.7-1.6,3.8-2c0,0,0,0,0.1,0c1.3-0.5,2.6-0.7,3.9-0.7
				l0,0c2.5,0,4.2,0.6,5.5,1.8c1.3,1.2,1.9,3,1.9,5.4c0,0.9-0.1,2-0.3,3.3c-0.2,1.7-0.3,3-0.3,4.1c0,1.7,0.1,2.7,0.3,3.2
				c0.1,0.4,0.3,0.8,0.5,1.2c0,0.1,0.1,0.1,0.1,0.2c0.4,0.9,0.6,1.6,0.6,2.3c0,1.4-0.7,2.6-1.9,3.2c-0.9,0.6-2.1,1.1-3.5,1.5
				c-1.3,0.4-2.6,0.6-3.7,0.6l0,0c-1.9,0-3.6-0.5-5.1-1.4s-2.7-2.2-3.5-3.8c-0.4-0.8-0.7-1.6-0.9-2.4c-2.1,1.7-3.9,3.3-5.4,4.7l0,0
				c-0.2,0.2-0.4,0.3-0.6,0.5c-0.5,0.5-1,0.9-1.5,1.3c0,0-0.1,0.1-0.2,0.1C248.1,132.2,246.5,132.7,244.8,132.7L244.8,132.7z
				 M243.3,126.3c0.2,0.2,0.6,0.4,1.5,0.4c0.4,0,0.7-0.1,1-0.3c0.3-0.3,0.7-0.6,1.1-1c0.2-0.2,0.4-0.3,0.6-0.5
				c1.8-1.7,4-3.6,6.5-5.7c0.1,0,0.1-0.1,0.2-0.1c-0.5,0-1.1-0.2-1.5-0.6l-0.1-0.1c-1-0.8-1.5-2.1-1.1-3.3c1-3.3,1.2-5.1,1.2-6
				c0-0.1,0-0.2,0-0.2c-0.1,0-0.3,0-0.5,0c-1,0-1.6,0.3-1.9,0.5c-1.1,0.8-2.1,2-2.9,3.6c0,0,0,0.1-0.1,0.1c-0.6,1.1-1.2,2.3-1.7,3.4
				c0,0,0,0,0,0.1c-0.5,1.1-1,2.3-1.4,3.6l0,0c-0.4,1.2-0.7,2.2-0.9,3.2l0,0c-0.2,0.9-0.3,1.6-0.3,2.1l0,0
				C243,125.9,243,126.1,243.3,126.3L243.3,126.3z M260,115.4c0.6,0,1.2,0.2,1.7,0.6l0.1,0.1c1,0.7,1.4,1.9,1.2,3.1
				c-0.2,1-0.3,1.9-0.3,2.7c0,0.9,0.2,1.7,0.5,2.4c0.3,0.6,0.8,1.1,1.3,1.5l0,0c0.5,0.3,1.1,0.5,1.9,0.5c0.3,0,1-0.1,2.1-0.4l0,0
				c0.1,0,0.2-0.1,0.3-0.1c-0.1-0.3-0.2-0.7-0.3-1v-0.1c-0.3-1.2-0.4-2.8-0.4-4.6c0-1.4,0.1-3,0.4-5V115c0.2-1.2,0.3-1.9,0.3-2.3
				c0-0.5-0.1-0.8-0.1-1c-0.2,0-0.6-0.1-1.2-0.1c-0.7,0-1.3,0.1-1.9,0.3c-0.5,0.2-1.4,0.6-2.6,1.4
				C262.2,113.7,261.2,114.4,260,115.4L260,115.4z"/>
		</g>
		<g>
			<path class="st0" d="M286.9,132.5c-3.2,0-5.9-0.8-8-2.4c-2.4-1.8-3.7-4.2-3.7-7c0-1.6,0.5-3.4,1.5-5.5c1-1.9,2.2-3.6,3.8-5.3
				c2.6-2.7,5.8-5,9.8-6.9l0,0c4.1-2,8.1-2.9,11.9-2.9l0,0c3.3,0,6.1,0.5,8.3,1.6c4,1.8,4.6,4.5,4.6,6l0,0c0,0.3,0,0.7-0.1,1
				c0.7,0.6,1.4,1.7,1.5,3.5l0,0l0,0c0,0.2,0,0.4-0.1,0.7c0,0.1-0.1,0.4-0.1,0.7c-0.1,1.4-0.2,2.8-0.2,4.1c0,0.6,0,1.2,0,1.5
				c0,0,0,0,0,0.1c0,0.2,0,0.5,0.1,0.8v0.2l0,0c0.1,0.4,0.1,0.7,0.2,1c0.1,0.5,0.3,0.9,0.6,1.4c0.7,1.3,0.3,3-0.9,3.9
				c-1.6,1.1-3.1,1.9-4.6,2.5s-3.1,0.8-4.7,0.8h-0.1c-3.3,0-5.2-1.4-6.2-2.7c-0.5-0.6-0.9-1.4-1.3-2.2c-0.6,0.5-1.3,0.9-1.9,1.3
				c-1.9,1.2-3.7,2.2-5.4,2.8C290.2,132.2,288.5,132.5,286.9,132.5L286.9,132.5z M290.6,112.1c-2.2,1.3-4.1,2.7-5.6,4.4
				c-1.2,1.3-2.2,2.6-2.9,3.9c-0.8,1.5-0.9,2.4-0.9,2.7l0,0c0,0.7,0.1,1.4,1.2,2.2l0,0c1.1,0.8,2.6,1.2,4.4,1.2c0.8,0,1.8-0.2,3-0.7
				c0.5-0.2,1.1-0.5,1.7-0.7c-0.9-0.3-1.8-0.8-2.5-1.6l0,0c-1-1.1-1.5-2.6-1.5-4.2c0-2,0.8-4.1,2.4-6.3l0,0
				C290.2,112.6,290.4,112.4,290.6,112.1L290.6,112.1z M304.7,122.5c0,0.1,0,0.3,0,0.5c0,3.3,1.1,3.3,2.2,3.3h0.1
				c0.9,0,1.8-0.2,2.7-0.5l0,0c0.4-0.1,0.8-0.3,1.2-0.5c0-0.1-0.1-0.2-0.1-0.3c0-0.1,0-0.1,0-0.2c-0.1-0.4-0.1-0.8-0.2-1.3v-0.2
				c-0.1-0.5-0.2-0.9-0.2-1.5c0-0.4,0-1,0-1.8c0-1.3,0.1-2.7,0.2-4.1c-1-0.2-1.9-0.8-2.3-1.7c-0.5-1.1-0.3-2.3,0.5-3.2
				c0.4-0.5,0.6-0.8,0.6-0.9c-0.1-0.1-0.4-0.3-1-0.6c0,0,0,0-0.1,0c-1.3-0.6-3.1-1-5.2-1c0.5,0.9,0.7,2,0.7,3.1
				c0,0.5-0.1,1.1-0.2,1.6c0.7-0.1,1.5,0.2,2.1,0.6l0.1,0.1c0.8,0.6,1.2,1.6,1.2,2.6s-0.6,1.9-1.5,2.4l-0.8,0.5
				c-0.2,0.2-0.4,0.3-0.7,0.5c0.4,0.5,0.7,1.1,0.7,1.7v0.1C304.7,122,304.7,122.2,304.7,122.5L304.7,122.5z M294.9,116.4
				c-1,1.5-1.2,2.3-1.2,2.8c0.4-0.2,1-0.4,1.8-0.9c0.1-0.1,0.2-0.1,0.3-0.2c-0.5-0.8-0.5-1.6-0.5-1.7s0-0.1,0-0.2s0-0.2,0-0.4
				C295.2,116.1,295,116.2,294.9,116.4L294.9,116.4z"/>
		</g>
		<g>
			<path class="st0" d="M233.5,108.5c-2.3,0-4.3-1.4-5.4-3.5c-0.6,0.1-1.1,0.2-1.7,0.2c-2,0-3.7-0.8-4.7-2.1c-0.9-1.1-1.2-2.5-0.9-4
				c0.2-0.8,0.5-1.6,1-2.3c-0.6-0.6-1-1.3-1.3-2.1c-0.5-1.4-0.4-2.8,0.3-4c1-1.8,3-2.8,5.4-2.8c0.5,0,0.9,0,1.4,0.1
				c1-2.2,3.1-3.6,5.5-3.6c2.3,0,4.3,1.4,5.3,3.5c0.6-0.1,1.2-0.2,1.8-0.2c2.1,0,3.9,0.8,4.9,2.2c0,0,0,0,0,0.1
				c0.8,1.2,1.1,2.6,0.7,4c-0.2,0.8-0.6,1.6-1.2,2.4c0.5,0.6,0.9,1.3,1.1,2.1c0.4,1.4,0.2,2.8-0.5,3.9c-1,1.6-2.9,2.6-5.2,2.6l0,0
				c-0.4,0-0.9,0-1.3-0.1c-0.3,0.6-0.7,1.2-1.1,1.8C236.5,107.9,235.1,108.5,233.5,108.5C233.6,108.5,233.5,108.5,233.5,108.5
				L233.5,108.5z M233.3,102c0,0.1,0,0.2,0.1,0.3C233.4,102.2,233.4,102.1,233.3,102C233.4,102,233.4,102,233.3,102
				C233.4,102,233.4,102,233.3,102L233.3,102z M233.1,98.1L233.1,98.1v-1.2l0,0V98.1L233.1,98.1z M233.1,90.6c0,0.1,0,0.2,0,0.3h0.1
				C233.1,90.7,233.1,90.7,233.1,90.6L233.1,90.6z"/>
		</g>
	</g>
	<g>
		<g>
			<path class="st1" d="M53,111.1c0.9-1.6,1.6-3.4,2.2-5.4c0.6-2,0.9-3.7,0.9-5c0-0.9-0.3-1.3-0.8-1.3c-0.6,0-1.5,0.5-2.9,1.5
				c-2,1.6-3.9,3.4-5.5,5.5c-1.6,2-2.8,4.2-3.7,6.3c-0.8,2.2-1.3,4.3-1.3,6.3c0,1.6,0.2,2.7,0.7,3.4c0.5,0.6,1.4,0.9,2.7,0.9
				c1.2,0,2.6-0.2,4.4-0.7c3.9-1.1,8.1-2.7,12.4-4.8c2-0.9,3.2-1.3,3.7-1.3c0.7,0,1.1,0.2,1.1,0.8l0,0c-0.1,0.7-0.5,1.6-1.1,2.5
				c-1.1,1.8-2.2,3-3,3.5c-1.4,0.9-3.4,1.8-5.9,2.7c-2.5,0.9-5,1.6-7.7,2.2c-2.6,0.5-4.9,0.8-6.6,0.8c-2.1,0-4-0.3-5.8-0.8
				c-1.8-0.6-3.4-1.3-4.7-2.3s-2.4-2.1-3.2-3.4c-0.8-1.3-1.1-2.7-1.1-4.1c0-1.1,0.2-2.3,0.7-3.6c0.5-1.3,1.2-2.7,2.2-4.1
				s2-2.8,3.3-4c0.7-0.7,1.4-1.5,2.2-2.2s1.6-1.3,2.5-2c0.9-0.6,1.9-1.3,3-1.9s2.1-1.1,2.9-1.5c1.6-0.7,3.2-1.4,4.9-2s3.2-1,4.7-1.3
				s2.8-0.4,3.9-0.4c3,0,5.3,0.6,7,1.7c1.6,1.1,2.5,2.6,2.5,4.6s-0.7,4.2-2.1,6.4c-1.4,2.2-3.2,4.2-5.6,5.8
				c-1.6,1.2-3.2,2.1-4.8,2.8c-1.6,0.7-3,1-4.3,1c-1.1,0-1.6-0.4-1.6-1.1c0-0.4,0.3-0.8,0.9-1.5C51,114.1,51.9,112.8,53,111.1"/>
		</g>
		<g>
			<path class="st1" d="M96.8,121.7L96.8,121.7L96.8,121.7c-2.2,1.8-4.1,3.2-5.8,4.3c-1.8,1.1-3.4,2-4.9,2.5s-2.8,0.8-4.1,0.8
				c-2.5,0-4.6-0.6-6.2-1.8s-2.5-2.7-2.5-4.6c0-1.1,0.4-2.5,1.2-4.1c0.8-1.6,1.9-3.1,3.4-4.6c2.4-2.5,5.3-4.5,8.9-6.3
				c3.7-1.8,7.3-2.7,10.7-2.7c2.9,0,5.3,0.4,7.1,1.3c1.8,0.8,2.8,1.9,2.8,3.2c0,1-0.5,2-1.4,3c1.2,0,2,0.1,2.3,0.3
				c0.3,0.2,0.5,0.6,0.5,1.3c0,0-0.1,0.3-0.2,1c-0.2,1.6-0.2,3.1-0.2,4.5c0,0.7,0,1.3,0,1.6c0,0.4,0.1,0.8,0.1,1.3
				c0.1,0.5,0.1,0.9,0.2,1.2c0.2,0.8,0.5,1.5,0.9,2.2c-1.3,0.9-2.7,1.7-3.9,2.1c-1.2,0.5-2.5,0.7-3.8,0.7c-3.5,0-5.2-2.1-5.2-6.3
				C96.7,122.4,96.8,122,96.8,121.7 M98.8,116.1l-0.6,0.1c-1.6,0.3-2.8,0.5-3.6,0.5c-0.8,0-1.3-0.2-1.3-0.5c0-0.1,0.2-0.4,0.5-0.9
				c1.2-1.4,1.9-2.7,1.9-3.9c0-0.7-0.2-1.4-0.5-1.9c-0.3-0.6-0.7-0.9-1.1-0.9s-0.9,0.3-1.6,0.8c-2.1,1.6-3.8,3.3-5,5
				s-1.8,3.3-1.8,4.6c0,0.9,0.3,1.6,0.8,2.2s1.2,0.9,1.9,0.9c0.7,0,1.9-0.5,3.6-1.5c1.8-1,3.8-2.3,6.1-4l0.9-0.5L98.8,116.1z"/>
		</g>
		<g>
			<path class="st1" d="M121.7,105.3l0.1-0.3c1.5-3,2.8-5.1,3.8-6.4c0.5-0.6,1.2-1.1,2.2-1.5c1.7-0.8,3.4-1.2,4.9-1.2
				c0.9,0,1.6,0.1,2.1,0.4s0.7,0.7,0.7,1.3c0,0.4-0.3,1.1-1,2.3c-1.2,1.9-2,3.7-2.6,5.4c0.4,0,0.8,0.1,1.2,0.1
				c1.3,0.2,2.2,0.3,2.6,0.5c0.4,0.2,0.7,0.5,0.7,1c0,0.8-0.3,1.7-0.9,2.4c-0.6,0.7-1.4,1.3-2.4,1.6c-0.8,0.3-2,0.4-3.6,0.5
				c-0.3,0.6-0.6,1.5-1,2.6c-0.2,1-0.4,2.3-0.6,4c-0.2,0.6-0.2,1.2-0.2,1.8c0,2.5,1.7,3.8,5.2,3.8h0.2h0.1c0.4,0,0.6,0,0.6,0.1
				c0,0.3-0.4,0.7-1.2,1.3c-0.8,0.6-1.6,1.2-2.5,1.6c-1,0.5-2.1,0.9-3.2,1.2c-1.2,0.3-2.2,0.4-3.2,0.4c-2.3,0-4.3-0.6-5.8-1.7
				c-1.5-1.2-2.2-2.7-2.2-4.6c0-0.8,0.2-1.9,0.6-3.2c0.4-1.3,1-3.1,1.8-5.3c0.1-0.4,0.3-0.8,0.4-1.3c0.1-0.4,0.2-0.7,0.3-0.7
				c-0.9,0-1.5-0.2-1.9-0.4c-0.4-0.2-0.6-0.7-0.6-1.3c0-1,0.6-2,1.6-2.9C119,106.1,120.2,105.5,121.7,105.3"/>
		</g>
		<g>
			<path class="st1" d="M165.6,121.7L165.6,121.7h-0.1c-2.1,1.8-4,3.2-5.8,4.3c-1.7,1.1-3.3,2-4.8,2.5s-2.8,0.8-4.1,0.8
				c-2.5,0-4.6-0.6-6.2-1.8c-1.6-1.2-2.4-2.7-2.5-4.6c0-1.1,0.4-2.5,1.2-4.1s1.9-3.1,3.4-4.6c2.4-2.5,5.3-4.5,8.9-6.3
				c3.7-1.7,7.2-2.6,10.6-2.6c2.9,0,5.3,0.4,7.1,1.3c1.9,0.8,2.8,1.9,2.8,3.2c0,1-0.5,1.9-1.4,3c1.2,0,2,0.1,2.3,0.3
				c0.3,0.2,0.5,0.6,0.5,1.3c0-0.1,0,0.3-0.2,1c-0.1,1.6-0.2,3.1-0.2,4.5c0,0.7,0,1.3,0.1,1.6c0,0.4,0,0.8,0.1,1.3
				c0,0.5,0.1,0.9,0.2,1.2c0.2,0.8,0.5,1.5,0.9,2.3c-1.4,0.9-2.7,1.7-3.9,2.1s-2.5,0.7-3.8,0.7c-3.5,0-5.2-2.1-5.2-6.3
				C165.6,122.4,165.6,122,165.6,121.7 M167.7,116.2l-0.7,0.1c-1.6,0.3-2.8,0.5-3.5,0.5c-0.9,0-1.3-0.2-1.3-0.5
				c0-0.1,0.2-0.4,0.5-0.9c1.2-1.4,1.9-2.7,1.9-3.9c0-0.7-0.2-1.3-0.5-1.9s-0.7-0.9-1.1-0.9c-0.4,0-0.9,0.3-1.7,0.8
				c-2.1,1.6-3.8,3.3-5,5c-1.3,1.7-1.9,3.3-1.9,4.6c0,0.9,0.3,1.6,0.7,2.2c0.5,0.6,1.1,0.9,1.9,0.9c0.6,0,1.8-0.5,3.6-1.5
				s3.8-2.3,6-4l0.9-0.5L167.7,116.2z"/>
		</g>
		<g>
			<path class="st1" d="M202.3,110.7c0.9-1.8,1.7-3.7,2.3-5.7s0.9-3.5,0.9-4.6c0-0.3-0.1-0.4-0.3-0.4c-0.4,0-1,0.6-1.9,1.7
				c-0.9,1.2-1.7,2.3-2.3,3.5c-1.3,2.6-2.3,4.8-3,6.6c-0.7,1.7-1.3,3.2-1.5,4.4c-0.3,1.2-0.4,2.4-0.4,3.6c0,1,0.2,1.8,0.5,2.3
				s0.9,0.7,1.6,0.7c1.2,0,2.6-0.4,4.1-1.2c1.5-0.8,2.9-1.8,4.2-3.1c0.9-1,1.7-1.4,2.2-1.4c0.7,0,1,0.4,1,1.2c0,1.7-0.7,3.4-2.2,5.1
				s-3.5,3-5.8,4c-2.4,1-4.8,1.5-7.3,1.5c-3,0-5.5-0.7-7.4-2c-1.9-1.4-2.8-3.2-2.8-5.4c0-1.8,0.5-3.9,1.6-6.4
				c1.1-2.4,2.5-4.9,4.3-7.4s3.8-4.7,6-6.7s4.3-3.6,6.4-4.6c1.3-0.7,2.8-1,4.3-1c1.2,0,2.4,0.3,3.3,0.8c1,0.6,1.8,1.3,2.3,2.3
				s0.8,2,0.8,3.2c0,2.6-0.7,5-2.1,7.5c-1.4,2.4-3.3,4.5-5.8,6.3c-1.2,0.8-2.3,1.5-3.4,2c-1.1,0.5-2,0.7-2.8,0.7s-1.2-0.2-1.2-0.6
				c0-0.3,0.3-0.7,0.9-1.4c0.8-0.9,1.7-2.2,2.8-4c0.1-0.2,0.2-0.4,0.3-0.6C202,111.3,202.1,111,202.3,110.7"/>
		</g>
		<g>
			<path class="st1" d="M224.1,129.1c-1-0.1-1.9-0.4-2.7-1c-0.8-0.6-1.4-1.4-1.8-2.1c-0.4-0.7-0.5-1.7-0.5-2.9c0-2.7,0.7-5.7,2-9
				c1.4-3.4,3-5.8,4.7-7.3c0.7-0.6,1.7-1,2.9-1c1.3,0,2.3,0.4,3.1,1.3s1.2,2,1.2,3.4c0,2.1-0.4,4.5-1.2,7.2c-0.8,2.8-2,5.6-3.5,8.6
				c-0.6,1.2-1.3,2-2.1,2.4C225.7,128.9,225,129.1,224.1,129.1L224.1,129.1z"/>
		</g>
		<g>
			<path class="st1" d="M254.4,116.1l2-1.7c2.1-1.6,3.7-2.9,4.9-3.7c1.2-0.8,2.3-1.4,3.2-1.7c1-0.4,2-0.5,2.9-0.5
				c1.6,0,2.8,0.3,3.4,0.9s1,1.7,1,3.2c0,0.6-0.1,1.6-0.3,2.8c-0.2,1.6-0.4,3.2-0.4,4.6c0,1.6,0.1,2.9,0.3,4
				c0.2,0.6,0.4,1.2,0.7,1.8c0.3,0.6,0.3,1,0.3,1.2c0,0.3-0.1,0.5-0.4,0.6c-0.7,0.5-1.6,0.8-2.8,1.2c-1.1,0.3-2.1,0.5-2.9,0.5
				c-1.3,0-2.5-0.3-3.5-1c-1-0.6-1.8-1.5-2.4-2.6s-0.9-2.4-0.9-3.8c0-0.9,0.1-2.1,0.4-3.3l-0.1-0.1c-1,0.8-1.7,1.4-2.3,1.8
				c-0.6,0.4-1.2,0.9-1.7,1.3c-2.5,2.1-4.6,3.9-6.4,5.6c-0.7,0.6-1.3,1.2-1.9,1.7c-0.8,0.6-1.8,0.9-2.8,0.9c-1.5,0-2.6-0.4-3.5-1.2
				s-1.3-1.8-1.3-3c0-0.8,0.1-1.7,0.4-2.8c0.2-1.1,0.6-2.3,1-3.5c0.4-1.3,0.9-2.6,1.5-3.9c0.5-1.3,1.2-2.6,1.9-3.8
				c1-2,2.3-3.5,3.8-4.7c1-0.7,2.2-1.1,3.7-1.1c2.3,0,3.5,1.1,3.5,3.3C255.7,110.7,255.3,113,254.4,116.1L254.4,116.1z"/>
		</g>
		<g>
			<path class="st1" d="M301.7,121.8L301.7,121.8h-0.1c-2.1,1.8-4,3.2-5.8,4.3c-1.7,1.1-3.4,2-4.8,2.5c-1.5,0.5-2.8,0.8-4.1,0.8
				c-2.5,0-4.6-0.6-6.2-1.8s-2.5-2.8-2.5-4.6c0-1.1,0.4-2.5,1.2-4.1c0.8-1.6,1.9-3.1,3.3-4.6c2.4-2.5,5.3-4.5,8.9-6.3
				c3.7-1.8,7.3-2.7,10.7-2.7c2.9,0,5.3,0.4,7.1,1.3c1.9,0.8,2.8,1.9,2.8,3.2c0,1-0.5,2-1.4,3c1.2,0,2,0.1,2.3,0.3
				c0.3,0.2,0.5,0.6,0.5,1.3c0,0-0.1,0.3-0.2,1c-0.2,1.6-0.2,3.1-0.2,4.5c0,0.7,0,1.3,0,1.6c0,0.4,0.1,0.8,0.2,1.3s0.1,0.9,0.2,1.2
				c0.2,0.8,0.5,1.5,0.9,2.2c-1.3,1-2.7,1.7-3.9,2.1c-1.2,0.4-2.5,0.7-3.8,0.7c-3.4,0-5.2-2.1-5.2-6.3
				C301.6,122.5,301.7,122.1,301.7,121.8 M303.7,116.3l-0.6,0.1c-1.6,0.3-2.8,0.5-3.5,0.5c-0.9,0-1.3-0.2-1.3-0.5
				c0-0.1,0.2-0.4,0.5-0.9c1.2-1.4,1.9-2.7,1.9-3.9c0-0.7-0.1-1.3-0.5-1.9c-0.3-0.6-0.7-0.9-1.1-0.9c-0.3,0-0.9,0.3-1.7,0.8
				c-2.1,1.6-3.7,3.3-5,5c-1.2,1.7-1.8,3.3-1.8,4.6c0,0.9,0.2,1.6,0.7,2.2s1.2,0.9,1.9,0.9c0.7,0,1.9-0.5,3.7-1.5c1.8-1,3.8-2.3,6-4
				l0.9-0.5L303.7,116.3z"/>
		</g>
		<g>
			<path class="st1" d="M240.6,96.8c-0.7-0.3-1.4-0.4-2.1-0.5v-0.1v-0.1c0.7-0.1,1.5-0.2,2.2-0.6c1.9-1,2.9-2.8,2-4
				s-3.2-1.4-5.1-0.4c-0.7,0.4-1.2,0.8-1.6,1.3c-0.1-0.1-0.2-0.1-0.3-0.1c0.2-0.5,0.4-1,0.4-1.6c0-1.9-1.4-3.5-3-3.5
				c-1.7,0-3.1,1.6-3.1,3.5c0,0.7,0.2,1.3,0.5,1.8l-0.1,0.1c-0.5-0.6-1.1-1-2-1.4c-2.1-0.8-4.3-0.4-5,0.8c-0.7,1.3,0.4,3,2.4,3.8
				c0.8,0.3,1.6,0.4,2.4,0.4v0.1c-0.8,0-1.7,0.3-2.5,0.7c-1.9,1.1-2.7,2.9-1.7,4.1c0.9,1.2,3.2,1.2,5.1,0.2c0.7-0.4,1.2-0.9,1.6-1.4
				h0.1c-0.4,0.6-0.6,1.3-0.5,2c0.1,1.9,1.6,3.4,3.2,3.4c1.7-0.1,2.9-1.7,2.8-3.6c0-0.7-0.3-1.2-0.6-1.8c0,0,0.1,0,0.2,0
				c0.4,0.5,1,1,1.8,1.3c2,0.9,4.3,0.6,5.1-0.6C243.6,99.5,242.6,97.8,240.6,96.8 M233.1,99c-1.7,0-3-1.2-3-2.6s1.4-2.5,3.1-2.5
				c1.7,0,3,1.1,3,2.5C236.2,97.8,234.8,99,233.1,99"/>
		</g>
	</g>
	<g>
		<g>
			<path class="st0" d="M51.8,163.9c-0.8,0.8-1.7,2.9-2.4,6.4c-0.7,3.1-1,5.4-0.9,7.1c0.1,1.7,0.5,2.6,1.3,2.6c0.2,0,0.4,0,0.6-0.1
				c0.3-0.1,0.5-0.1,0.7-0.1c0.3,0,0.4,0.1,0.4,0.2c0,0.1-0.1,0.2-0.3,0.3c-0.7,0.4-1.8,0.8-3.2,1.3c-0.4,0.1-0.7,0.2-0.9,0.2
				c-1.4,0-1.8-2.2-1.4-6.6c-3.4,0.1-6.5,0.3-9.5,0.5l-4.1,3.2c0.7,0,1-0.1,0.8-0.1c0.6,0,1.2,0.4,1.5,1.3c0.1,0.2,0.2,0.4,0.2,0.5
				c0,0.2-0.2,0.3-0.4,0.3s-0.4,0-0.6,0c-0.3,0-0.5-0.1-0.7-0.1c-1.2,0-2.7,0.4-4.8,1.2l-0.9,0.3c-0.1,0-0.3-0.1-0.7-0.2
				c-0.6-0.3-1.1-0.6-1.3-1c-0.2-0.3,0.1-0.6,0.7-0.8c0.9-0.3,2-0.9,3.6-1.8c1.5-0.9,2.4-1.5,2.9-1.8c-0.1-0.8-0.2-1.2-0.2-1.3
				c0-0.5,0.3-0.8,0.9-1c0.5-0.2,1.4-0.2,2.7-0.3c3.4-2.7,6.2-5.3,8.3-7.9c-0.7,0.2-1.9,0.6-3.7,0.9c-2.8,0.6-4.7,1-5.8,1.2
				c-1.5,0.3-2.3,0.9-2.3,1.8c0,0.2,0,0.4,0.1,0.6c0.1,0.3-0.1,0.5-0.4,0.5c-0.2,0-0.4-0.1-0.5-0.2c-0.8-1-1.2-1.8-1.3-2.2
				c-0.1-0.4-0.2-0.5-0.2-0.6c0-0.3,0.2-0.6,0.7-0.8c0.8-0.5,2.4-0.8,4.8-1c3.5-0.3,6.5-0.9,9-1.6c0.3-0.2,0.5-0.3,0.5-0.3
				c0.1-0.1,0.1-0.2,0.2-0.4c0.1-0.2,0.2-0.3,0.4-0.3c0.3,0,0.8,0.2,1.4,0.7c0.2,0.1,0.3,0.3,0.3,0.4c0,0.1-0.2,0.4-0.7,0.9
				c-1,1.2-2.4,2.6-4.1,4.2c-1.9,1.8-3.4,3.1-4.5,3.9c3.3,0,5.9,0,7.8-0.1c0.2-1.2,0.6-3,1.3-5.3c0.3-1.1,0.7-2.2,1-3.4
				c0.2-0.9,1.2-1.6,3-2.1c0.3-0.1,0.5-0.1,0.7-0.1c0.3,0,0.5,0.1,0.5,0.3C52.3,163.5,52.1,163.7,51.8,163.9z"/>
		</g>
		<g>
			<path class="st0" d="M68.6,171.4c0,1.2-0.2,2.3-0.7,3.3c-0.1,0.3-0.4,0.5-0.6,0.5s-0.6-0.2-1.3-0.5c-0.3-0.2-0.4-0.4-0.3-0.8
				c0.4-0.8,0.6-1.5,0.6-1.9c0-0.2-0.1-0.2-0.2-0.2c-0.2,0-0.4,0.2-0.8,0.5c-2.9,2.4-5.1,5.1-6.4,8.1c-0.5,0.9-0.9,1.4-1.2,1.4
				c-0.1,0-0.7-0.2-1.6-0.5c-0.5-0.1-0.6-0.4-0.5-0.9c1.1-3.1,2.3-5.7,3.6-7.8c-1,0.7-1.7,1.2-1.9,1.4c-0.1,0.1-0.3,0.2-0.5,0.2
				s-0.4-0.1-0.3-0.2c0-0.1,0-0.2,0.2-0.3c0.7-0.5,1.6-1.3,2.7-2.4c0.3-0.4,0.7-0.6,1-0.6c0.2,0,0.8,0.1,1.5,0.4
				c0.4,0.1,0.5,0.3,0.2,0.6c-0.3,0.2-0.9,1.2-1.8,2.7c-0.8,1.5-1.3,2.7-1.6,3.6c1.8-2.7,4-5.1,6.4-7.1c0.5-0.4,0.8-0.6,1.1-0.6
				c0.2,0,0.6,0.1,1,0.3c0.6,0,1,0.1,1.1,0.2C68.5,170.9,68.6,171.1,68.6,171.4z"/>
		</g>
		<g>
			<path class="st0" d="M82.8,164.4c0.4,0.1,0.6,0.3,0.6,0.4c0,0.1-0.2,0.2-0.4,0.2c-0.1,0-0.2,0-0.3,0c-0.1,0-0.2,0-0.3,0
				c-0.5,0-1.2,0.4-1.9,1.1c-0.6,0.6-1.6,2.1-2.7,4.3c-0.1,0.2-0.2,0.3-0.1,0.4c0,0,0.2,0.1,0.5,0.1c0.8,0,1.9,0,3.3-0.1
				c0.5,0,0.7,0.1,0.7,0.4c0,0.2-0.2,0.3-0.5,0.4c-0.3,0-1.8,0.1-4.6,0.2c-1.7,3.1-2.7,5.8-3,7.9c0,0.1,0,0.2,0,0.3
				c0,0.3,0.1,0.4,0.4,0.4c0.4,0,1.5-0.6,3.4-1.7c0.3-0.2,0.4-0.2,0.7-0.2c0.2,0,0.3,0,0.3,0.1s0,0.3-0.2,0.4
				c-1.1,1-2.2,1.8-3.3,2.5c-0.5,0.3-0.9,0.4-1.2,0.4c-0.3,0-0.8-0.2-1.4-0.5c-0.8-0.1-1.2-0.4-1.2-0.8c0-0.1,0-0.2,0.1-0.2
				c0.5-2.3,1.5-5.1,3-8.4c-0.8-0.1-1.4-0.1-2-0.2c-0.3,0-0.4-0.1-0.4-0.3s0.2-0.3,0.4-0.4c0.3,0,0.8-0.2,1.5-0.3
				c0.4-0.1,0.9-0.2,1.3-0.4c1.5-2.9,2.6-4.9,3.5-5.7c0.5-0.5,1.1-0.8,1.6-0.8C81,163.9,81.8,164.1,82.8,164.4z"/>
		</g>
		<g>
			<path class="st0" d="M93.9,177.7c-3.4,2.7-5.7,4.1-7.1,4.1c-0.7,0-1.5-0.3-2.5-0.9c-1-0.3-1.6-0.7-1.6-1.2c0-0.1,0-0.2,0-0.3
				c0.3-1.2,0.8-2.6,1.5-4.1c-0.5-0.2-0.8-0.3-0.8-0.4c0-0.2,0.2-0.2,0.4-0.2c0.2,0,0.4,0,0.7,0.1c1.2-1.8,2.3-3,3.3-3.8
				c0.6-0.5,1.2-0.7,1.7-0.7c0.2,0,0.8,0.1,1.7,0.4c-0.1-0.2,0-0.4,0.4-0.5h1c0.6,0,0.9,0.1,0.9,0.2c0,0,0,0.1-0.1,0.2
				c0,0.2-0.1,0.3-0.1,0.4c0,0.3,0,0.7,0,1.2s0,0.8,0,1c0,1.1-0.5,1.9-1.4,2.3c-0.9,0.4-1.8,0.6-2.9,0.6c-0.6,0-1.5-0.1-2.8-0.3
				c-0.3,0.3-0.5,0.8-0.8,1.6c-0.4,1-0.6,1.9-0.6,2.7c0.1,0.4,0.3,0.7,0.7,0.7c0.2,0,0.4,0,0.7-0.1c1.6-0.4,3.8-1.5,6.7-3.3
				c0.2-0.1,0.4-0.2,0.5-0.2c0.3,0,0.4,0.1,0.4,0.3C94.2,177.4,94.1,177.5,93.9,177.7z M91.5,171.8c0-0.4-0.2-0.5-0.4-0.5
				c-0.1,0-0.4,0.1-0.7,0.2c-1.4,0.7-2.6,1.9-3.5,3.7c0.2,0,0.7,0.1,1.4,0.1c1.1,0,1.9-0.1,2.5-0.5c0.4-0.3,0.6-0.7,0.7-1.3
				C91.5,173.9,91.5,173.3,91.5,171.8z"/>
		</g>
		<g>
			<path class="st0" d="M118.4,177.7c-3.4,2.7-5.7,4.1-7.1,4.1c-0.7,0-1.5-0.3-2.5-0.9c-1-0.3-1.6-0.7-1.6-1.2c0-0.1,0-0.2,0.1-0.3
				c0.2-1.2,0.8-2.6,1.5-4.1c-0.6-0.2-0.8-0.3-0.8-0.4c0-0.1,0.1-0.2,0.4-0.2c0.2,0,0.5,0,0.7,0.1c1.2-1.8,2.3-3,3.3-3.8
				c0.7-0.5,1.2-0.7,1.8-0.7c0.2,0,0.8,0.1,1.7,0.4c-0.1-0.3,0.1-0.4,0.4-0.5h0.9c0.6,0,0.9,0.1,0.9,0.2c0,0,0,0.1-0.1,0.2
				c-0.1,0.1-0.1,0.3-0.1,0.4c0,0.3,0,0.7,0,1.2s0,0.8,0,1c0,1.1-0.5,1.9-1.4,2.3c-0.9,0.4-1.9,0.6-2.9,0.6c-0.5,0-1.5-0.1-2.8-0.3
				c-0.2,0.3-0.5,0.8-0.8,1.6c-0.4,1-0.6,1.9-0.5,2.7c0,0.5,0.2,0.7,0.7,0.7c0.2,0,0.4,0,0.7-0.1c1.6-0.4,3.9-1.5,6.7-3.3
				c0.2-0.1,0.3-0.2,0.5-0.2c0.3,0,0.4,0.1,0.4,0.3C118.6,177.5,118.5,177.6,118.4,177.7z M115.9,171.8c0-0.4-0.1-0.5-0.3-0.5
				c-0.2,0-0.4,0.1-0.7,0.2c-1.4,0.7-2.5,1.9-3.6,3.7c0.3,0,0.8,0.1,1.5,0.1c1.1,0,2-0.1,2.5-0.5c0.4-0.3,0.6-0.7,0.7-1.3
				C115.9,173.9,115.9,173.3,115.9,171.8z"/>
		</g>
		<g>
			<path class="st0" d="M137.9,176.7c-0.8,0.8-1.9,2-3.2,3.5c-0.3,0.4-0.5,0.8-0.7,1.2c-0.2,0.3-0.4,0.4-0.8,0.4
				c-0.2,0-0.6-0.1-1.1-0.2c-0.6-0.1-0.8-0.3-0.8-0.4c0,0,0.1-0.2,0.3-0.4c0.9-1.2,1.7-2.6,2.4-4.4c0.8-1.8,1.1-3.2,1-4.2
				c0-0.4-0.2-0.6-0.4-0.6s-0.5,0.1-0.8,0.3c-3.5,2.2-6.5,5.1-9.1,8.7c-0.3,0.5-0.7,0.7-1.1,0.7c-0.3,0-0.8-0.1-1.5-0.3
				c-0.3-0.1-0.4-0.1-0.4-0.2c0,0,0.1-0.2,0.2-0.4c0.8-1.1,1.6-2.6,2.4-4.3c0.8-1.9,1.3-3.4,1.5-4.4c0-0.3,0-0.5-0.1-0.5
				c0,0-0.2,0.1-0.6,0.4c-0.3,0.2-0.9,0.5-1.5,0.9c-0.1,0.1-0.3,0.1-0.4,0.1c-0.2,0-0.3-0.1-0.3-0.1c0-0.1,0.1-0.2,0.2-0.3
				c0.6-0.5,1.4-1.1,2.4-1.8c0.2-0.2,0.4-0.3,0.6-0.3c0.3,0,0.6,0.2,0.9,0.5c1.1,0.2,1.6,0.5,1.6,1c-0.1,1-0.9,2.7-2.4,5.3
				c0.9-1.2,2.3-2.4,4.1-3.9c1.8-1.4,3.1-2.3,4-2.5c0.4-0.1,0.7-0.2,0.9-0.2c0.1,0,0.4,0.1,0.9,0.3c1.2,0.2,1.7,0.7,1.7,1.3
				s-0.3,1.6-0.7,3c-0.4,1.1-0.8,2-1.1,2.6c0.4-0.3,0.9-0.7,1.6-1.3c0.1-0.1,0.2-0.2,0.3-0.2c0.2,0,0.3,0.1,0.3,0.3
				C138,176.6,138,176.7,137.9,176.7z"/>
		</g>
		<g>
			<path class="st0" d="M163.8,164.5c0.4,0.1,0.6,0.3,0.6,0.4c0,0.1-0.1,0.2-0.4,0.2c-0.1,0-0.1,0-0.3,0c-0.1,0-0.2,0-0.2,0
				c-0.5,0-1.2,0.4-1.9,1.1c-0.7,0.7-1.6,2.1-2.7,4.3c-0.1,0.2-0.2,0.3-0.2,0.4c0.1,0,0.2,0.1,0.6,0.1c0.8,0,1.9,0,3.3-0.1
				c0.5,0,0.7,0.1,0.7,0.4c0,0.2-0.2,0.3-0.5,0.4c-0.3,0-1.8,0.1-4.6,0.2c-1.6,3.1-2.7,5.8-3,7.9c0,0.1,0,0.2,0,0.3
				c0,0.3,0.1,0.4,0.4,0.4c0.4,0,1.5-0.6,3.4-1.7c0.2-0.2,0.4-0.2,0.6-0.2c0.2,0,0.3,0,0.3,0.1s0,0.3-0.2,0.4
				c-1.1,1-2.2,1.8-3.3,2.5c-0.5,0.3-0.8,0.4-1.2,0.4c-0.3,0-0.8-0.2-1.4-0.5c-0.8-0.1-1.2-0.4-1.2-0.8c0-0.1,0-0.2,0.1-0.2
				c0.5-2.3,1.5-5.1,3-8.4c-0.8-0.1-1.4-0.1-2-0.2c-0.2,0-0.4-0.1-0.4-0.3s0.1-0.4,0.4-0.4c0.3,0,0.8-0.1,1.6-0.3
				c0.4-0.1,0.9-0.2,1.3-0.4c1.5-2.9,2.6-4.9,3.5-5.7c0.5-0.5,1-0.8,1.6-0.8C162,163.9,162.8,164.1,163.8,164.5z"/>
		</g>
		<g>
			<path class="st0" d="M180,171.9c-1.8,2.2-3.2,4.8-4.2,7.7c0.4-0.4,0.9-1,1.4-1.7c0.1-0.1,0.2-0.2,0.4-0.2s0.3,0.1,0.3,0.2
				c0,0,0,0.1-0.1,0.2c-0.9,1.3-1.5,2.3-1.7,3c-0.2,0.4-0.4,0.7-0.7,0.7s-0.8-0.2-1.6-0.5c-0.4-0.2-0.6-0.5-0.4-1
				c0.6-1.9,1.3-3.6,2.1-5.1c-2.7,2.8-4.9,4.9-6.8,6.2c-0.4,0.3-0.8,0.4-1.3,0.4c-0.4,0-0.8-0.1-1.4-0.3c-1-0.1-1.5-0.4-1.5-1
				c0-0.1,0-0.2,0-0.3c0.4-2.5,1.1-4.6,2.2-6.3c-0.2,0.1-0.6,0.4-1.1,0.6c-0.2,0.1-0.3,0.1-0.4,0.1c-0.1,0-0.1-0.1,0.1-0.3
				c0.7-0.7,1.2-1.1,1.3-1.4c0.4-0.7,0.9-1.2,1.4-1.6c0.2-0.2,0.5-0.3,0.8-0.3c0.4,0,0.9,0.1,1.6,0.4c0.2,0.1,0.3,0.1,0.3,0.3
				l-0.5,0.4c-0.7,0.6-1.4,1.8-2.2,3.5c-0.8,1.9-1.3,3.4-1.3,4.5c0,0.4,0.1,0.6,0.4,0.6c0.2,0,0.6-0.1,1.1-0.5
				c1-0.7,2.6-2.1,4.6-4.1c1.8-1.8,2.8-3,3.2-3.5c0.6-0.9,1.1-1.5,1.5-1.6c0.3-0.1,0.5-0.2,0.7-0.2s0.6,0.1,1.1,0.3
				c0.6,0.2,0.8,0.3,0.8,0.4c0,0,0,0.1-0.2,0.1C180.1,171.7,180,171.8,180,171.9z"/>
		</g>
		<g>
			<path class="st0" d="M189.7,178.5c0,1.1-0.9,1.8-2.8,2.2c-0.2,0.4-0.5,0.6-0.7,0.8c-0.3,0.2-0.8,0.3-1.4,0.4c-0.4,0-0.8,0-1.3,0
				c-0.8-0.1-1.8-0.2-3-0.3c-0.3,0-0.5-0.2-0.6-0.4c0-0.2,0.4-0.4,1.2-0.4c1,0,2.4-0.2,4.4-0.3c0.8-0.1,1.3-0.4,1.6-0.8
				c0.2-0.2,0.3-0.5,0.3-0.8c0-0.6-0.4-1.6-1.3-3c-0.9-1.4-1.3-2.3-1.2-2.8c0.1-1.1,1.7-1.9,4.8-2.3c0.3,0,0.5,0,0.5,0.2
				c0,0.1-0.2,0.2-0.3,0.2c-1.5,0.4-2.2,1-2.2,1.6c0,0.2,0.1,0.5,0.2,0.9c0.1,0.3,0.5,1.2,1.2,2.6
				C189.4,177.2,189.7,178,189.7,178.5 M193,170.9c0,0.4-0.1,1-0.5,1.9c-0.1,0.3-0.2,0.5-0.4,0.6c-0.1,0-0.3,0.1-0.7,0.2
				c-0.5,0.1-0.8,0.2-0.9,0.2c-0.2,0-0.3-0.1-0.3-0.3c0-0.1,0-0.2,0.1-0.4c0.4-0.9,0.5-1.5,0.4-1.8s0.1-0.5,0.5-0.6
				c0.7-0.3,1.1-0.3,1.3-0.3C192.8,170.3,193,170.4,193,170.9"/>
		</g>
		<g>
			<path class="st0" d="M248.8,164.3c0.1,0.1,0.2,0.1,0.2,0.2c0,0.2-0.2,0.3-0.7,0.3c-0.1,0-0.3,0-0.4,0c-0.2,0-0.3,0-0.4,0
				c-0.7,0-1.3,0.4-2,1.2c-2.7,3.4-4.5,7.6-5.3,12.6c0.3-0.4,0.7-0.9,1.3-1.5c0.1-0.2,0.3-0.3,0.6-0.3c0.2,0,0.4,0.1,0.4,0.3
				c0,0.1,0,0.2-0.2,0.4c-0.6,0.9-1.2,2.3-1.7,4c-0.1,0.4-0.4,0.6-0.8,0.6c-0.5,0-1.2-0.3-2.1-0.7c-0.5-0.2-0.7-0.4-0.8-0.5
				s-0.1-0.4,0-0.8c0.5-1.9,1.1-4.1,1.9-6.5c0.9-2.8,1.6-4.4,2-4.9c-1.4,1.1-3.2,2.7-5.4,4.9c-2.1,2.1-3.9,4.1-5.5,6
				c0.3,0.6,0.4,1,0.4,1.2c0,0.4-0.4,0.8-1.4,1.4c-0.5,0.3-0.8,0.4-0.9,0.4c-0.2,0-0.6-0.4-1.2-1.1c-0.3-0.3-0.4-0.6-0.4-0.7
				c0-0.1,0.2-0.4,0.6-0.9c-0.9-2.1-2.5-4.7-4.8-7.7c-1.5,2.4-3,4.6-4.5,6.6c1,0.7,1.5,1.2,1.5,1.5c0,0.2-0.4,0.3-1,0.4
				c-1.5,0.1-2.7,0.6-3.7,1.4c-0.1,0.3-0.3,0.4-0.6,0.4c-0.5,0-1.2-0.3-2.2-0.8c-0.3-0.2-0.4-0.3-0.4-0.4c0-0.1,0.1-0.2,0.3-0.4
				c0.9-0.5,2-1,3.2-1.5c2.6-2.8,4.6-5.6,6.3-8.7c-1.7-2.4-3.8-4-6.3-5c-0.4-0.2-0.8-0.3-1.2-0.3c-0.5,0-1.1,0.2-1.7,0.5
				c-0.6,0.4-1.1,0.7-1.6,1.2c-0.3,0.2-0.6,0.3-0.9,0.3c-0.3,0-0.4-0.1-0.4-0.2c0-0.1,0.1-0.2,0.1-0.3c1.9-2.4,3.7-3.6,5.4-3.6
				c2,0,4.6,1.7,7.9,4.8c0.8-1.1,1.2-2.2,1.2-3.1c0-0.5,0.1-0.7,0.3-0.7s0.7,0.2,1.4,0.6c0.2,0.1,0.4,0.4,0.3,0.7
				c0,0.5-0.7,1.8-1.9,4c2.4,3,4.3,5.8,5.5,8.3c4.9-5.2,9.3-9.3,13.2-12.2c0.5-0.7,1.1-1.4,1.8-2.1c0.3-0.3,0.7-0.4,1.1-0.5
				C246,163,247.1,163.4,248.8,164.3z"/>
		</g>
		<g>
			<path class="st0" d="M261.9,172.7c-1.3,2.3-2.2,4.2-2.7,5.7c0.2-0.2,0.5-0.3,0.8-0.6c0.4-0.2,0.6-0.4,0.6-0.4
				c0.2-0.2,0.4-0.2,0.6-0.3c0.2,0,0.3,0.1,0.3,0.2c0,0.1-0.1,0.2-0.2,0.3c-1.3,1.2-2.1,2.5-2.6,3.7c-0.1,0.3-0.3,0.5-0.6,0.5
				c-0.2,0-0.7-0.2-1.3-0.4c-0.4-0.2-0.6-0.3-0.7-0.4c-0.1-0.1-0.1-0.3,0-0.6c0.6-2.2,1.3-4.1,2.2-5.6c-1.2,1.3-2.9,2.7-4.9,4.2
				c-1.9,1.3-3.2,2.1-4,2.5c-0.6,0.3-1.1,0.4-1.3,0.4c-0.3,0-0.6-0.1-1.1-0.4c-0.8-0.3-1.1-0.7-1.1-1.2c0-0.1,0-0.2,0-0.3
				c0.3-1.3,1.2-2.9,2.7-4.6c1.6-1.7,3.4-3.2,5.4-4.4c0.6-0.4,1.2-0.6,1.7-0.6c0.5,0,1.5,0.5,2.9,1.3c0.1,0.1,0.2,0.2,0.2,0.2
				c0,0.1-0.2,0.2-0.4,0.2c-0.1,0-0.2,0-0.3,0c-1-0.3-1.8-0.3-2.4,0c-1.3,0.6-2.7,1.7-4.3,3.2c-1.8,1.8-3,3.4-3.3,4.8
				c0,0,0,0.1,0,0.2c0,0.2,0.1,0.3,0.4,0.3c0.5,0,1.1-0.2,1.7-0.6c1.6-1,3.2-2.2,5-3.7s3-2.7,3.5-3.4c0.4-0.6,0.6-1,0.8-1.2
				c0.2-0.4,0.4-0.6,0.6-0.6s0.7,0.2,1.5,0.6c0.3,0.2,0.5,0.3,0.5,0.4C262,172.2,262,172.4,261.9,172.7z"/>
		</g>
		<g>
			<path class="st0" d="M281.9,176.8c-0.8,0.8-1.9,2-3.2,3.5c-0.3,0.4-0.5,0.8-0.7,1.2c-0.2,0.3-0.5,0.4-0.8,0.4s-0.6-0.1-1.1-0.2
				c-0.5-0.1-0.8-0.3-0.8-0.4c0,0,0.1-0.2,0.3-0.4c0.9-1.2,1.7-2.6,2.4-4.4c0.7-1.8,1.1-3.3,1-4.2c0-0.4-0.2-0.6-0.4-0.6
				c-0.2,0-0.5,0.1-0.8,0.3c-3.5,2.2-6.5,5.1-9.1,8.8c-0.3,0.5-0.7,0.7-1.1,0.7c-0.3,0-0.8-0.1-1.6-0.4c-0.2-0.1-0.4-0.1-0.4-0.2
				c0,0,0-0.2,0.2-0.4c0.8-1.1,1.6-2.5,2.4-4.3c0.8-1.9,1.3-3.4,1.4-4.4c0-0.3,0-0.5,0-0.5s-0.2,0.1-0.6,0.4
				c-0.4,0.2-0.9,0.6-1.6,0.9c-0.2,0.1-0.3,0.1-0.4,0.1c-0.2,0-0.3,0-0.3-0.1s0-0.2,0.2-0.3c0.6-0.5,1.4-1.1,2.4-1.8
				c0.2-0.2,0.4-0.3,0.6-0.3c0.3,0,0.6,0.2,0.9,0.5c1.1,0.2,1.6,0.5,1.5,1c-0.2,1-0.9,2.7-2.3,5.3c0.9-1.1,2.2-2.4,4-3.8
				c1.8-1.4,3.1-2.3,3.9-2.5c0.4-0.1,0.7-0.2,0.9-0.2c0.2,0,0.5,0.1,0.9,0.3c1.1,0.2,1.7,0.7,1.7,1.3s-0.2,1.6-0.7,3
				c-0.4,1.1-0.7,2-1.1,2.6c0.4-0.3,1-0.7,1.6-1.3c0.1-0.1,0.2-0.2,0.4-0.2c0.2,0,0.3,0.1,0.3,0.3
				C281.9,176.7,281.9,176.8,281.9,176.8z"/>
		</g>
		<g>
			<path class="st0" d="M299.5,173.1c0,0.8-0.3,1.9-0.9,3.2c-0.9,2.1-2.2,3.7-3.8,4.8c-0.9,0.6-1.8,0.9-2.9,0.9
				c-0.4,0-0.9-0.1-1.6-0.2c-1.3-0.1-2.4-0.3-3.2-0.8c-0.9-0.5-1.3-1.2-1.2-2c0-0.9,0.6-2.3,1.5-3.9c1.1-1.8,2.1-3.2,3.3-4
				c0.5-0.4,1-0.6,1.3-0.6c0.4,0,1.2,0.3,2.3,0.9c0.3-0.1,0.9-0.3,1.8-0.5c0.5-0.1,0.8-0.1,1-0.1c0.5,0,1.1,0.3,1.8,1
				C299.3,172.2,299.5,172.7,299.5,173.1z M297.1,173.5c0.1-0.6,0.1-1,0.1-1.1c0-0.4-0.2-0.6-0.5-0.5c-0.2,0-0.3,0-0.6,0l-3.2,0.8
				c-0.4,0.1-0.6,0.1-0.6,0.1c-0.1,0-0.2-0.1-0.3-0.3c-0.8,0.6-1.6,1.5-2.2,2.7c-0.6,0.9-0.9,1.8-1.1,2.5c-0.1,0.5-0.2,0.9-0.2,1.3
				c0,1.4,0.6,2,2,2c0.5,0,1.1-0.2,1.7-0.4c1.2-0.5,2.3-1.5,3.3-3C296.2,176.3,296.8,174.9,297.1,173.5z"/>
		</g>
		<g>
			<path class="st0" d="M309.6,178.6c0,1.1-0.9,1.8-2.8,2.2c-0.2,0.4-0.5,0.6-0.6,0.8c-0.3,0.2-0.8,0.3-1.4,0.4
				c-0.4,0-0.8,0-1.3-0.1c-0.8-0.1-1.8-0.2-3-0.3c-0.3,0-0.5-0.2-0.6-0.4c0.1-0.2,0.5-0.4,1.2-0.4c1,0,2.4-0.2,4.3-0.3
				c0.7-0.1,1.2-0.4,1.5-0.8c0.2-0.2,0.3-0.5,0.3-0.8c0-0.6-0.4-1.6-1.3-3s-1.3-2.3-1.2-2.8c0.1-1.1,1.7-1.9,4.8-2.3
				c0.3,0,0.5,0,0.5,0.2c0,0.1-0.1,0.2-0.3,0.2c-1.5,0.4-2.3,0.9-2.3,1.5c0,0.2,0.1,0.5,0.2,0.9c0.1,0.3,0.5,1.2,1.2,2.6
				C309.3,177.3,309.6,178.1,309.6,178.6z M312.9,170.9c0,0.4-0.2,1-0.5,1.9c-0.1,0.3-0.3,0.5-0.4,0.6c-0.1,0-0.3,0.1-0.7,0.2
				c-0.5,0.1-0.8,0.2-0.9,0.2c-0.2,0-0.3-0.1-0.3-0.3c0-0.1,0-0.2,0.1-0.4c0.3-0.9,0.4-1.5,0.4-1.8c-0.1-0.3,0.1-0.5,0.5-0.6
				c0.7-0.3,1.1-0.3,1.3-0.3C312.7,170.3,312.9,170.5,312.9,170.9z"/>
		</g>
	</g>
</g>
</svg>
