<?xml version="1.0" encoding="utf-8"?>
<!-- Generator: Adobe Illustrator 24.2.0, SVG Export Plug-In . SVG Version: 6.00 Build 0)  -->
<svg version="1.1" id="Capa_1" xmlns="http://www.w3.org/2000/svg" xmlns:xlink="http://www.w3.org/1999/xlink" x="0px" y="0px"
	 viewBox="0 0 320 200" style="enable-background:new 0 0 320 200;" xml:space="preserve">
<style type="text/css">
	.st0{fill:#B2B2B2;}
</style>
<g>
	<g>
		<g>
			<g>
				<g>
					<path class="st0" d="M92.3,138.2c-1,0-2-0.1-3.1-0.3l-0.2-0.1c-1.8-0.6-3.3-1.3-4.4-2.1s-2.1-1.6-2.7-2.4
						c-0.6-0.8-1.1-1.6-1.4-2.3s-0.5-1.3-0.6-1.8c-0.4-1.8-0.6-4.2-0.5-7.3c0.1-3.1,1-7,2.7-11.8V110c1.2-2.5,2.4-4.6,3.8-6.4
						s3-3.3,4.9-4.3l0.2-0.1c0.3-0.1,1-0.3,2.2-0.7c1.4-0.4,2.5-0.5,3.5-0.3c2.7-0.1,4.9,0.7,6.5,2.3c1.7,1.7,1.9,4.7,0.6,9.2v0.1
						c-1.7,4.5-4,8.4-6.8,11.4c-2.6,2.8-5.6,5.5-9.1,8c0.7,1.3,1.5,2,2.6,2.2c1.5,0.2,3.1,0,4.8-0.8c1.8-0.8,3.6-1.9,5.3-3.2
						c1.8-1.4,3.2-2.5,4.3-3.6c1.8-1.6,3.3-2.9,4.3-3.9s2.2-2.3,3.3-3.9l0.1-0.1l0.2-0.1c1-0.7,2.1-0.2,2.3,0.8
						c0.1,0.4,0.1,0.8-0.1,1.4c-0.1,0.4-0.2,1.1-0.4,1.8l-0.1,0.2c-0.3,0.6-0.6,1.2-0.8,1.7c-0.3,0.5-0.7,1.1-1.2,1.8
						c-0.5,0.6-1.1,1.3-1.9,2.1c-0.8,0.8-1.7,1.8-2.8,3.1l-0.1,0.1c-1.3,1.2-2.5,2.4-3.8,3.6c-1.3,1.2-2.6,2.3-4,3.2
						c-1.5,0.9-3.1,1.6-4.8,2C94.2,138.1,93.3,138.2,92.3,138.2L92.3,138.2z M96.6,104.7c-0.7,0-1.3,0.3-2,0.8
						c-1.3,1-2.6,2.5-3.7,4.5c-1.2,2-2.2,4.3-2.9,6.7c-0.5,1.6-0.9,3.2-1,4.7c0.6-0.4,1.3-0.8,2-1.3c1.4-1,2.8-2.2,4.1-3.6
						c1.3-1.4,2.4-2.9,3.3-4.5s1.4-3.2,1.5-4.9v-0.2c0.2-1.2,0.1-1.6,0.1-1.8h-0.1C97.4,104.8,97,104.7,96.6,104.7L96.6,104.7z"/>
				</g>
				<g>
					<path class="st0" d="M115,138.6c-0.8,0-1.4-0.5-2.4-1.8l-0.3-0.3v-0.4c0.4-7.6,0.6-14.8,0.5-21.5s-0.3-12.7-0.6-17.7
						c0-2.3,1.4-2.4,1.8-2.4c0.6,0,1.3,0.3,2,0.7c0.5,0.3,0.9,0.7,1.5,1c0.5,0.3,0.6,0.3,0.6,0.3h1.2v1.2c0,2.4,0,4.8-0.1,7.3
						l-0.1,7c0,1.1,0,2.2-0.1,3.2c0.6-1.5,1.3-3.1,1.9-4.7c0.8-2,1.8-3.8,2.8-5.4s2.1-2.9,3.1-3.8c1.3-1.2,2.7-1.5,4-1
						c2.2,1,3.8,2.5,4.7,4.4c0.8,1.7,1.4,3.7,1.8,6c0.3,2.1,0.7,4.5,1,7.1c0.3,2.5,1.1,5.1,2.3,7.9c0.4,1.1,1,1.8,1.8,2.3
						c0.9,0.5,1.8,0.9,2.6,1.2c0.8,0.2,1.5,0.4,2,0.4c0.3,0,1.2,0.1,1.6,0.9c0.2,0.4,0.2,1-0.1,1.4l-0.1,0.2l-0.2,0.1
						c-2.5,1.9-4.7,2.5-6.7,1.9c-1.8-0.6-3.4-1.9-4.6-4c-1.1-1.9-2.1-4.1-2.8-6.7c-0.7-2.4-1.3-4.8-1.9-7.2
						c-0.6-2.3-1.1-4.2-1.5-5.8c-0.2-0.7-0.4-1.1-0.5-1.4c-0.3,0.2-0.7,0.6-1.3,1.5c-0.9,1.3-1.8,3-2.7,5c-0.9,2-1.8,4.3-2.7,6.7
						c-0.9,2.5-1.7,4.8-2.4,6.9c-0.7,2.1-1.3,4-1.7,5.5c-0.4,1.5-0.7,2.5-0.8,2.8l-0.2,0.9h-0.9c-1.6,0-2,0.1-2.1,0.1
						C115.3,138.6,115.2,138.6,115,138.6L115,138.6z"/>
				</g>
				<g>
					<path class="st0" d="M153.9,138.6c-0.7,0-1.4-0.1-2-0.3c-0.8-0.3-1.7-0.7-2.4-1.2l-0.5-0.3l-0.1-0.6c-0.2-1.4-0.4-3.7-0.6-6.9
						c-0.2-3.3-0.4-6.9-0.6-10.5c-0.2-3.8-0.4-7.4-0.7-11c-0.2-3.5-0.4-6.4-0.6-8.4l-0.1-0.8l0.7-0.4c0.2-0.1,0.3-0.2,0.4-0.3
						c0.3-0.4,0.6-0.8,0.9-1.1c0.4-0.4,0.9-0.7,1.4-0.9c0.7-0.3,1.5-0.3,2.4-0.1L153,96l0.1,0.8c0.4,4.1,0.7,8.8,0.9,13.8
						s0.5,10.2,0.9,15.6c0.3,2.7,0.7,4.8,1,6.3c0.3,1.6,0.6,3.1,0.8,4.5l0.1,1.1l-1.1,0.2C155.1,138.6,154.4,138.6,153.9,138.6
						L153.9,138.6z M149,88.7h-0.2c-0.4-0.1-0.8-0.1-1-0.1h-0.2c-1.6,0-1.9-2-2.1-3.1l-0.1-0.3l0.1-0.3c0.4-1.1,1-2.1,1.8-3.2
						c0.9-1.1,2.1-2,3.8-2.7l0.2-0.1c0.2,0,0.4-0.1,0.5-0.1c0.6,0,2.1,0.3,2.4,2.6c0.2,1.6,0,2.8-0.8,3.7l-0.2,0.1
						c-1.1,0.9-1.4,1.4-1.5,1.6C151.3,87.7,150.4,88.3,149,88.7L149,88.7L149,88.7z"/>
				</g>
				<g>
					<path class="st0" d="M165.4,138.5c-1.6,0-3.7-0.7-5.2-4l-0.1-0.2c-0.6-2.4-0.7-5.2,0-8.2c0.6-2.9,1.6-5.6,2.8-7.9
						c1.9-3.2,3.8-6.1,5.8-8.7c2-2.7,4.2-5,6.6-6.8c2.3-1.9,4.9-3.3,7.5-4.2c2.6-0.9,5.4-1.1,8.3-0.6l1.2,0.2l-0.2,1.2
						c-0.1,0.5-0.3,1.6-0.6,3.3c-0.3,1.6-0.6,3.6-1,5.7c-0.3,2.2-0.6,4.5-0.9,6.9c-0.3,2.4-0.4,4.7-0.5,6.8c0,2.1,0.1,3.8,0.4,5.3
						c0.3,1.6,0.8,1.9,0.9,2c1.5,0.7,3.1,0.5,4.9-0.9c2-1.5,4.4-4,7.1-7.2l0.4-0.4h0.6c0.4,0,0.8,0.2,1.1,0.5c0.4,0.6,0.3,1.4,0.1,2
						c-0.2,0.8-0.6,1.6-1.1,2.5l-1.4,2.5c-0.5,0.9-0.9,1.5-1.2,1.8c-0.7,0.9-1.8,1.9-3.1,3c-1.4,1.1-2.9,2.1-4.4,2.8
						c-1.6,0.7-3.3,1-4.8,0.9c-1.8-0.1-3.2-1.1-4.3-2.9l-0.1-0.1c-0.5-1.2-0.8-2.6-0.9-4.2c-0.1-1.6-0.1-3.1,0-4.7
						c0-0.5,0.1-1.1,0.1-1.6c-1.1,1.7-2.2,3.3-3.4,4.9c-2.4,3.1-4.8,5.6-7.1,7.4c-2.4,1.9-4.7,2.9-6.9,3
						C165.7,138.5,165.6,138.5,165.4,138.5L165.4,138.5z M184.1,104.8c-0.3,0-0.8,0.1-1.7,0.6c-3.1,2.1-5.9,4.5-8.1,7.3
						c-2.3,2.8-4.1,5.6-5.3,8.2s-2,4.9-2.2,7c-0.2,1.4-0.1,2.4,0.2,2.9c0.4-0.1,1.3-0.4,2.9-1.7c1.8-1.4,3.8-3.4,5.8-6
						s3.9-5.6,5.5-9C182.6,111.1,183.6,108,184.1,104.8L184.1,104.8L184.1,104.8z"/>
				</g>
				<g>
					<path class="st0" d="M214.7,157l-1.6-0.3c-0.5-0.1-1-0.2-1.4-0.3c-0.6-0.1-1.1-0.5-1.6-1c-0.4-0.4-0.8-0.9-1.4-1.6
						c-0.5-0.7-1.2-1.6-2-2.8l-0.2-0.2v-0.3c-1.1-7.9-2-15-2.7-20.9c-0.5-4.5-0.9-8.4-1.3-11.6c-0.7,0.9-1.3,1.5-1.7,2
						c-1.1,1.1-1.6,1.4-2.1,1.4c-0.4,0-0.8-0.2-1.1-0.5c-0.5-0.6-0.4-1.4-0.2-2.1l0.3-1.3c0.1-0.5,0.2-0.9,0.3-1.2
						c0.1-0.5,0.3-0.9,0.6-1.3c0.6-0.9,1.1-1.7,1.6-2.5c0.4-0.8,0.8-1.6,1-2.2c0.3-0.8,0.5-1.5,0.7-2.1c-0.1-0.9-0.1-1.7-0.2-2.3
						c0-0.7-0.1-1.4-0.1-2.2c0-0.7,0-1.4-0.1-2.2c0-0.8-0.1-1.8-0.1-3V85.6c0-2.9,0-5.9,0.1-8.9s0.2-6,0.3-8.9s0.3-5.4,0.5-7.7
						s0.5-4.1,0.7-5.4c0.7-2.7,1.7-4.9,3.1-6.3c1.4-1.5,3-2.4,4.6-2.7c1.7-0.3,3.4,0.2,4.9,1.2s2.7,2.7,3.5,4.8
						c0.8,2,1.2,4.6,1.2,7.8c0,3.1-0.3,6.5-0.8,10.1s-1.2,7.4-2.2,11.3c-0.9,3.9-1.9,7.7-2.9,11.4c-1,3.7-2.1,7.2-3.1,10.4
						c-1,3.1-1.9,5.7-2.7,7.9c0,0.3,0.1,1.2,0.4,3.3c0.3,2.2,0.6,4.8,0.9,7.9c0.3,3,0.7,6.4,1.2,10c0.5,3.5,0.9,7,1.3,10.3
						c0.4,3.3,0.8,6.1,1.1,8.6s0.6,4.1,0.7,4.8L214.7,157L214.7,157z M212.6,52.5c-0.4,0-1,0.1-1.6,1.3c-0.9,1.6-1.6,3.9-2.1,6.9
						c-0.6,3.1-0.9,6.6-1.1,10.6c-0.2,4-0.2,8-0.2,12s0.1,7.8,0.2,11.3c0,0.4,0,0.8,0,1.2c1.2-3.9,2.2-7.8,3.1-11.7
						c1.4-6.1,2.4-11.6,3-16.3s0.9-8.6,0.6-11.5c-0.2-3.1-0.8-3.5-0.8-3.5l-0.3-0.1C213.1,52.5,212.8,52.5,212.6,52.5L212.6,52.5z"
						/>
				</g>
			</g>
			<g>
				<path class="st0" d="M60.2,75.8c0,0,7.4,3.1,7.7-12.1c0,0-16-2.9-40.4,18c0,0-33.6,28-22.5,47.9c0,0,15.7,29.6,60.4,5.3
					c0,0,25.9-16.5,6-31.9c0,0-13.8-12.1-49.4,11.6c0,0-7.4,13.7,2.7,4.4c0,0,49.4-27.5,46-0.5c0,0-9.5,27.2-54.4,11.6
					c0,0-12.6-4.8-7-17.4C9.4,112.6,29.1,67.2,60.2,75.8z"/>
				<path class="st0" d="M33.4,144.7c-20.5,0-28.6-14.9-28.7-15c-11-19.8,22.3-47.9,22.6-48.2C46.6,65,60.6,63.2,65.8,63.2
					c1.4,0,2.2,0.1,2.2,0.1h0.2v0.2c-0.2,15.5-8,12.4-8.1,12.4C57.6,75.3,55,75,52.4,75c-26.1,0-42.6,37.4-42.8,37.8
					c-1.6,3.7-1.8,7-0.6,10c2,4.9,7.4,7,7.5,7c9.2,3.2,17.6,4.8,25,4.8c23.1,0,29-16.1,29.1-16.2c0.5-3.8-0.1-6.8-1.8-8.7
					c-1.6-1.9-4.4-2.8-8.1-2.8c-13.4,0-35.4,12.2-35.7,12.3c-3.2,2.9-4.3,3.3-4.9,3.3c-0.4,0-0.6-0.2-0.7-0.4
					c-0.8-1.4,1.9-6.6,2.5-7.6l0.1-0.1c18.3-12.2,30.7-14.7,38-14.7c8.1,0,11.6,3,11.8,3.2c5.2,4.1,7.8,8.6,7.6,13.5
					c-0.5,10.4-13.1,18.5-13.6,18.8C53.8,141.5,43,144.7,33.4,144.7L33.4,144.7z M65.8,63.8c-5.1,0-19,1.8-38.1,18.1
					C27.4,82.2-5.6,110,5.3,129.4c0.1,0.2,8,14.7,28.2,14.7c9.5,0,20.2-3.2,31.9-9.5c0.1-0.1,12.9-8.3,13.3-18.4
					c0.2-4.7-2.2-9.1-7.3-13.1c0,0-3.6-3-11.4-3c-7.1,0-19.4,2.5-37.6,14.6c-1.2,2.3-3,6.2-2.5,7c0,0.1,0.1,0.1,0.2,0.1
					c0.4,0,1.5-0.4,4.5-3.2c0.3-0.2,22.5-12.5,36-12.5c3.9,0,6.8,1,8.5,3c1.8,2,2.5,5.2,2,9.2C71,118.5,65,135,41.5,135
					c-7.4,0-15.9-1.6-25.2-4.9c-0.2-0.1-5.7-2.2-7.8-7.4c-1.3-3.1-1.1-6.6,0.6-10.4c0.2-0.4,16.8-38.1,43.3-38.1
					c2.6,0,5.3,0.4,7.9,1.1c0,0,0.6,0.3,1.4,0.3c2.1,0,5.6-1.5,5.8-11.8C67.3,63.9,66.7,63.8,65.8,63.8L65.8,63.8z"/>
			</g>
		</g>
		<g>
			<path class="st0" d="M247.5,131.1c1.4,2.9-0.8,6.8-4.9,8.7c-4,1.9-8.4,1.1-9.8-1.7c-1.4-2.9,0.8-6.8,4.9-8.7
				C241.7,127.5,246.1,128.3,247.5,131.1z"/>
			<path class="st0" d="M245.5,43l-18.8,5.6l6.3,2l1,72.1l9.5-6.3l10.1-71.1L245.5,43z M240.1,112.3h-1.3V55.7l10.4-4.8L240.1,112.3
				z"/>
		</g>
		<g>
			<path class="st0" d="M279.4,131.1c1.4,2.9-0.8,6.8-4.9,8.7s-8.4,1.1-9.8-1.7c-1.4-2.9,0.8-6.8,4.9-8.7
				C273.7,127.5,278.1,128.3,279.4,131.1z"/>
			<path class="st0" d="M277.4,43l-18.8,5.6l6.3,2l1,72.1l9.5-6.3l10.1-71.1L277.4,43z M272.1,112.3h-1.3V55.7l10.4-4.8L272.1,112.3
				z"/>
		</g>
		<g>
			<path class="st0" d="M311.4,131.1c1.4,2.9-0.8,6.8-4.9,8.7c-4,1.9-8.4,1.1-9.8-1.7c-1.4-2.9,0.8-6.8,4.9-8.7
				C305.6,127.5,310,128.3,311.4,131.1z"/>
			<path class="st0" d="M309.4,43l-18.8,5.6l6.3,2l1,72.1l9.5-6.3l10.1-71.1L309.4,43z M304,112.3h-1.3V55.7l10.4-4.8L304,112.3z"/>
		</g>
	</g>
</g>
</svg>
