<?xml version="1.0" encoding="utf-8"?>
<!-- Generator: Adobe Illustrator 24.2.0, SVG Export Plug-In . SVG Version: 6.00 Build 0)  -->
<svg version="1.1" id="Capa_1" xmlns="http://www.w3.org/2000/svg" xmlns:xlink="http://www.w3.org/1999/xlink" x="0px" y="0px"
	 viewBox="0 0 320 200" style="enable-background:new 0 0 320 200;" xml:space="preserve">
<style type="text/css">
	.st0{fill:#B2B2B2;}
</style>
<g>
	<g>
		<path class="st0" d="M225.8,88.7c-0.6,2.8-1.9,6.7-3.9,10.4c-1.9,3.7-3.4,5.6-4.8,6.1c0,0-0.9,0.6-1.9,1.5
			c-0.9,0.9-1.5,1.5-1.5,1.5c-0.6,0-0.6,0-0.9,0c-0.6,0-1.5-0.9-1.9-0.9c-0.6,0-0.9,0.6-1.5,0.6s-0.9-0.6-1.5-0.6
			c-0.6,0-1.5-0.6-2.4-1.5c-0.6,0.6-0.9,0.9-0.9,2.4c0,0,0,0-0.6,0.6c-0.6,2.4-0.6,5.2-0.6,8.9c0,1.9,0,4.3-0.6,7.1v1.9
			c0,0,0,1.5,0.6,4.7c0,2.8,0.6,4.3,0.6,4.7c0,1.9-0.6,2.8-1.5,3.7c0,0-0.9,0-1.9,0c-0.9,0-3.4-2.4-3.4-2.8
			c-0.6-1.5-0.6-3.7-0.6-6.1v-0.6c0,0,0-0.9,0.6-2.8c0-1.9,0.6-2.8,0.6-4.3c0-2.8,0-6.1,0.6-10.4V97.6v0.6c-0.6-3.4-0.9-8-1.5-14.7
			c0-2.8,0-5.6,0-6.7c0-2.8-0.6-4.7-0.9-6.1c0-1.5-0.9-3.4-1.5-6.1c0.6-0.6,1.9-1.5,4.3-1.5c0,0,1.5,0.6,4.3,1.5
			c0.6,0.6,0.9,1.5,0.9,2.4s0,2.8,0,2.8c0,0.6,0,1.5,0.6,1.5c0.6-0.6,0.6-0.6,0.9-0.6c0.6,0,0.6,0,0.9,0c0,0,0,0,0-0.9
			c0,0,0.9-0.6,2.4-1.9c0.9-0.9,1.5-1.5,1.5-1.5c0.6,0,0,0,0.6,0s0.9-1.5,1.5-1.5s0.6,0.6,0.9,0.6c0.6,0,1.9-0.9,2.4-0.9
			c1.5,0,3.4,0.6,5.4,1.5c0.6,0,0.9,0.9,1.9,1.5c0,0,0.6,0.6,0.6,1.5c2.4,0.9,3.4,4.3,3.4,10.4C226.3,84.8,226.3,87.2,225.8,88.7z
			 M196.7,82.6v-0.9h-0.6L196.7,82.6L196.7,82.6z M197.6,86.8c0,0,0,0.9-0.9,2.8c0.6,0,0.9,0,0.9,0
			C197.6,88.7,197.6,87.8,197.6,86.8z M197.6,95.8L197.6,95.8l-0.6,0.6h0.6V95.8z M198.2,113.3L198.2,113.3l-0.6,0.6h0.6V113.3z
			 M203.6,107.5v-0.9H203L203.6,107.5L203.6,107.5z M217.6,85.9c0-1.5,0-2.4,0-3.4s-0.6-1.5,0-1.9c0,0,0,0.6,0,0.9
			c0-0.6,0-0.9,0-1.5c0-0.6,0-0.9,0-1.5v0.6l-0.9-4.3c-0.6-2.4-0.9-3.4-2.4-4.3c-0.6,0-1.5,0-2.4,0.6c-2.4,2.8-4.3,6.1-5.4,9.9
			c0,0.9-0.9,4.7-1.9,10.4c0,0.6-0.6,1.5-0.6,1.9c0,1.5,0.6,3.7,1.9,7.6c0.6,0,1.5,0,3,0s1.9,0,1.9,0s0.6-0.6,0.9-1.5
			c0.6-0.9,1.5-1.5,2.4-1.9c0-0.6,1.9-1.9,3-1.9l0.6-0.6v-1.5c0,0-0.9,0.6-1.5,0.9c0,0,0-0.6-0.6-0.9c1.5-3.4,3-5.2,3-5.2
			C218.1,88.1,217.6,87.2,217.6,85.9z M220,80.7v-0.9h-0.6L220,80.7L220,80.7z M220,91.5L220,91.5l-0.6,0.6h0.6V91.5z M223,80.1
			L223,80.1l-0.6,0.9h0.6V80.1z M222.4,93.9c0,0.6,0.6,0.9,0.6,0.9c0.6-1.5,0.9-2.4,0.9-3.4C223.9,92.1,222.4,93.4,222.4,93.9z
			 M224.3,82.6v-1.5h-0.6L224.3,82.6L224.3,82.6z M224.8,89.1v-1.5h-0.6L224.8,89.1L224.8,89.1z"/>
		<path class="st0" d="M242.7,31.7c0,0-0.6,0.9-0.6,1.5c-0.6,3-0.6,4.8-0.9,6.7c0,1.5-0.6,7.3-1.5,18.4l-0.9,0.9
			c0,0,0.6,0.6,0.6,0.9v1.5c0,0.6,0,0.9,0,0.9c0,0.9,0,1.9,0,2.4c0,0.6-1.5,2.4-1.5,3c0,0.6,0.9,1.9,0.9,2.4s-0.6,1.9-0.6,3
			c0,1.5,0,3.9,0,6.7c0,1.5,0,3.4,0,6.3c0,3.4,0,5.8,0,6.3s0,1.9-0.6,4.3c0,2.4-0.6,3.9-0.6,3.9c0,0.6,0.6,1.5,0.6,2.4s0,3,0,5.4
			c0,0.9,0,2.4,0.6,4.8c0.6,2.4,0.6,3,0.6,3.4c0,0.6-0.6,1.5-0.6,1.9c-3.9-0.9-5.8-4.3-5.8-9.7c0-1.5,0-2.4,0.6-3.4
			c-0.6-0.6-0.6-1.5-0.6-3c0-1.9,0-3,0-3s0.6,0,0.6-0.6c-0.6-0.6-0.6-1.5-0.6-3V86.1c0,0,0.6,0,0.6-0.6v-6c-1.5-0.9-0.6-0.6-0.9-1.5
			c0-0.6,0-0.6,0-0.6c0-1.5,0-2.4,0-3.4c0,0,0-1.5,0-1.9s0-2.4,0-3.4c0-0.6,0.6-1.9,0.6-2.4c0,0,0-0.9-0.6-2.4
			c0-1.5-0.6-2.4-0.6-2.4c0-2.4,0-5.4,0.6-8.8c0,0,0-0.6,0.6-0.9c-0.6-1.5-0.6-3.9,0-7.3c0-0.9,0-3,0-5.8V35c0-0.9,0-1.5,0-1.9v-1.1
			c0,0,0.6-0.6,0.9-0.6l0.6,0.6c0,0,0.9-0.6,1.5-0.6l0,0c0,0,0,0,0-0.6c0,0,0,0,0.6,0s0,0,0.6,0c0,0,0.9,0,1.9-0.9
			c0.9-0.9,1.9-0.9,2.4-0.9c0.6,0,0,0.6,0.6,0.6s0.9,0,1.5,0v1.5l0,0v0.6H242.7z M233,93.2L233,93.2l-0.6,1.5h0.6V93.2z
			 M233.6,106.8L233.6,106.8l-0.6,0.9h0.6V106.8z M237.9,87.8L237.9,87.8l-0.6,0.9h0.6V87.8z"/>
		<path class="st0" d="M274.2,70.8c-0.6,1.5-0.6,3-0.6,3c0,1.9-0.6,3.9-0.9,5.8c0,3-0.6,6.3-1.5,11.2l0,0c0,0.6,0,0.9-0.6,1.5
			c0,0,0,0.6,0.6,1.5c-0.6,3.4-0.6,4.8-0.6,3.9c0,0.6,0.6,0.9,0.6,0.9c0,0.9,0,3,0.6,6.7c0,0.6-0.9,1.5-0.9,1.9c0,0,0,0.9,0.6,2.4
			c0.6,1.5,0.6,2.4,0.9,3l0,0c0,0,0,0-0.6,0c-0.6,0-0.6,0-0.9,0c0-0.6,0-0.9-0.6-1.5c0,0-0.6,0.6-0.6,1.5s0.6,1.5,1.5,1.5
			c0,0,0,0,0-0.6c0,0.9,0.6,2.4,1.5,4.8c0,0-0.9-0.6-1.5-0.6c0,0,0,0,0.6-0.6c-0.6-0.6-0.9-0.6-0.9-0.6c-0.6,0-0.6,0,0,0.6
			c-1.5-0.9-3-3-3.4-4.8c-0.6-0.6-0.9-1.5-1.5-2.4c0-1.5,0-1.9-0.6-2.4c-0.6,0.6-0.9,0.9-0.9,0.9c0-0.9-0.6-2.4-0.6-2.4
			c0-1.5-0.6-3-0.9-4.8c-0.6,0.9-1.5,2.4-2.4,3.9c-1.5,1.9-1.9,3-2.4,3.9c0,0,0-0.6,0-1.5c-1.5,0.9-1.5,1.9-1.5,3l0,0c0,0,0,0-0.6,0
			c-0.6,0-3,1.5-3.4,1.5c-0.6,0-0.9-0.6-0.9-0.6c-3-0.6-4.8-1.9-6.3-4.8c-1.5-1.9-1.9-4.3-1.9-6.7c0-0.9,0.6-3,1.5-5.8
			c0.9-2.4,1.5-4.8,2.4-7.3c0.6,0,0.9-0.6,1.5-0.9c0-0.9,0-3,0.9-4.8c0.9-1.5,1.5-3,3-4.8c0-0.9,0.6-1.9,1.5-3.4
			c0,0,0.9-0.6,1.5-0.9c0,0,0.6-0.6,0.9-0.9c0.6-0.6,0.6-0.9,0.9-0.9c0.6,0,0,0.6,0.6,0.6c0,0,1.5,0,3-0.6c1.9,0.9,3.4,0.9,3.4,0.9
			c0.6,0,0.6,0.6,0.9,0.6c0.6,0,1.5,0,2.4-0.6c0,0,0.6-0.6,1.5-1.9c0.9-1.5,1.5-2.4,2.4-2.4c0.6,0,0,0,0.6,0c0.6,0,1.5-0.9,2.4-0.9
			s1.5,0.9,1.5,2.4C275.2,68,274.8,69,274.2,70.8z M264.2,77.7c-0.6-1.5-0.9-2.4-0.9-2.4c-0.6,0-1.9,1.5-3.9,4.8
			c-0.9,1.5-1.9,3.4-3,5.4c-3.9,9.1-5.8,16.4-5.8,20.9c0,0.6,0,0.6,0.6,0.6c3-1.5,4.8-3.4,6.3-4.8v0.9c0-0.6,0.6-0.9,0.9-1.5
			c0.6,0,1.5,0,1.5,0s0-0.6,0-1.5c0-0.6,0-0.9,0.6-1.5c0,0,0.6,0.6,1.5,0.9c0-1.5,1.9-3,1.9-3.9C264.2,88.3,264.5,82.9,264.2,77.7
			C264.5,77.7,264.2,77.7,264.2,77.7z M256.9,109.2L256.9,109.2l-1.5,0.6v0.6L256.9,109.2z M259.7,106.2L259.7,106.2l-1.5,0.6l0,0
			L259.7,106.2z M261.7,97.1L261.7,97.1l-0.6-0.6h0.6V97.1z M262.1,99.9L262.1,99.9l-0.6,0.6h0.6V99.9z M269,112.9L269,112.9h-0.9
			v0.6L269,112.9z M270.9,109.6V109h-0.6L270.9,109.6L270.9,109.6z"/>
		<g>
			<g>
				<path class="st0" d="M310.2,88.1c0,0.2,0,0.4,0,0.6l0,0C310.2,88.7,310.2,88.7,310.2,88.1z"/>
				<path class="st0" d="M305.3,128.2h0.6V128L305.3,128.2z"/>
				<path class="st0" d="M315,58.7c-0.6-0.6-2.4-1.9-3-1.9l-1.5,1.5c-3,0.9-5.4,1.9-6.7,1.9c-0.6,0-0.9,0.6-0.9,1.5
					c0,1.5,0,2.4,0,2.8c-0.6,0.9-0.9,3.4-0.9,6.7c0.6,0.6,0.6,1.5,0.6,1.5c0,1.9,0,3.7,0,6.1c0,2.8,0,4.3,0,4.8
					c0,1.5-0.6,2.8-0.6,3.7l-1.9,6.1c-0.9,2.8-1.9,5.2-3,6.7c-0.6,1.5-1.9,2.8-3.4,4.8c-1.9,2.4-3.4,3.4-3.9,3.4
					c-0.6,0-0.9-0.6-1.5-1.5c0-1.9,0-3.4,0-4.3c-0.9-4.3-0.9-8-0.9-11.9c0,0-0.6-0.9-0.6-1.5s0-2.2,0-4.8c0-3.4,0-6.1,0-7.6
					c0.9-1.5,1.5-2.4,1.5-2.8c0-0.6-1.5-1.9-2.4-1.9c0,0-0.6,0.6-0.9,0.6c-0.9,0.6-1.9,0.9-3,1.5c-1.5,0.6-2.4,0.9-3.4,0.9
					c0,1.5,0,2.8,0,4.8c0,2.4,0,2.8,0,2.8c0,5.8,0.9,12.3,2.4,19.6c0.9,2.8,1.9,5.2,3,6.7c0.6,0,0.9,0.6,1.5,0.6
					c0,0.9,0.6,1.5,0.9,1.5h3c1.5,0,2.4,0,3.4-0.6c2.4-1.5,3.9-3.4,5.4-6.1c1.9-3.4,3-5.8,3.4-6.1c0.9,0.9,1.5,1.9,1.5,2.8
					c0.6,8.6,0.9,13.8,1.5,15.3l-0.6,0.6c-0.6-0.6-0.6-0.6-0.6-0.6v1.5c0.6,0,1.5,0,1.5,0c0.6-0.9,0.6-0.9,0.6-0.9
					c0.6,0.9-1.9,2.4-1.9,3.7c0,0,0.6,0.6,2.4,1.9c-0.6,0.6-0.6,1.5-0.6,1.9c0,0.9,0.4,3,0.6,4.1l0.6-0.2l-0.6,0.6
					c0,0.6-0.9,1.5-0.9,1.5c0,0.2,0,0.4,0,0.7c-1.7,1.3-3.4,1.1-3,10.6c0,1.9-0.2,3.5-0.7,5.2c0,0,0,0-0.2,0c0,0.2,0,0.4,0,0.6
					c-4.8,14.3-30.6,21.8-65.2,8.4c-36.1-14.2-54.4-15.7-54.4-15.7c33.9,11.2,27.8,20.5,56.8,26.8c32,6.9,48.3,2.2,61.3-5.2
					c1.1-0.6,1.9-1.3,2.8-2.2c0.7-0.6,1.3-1.3,1.7-2.2c2.2-3.7,3.5-8.6,4.3-14v-0.2c0.4-1.9,0.4-3.4,0.4-4.5c0-0.9,0.2-1.9,0.2-2.8
					c0.4-2.2,0.4-3.4,0.4-3.4c0-0.2-0.2-0.2-0.2-0.4c0-0.2,0-0.4,0-0.7c0.2-0.2,0.2-0.6,0.2-0.7c0.6-9.5,0.6-16.2,0.6-20.9
					c-0.6-0.6-0.6-0.6-0.6-0.6V94.5c0-0.9,0.9-2.4,0.9-2.8c0-0.9,0-1.5,0-1.9c-0.6,0-0.6,0-0.6,0c0.4,0,0.4-0.4,0.6-0.9
					c-0.6,0-0.6-0.6-0.6-0.9c0-0.9,0.6-0.9,0.6-0.9c0-0.6,0-1.9,0-3.4C309.6,75.8,311.5,67.3,315,58.7z M303.3,106.4V104l0.9,0.6
					C303.8,105.3,303.3,106.4,303.3,106.4z M304.8,119.3h-0.6l0.9-0.6L304.8,119.3z M306.6,121.5v1.5h-0.6L306.6,121.5z"/>
			</g>
		</g>
		<g>
			<path class="st0" d="M64,90.8c-0.6,3.4-0.9,6.3-0.9,8.8c0,0.9,0.6,3.9,0.6,4.8c0,1.5,0,3,0,5.4s0,4.3,0,5.4v2.4
				c0,0.9,0,1.9,0,2.4c0,0,0,0-0.9,0.9c0,0.6-0.6,2.4-1.5,6.3c-0.9-3-1.9-6.3-3.4-11.6c-1.5-5.8-2.4-9.1-3-11.6c-0.9,0-1.5,0-1.5,0
				c-1.5,0.9-3.4,3-6.7,6.3c0,0,0-0.6-0.6-0.9c-0.6,0.6-1.5,1.5-3.4,2.4c-0.9,0-1.9,0.6-3.9,1.5c0,0,0,0.9-0.9,0.9
				c-0.6,0-0.9,0-1.9-0.6l-0.9,0.9c0,0-1.5,0-3,0c-1.5,0-2.4,0-3,0.6v-0.6c0,0-0.6,0-0.9,0c-0.4,0-0.9,0-0.9,0c-0.9,0-1.5-0.6-3-1.5
				c0,0-0.6,0.6-0.6,0.9c0,0-0.6,0-0.9,0s-1.5-1.5-1.9-1.5c-0.6,0-0.6,0-0.9,0c-0.9,0-2.4-1.5-3.9-3c-3-1.5-4.8-3.9-7.3-7.3
				c0,0-1.5-3-3.9-8.2v-9.1c0,0,0-1.5,0.9-4.8c0,0,0-0.6,0.9-0.6s0.6,0.6,0.6,0.6L8,79.6C7.4,79.6,7.4,79,7,79C8,77.5,8.5,76,8,75.1
				c0-0.6,0.6-1.5,0.6-2.4c0-1.9,0.6-2.4,1.5-2.4c0,0.6,0,0.9,0,0.9c0.6-0.6,0.9-0.9,0.9-1.5h0.6v-3.2c0.6,0,1.5-0.9,1.5-2.4
				c0-0.9,0-1.9,0-3c0.6,0,1.5-0.6,2.4-0.9c0.2-0.9,1.1-3,2.2-4.8c0.6-0.6,1.9-1.9,3-3.4l-0.6-0.6c0,0,0,0.6,0,0.9
				c0,0-0.9,0.6-1.5,0.6c0.6-0.9,1.5-1.9,1.9-3v1.5c0,0,0,0,0.9,0.9c0,0,0.6-0.6,0-1.5c0-0.9-0.6-1.5-0.6-1.5c0.6,0,1.9-1.5,2.4-1.5
				h0.6c0,0,0,0,0,0.6c0,0,0.6-0.9,0.9-1.5c0.6-0.6,1.5-0.9,3-1.9c0,0.6,0,0.9-0.6,1.5c0,0,0.6,0.6,0.9,0.9c0.6-3,1.9-4.3,3-4.8
				c0,0,0.9,0.6,1.5,0.6s0.9-0.9,0.9-0.9c0.6,0,1.5-0.6,3-0.9c0.9,0,3-0.6,5.4-0.6c3,0,7.3,1.5,13,3.9c1.9,0.9,3.4,2.4,4.8,4.8
				c1.5,2.4,2.4,4.8,2.4,6.7c0,3-0.9,3.9-3.9,4.3c-1.5,0.6-3,0.9-3.9,1.5h-0.9c-0.6-0.6-0.9-1.9-1.5-4.8c-0.6-3-1.5-4.8-2.4-5.8
				c-1.5-1.9-3-3-4.8-3c-1.5,0-3,0.6-5.4,1.9c-1.9,1.5-3.4,3-4.8,3.4c-0.9,0.6-2.4,1.5-4.3,2.4c-0.9,0.9-2.4,3-3.9,4.8
				c-1.5,0.9-3,3-4.8,5.8c-1.9,2.8-3,4.8-3.9,5.4h0.9c0,0,0,0.6,0,0.9c0,0.6-0.6,1.5-1.5,3c-0.9,1.5-1.5,3-1.5,3
				c-1.5,6.3-1.9,11.2-1.9,13.6c0,3.9,1.5,7.3,4.3,10.2c3,3,6.3,4.3,10.2,4.3c3,0,6.3-0.9,10.2-2.4c3.9-1.5,6.3-2.4,5.8-2.4
				c0.6,0,0,0.6,0.6,0.6c0,0,0.9-0.6,2.4-1.5c1.5-0.9,2.4-1.5,3-2.4c0,0.6,0,0.9,0.6,1.5c0-0.6,0.6-1.5,1.5-2.4
				c0.9-0.6,2.4-1.5,2.4-2.4C53.6,88.9,53,85.3,53,85v-9.7l0.9-0.6c0.6,0,3,0,3.4,0c0.9,0,1.5,0,2.4-0.9c0.9,0.6,1.9,1.5,3.4,2.4
				c0,0,0.6,1.5,1.5,3.4c0.9,1.9,0.9,3.9,0.9,4.3C65,85.3,64.6,86.8,64,90.8z M18,64.1v-1.5h-0.9v1.5H18z M18,66.9L18,66.9l-0.6,0.9
				H18V66.9z M21.9,52c-0.9,0.9-1.5,2.4-1.9,4.3c0.9-0.9,1.9-2.4,3-3.4L21.9,52z M21.9,57.8L21.9,57.8L21,58.7h0.6L21.9,57.8z
				 M25.8,45.1l-1.5,1.5L23.8,46L25.8,45.1L25.8,45.1z M30.7,110.1L30.7,110.1l-0.9,0.9h0.6L30.7,110.1z M41.3,106.2L41.3,106.2
				l-0.9,0.6h0.6L41.3,106.2z M41.9,110.1l-0.6-2.4h-0.6v2.4H41.9z M46.2,105.7l-0.6-1.5H45v1.5H46.2L46.2,105.7z M49.1,102.3
				L49.1,102.3l-0.9,0.6h0.6L49.1,102.3z"/>
			<path class="st0" d="M96.5,73.8c0,0,0,3-0.6,7.3c0,3-0.6,4.8-1.5,6.3c0,0.6,0,0.6,0.6,0.6c-0.6,0.9-1.5,1.9-2.4,2.4
				c-0.6-2.4-1.5-5.8-1.5-9.1c0-3-0.6-6.3-0.9-9.1c0,0,0,0-0.6-0.6c-0.6,0.6-0.9,1.9-1.5,3.9c-0.9,0.6-1.5,1.5-1.5,3H86
				c0,0.6-0.6,1.5,0,1.9c0,0-0.6,0-0.9,0c0,0,0,0.9,0,1.5l0,0c-0.6,0.9-1.5,2.4-1.9,3.9c0,0,0,0.9,0,2.4c0,0.9-0.6,1.5-0.9,1.9
				c0,0,0,0,0.6,0v0.7c0,0,0,0-0.6,0.6c0,1.5-0.9,4.8-0.9,6.3v0.9c0,0,0,3,0,7.3c0,3,0,4.8-0.9,5.8c0,0.6,0,1.5,0,1.5
				c0,0.9-0.6,1.5-1.5,1.5c0,0-0.9,0-3.4-0.9c0,0-0.6-0.9-0.6-1.5c-1.5-0.6-1.5-3-1.5-3c0-0.6-0.6-0.9-0.9-1.5c0-0.9,0-1.5,0-3
				c0-0.6-0.6-1.5-0.6-1.5V96c0-0.9-0.6-1.5-1.5-1.5c0,0,0-0.6,0.6-1.5v-0.4l-0.6,0.6V81.1l0.9-9.7c0,0,0.9,0,3.4,0
				c1.9,0,4.3,2.4,4.3,3.9c0,0,0,0.6-0.6,1.5c0,0.9-0.6,1.5-0.6,1.9s0,0.6,0,0.9c2.4-1.5,3.4-3,3.4-5.4c0-0.9,0-1.5,0.6-1.5
				c0.9-1.5,1.5-3,2.4-3.9c0,0,0.6,0,0.9,0c0-1.5,1.5-3,3.4-4.3C90.5,63.5,92,63,94,63c0.6,0,1.5,0.6,3.4,1.5
				C97.6,66,97,69.3,96.5,73.8z M71.3,96L71.3,96l-0.6-1.5h0.6V96z M81.6,76.6L81.6,76.6l-0.9,1.1l0,0L81.6,76.6z M85.5,74.2v-0.6
				h-0.6L85.5,74.2L85.5,74.2z M86.8,72.3v-0.9h-0.6L86.8,72.3L86.8,72.3z M89.2,70.4L89.2,70.4L88.3,71l0,0L89.2,70.4z M92.7,86.8
				L92.7,86.8l-0.6,0.6l0,0L92.7,86.8z M92.7,89.3v-0.9h-0.6L92.7,89.3L92.7,89.3z"/>
			<path class="st0" d="M124.2,89.8c-3.9,1.5-6.3,3-7.8,3c-3,1.5-5.8,1.9-8.2,3c0,0-0.6,0.6-0.6,0.9c0,0,0,0.6,0,1.5s0,0.9,0,1.5
				c0,3,0.9,5.4,2.4,7.8c1.9,3,4.3,3.9,7.3,3.9c0,0,1.5-0.9,4.3-3c0.6,0.6,0.9,1.5,0.6,1.9c-0.9,1.5-1.5,3.4-3,3.4h-0.6l0,0
				c-0.6,0-0.6,0.6-0.9,0.6c0,0-1.5,0.6-2.4,0.6s-0.9,0-1.5-0.9c0,0-0.6,0.6-0.9,0.9c0,0-1.5,0-1.9,0s-1.5-0.6-1.5-1.5
				c0,0,0,0.6,0,0.9c-0.6,0-1.5-0.6-3-0.9c-0.6,0-2.4-1.9-4.8-4.8c0-0.6-0.6-1.5-0.9-3c-0.6-0.6-0.9-1.5-1.5-1.9
				c-0.9-2.4-1.5-5.4-1.5-8.8c0-7.8,2.4-16.4,7.3-26.1c1.5-0.9,3.4-1.9,5.8-2.4c2.4-0.6,4.8-0.9,6.3-0.9c0.6,0,3,0.6,3.9,0.9
				c0.6,0.6,0.9,1.5,1.5,3c0,0.9,0.6,4.8,0.6,11.6c0,0.9,0,2.4,0.6,4.3c0.6,1.9,0.6,3,0.6,3.4C124.6,88.7,124.6,89.3,124.2,89.8z
				 M116.4,69.9c-0.9,0-1.5,0-1.9,0.6c-0.6,0.9-1.5,1.9-2.4,3.4c0,0.6-0.9,3-2.4,7.8c-1.5,4.3-1.9,6.7-1.9,7.3c0,0.9,0,1.5,0,1.5
				h0.9c0.6,0,1.9,0,4.3-0.9c1.5,0,3,0,3-0.9s0-3,0-4.8c0,0,0,0,0.6-0.6c0-0.6,0-1.5,0-2.4c0-0.6,0.9-2.4,0.9-3
				C117.9,76.6,117.3,73.8,116.4,69.9z"/>
			<path class="st0" d="M152.2,89.8c-3.7,1.3-6.1,2.8-7.6,2.8c-3,1.5-5.8,1.9-8.2,3c0,0-0.6,0.6-0.6,0.9c0,0,0,0.6,0,1.5
				s0,0.9,0,1.5c0,3,0.9,5.4,2.4,7.8c1.9,3,4.3,3.9,7.3,3.9c0,0,1.5-0.9,4.3-3c0.6,0.6,0.9,1.5,0.6,1.9c-0.9,1.5-1.5,3.4-3,3.4h-0.6
				l0,0c-0.6,0-0.6,0.6-0.9,0.6c0,0-1.5,0.6-2.4,0.6c-0.6,0-0.9,0-1.5-0.9c0,0-0.6,0.6-0.9,0.9c0,0-1.5,0-1.9,0
				c-0.4,0-1.5-0.6-1.5-1.5c0,0,0,0.6,0,0.9c-0.6,0-1.5-0.6-3-0.9c-0.6,0-2.4-1.9-4.8-4.8c0-0.6-0.6-1.5-0.9-3
				c-0.6-0.6-0.9-1.5-1.5-1.9c-0.9-2.4-1.5-5.4-1.5-8.8c0-7.8,2.4-16.4,7.3-26.1c1.5-0.9,3.4-1.9,5.8-2.4s4.8-0.9,6.3-0.9
				c0.6,0,3,0.6,3.9,0.9c0.6,0.6,0.9,1.5,1.5,3c0,0.9,0.6,4.8,0.6,11.6c0,0.9,0,2.4,0.6,4.3s0.6,3,0.6,3.4
				C152.7,88.7,152.7,89.3,152.2,89.8z M144.5,69.9c-0.9,0-1.5,0-1.9,0.6c-0.6,0.9-1.5,1.9-2.4,3.4c0,0.6-0.9,3-2.4,7.8
				c-1.5,4.3-1.9,6.7-1.9,7.3c0,0.9,0,1.5,0,1.5h0.9c0.6,0,1.9,0,4.3-0.9c1.5,0,3,0,3-0.9s0-3,0-4.8c0,0,0,0,0.6-0.6
				c0-0.6,0-1.5,0-2.4c0-0.6,0.9-2.4,0.9-3C146,76.6,144.9,73.8,144.5,69.9z"/>
			<path class="st0" d="M190.9,113.5H190c-3.9,0-6.7-3.4-8.8-11.2c-0.9-4.8-1.5-9.1-1.5-14v-8.2c0-1.5,0-3.9-0.9-6.7
				c-1.5,0.9-3,3.9-4.3,7.8c-1.5,5.4-3,8.8-3,9.1c-1.5,5.4-3,11.2-4.8,17c0,0.9-0.6,1.9-0.6,3c-0.6,1.5-0.9,1.9-1.5,1.9
				c-0.9,0-2.4-0.6-3.4-1.5c-1.5-0.9-1.9-1.5-1.9-2.4c0-1.5,0.6-3.4,0.6-6.3c-0.6-3-0.9-5.8-0.6-7.8c0,0-0.9-0.6-0.9-1.5v-8.2
				c0,0,0.6-0.6,1.5-1.5c0,0,0-0.6-0.9-0.6c0-0.9,0-1.9,0-3c0,0,0-0.9-0.6-1.9c0-0.6,0.6-3,0.6-3.4c0-0.6,0-1.5-0.6-1.9
				c0-0.9,0-1.9-0.6-3.9c0-0.9,2.4-3,3.4-3c0,0,1.5,0,3,0.6c1.5,0.6,3,0.9,3,0.9c-0.6,1.5-0.9,4.8-0.9,9.1c0,5.4-0.6,8.8-0.9,11.2
				l0.6,0.6c0.9-0.9,1.5-1.9,2.4-2.4c0-0.9,0.9-3,3-5.8c0-0.9,0.6-2.4,1.5-3.4c1.5-3.4,3.4-7.8,5.8-12.7c0.9-1.5,1.5-1.9,1.5-1.9
				c0.6,0,0,0,0.6,0c0,0,0.9,0,2.4-0.6c1.5-0.6,2.4-0.6,2.4-0.6c0.6,0,1.9,0,2.4,0c0,0.6-0.6,2.4-0.6,3c0,0,0.9,3,0.9,3.4
				c0,0.6,0,2.4,0,4.8c0,1.9,0,3.4,0,3.4v7.8c0,0,0,0.9,0,3c0,1.9,0,3.9,0,5.8c0,2.4,0,4.3,0,5.8c0,3,0.6,4.3,0.6,4.3
				s0.6,1.9,1.5,4.3c0.9,3,1.5,4.3,1.5,4.8v1.5h-0.6v1.1H190.9z M159.1,95c0,0,0.6,0.6,0.6,1.5c0-0.6,0-0.9,0-1.5
				C160,95,159.4,95,159.1,95z M160.6,87.8L160.6,87.8l-0.6,0.6h0.6V87.8z"/>
			<g>
				<path class="st0" d="M77.1,155.6c-10.1,5.4-20.1,3.5-30.4,0c0.9,1.7,4.8,3.7,9.9,4.8c3.5,0.7,7.3,1.1,10.8,1.7
					c-4.7,5.2-13.4,8.4-21.4,5.6c-2.2-0.7-4.5-2-6.7-3.2c-5-2.6-10.1-5.6-15.1-8c-2.6-1.3-5.6-2-8.6-3.2c2.6-1.9,5-3.9,7.6-5.8
					c5.2-3.5,10.6-6.3,17-7.1c3.5-0.4,6.7,0,9.9,1.9c5.4,3.2,10.8,6.5,16.2,9.9C69.3,154.1,72.8,156,77.1,155.6z"/>
				<path class="st0" d="M82.7,152.2c-5.4-3.9-6.7-9.5-7.3-15.7c-0.7,0.9-0.7,3.4-0.2,6.1c0.4,2,1.1,3.9,1.7,6
					c-3.9-1.3-7.8-4.8-8.2-9.7c-0.2-1.3,0-2.8,0.2-4.1c0.2-3.2,0.6-6.5,0.7-9.7c0-1.7-0.2-3.4-0.4-5.2c1.7,0.9,3.4,1.7,5,2.6
					c3.2,1.9,6,3.9,8,7.1c1.1,1.7,1.7,3.5,1.3,5.4c-0.4,3.5-0.9,7.1-1.3,10.6C81.7,147.8,81.6,150,82.7,152.2z"/>
				<path class="st0" d="M90.7,148.7c-0.4-4.1,1.7-7.3,4.3-10.2c-0.7,0-2,1.1-3.2,2.6c-0.7,1.1-1.5,2.2-2,3.4
					c-1.1-2.2-1.1-5.6,1.1-8c0.6-0.7,1.3-1.3,2-1.9c1.7-1.3,3.4-2.6,5-3.9c0.7-0.7,1.5-1.5,2.4-2.4c0.4,1.1,0.7,2.2,0.9,3.4
					c0.6,2.2,0.7,4.5,0.2,6.7c-0.4,1.3-0.9,2.2-2,3c-1.9,1.3-3.9,2.6-5.8,3.9C92.4,146.5,91.2,147.4,90.7,148.7z"/>
				<path class="st0" d="M62.9,172.9c0,0,32-35.4,79.8-36.3c0,0,29.3-0.2,54,14.7C220.7,166,225,167,225,167s-13.2-0.9-58.5-20.7
					C124.6,128.2,62.9,172.9,62.9,172.9z"/>
			</g>
		</g>
	</g>
</g>
</svg>
