<?xml version="1.0" encoding="utf-8"?>
<!-- Generator: Adobe Illustrator 24.2.0, SVG Export Plug-In . SVG Version: 6.00 Build 0)  -->
<svg version="1.1" id="Capa_1" xmlns="http://www.w3.org/2000/svg" xmlns:xlink="http://www.w3.org/1999/xlink" x="0px" y="0px"
	 viewBox="0 0 346.4 88.8" style="enable-background:new 0 0 346.4 88.8;" xml:space="preserve">
<style type="text/css">
	.st0{fill:#004A82;}
	.st1{fill:#898A8D;}
</style>
<g>
	<g>
		<path class="st0" d="M28.2,45.9c-1,0-1.8,0.2-2.6,0.6c-0.8,0.4-1.3,0.9-1.5,1.3v9.9c0,3.1,0.3,5.3,0.8,6.6c0.5,1.3,1.6,2,3.1,2
			c1,0,1.7-0.2,2.2-0.6c1-0.8,1.4-3.1,1.4-6.9v-3.5c0-3.5-0.2-6-0.7-7.4C30.5,46.6,29.6,45.9,28.2,45.9z"/>
		<g>
			<polygon class="st0" points="61,68.5 61.3,68.6 61.3,68.9 60.7,83.6 73.5,80.9 64.6,74.8 70.6,65.7 57.6,68.3 57.6,68.3 			"/>
		</g>
		<g>
			<path class="st0" d="M28.7,76.5c0.3,0,0.6-0.1,0.9-0.1s0.6,0,0.8,0c0.3-0.7,0.6-1.5,0.9-2.3s0.6-1.5,0.8-2.3
				c-0.4,0.6-0.9,1.3-1.5,2.1C30,74.7,29.4,75.6,28.7,76.5z"/>
			<path class="st0" d="M46,76.2c-0.2,0-0.3,0-0.5,0.1s-0.4,0.2-0.6,0.3c-0.2,0.1-0.4,0.3-0.5,0.5c-0.2,0.2-0.3,0.4-0.5,0.6
				c0.1,0,0.2,0.1,0.4,0.1c0.2,0.1,0.3,0.2,0.5,0.3c0.2,0.1,0.3,0.2,0.4,0.3c0.1,0.1,0.1,0.3,0.1,0.4s-0.1,0.2-0.1,0.3
				c-0.1,0.1-0.2,0.3-0.3,0.5s-0.2,0.4-0.4,0.6c-0.1,0.2-0.3,0.4-0.4,0.6c0.3,0.3,0.6,0.5,1,0.6c0.2-0.3,0.3-0.6,0.5-0.9
				s0.3-0.6,0.4-0.9c0.1-0.3,0.2-0.6,0.3-0.8c0.1-0.3,0.1-0.5,0.2-0.7c0.1-0.6,0.1-1.1,0.1-1.4C46.4,76.4,46.2,76.3,46,76.2z"/>
			<path class="st0" d="M43.5,81.4c-0.1,0.2-0.2,0.4-0.3,0.5c-0.1,0.2-0.2,0.3-0.2,0.5c0,0.1-0.1,0.2,0,0.3c0,0.1,0.1,0.1,0.2,0.1
				c0.2,0,0.4-0.1,0.6-0.2c0.2-0.1,0.4-0.3,0.6-0.5C44,81.9,43.7,81.7,43.5,81.4z"/>
			<path class="st0" d="M50.1,83.4c0,0.1,0,0.1,0,0.2s0.1,0.1,0.1,0.1c0.1,0,0.3,0,0.4-0.1s0.2-0.2,0.3-0.4c0.1-0.2,0.2-0.3,0.2-0.5
				c0.1-0.2,0.1-0.4,0.1-0.5c-0.3,0.2-0.6,0.4-0.8,0.6C50.2,82.9,50.1,83.1,50.1,83.4z"/>
			<path class="st0" d="M52.5,74c0.1-0.3,0.1-0.6,0-0.7c0-0.1-0.1-0.2-0.2-0.2c-0.1,0-0.2,0.1-0.3,0.2s-0.2,0.3-0.3,0.5
				s-0.2,0.4-0.3,0.7c-0.1,0.2-0.1,0.5-0.2,0.7c0,0.2,0,0.5,0,0.7s0.1,0.5,0.2,0.7c0.3-0.4,0.5-0.9,0.7-1.4
				C52.3,74.8,52.5,74.4,52.5,74z"/>
			<path class="st0" d="M16.6,66.9l-0.7,16.8l43.7,2.6l0.7-16.8L16.6,66.9z M36.7,72.8c0.1-0.2,0.2-0.4,0.4-0.6s0.4-0.3,0.7-0.2
				c0.2,0,0.4,0.1,0.5,0.1c0.1,0.1,0.3,0.1,0.4,0.2c0.1,0.1,0.2,0.2,0.3,0.2c0.1,0.1,0.2,0.1,0.3,0.1s0.2,0,0.3-0.1
				c0.1,0,0.2-0.1,0.2-0.1c0.2,0,0.2-0.1,0.3-0.1s0.1-0.1,0.2-0.1c0.2,0,0.3,0.1,0.3,0.3c0,0.2,0,0.4-0.1,0.6s-0.3,0.4-0.5,0.6
				s-0.5,0.3-0.8,0.2c-0.2,0-0.3,0-0.4-0.1c-0.1-0.1-0.3-0.2-0.4-0.2c-0.1-0.1-0.2-0.2-0.4-0.2s-0.2-0.1-0.3-0.1s-0.2,0-0.3,0.1
				c-0.1,0-0.2,0.1-0.2,0.2c-0.1,0.1-0.1,0.1-0.2,0.2c-0.1,0-0.1,0.1-0.2,0.1c-0.2,0-0.2-0.1-0.3-0.3C36.5,73.2,36.6,73,36.7,72.8z
				 M32.4,77.7c-0.1,0.3-0.2,0.5-0.4,0.7s-0.4,0.3-0.5,0.4c-0.2,0.6-0.4,1.2-0.6,1.7s-0.3,1-0.4,1.4c0,0.1,0,0.2-0.1,0.4
				c0,0.1,0,0.2,0,0.3c0,0.1-0.1,0.2-0.2,0.3C30,83,29.8,83,29.5,83c-0.1,0-0.2,0-0.4-0.1c-0.1,0-0.3-0.1-0.4-0.3
				c-0.1-0.1-0.2-0.3-0.3-0.5c-0.1-0.2-0.1-0.5,0-0.8c0-0.1,0.1-0.3,0.1-0.5c0.1-0.2,0.2-0.5,0.3-0.8c0.1-0.3,0.2-0.6,0.4-1
				c0.2-0.4,0.3-0.8,0.5-1.2h-0.2c-0.3,0-0.7,0-1,0c-0.4,0-0.8,0-1.2,0.1c-0.5,0.6-1.1,1.2-1.6,1.7s-1.1,1-1.6,1.4s-1,0.7-1.4,1
				c-0.5,0.2-0.9,0.3-1.2,0.3c-0.3,0-0.6-0.1-0.8-0.2c-0.2-0.1-0.4-0.2-0.5-0.3c-0.1-0.1-0.2-0.2-0.2-0.3c0-0.1-0.1-0.2,0-0.3
				c0-0.1,0-0.1,0.1-0.1c0,0,0.1,0,0.2,0s0.1,0,0.2,0.1c0.1,0,0.2,0.1,0.3,0.1c0.3,0,0.7-0.1,1-0.2c0.4-0.2,0.8-0.4,1.2-0.7
				c0.4-0.3,0.8-0.6,1.3-1c0.4-0.4,0.9-0.8,1.3-1.3c-0.4,0-0.8,0.1-1.1,0.1c-0.3,0-0.6,0-0.8,0c-0.3,0-0.5-0.1-0.7-0.2
				s-0.3-0.3-0.4-0.4c-0.1-0.2-0.1-0.3-0.1-0.4s0-0.3,0-0.3c0-0.2,0.1-0.3,0.1-0.3s0.1,0,0.2,0s0.2,0.1,0.5,0.2
				c0.2,0.1,0.5,0.1,0.9,0.1s0.8,0,1.3-0.1c0.5,0,1-0.1,1.6-0.2c0.6-0.7,1.3-1.5,1.9-2.3s1.2-1.5,1.7-2.2s1-1.3,1.4-1.8
				s0.7-0.9,0.9-1.2c0-0.1,0-0.1,0-0.1c0-0.2,0.2-0.3,0.4-0.2c0.2,0.1,0.4,0.2,0.6,0.4c0.2,0.2,0.4,0.4,0.6,0.7
				c0.2,0.3,0.2,0.5,0.2,0.6s-0.1,0.3-0.2,0.7s-0.3,0.9-0.6,1.4c-0.2,0.6-0.5,1.2-0.7,1.9c-0.3,0.7-0.5,1.4-0.8,2.2
				c0.1,0.1,0.2,0.3,0.2,0.4S32.5,77.6,32.4,77.7z M55.7,79.4c-0.2,0.3-0.5,0.6-1,0.9c-0.4,0.3-0.9,0.5-1.4,0.8c0,0.2,0.1,0.5,0,0.8
				c0,0.3-0.2,0.7-0.4,1s-0.4,0.7-0.7,0.9c-0.3,0.3-0.6,0.5-1,0.7s-0.7,0.2-1.1,0.2c-0.1,0-0.2-0.1-0.3-0.1
				c-0.1-0.1-0.2-0.2-0.3-0.3c-0.1-0.1-0.1-0.3-0.2-0.4c0-0.2-0.1-0.3,0-0.4c0-0.2,0.1-0.4,0.2-0.6c0.1-0.2,0.3-0.3,0.5-0.5
				s0.4-0.3,0.6-0.4c0.2-0.1,0.5-0.3,0.8-0.4c0-0.5-0.1-0.9-0.2-1.3c-0.1-0.4-0.3-0.8-0.5-1.2c-0.1,0.1-0.1,0.1-0.1,0.2
				s-0.1,0.1-0.1,0.2s-0.1,0.1-0.1,0l0,0c-0.2,0.2-0.4,0.5-0.6,0.8c-0.3,0.4-0.6,0.7-1,1.1c-0.4,0.3-0.8,0.6-1.2,0.9
				s-0.9,0.4-1.4,0.5c-0.4,0.4-0.8,0.8-1.2,1.1c-0.4,0.3-0.9,0.4-1.3,0.4c-0.4,0-0.7-0.1-0.9-0.3c-0.3-0.2-0.5-0.4-0.7-0.7
				c-0.2-0.3-0.3-0.6-0.4-0.9c-0.1-0.3-0.1-0.6-0.1-0.8c0-0.1,0-0.2,0.1-0.3c-0.2,0.2-0.3,0.4-0.5,0.6c-0.3,0.4-0.6,0.7-0.9,1
				c-0.3,0.3-0.6,0.6-0.9,0.8c-0.3,0.2-0.6,0.3-0.8,0.4c-0.1,0-0.2,0-0.4-0.1s-0.4-0.2-0.5-0.3c-0.2-0.1-0.3-0.3-0.5-0.5
				c-0.1-0.2-0.2-0.5-0.1-0.7c0-0.2,0.1-0.5,0.3-0.9s0.3-0.8,0.5-1.2c0.2-0.4,0.4-0.9,0.6-1.4c0.2-0.5,0.4-0.9,0.6-1.4
				c-0.2,0.2-0.4,0.5-0.7,0.8s-0.6,0.6-0.9,1c-0.3,0.4-0.6,0.7-1,1.1c-0.3,0.4-0.6,0.7-0.9,1.1c-0.3,0.3-0.5,0.6-0.7,0.9
				s-0.3,0.5-0.4,0.6c0,0.1,0,0.3,0,0.3c0,0.1,0,0.2-0.1,0.2c-0.1,0.1-0.2,0-0.4,0c-0.2-0.1-0.4-0.2-0.6-0.3
				c-0.2-0.1-0.4-0.3-0.5-0.5s-0.2-0.5-0.2-0.8c0-0.2,0.1-0.5,0.2-0.8c0.1-0.3,0.3-0.7,0.5-1.1s0.4-0.8,0.6-1.2
				c0.2-0.4,0.4-0.8,0.6-1.2c0.2-0.4,0.3-0.8,0.5-1.1c0.1-0.3,0.2-0.6,0.2-0.8c0-0.2,0.1-0.3,0.3-0.3s0.4,0.1,0.6,0.2
				c0.2,0.1,0.4,0.3,0.5,0.5s0.2,0.4,0.2,0.5s-0.1,0.3-0.2,0.5c-0.1,0.3-0.2,0.5-0.3,0.9c-0.1,0.3-0.3,0.7-0.5,1.1s-0.3,0.8-0.5,1.2
				c0.2-0.2,0.3-0.4,0.6-0.7c0.2-0.3,0.5-0.6,0.8-0.9s0.5-0.7,0.8-1s0.6-0.7,0.8-0.9c0.3-0.3,0.5-0.5,0.7-0.7s0.4-0.4,0.6-0.4
				c0,0,0.1,0,0.1-0.1c0,0,0,0,0.1,0s0.1,0,0.1,0c0.1,0,0.3,0.1,0.4,0.2c0.1,0.1,0.3,0.2,0.4,0.3c0.1,0.1,0.2,0.3,0.3,0.4
				s0.1,0.3,0.1,0.4s-0.1,0.3-0.2,0.5c-0.1,0.2-0.2,0.5-0.3,0.9c-0.1,0.3-0.3,0.7-0.5,1.1s-0.3,0.8-0.5,1.2
				c-0.2,0.4-0.3,0.8-0.5,1.1s-0.3,0.7-0.4,0.9c-0.1,0.2-0.1,0.4,0.1,0.4c0.2,0,0.4-0.2,0.7-0.5s0.7-0.7,1.1-1.2
				c0.4-0.5,0.8-1,1.1-1.5c0.4-0.5,0.7-1,1-1.3c0.1-0.1,0.2-0.2,0.2-0.1c0,0,0,0,0.1,0.1c0.1-0.3,0.2-0.5,0.4-0.8
				c0.2-0.4,0.5-0.7,0.8-1s0.6-0.5,1-0.6c0.3-0.2,0.6-0.2,1-0.2c0.3,0,0.6,0.1,0.9,0.3c0.2,0.2,0.4,0.4,0.6,0.7
				c0.1,0.3,0.3,0.6,0.3,0.9c0.1,0.3,0.1,0.7,0,0.9c-0.1,0.4-0.2,0.9-0.4,1.4s-0.5,1.1-0.8,1.6c0.3-0.1,0.6-0.2,0.9-0.5
				c0.3-0.2,0.6-0.5,0.9-0.7c0.3-0.3,0.6-0.6,0.9-0.9c0.3-0.3,0.5-0.6,0.7-0.9c0.1-0.1,0.1-0.2,0.2-0.1l0,0l0,0
				c-0.3-0.5-0.5-1-0.6-1.5c-0.2-0.5-0.2-1.1-0.1-1.7c0.1-0.4,0.2-0.8,0.4-1.2c0.2-0.3,0.5-0.6,0.8-0.9c0.3-0.2,0.6-0.4,0.9-0.6
				c0.3-0.1,0.6-0.2,0.8-0.2s0.4,0.1,0.5,0.4s0.2,0.7,0.1,1.3c-0.1,0.5-0.2,1.1-0.5,1.6c-0.3,0.6-0.5,1.1-0.8,1.6
				c0.2,0.5,0.5,1.1,0.8,1.6s0.5,1.1,0.7,1.6c0.4-0.2,0.8-0.5,1.2-0.7c0.4-0.3,0.7-0.6,0.9-0.9c0.1-0.1,0.2-0.2,0.2-0.2
				c0.1,0,0.1,0.1,0.1,0.2s0,0.2,0,0.3C55.7,79.3,55.7,79.3,55.7,79.4z"/>
		</g>
		<g>
			<path class="st0" d="M6.8,16.6l-1.4,1.3L4.6,17c0.8-0.7,1.3-1.6,0.7-2.7l0.9-0.8l6,6.7l-1.2,1L6.8,16.6z"/>
			<path class="st0" d="M16.6,12.7c1.6,2.4,1.3,3.5-0.1,4.4c-1,0.7-2.1,0.7-2.8-0.6l1.2-0.8c0.2,0.2,0.4,0.6,1,0.2
				c0.7-0.5,0.1-1.4-0.2-1.9l-0.3-0.5c-0.1,0.4-0.1,0.8-0.7,1.2c-1.1,0.7-2.1,0.2-3.1-1.3c-1.2-1.9-1.4-3.1,0.1-4.1
				c1.6-1,2.7-0.2,3.8,1.6L16.6,12.7z M12.3,10.4c-0.7,0.5-0.2,1.1,0.5,2.1c0.4,0.5,0.8,1.4,1.5,0.9c0.7-0.4,0.2-1.2-0.2-1.8
				C13.5,10.7,13,9.9,12.3,10.4z"/>
			<path class="st0" d="M18.6,10.9l-1.7-4.4l3.7-1.6l0.5,1.2l-2.6,1.1L19.2,9c0.2-0.5,0.4-0.7,0.9-1c1.7-0.7,2.6,0.7,3.2,2
				c0.8,1.9,0.8,3.1-0.9,3.9c-1.8,0.8-2.6,0.1-3.4-1.8l1.4-0.6c0.3,0.6,0.6,1.5,1.4,1.2c0.9-0.3,0.4-1.3,0.1-2.1
				c-0.5-1.3-1-1.5-1.5-1.3c-0.4,0.3-0.6,0.6-0.5,1L18.6,10.9z"/>
			<path class="st0" d="M30.1,7.7c0.7,2.8,0.1,3.7-1.5,4.1c-1.2,0.3-2.2-0.1-2.5-1.5l1.4-0.4c0.1,0.3,0.2,0.7,0.8,0.5
				c0.9-0.2,0.5-1.3,0.4-1.8L28.6,8c-0.2,0.3-0.3,0.7-1.1,0.9c-1.3,0.4-2-0.4-2.5-2.2c-0.5-2.2-0.3-3.4,1.4-3.9
				c1.8-0.5,2.6,0.7,3.1,2.7L30.1,7.7z M26.7,4.1c-0.8,0.2-0.5,1-0.2,2.1c0.2,0.6,0.3,1.6,1.1,1.4c0.8-0.2,0.5-1,0.4-1.8
				C27.7,4.8,27.5,3.9,26.7,4.1z"/>
			<path class="st0" d="M36.9,7.3V5.9h2.7v1.4H36.9z"/>
			<path class="st0" d="M45.5,10.9c0.1-0.4,0.3-1,0.5-1.4c0.2-0.6,0.8-1.3,2-2.1l0.9-0.7c0.6-0.5,1-0.7,1.2-1.5S50,4.1,49.6,4
				c-0.3-0.1-0.6,0-0.8,0.3s-0.3,0.8-0.4,1.2L47,5.2V4.8c0.2-0.8,0.6-2.7,3-2.2c1.3,0.3,2,1.4,1.7,2.8c-0.2,1-0.7,1.6-1.5,2.2
				l-1.5,1c-0.4,0.3-1,0.7-1.2,1.3l2.9,0.7L50,12L45.5,10.9z"/>
			<path class="st0" d="M54.5,6.7c0.7-1.8,1.8-2,3.1-1.5s1.8,1.5,1.1,3.3l-1.6,3.7c-0.7,1.8-1.8,2.1-3.1,1.5
				c-1.3-0.5-1.8-1.5-1.1-3.3L54.5,6.7z M54.4,11c-0.4,0.9-0.2,1.3,0.1,1.4c0.4,0.2,0.8,0.1,1.2-0.9l1.6-3.7
				c0.4-0.9,0.2-1.3-0.2-1.4c-0.4-0.2-0.8,0-1.1,0.9L54.4,11z"/>
			<path class="st0" d="M58,15.2c0.2-0.3,0.6-0.8,0.9-1.2c0.4-0.5,1.2-0.9,2.6-1.4l1.1-0.3c0.7-0.2,1.1-0.3,1.6-1
				c0.4-0.7,0.3-1.1-0.1-1.3c-0.3-0.2-0.6-0.2-0.9,0c-0.3,0.3-0.5,0.7-0.8,1l-1.3-0.8l0.1-0.2c0.4-0.7,1.5-2.4,3.5-1.1
				c1.1,0.7,1.4,2,0.7,3.2c-0.5,0.8-1.2,1.3-2.2,1.5l-1.8,0.5c-0.5,0.1-1.2,0.4-1.5,0.9l2.5,1.6l-0.7,1.1L58,15.2z"/>
			<path class="st0" d="M63.5,18.9c0.3-0.3,0.7-0.7,1.1-1.1c0.5-0.4,1.3-0.7,2.8-0.9l1.1-0.1c0.8-0.1,1.2-0.1,1.7-0.8
				c0.5-0.6,0.5-1,0.1-1.3c-0.2-0.2-0.5-0.3-0.8-0.2c-0.4,0.2-0.6,0.6-0.9,0.9l-1.1-1l0.2-0.2c0.5-0.6,1.8-2.1,3.6-0.5
				c1,0.9,1.1,2.2,0.2,3.2c-0.7,0.7-1.4,1.1-2.4,1.2l-1.8,0.2c-0.5,0.1-1.2,0.2-1.6,0.6l2.2,1.9l-0.9,1L63.5,18.9z"/>
		</g>
		<polygon class="st0" points="15,80.8 15.7,66.2 15.7,65.9 16,65.9 19.3,66.1 19.4,65.9 6.7,62.3 12,71.8 2.6,77.3 		"/>
		<path class="st0" d="M15.6,67.4c-1.8-2.7-3-5.6-3.2-8.7V23.4l26.1-6.8l25.8,7v34.1c0,0,0.2,4.6-4.2,10.8h0.8h0.2
			c4.2-6.1,3.9-10.6,3.9-10.6V22.7l-26.6-7.2l-26.9,7V59c0.2,3.6,1.7,6.9,3.9,9.9L15.6,67.4z"/>
		<path class="st0" d="M38.6,17.9l-24.7,6.4v34.6c0.2,2.5,1,4.8,2.4,7l4.1,0.2c-0.1-0.2-0.2-0.4-0.2-0.7c-0.7-2.2-1-5.1-1-8.7V37.1
			c0-5.1,0.7-8.6,2-10.7s3.6-3.2,6.7-3.2s5.2,1,6.3,2.9s1.7,5.1,1.7,9.6v1.6h-5v-0.9c0-4.2-0.3-6.7-0.7-7.4
			c-0.5-0.7-1.4-1.1-2.6-1.1s-2.1,0.6-2.6,1.8c-0.5,1.2-0.7,3.6-0.7,7.2v6.5c1.1-1.5,2.9-2.3,5.4-2.3s4.4,1.1,5.5,3.2
			c1.1,2.1,1.7,5.8,1.7,11v2.8c0,3.8-0.5,6.7-1.4,8.8l6.4,0.4c-1.1-2.1-1.6-5.3-1.6-9.5v-2.1h5v2.2c0,3.3,0.2,5.5,0.6,6.7
			c0.4,1.1,1.4,1.7,2.8,1.7c1.5,0,2.4-0.7,2.9-2c0.5-1.3,0.8-3.7,0.8-7.1c0-3.4-0.3-5.8-1-7.2s-1.9-2.1-3.7-2.1h-1.4v-4.4h1.4
			c1.2,0,2.2-0.2,2.8-0.6c1.3-0.9,1.9-3.4,1.9-7.5c0-0.1,0-0.1,0-0.2c0-3.1-0.3-5.1-1-6.1c-0.6-1-1.5-1.5-2.7-1.5
			c-1.1,0-2,0.6-2.5,1.7s-0.8,3.1-0.8,6v1.1h-5.1v-1.2c0-4.2,0.6-7.3,1.9-9.3c1.3-2,3.4-3,6.4-3s5.2,1,6.6,3c1.4,2,2.1,5.1,2.1,9.2
			c0,5.8-1.5,9.3-4.4,10.4c3,1.5,4.5,5.4,4.5,11.8c0,4.6-0.7,7.9-2.1,10.1c-0.1,0.1-0.2,0.3-0.3,0.4l3.5,0.2
			c4.5-5.5,4.5-9.9,4.5-9.9V24.5L38.6,17.9z"/>
	</g>
	<g>
		<g>
			<path class="st0" d="M96.5,22.8c6.5,0,10.3,4.9,10.3,11.1c0,6.1-3.9,10.9-10.3,10.9c-6.5,0-10.3-4.9-10.3-10.9
				C86.2,27.7,90,22.8,96.5,22.8z M96.5,40.9c4.2,0,5.7-3.5,5.7-7c0-3.7-1.6-7.2-5.7-7.2c-4.2,0-5.7,3.5-5.7,7.2
				C90.8,37.4,92.3,40.9,96.5,40.9z"/>
			<path class="st0" d="M109.4,23.3h4.6v17.1h10.2v3.9h-14.9v-21H109.4z"/>
			<path class="st0" d="M126.3,23.3h6.5l4.9,14.5h0.1l4.7-14.5h6.5v21h-4.3V29.4h-0.1l-5.2,14.9h-3.6l-5.2-14.7h-0.1v14.7h-4.3v-21
				H126.3z"/>
			<path class="st0" d="M152.4,23.3h15.7v3.9H157v4.5h10.2v3.6H157v5.2h11.3v3.8h-16L152.4,23.3L152.4,23.3z"/>
			<path class="st0" d="M170.9,23.3h9.1c5.4,0,9.5,3.4,9.5,10.4c0,6.1-3.1,10.6-9.5,10.6h-9.1V23.3z M175.5,40.4h4.1
				c2.7,0,5.2-1.6,5.2-6.3c0-4.2-1.5-6.9-6.1-6.9h-3.3v13.2H175.5z"/>
			<path class="st0" d="M201.5,22.8c6.5,0,10.3,4.9,10.3,11.1c0,6.1-3.9,10.9-10.3,10.9c-6.5,0-10.3-4.9-10.3-10.9
				C191.2,27.7,195,22.8,201.5,22.8z M201.5,40.9c4.2,0,5.7-3.5,5.7-7c0-3.7-1.6-7.2-5.7-7.2c-4.2,0-5.7,3.5-5.7,7.2
				C195.8,37.4,197.3,40.9,201.5,40.9z"/>
		</g>
		<g>
			<path class="st1" d="M220.1,23.3h4.7l7.9,21h-4.8l-1.6-4.7h-7.9l-1.6,4.7h-4.7L220.1,23.3z M219.7,36.2h5.4l-2.6-7.7h-0.1
				L219.7,36.2z"/>
			<path class="st1" d="M234,23.3h4.6v17.1h10.2v3.9H234V23.3z"/>
			<path class="st1" d="M260.6,44.3h-5.2l-6.8-21h4.8l4.7,14.8h0.1l4.7-14.8h4.8L260.6,44.3z"/>
			<path class="st1" d="M274.5,23.3h4.7l7.9,21h-4.8l-1.6-4.7h-7.9l-1.6,4.7h-4.7L274.5,23.3z M274.1,36.2h5.4l-2.6-7.7h-0.1
				L274.1,36.2z"/>
			<path class="st1" d="M288.4,23.3h11.3c3.8,0,6.2,2.6,6.2,5.8c0,2.5-1,4.3-3.3,5.3v0.1c2.3,0.6,2.9,2.8,3.1,4.9
				c0.1,1.3,0,3.8,0.9,5H302c-0.5-1.3-0.5-3.4-0.7-5c-0.3-2.2-1.2-3.2-3.5-3.2H293v8.1h-4.6V23.3z M293,32.8h5.1
				c2.1,0,3.2-0.9,3.2-3c0-2-1.1-2.9-3.2-2.9H293V32.8z"/>
			<path class="st1" d="M309,23.3h15.7v3.9h-11.1v4.5h10.2v3.6h-10.2v5.2H325v3.8h-16V23.3z"/>
			<path class="st1" d="M326.2,40.7l11.3-13.5H327v-3.9h16.5v3.6l-11.3,13.5h11.6v3.9h-17.7v-3.6H326.2z"/>
		</g>
		<g>
			<path class="st1" d="M152.4,47.3h11.8v2.2h-4.6v12.4H157V49.5h-4.6V47.3z"/>
			<path class="st1" d="M162.4,56.6c0-3.2,2-5.6,5.3-5.6s5.3,2.3,5.3,5.6c0,3.2-2,5.6-5.3,5.6S162.4,59.8,162.4,56.6z M170.7,56.6
				c0-1.8-0.9-3.7-3-3.7s-3,1.9-3,3.7s0.9,3.7,3,3.7S170.7,58.4,170.7,56.6z"/>
			<path class="st1" d="M184.5,61.9h-2.2v-1.4l0,0c-0.6,1.2-1.9,1.7-3.3,1.7c-3.3,0-4.9-2.5-4.9-5.6c0-3.8,2.3-5.5,4.6-5.5
				c1.3,0,2.8,0.5,3.5,1.7l0,0v-5.5h2.3L184.5,61.9L184.5,61.9z M179.3,60.3c2.1,0,3-1.9,3-3.7c0-2.3-1.1-3.7-2.9-3.7
				c-2.2,0-3,2-3,3.8C176.4,58.5,177.3,60.3,179.3,60.3z"/>
			<path class="st1" d="M186.1,56.6c0-3.2,2-5.6,5.3-5.6s5.3,2.3,5.3,5.6c0,3.2-2,5.6-5.3,5.6S186.1,59.8,186.1,56.6z M194.5,56.6
				c0-1.8-0.9-3.7-3-3.7s-3,1.9-3,3.7s0.9,3.7,3,3.7S194.5,58.4,194.5,56.6z"/>
			<path class="st1" d="M203.6,51.3h2.2v1.4l0,0c0.7-1.2,1.9-1.7,3.3-1.7c3.3,0,4.9,2.5,4.9,5.6c0,2.9-1.4,5.5-4.6,5.5
				c-1.3,0-2.8-0.5-3.5-1.7l0,0v5.3h-2.3L203.6,51.3L203.6,51.3z M208.8,52.9c-2,0-3,1.5-3,3.7c0,2.1,1.1,3.7,3,3.7
				c2.1,0,2.9-1.9,2.9-3.7C211.8,54.7,210.8,52.9,208.8,52.9z"/>
			<path class="st1" d="M224.5,59.5c0,0.6,0.1,0.8,0.6,0.8h0.2c0.1,0,0.2,0,0.3,0v1.6c-0.3,0.1-1.1,0.3-1.5,0.3
				c-1,0-1.6-0.3-1.8-1.3c-0.9,0.9-2.4,1.3-3.7,1.3c-1.9,0-3.6-1-3.6-3.1c0-2.6,2.1-3.1,4.1-3.3c1.7-0.3,3.2-0.1,3.2-1.5
				c0-1.2-1.3-1.4-2.2-1.4c-1.3,0-2.2,0.5-2.3,1.7h-2.3c0.2-2.7,2.4-3.5,4.8-3.5c2.1,0,4.2,0.8,4.2,3.1V59.5z M222.1,56.6
				c-0.7,0.5-1.8,0.4-2.9,0.6c-1,0.2-1.9,0.5-1.9,1.8c0,1.1,1.3,1.3,2.1,1.3c1,0,2.6-0.5,2.6-2L222.1,56.6L222.1,56.6z"/>
			<path class="st1" d="M226.6,51.3h2.2v2l0,0c0.3-1.1,1.7-2.3,3.1-2.3c0.6,0,0.7,0,0.9,0.1v2.2c-0.3-0.1-0.7-0.1-1-0.1
				c-1.6,0-2.9,1.3-2.9,3.6v5h-2.3V51.3z"/>
			<path class="st1" d="M242.2,59.5c0,0.6,0.1,0.8,0.6,0.8h0.2c0.1,0,0.2,0,0.3,0v1.6c-0.3,0.1-1.1,0.3-1.5,0.3
				c-1,0-1.6-0.3-1.8-1.3c-0.9,0.9-2.4,1.3-3.7,1.3c-1.9,0-3.6-1-3.6-3.1c0-2.6,2.1-3.1,4.1-3.3c1.7-0.3,3.2-0.1,3.2-1.5
				c0-1.2-1.3-1.4-2.2-1.4c-1.3,0-2.2,0.5-2.3,1.7h-2.3c0.2-2.7,2.4-3.5,4.8-3.5c2.1,0,4.2,0.8,4.2,3.1V59.5z M239.9,56.6
				c-0.7,0.5-1.8,0.4-2.9,0.6c-1,0.2-1.9,0.5-1.9,1.8c0,1.1,1.3,1.3,2.1,1.3c1,0,2.6-0.5,2.6-2L239.9,56.6L239.9,56.6z"/>
			<path class="st1" d="M248.5,51.3h1.8v-3.2h2.3v3.2h2.1V53h-2.1v5.6c0,1,0.1,1.4,1.1,1.4c0.3,0,0.7,0,1-0.1v1.8
				c-0.5,0.1-1,0.1-1.5,0.1c-2.4,0-2.9-0.9-2.9-2.7v-6.2h-1.8L248.5,51.3L248.5,51.3z"/>
			<path class="st1" d="M265.2,61.9h-2.3v-1.5l0,0c-0.6,1.1-1.8,1.8-3,1.8c-2.8,0-3.9-1.4-3.9-4.1v-6.8h2.3v6.5c0,1.9,0.7,2.5,2,2.5
				c1.9,0,2.6-1.2,2.6-2.9v-6.1h2.3V61.9z"/>
			<path class="st1" d="M272.5,51.3h2.2v1.6l0,0c0.7-1.2,1.9-1.9,3.3-1.9c2.3,0,3.7,1.2,3.7,3.6v7.2h-2.3v-6.6
				c-0.1-1.7-0.7-2.4-2.1-2.4c-1.6,0-2.6,1.2-2.6,2.8v6.2h-2.3L272.5,51.3L272.5,51.3z"/>
			<path class="st1" d="M285.6,57.2c0,1.7,0.9,3.1,2.8,3.1c1.4,0,2.2-0.6,2.6-1.8h2.2c-0.5,2.3-2.5,3.6-4.8,3.6
				c-3.3,0-5.2-2.3-5.2-5.6c0-3,2-5.6,5.1-5.6c3.3,0,5.4,3,5,6.2L285.6,57.2L285.6,57.2z M291.1,55.7c-0.1-1.5-1.1-2.8-2.7-2.8
				s-2.7,1.2-2.8,2.8H291.1z"/>
			<path class="st1" d="M304.5,61.3c0,3.2-1.8,4.7-5.2,4.7c-2.1,0-4.5-0.8-4.7-3.3h2.3c0.3,1.3,1.3,1.6,2.5,1.6c1.9,0,2.7-1,2.7-2.7
				V60l0,0c-0.7,1.2-1.9,1.9-3.2,1.9c-3.3,0-4.7-2.5-4.7-5.6c0-2.8,1.8-5.3,4.8-5.3c1.3,0,2.5,0.5,3.1,1.7l0,0v-1.4h2.3v10H304.5z
				 M302.2,56.3c0-1.8-0.8-3.5-2.8-3.5c-2.1,0-2.8,1.9-2.8,3.7c0,1.7,0.8,3.5,2.8,3.5C301.4,60,302.2,58.2,302.2,56.3z"/>
			<path class="st1" d="M306,56.6c0-3.2,2-5.6,5.3-5.6c3.4,0,5.3,2.3,5.3,5.6c0,3.2-2,5.6-5.3,5.6C307.9,62.1,306,59.8,306,56.6z
				 M314.3,56.6c0-1.8-0.9-3.7-3-3.7s-3,1.9-3,3.7s0.9,3.7,3,3.7S314.3,58.4,314.3,56.6z"/>
			<path class="st1" d="M325.3,54.8c-0.2-1.3-1.1-2-2.4-2c-1.2,0-2.9,0.7-2.9,3.8c0,1.8,0.8,3.6,2.8,3.6c1.4,0,2.3-0.9,2.5-2.4h2.3
				c-0.4,2.8-2.1,4.2-4.8,4.2c-3.3,0-5.1-2.3-5.1-5.4c0-3.2,1.7-5.7,5.2-5.7c2.4,0,4.5,1.2,4.8,3.8h-2.4V54.8z"/>
			<path class="st1" d="M329.1,47.3h2.3v2.2h-2.3V47.3z M329.1,51.3h2.3v10.6h-2.3V51.3z"/>
			<path class="st1" d="M333.1,56.6c0-3.2,2-5.6,5.3-5.6c3.4,0,5.3,2.3,5.3,5.6c0,3.2-2,5.6-5.3,5.6
				C335.1,62.1,333.1,59.8,333.1,56.6z M341.4,56.6c0-1.8-0.9-3.7-3-3.7s-3,1.9-3,3.7s0.9,3.7,3,3.7S341.4,58.4,341.4,56.6z"/>
		</g>
	</g>
</g>
</svg>
