<?xml version="1.0" encoding="utf-8"?>
<!-- Generator: Adobe Illustrator 24.2.0, SVG Export Plug-In . SVG Version: 6.00 Build 0)  -->
<svg version="1.1" id="Capa_1" xmlns="http://www.w3.org/2000/svg" xmlns:xlink="http://www.w3.org/1999/xlink" x="0px" y="0px"
	 viewBox="0 0 320 200" style="enable-background:new 0 0 320 200;" xml:space="preserve">
<style type="text/css">
	.st0{fill:#B2B2B2;}
</style>
<g>
	<path class="st0" d="M300.9,122.7l-0.2,0.1c-0.1,0-2.8,0.7-3.8,2.6c-0.4,0.8-0.5,1.7-0.1,2.6v0.1l1.9,0.8c-2.2,2.3-5.8,5-11.5,6.7
		l0.1-2.7h-0.2c-0.8-0.2-1.6-0.3-2.4-0.3c-4.5,0-5.5,3-5.5,3.1v0.2l0.9,1c-1.1,0.1-2.3,0.2-3.6,0.2c0,0-8.1,1.3-16.6,0.7
		c0.1-0.3,0.2-0.6,0.3-0.8l0.1-0.3l-0.3-0.1c-1.6-0.5-3.1-0.7-4.5-0.7c-1.6,0-2.5,0.3-2.5,0.3l-0.3,0.1l0.2,0.5
		c-3.9-0.9-7.4-2.4-9.7-4.8c0,0,34.5,14.2,52.3-11.7c0,0,15.5-20.8,6.6-36.3c0,0-3.4-7-2-7.9c0,0,1.6-0.6,3.9,2.6h-1.6l-0.1,0.2
		c0,0.1-1,3.2,0.3,5c0.6,0.8,1.5,1.2,2.7,1.3h0.1l1.2-1.4c0.6,1.5,1.2,3.4,1.9,5.6c0,0,0.8,3.8,0.9,9.3l-1.8-0.6l-0.1,0.1
		c-0.1,0.1-2.1,1.6-2.1,3.7c0,1.2,0.6,2.4,1.8,3.4l0.1,0.1l1.9-0.7c-0.7,6.1-2.6,13.3-7.1,19.6L300.9,122.7z M272.1,79.3
		c-1.6,3.8-7.5,4.3-7.5,4.3C265.6,78.6,272.1,79.3,272.1,79.3 M298.8,107.5c-1.1,7.5-5.2,8.8-5.2,8.8
		C292.5,108.1,298.8,107.5,298.8,107.5 M232.7,121.4c-0.7,2.9,2.3,5.9,2.3,5.9c-2.7-0.7-5-0.4-5-0.4c0.4-4.7-4.7-6.7-4.7-6.7
		c-4.1-1.3-2.3-5.9-2.3-5.9c2.3-4.5,10.6-2.7,10.6-2.7c1.8,1.8,6.1,4.5,6.1,4.5c1.1-1.6-0.2-4.1-0.2-4.1c2.2-0.4,2.5,0,2.5,0
		c-2-6.5-20.7-2.7-20.7-2.7c-7,0.5-8.8-1.3-8.8-1.3c-4-6.3,4.9-9.5,4.9-9.5c0.2,3.1,5.2,2,5.2,2c-4.9,2-3.6,4.3-3.6,4.3
		c18.1-8.6,40.4,3.8,40.4,3.8c6.5,4,11.9,0.5,11.9,0.5c3.4-2.2,9-0.4,9-0.4c-0.2-2.5-5.4-6.6-5.4-6.6c0.5-5.6-3.1-8.1-2.3-8.4
		c0.7-0.4,1.8,1.6,1.8,1.6c-1.3-7.9-9-6.1-9-6.1c-2.9-0.5-15.8,7-15.8,7c-2.3,0-0.4-7-0.4-7c-7.2,2.5-8.8,7.7-8.8,7.7
		c-4.1,0.5-6.6-5-6.6-5c-2.7,3.6-7.5,2.5-7.5,2.5c-2.5-8.1,7.9-9.2,7.9-9.2c-2.2,3.8-0.4,5.6-0.4,5.6c2-2,8.3-2,8.3-2
		c1.3,3.8,2.2-0.4,2.2-0.4c0.4-2.5,1.8-1.8,1.8-1.8c6.5,3.6,4.5-0.5,4.5-0.5c-0.7-2-9.9-4.3-9.9-4.3c2.5-1.6,5.6-1.6,5.6-1.6
		c1.8,0.9,4.9,4.1,4.9,4.1c0.9-1.3-0.4-2.9-0.4-2.9c-1.6-2.3-0.4-4.9-0.4-4.9c2.3-4.1,9.3-5.6,9.3-5.6c-2.5-0.4-7.7,0.5-7.7,0.5
		l-0.7-2.2c-2.5,12.4-12,9.5-12,9.5c-5.2-2.9,3.1-5.9,3.1-5.9c7.9,0.9,4.9-3.8,4.9-3.8c19.2-9.3,34.7-4.9,34.7-4.9
		c-1.1,3.6,0.7,4.3,0.7,4.3c2,0.5,4.9-3.2,4.9-3.2c2.9-4.3,8.6-4.7,8.6-4.7c3.8-0.2,4,5.6,4,5.6c-0.4,3.8,4.3,4,4.3,4
		c2.2-0.4,4.1,1.4,4.1,1.4c-9,9.9-15.3-7.7-15.3-7.7c-3.8,2-2.7,7.5-2.7,7.5c-0.2-0.9,1.8-2.9,1.8-2.9l3.2,4.1
		c-1.1,1.1-0.9,9.3-0.9,9.3c-0.2-0.9,3.2-3.4,3.2-3.4l4,12.9c2.3,12.4-4.9,13.1-4.9,13.1l-0.5-6.1l-1.1,3.8l-1.6-1.3
		c1.1,6.8-1.4,4.9-1.4,4.9c-3.4-6.3-5.8-9.2-5.8-9.2c-6.7-5.6-11.5-18-11.5-18c3.6,0,4.1-2.5,4.1-2.5c2.7-0.2,0.5,2.7,0.5,2.7
		c-3.6,1.8-2,3.1-2,3.1c8.4-0.7,5.2-8.6,5.2-8.6c-11.7-5.4-18.1,2.3-18.1,2.3c-1.6,2-12.2,5.6-12.2,5.6c7.5,1.3,6.8,3.2,6.8,3.2
		c-1.3,1.8-8.1,3.4-8.1,3.4c1.8,1.6,14-3.4,14-3.4c9.2-2,11.1,12.8,11.1,12.8c1.6-0.2,2.2-1.3,2.2-1.3c4.1,2.9,7.2,8.1,7.2,8.1
		c-1.6-7.7-6.1-10.6-6.1-10.6c-6.5-2.7-4.1-9.2-4.1-9.2c0.4,4.3,13.7,19.8,13.7,19.8c2.5,3.4,1.3,17.1,1.3,17.1
		c-18.1,19.9-44.2,9.2-44.2,9.2c-2.5-2.3-7.4-3.6-7.4-3.6C236.3,126.9,232.7,121.4,232.7,121.4 M220.1,124.8
		c-2.5-1.3-5.4-6.1-5.4-6.1c-0.2-1.4,3.4-5,3.4-5c-0.2,4.5,5.2,8.1,5.2,8.1c3.6,1.8,3.8,4.9,3.8,4.9
		C224.3,127.1,220.1,124.8,220.1,124.8 M221,89c0,0,1.1,9.7,4.3,9.7c0,0,3.1-4.3,6.1-1.1c0,0,3.8-1.3,5.4,0.7c0,0,3.4-1.4,5.6,1.1
		c0,0-0.9-2.9,3.4-5.4c0,0-0.2,7.4,2.9,6.6c0,0,9.3-8.6,11.5-4.1c0,0,3.2-3.2,5.9,0.4c0,0,4.5-4,5.6,2.2c0,0-0.2,5.8-4.3,1.4
		c0,0-1.4-2.3-4.5,0.9c0,0-3.6,3.1-3.8-1.8c0,0-1.4-2.7-6.6,1.1c0,0-8.4,3.8-14.9-1.3c0,0-3.4-2.2-4.3,0.7c0,0-4.9-2.5-5.6-0.7
		C227.7,99.5,216.4,102.7,221,89 M269.5,61c-7.5,1.6-7.5-1.6-7.5-1.6C269,55.1,269.5,61,269.5,61 M312.5,103.3l4.6-1.8l-4.5-1.6
		c-0.1-8.8-2.1-15-3.6-18.5l2.4-2.6h-3.7c-0.2-0.4-0.4-0.6-0.4-0.6l-1.1-1.8c4,0,6.5-5.7,6.5-5.7c-9.7-0.4-11.5-9-11.5-9
		c-4.8-8.6-14.7-0.2-14.7-0.2l-9-0.2c-3.8,0.2-4.7-2-4.7-2c-4.1-6.8-11.9-2.3-11.9-2.3c-12.8,5-10.1,8.1-10.1,8.1
		c-7.2,0.9-6.5,4.7-6.5,4.7c-13.5,0.7-11.9,12.8-11.9,12.8c-1.8-0.2-7.2,3.4-7.2,3.4c-1.6-0.7,0-4.1,0-4.1c-9.9,4-9.9,14.6-9.9,14.6
		c-12.2,7.4-4.7,15.6-4.7,15.6c0.5,8.3,7,14.2,7,14.2c4.9,6.5,11.1,4.3,11.1,4.3c4.9-1.6,14.4,4.9,14.4,4.9c3.2,2,6.8,3.3,10.4,4.1
		l1.3,4c-0.1,0.1-0.1,0.2-0.1,0.2c0.1,0.3,0.4,0.3,1.1,0.3c0.8,0,1.8-1.8,2.7-3.7c6.4,0.9,11.5,0.5,11.5,0.5
		c4.9,0.2,9.1-0.1,12.6-0.6l3.8,4.4l0.3-5.2c8.4-2,11.7-5.4,11.7-5.4c1.4-1.1,2.6-2.4,3.7-3.7l4.8,1.9l-2.9-4.4
		c5.7-8.1,7.5-17.6,7.5-17.6C312.1,107.8,312.4,105.5,312.5,103.3"/>
	<g>
		<polygon class="st0" points="33.7,69.9 33.3,79.4 29.4,78.9 29.4,114.7 22.3,114.7 21.8,77.8 18,77.1 17.7,66.6 		"/>
		<polygon class="st0" points="86.9,77.9 86.9,105 79.9,105.7 76.6,92.9 76.7,105.8 70.4,106.5 70.4,76.6 76.7,77.3 80.8,90 
			80.8,77.7 		"/>
		<polygon class="st0" points="8.9,124.5 11.6,124.5 12.5,131.6 13.9,124.5 16.6,124.5 18,131.6 18.9,124.5 21.6,124.5 19.6,137.1 
			16.8,137.1 15.3,129.2 13.7,137.1 10.9,137.1 		"/>
		<rect x="36.5" y="124.5" class="st0" width="2.5" height="12.7"/>
		<polygon class="st0" points="53.4,124.5 56.2,124.5 56.2,134 60.5,134 60.5,137.1 53.4,137.1 		"/>
		<rect x="132.5" y="124.5" class="st0" width="2.5" height="12.7"/>
		<path class="st0" d="M136.7,128h2.5v9.2h-2.5V128z M136.7,124.5h2.5v2.4h-2.5V124.5z"/>
		<polygon class="st0" points="118.3,88.5 118.3,91.4 120.9,90.5 121.8,92.6 119.1,93.7 120.8,96.1 119,97.5 117.1,95.1 115.3,97.5 
			113.4,96.1 115.1,93.7 112.4,92.6 113.2,90.5 116,91.4 116,88.5 		"/>
		<path class="st0" d="M16.3,81.2H10v-3.8c0-1.8-0.1-2.9-0.2-3.4c-0.2-0.5-0.4-0.7-0.8-0.7c-0.4,0-0.7,0.3-0.9,1s-0.3,1.7-0.3,3
			c0,1.7,0.1,3,0.3,3.9c0.3,0.7,0.9,1.8,1.9,3c3,3.5,4.9,6.4,5.6,8.7c0.8,2.3,1.2,5.9,1.2,11c0,3.7-0.2,6.4-0.6,8.1
			s-1.3,3.2-2.5,4.4c-1.2,1.2-2.7,1.8-4.3,1.8c-1.8,0-3.3-0.7-4.6-2c-1.3-1.4-2.1-3.1-2.5-5.2s-0.6-5.1-0.6-9v-3.4h6.2v6.3
			c0,1.9,0.1,3.2,0.3,3.7c0.2,0.6,0.5,0.8,0.9,0.8s0.8-0.3,1-1.1c0.2-0.7,0.3-1.7,0.3-3.1c0-3-0.2-5-0.6-6c-0.4-0.9-1.5-2.5-3.1-4.7
			c-1.7-2.2-2.8-3.8-3.3-4.8s-1-2.4-1.3-4.1c-0.4-1.8-0.5-4-0.5-6.8c0-3.9,0.3-6.8,0.8-8.7C2.8,68.5,3.6,67,4.7,66s2.5-1.5,4.1-1.5
			c1.7,0,3.2,0.6,4.5,1.7c1.2,1.1,2,2.5,2.4,4.3c0.4,1.7,0.6,4.6,0.6,8.7V81.2z"/>
		<path class="st0" d="M41.9,78.5v8.9c0.8,0,1.3-0.2,1.6-0.5s0.5-1.4,0.5-3.1v-2.2c0-1.3-0.2-2.1-0.5-2.5
			C43.2,78.7,42.7,78.5,41.9,78.5 M34.6,70.8l5.3,0.8c4.2,0.7,5.6,1.6,6.8,2s2.1,1.8,2.9,3.3c0.7,1.6,0.9,2.2,0.9,5.6
			c0,3.1-0.3,5.2-0.8,6.3c-0.5,1.1-1.5,1.7-3,1.9c1.4,0.5,2.3,1.2,2.8,2.1s0.8,1.6,0.9,2.4c0.1,0.7,0.2,2.7,0.2,5.9l-0.1,7.6
			l-6.4,1.4V98.4c0-2.1-0.1-3.5-0.3-4S43,93.6,42,93.6l-0.2,16.8l-6.8,1.3L34.6,70.8z"/>
		<path class="st0" d="M61.2,83.2c0-1.5-0.1-2.5-0.2-2.9c-0.1-0.4-0.4-0.6-0.8-0.6c-0.3,0-0.6,0.2-0.8,0.5s-0.3,1.4-0.3,3.1v15.4
			c0,1.9,0.1,3.1,0.2,3.5c0.1,0.4,0.4,0.7,0.9,0.7s0.7-0.3,0.9-0.8c0.1-0.5,0.2-1.7,0.2-3.7V83.2H61.2z M68,94c0,3.3,0,4.7-0.1,6.1
			s-0.3,2.3-1,3.4c-0.6,1.1-1.7,2.5-2.8,3.1c-1.1,0.6-2.2,1.2-3.6,1.2c-1.4,0-2.9,0.2-4-0.4s-2-1.4-2.7-2.6s-1.1-2.4-1.2-3.8
			c-0.1-1.4-0.2-3.7-0.2-7.1v-5.6c0-3.3,0.1-5.7,0.2-7c0.1-1.4,0.5-2.6,1.2-3.8c0.6-1.1,1.2-1.4,2.3-2.1c1.1-0.6,2.7-0.3,4.1-0.3
			c1.4,0,2.7,0.5,3.8,1c1.1,0.6,1.9,1.1,2.6,2.2c0.7,1.2,1.3,3.5,1.4,4.8c0.1,1.4,0,1.7,0,5.1V94z"/>
		<path class="st0" d="M104.8,88h-7v-2.4c0-1.5-0.1-2.4-0.2-2.8s-0.4-0.6-0.9-0.6c-0.4,0-0.7,0.2-0.9,0.5c-0.2,0.3-0.2,1.1-0.2,2.5
			v12.4c0,1.2,0.1,1.9,0.2,2.3c0.2,0.4,0.5,0.6,0.9,0.6c0.5,0,0.9-0.2,1-0.6c0.2-0.4,0.3-1.2,0.3-2.4v-3.1h-1.4v-3.9h8.2v13.9h-4.4
			l-0.7-1.9c-0.5,0.8-1.1,1.4-1.8,1.8c-0.7,0.4-1.6,0.6-2.6,0.6c-1.2,0-2.3-0.3-3.3-0.8s-1.8-1.2-2.3-2s-0.9-1.7-1-2.6
			s-0.2-2.2-0.2-4v-7.7c0-2.5,0.1-4.3,0.4-5.4s1.1-2.1,2.4-3.1c1.3-0.9,3-1.4,5.1-1.4s3.8,0.4,5.1,1.2c1.4,0.8,2.2,1.8,2.7,2.9
			c0.4,1.1,0.6,2.7,0.6,4.9C104.8,86.9,104.8,88,104.8,88z"/>
		<path class="st0" d="M145.3,89.5h-7.4v-5.1c0-1.5-0.1-2.4-0.2-2.8c-0.2-0.4-0.5-0.6-1-0.6c-0.6,0-1,0.2-1.2,0.7
			c-0.2,0.4-0.2,1.4-0.2,2.9v13.6c0,1.4,0.1,2.4,0.2,2.8c0.2,0.4,0.5,0.7,1.1,0.7s0.9-0.2,1.1-0.7c0.2-0.4,0.3-1.5,0.3-3.1v-3.7h7.4
			v1.1c0,3-0.2,5.2-0.6,6.4c-0.4,1.3-1.3,2.4-2.7,3.3c-1.4,1-3.2,1.4-5.2,1.4c-2.2,0-3.9-0.4-5.3-1.2c-1.4-0.8-2.3-1.9-2.8-3.4
			c-0.5-1.4-0.7-3.6-0.7-6.4V87c0-2.1,0.1-3.7,0.2-4.7c0.1-1.1,0.6-2.1,1.3-3c0.7-1,1.7-1.7,2.9-2.3c1.2-0.6,2.6-0.8,4.2-0.8
			c2.2,0,4,0.4,5.4,1.3s2.3,1.9,2.8,3.2c0.4,1.3,0.7,3.3,0.7,6v2.8H145.3z"/>
		<path class="st0" d="M155.7,97.8c-0.3-4.3-0.7-9.5-1.1-15.8c-0.7,7.2-1.1,12.4-1.3,15.8H155.7z M159.2,71.9l4.2,39.7L156,110
			l-0.3-7.6l-2.4-0.1l-0.1,7l-7.5-1.3l3.4-33.7L159.2,71.9z"/>
		<path class="st0" d="M171.6,77v10.9c0.2,0,0.4,0,0.5,0c0.6,0,1.1-0.3,1.3-0.8s0.4-1.5,0.4-3.1v-3.5c0-1.5-0.1-2.4-0.4-2.9
			C173.1,77.2,172.5,77,171.6,77 M164.6,71.2l7-1.7c1.9-0.4,3.2-0.3,4.3,0.1c1,0.5,2,2,2.5,2.9s0.9,2,1,3.3c0.2,1.3,0.3,3.3,0.3,5.9
			v3.7c0,2.7-0.2,4.7-0.5,6c-0.4,1.3-1,2.2-2,2.9c-0.9,0.7-2.2,1-3.7,1h-1.9v18.6l-7.1-1.9L164.6,71.2z"/>
		<path class="st0" d="M195.5,81.1H189v-3.8c0-1.8-0.1-2.9-0.3-3.4s-0.4-0.7-0.8-0.7c-0.4,0-0.7,0.3-1,1c-0.2,0.7-0.3,1.7-0.3,3
			c0,1.7,0.1,3,0.4,3.9c0.2,0.9,0.9,1.9,2,3.2c3.1,3.5,5.1,6.5,5.9,8.7c0.8,2.3,1.2,5.9,1.2,11c0,3.7-0.2,6.4-0.7,8.1
			s-1.3,3.2-2.6,4.4c-1.3,1.2-2.8,1.8-4.5,1.8c-1.9,0-3.5-0.7-4.8-2c-1.3-1.4-2.2-3.1-2.6-5.2c-0.4-2.1-0.6-5.1-0.6-9v-3.4h6.5v6.3
			c0,1.9,0.1,3.2,0.3,3.7c0.2,0.6,0.5,0.8,1,0.8s0.8-0.4,1-1.1s0.3-1.7,0.3-3.1c0-3-0.2-5-0.7-6c-0.4-0.9-1.5-2.5-3.3-4.7
			c-1.7-2.2-2.9-3.8-3.5-4.8s-1-2.4-1.4-4.1c-0.4-1.8-0.6-4-0.6-6.8c0-3.9,0.3-6.8,0.8-8.7c0.5-1.8,1.4-3.3,2.6-4.3
			c1.2-1,2.6-1.5,4.3-1.5c1.8,0,3.4,0.6,4.7,1.7s2.1,2.5,2.6,4.3c0.4,1.7,0.6,4.6,0.6,8.7L195.5,81.1L195.5,81.1z"/>
		<path class="st0" d="M143.8,124.5v3.5h1.4v2.6h-1.4v3.2c0,0.4,0,0.6,0.1,0.8s0.2,0.3,0.4,0.3s0.4-0.1,0.8-0.2l0.2,2.4
			c-0.6,0.2-1.2,0.3-1.7,0.3c-0.6,0-1.1-0.1-1.4-0.3c-0.3-0.2-0.5-0.6-0.7-1c-0.1-0.5-0.2-1.2-0.2-2.2v-3.2h-0.9V128h0.9v-1.7
			L143.8,124.5z"/>
		<path class="st0" d="M145.6,128h2.6l1.3,6.1l1.3-6.1h2.5l-2.6,9.8c-0.3,1.1-0.6,1.9-0.9,2.3c-0.4,0.6-1.1,0.8-2,0.8
			c-0.4,0-0.9-0.1-1.7-0.2l-0.2-2.5c0.4,0.2,0.8,0.2,1.2,0.2c0.3,0,0.5-0.1,0.7-0.3s0.3-0.5,0.5-1L145.6,128z"/>
		<path class="st0" d="M164.4,132l2.4,1c-0.2,1-0.4,1.8-0.8,2.4c-0.4,0.6-0.8,1.1-1.3,1.5c-0.5,0.3-1.2,0.5-2,0.5
			c-1,0-1.8-0.2-2.4-0.6c-0.6-0.4-1.2-1.1-1.6-2.1c-0.5-1-0.7-2.3-0.7-3.9c0-2.1,0.4-3.7,1.2-4.8c0.8-1.1,1.9-1.7,3.4-1.7
			c1.1,0,2,0.3,2.7,1c0.7,0.6,1.1,1.6,1.5,3l-2.5,0.8c-0.1-0.4-0.2-0.7-0.3-0.8c-0.2-0.3-0.3-0.5-0.6-0.7c-0.2-0.2-0.5-0.2-0.8-0.2
			c-0.6,0-1.1,0.4-1.5,1.1c-0.3,0.5-0.4,1.4-0.4,2.5c0,1.4,0.2,2.4,0.5,2.9s0.7,0.8,1.3,0.8c0.5,0,0.9-0.2,1.2-0.6
			C164.1,133.4,164.3,132.8,164.4,132"/>
		<path class="st0" d="M172.5,132.8c-0.3,0.2-0.7,0.3-1.1,0.5c-0.5,0.2-0.8,0.4-1,0.6c-0.1,0.2-0.2,0.4-0.2,0.6
			c0,0.3,0.1,0.5,0.2,0.7c0.1,0.2,0.3,0.3,0.6,0.3s0.5-0.1,0.8-0.3c0.2-0.2,0.4-0.4,0.5-0.7s0.2-0.6,0.2-1.1V132.8z M170.4,130.9
			l-2.4-0.4c0.1-0.6,0.2-1,0.4-1.4c0.2-0.3,0.4-0.6,0.7-0.9c0.2-0.2,0.5-0.3,0.9-0.4s0.8-0.1,1.3-0.1c0.7,0,1.4,0.1,1.8,0.2
			c0.5,0.1,0.8,0.4,1.1,0.7c0.2,0.3,0.4,0.6,0.5,1.1s0.2,0.9,0.2,1.4v4.1c0,0.4,0,0.8,0.1,1c0,0.2,0.1,0.6,0.3,0.9H173
			c-0.1-0.2-0.2-0.4-0.2-0.5s-0.1-0.3-0.1-0.6c-0.3,0.4-0.7,0.8-1,0.9c-0.4,0.3-1,0.4-1.5,0.4c-0.8,0-1.4-0.3-1.8-0.8
			c-0.4-0.5-0.6-1.1-0.6-1.9c0-0.7,0.1-1.3,0.4-1.7c0.3-0.4,0.8-0.8,1.6-1c0.9-0.3,1.5-0.4,1.8-0.6c0.3-0.1,0.6-0.2,0.9-0.4
			c0-0.4-0.1-0.7-0.2-0.9c-0.1-0.2-0.4-0.3-0.7-0.3c-0.4,0-0.7,0.1-0.9,0.3C170.6,130.3,170.5,130.6,170.4,130.9"/>
		<path class="st0" d="M179.1,132.6c0,0.7,0.1,1.3,0.3,1.6s0.5,0.5,0.8,0.5s0.5-0.2,0.7-0.5s0.3-0.9,0.3-1.7c0-0.7-0.1-1.3-0.3-1.6
			s-0.5-0.5-0.8-0.5s-0.6,0.2-0.8,0.5C179.2,131.2,179.1,131.8,179.1,132.6 M176.6,140.6V128h2.3v1.4c0.3-0.6,0.6-1,0.9-1.2
			c0.4-0.3,0.8-0.4,1.2-0.4c0.9,0,1.5,0.5,2,1.4c0.5,0.9,0.7,2.1,0.7,3.5c0,1.5-0.3,2.7-0.8,3.5s-1.2,1.2-2,1.2
			c-0.4,0-0.7-0.1-1.1-0.3c-0.3-0.2-0.6-0.5-0.9-0.8v4.4L176.6,140.6L176.6,140.6z"/>
		<path class="st0" d="M184.6,134.6l2.5-0.3c0.1,0.4,0.2,0.7,0.4,0.9s0.4,0.3,0.7,0.3s0.6-0.1,0.8-0.3c0.1-0.1,0.2-0.3,0.2-0.6
			s-0.1-0.4-0.3-0.6c-0.1-0.1-0.5-0.2-1.1-0.4c-0.9-0.2-1.5-0.4-1.8-0.6c-0.3-0.2-0.6-0.5-0.9-0.9c-0.2-0.4-0.3-0.9-0.3-1.5
			s0.1-1.1,0.4-1.6c0.3-0.4,0.6-0.8,1-1s1-0.3,1.8-0.3s1.4,0.1,1.7,0.3c0.4,0.2,0.7,0.4,0.9,0.8c0.2,0.4,0.5,0.8,0.6,1.4l-2.4,0.3
			c-0.1-0.3-0.2-0.5-0.3-0.6c-0.2-0.2-0.4-0.3-0.7-0.3s-0.5,0.1-0.6,0.2c-0.1,0.1-0.2,0.3-0.2,0.5s0.1,0.4,0.3,0.5s0.5,0.2,1.1,0.3
			c0.8,0.1,1.5,0.3,1.9,0.6c0.4,0.2,0.7,0.6,0.9,1s0.3,0.9,0.3,1.4s-0.1,1-0.3,1.5s-0.6,0.9-1.1,1.2s-1.2,0.4-2,0.4
			c-1.2,0-2-0.2-2.6-0.7C185,136.2,184.7,135.5,184.6,134.6"/>
		<path class="st0" d="M66.3,131.8c0-0.7-0.2-1.2-0.4-1.5c-0.2-0.3-0.5-0.4-0.8-0.4c-0.4,0-0.7,0.2-1,0.7c-0.1,0.3-0.2,0.7-0.3,1.2
			H66.3z M68.9,133.4h-5c0,0.6,0.2,1,0.3,1.3c0.2,0.4,0.6,0.6,0.9,0.6c0.2,0,0.5-0.1,0.7-0.3c0.1-0.1,0.3-0.3,0.4-0.6l2.5,0.3
			c-0.4,0.9-0.8,1.6-1.4,2c-0.5,0.4-1.3,0.6-2.3,0.6c-0.9,0-1.5-0.2-2-0.5s-0.9-0.9-1.2-1.6c-0.3-0.7-0.5-1.6-0.5-2.6
			c0-1.4,0.3-2.6,1-3.5s1.6-1.3,2.7-1.3c0.9,0,1.7,0.2,2.2,0.6c0.5,0.4,1,1,1.2,1.7c0.3,0.8,0.4,1.7,0.4,2.9v0.4H68.9z"/>
		<path class="st0" d="M74.5,132.8c-0.3,0.2-0.7,0.3-1.1,0.5c-0.5,0.2-0.8,0.4-1,0.6c-0.1,0.2-0.2,0.4-0.2,0.6
			c0,0.3,0.1,0.5,0.2,0.7s0.3,0.3,0.6,0.3c0.3,0,0.5-0.1,0.8-0.3c0.2-0.2,0.4-0.4,0.5-0.7s0.2-0.6,0.2-1.1V132.8z M72.3,130.9
			l-2.4-0.4c0.1-0.6,0.2-1,0.4-1.4c0.2-0.3,0.4-0.6,0.7-0.9c0.2-0.2,0.5-0.3,1-0.4c0.4-0.1,0.8-0.1,1.3-0.1c0.8,0,1.4,0.1,1.8,0.2
			c0.5,0.1,0.8,0.4,1.1,0.7c0.2,0.3,0.4,0.6,0.5,1.1s0.2,0.9,0.2,1.4v4.1c0,0.4,0,0.8,0.1,1c0,0.2,0.1,0.6,0.3,0.9h-2.4
			c-0.1-0.2-0.2-0.4-0.2-0.5s-0.1-0.3-0.1-0.6c-0.3,0.4-0.7,0.8-1,0.9c-0.4,0.3-1,0.4-1.5,0.4c-0.8,0-1.4-0.3-1.8-0.8
			s-0.6-1.1-0.6-1.9c0-0.7,0.1-1.3,0.4-1.7s0.8-0.8,1.6-1c0.9-0.3,1.6-0.4,1.8-0.6c0.3-0.1,0.6-0.2,0.9-0.4c0-0.4-0.1-0.7-0.2-0.9
			s-0.4-0.3-0.7-0.3c-0.4,0-0.7,0.1-0.9,0.3C72.5,130.3,72.4,130.6,72.3,130.9"/>
		<path class="st0" d="M82.8,132.5c0-0.7-0.1-1.3-0.3-1.6c-0.2-0.4-0.5-0.5-0.8-0.5s-0.5,0.2-0.7,0.5s-0.3,0.9-0.3,1.7
			s0.1,1.3,0.3,1.6c0.2,0.3,0.5,0.5,0.8,0.5s0.6-0.2,0.8-0.5C82.7,133.9,82.8,133.3,82.8,132.5 M85.3,124.5v12.7H83v-1.4
			c-0.3,0.6-0.6,1-0.9,1.2c-0.4,0.3-0.8,0.4-1.2,0.4c-0.9,0-1.6-0.5-2-1.4c-0.5-0.9-0.7-2.1-0.7-3.5c0-1.5,0.3-2.7,0.8-3.5
			s1.2-1.2,2-1.2c0.4,0,0.7,0.1,1.1,0.3c0.3,0.2,0.6,0.5,0.8,0.8v-4.4C82.9,124.5,85.3,124.5,85.3,124.5z"/>
		<path class="st0" d="M91.6,131.8c0-0.7-0.2-1.2-0.4-1.5c-0.2-0.3-0.5-0.4-0.8-0.4c-0.4,0-0.7,0.2-1,0.7c-0.2,0.3-0.3,0.7-0.3,1.2
			H91.6z M94.1,133.4h-5c0,0.6,0.2,1,0.3,1.3c0.2,0.4,0.6,0.6,0.9,0.6c0.2,0,0.5-0.1,0.7-0.3c0.1-0.1,0.3-0.3,0.4-0.6l2.5,0.3
			c-0.4,0.9-0.8,1.6-1.4,2c-0.5,0.4-1.3,0.6-2.3,0.6c-0.9,0-1.5-0.2-2-0.5s-0.9-0.9-1.2-1.6c-0.3-0.7-0.5-1.6-0.5-2.6
			c0-1.4,0.3-2.6,1-3.5s1.6-1.3,2.7-1.3c0.9,0,1.7,0.2,2.2,0.6c0.5,0.4,1,1,1.2,1.7c0.3,0.8,0.4,1.7,0.4,2.9v0.4H94.1z"/>
		<path class="st0" d="M95.3,128h2.3v1.5c0.2-0.6,0.5-1.1,0.7-1.3s0.5-0.4,0.9-0.4s0.8,0.2,1.2,0.5l-0.8,2.5
			c-0.3-0.2-0.5-0.3-0.7-0.3c-0.3,0-0.6,0.2-0.8,0.6c-0.3,0.5-0.4,1.5-0.4,3v3.1h-2.5V128H95.3z"/>
		<path class="st0" d="M111.1,133.3c0.2-0.6,0.3-1.4,0.3-2.5c0-1.3-0.2-2.2-0.5-2.7s-0.8-0.8-1.4-0.8s-1,0.3-1.3,0.8
			c-0.3,0.6-0.5,1.4-0.5,2.6c0,1.4,0.2,2.3,0.5,2.9c0.3,0.6,0.8,0.8,1.4,0.8c0.2,0,0.4,0,0.5-0.1c-0.2-0.3-0.6-0.6-1.1-0.9l0.4-1.4
			c0.2,0.1,0.4,0.1,0.6,0.2c0.1,0.1,0.4,0.3,0.8,0.7C110.9,133.1,111,133.2,111.1,133.3 M113.2,135.3c0.3,0.3,0.6,0.6,0.7,0.6
			c0.2,0.1,0.4,0.3,0.6,0.4l-0.8,2.2c-0.4-0.3-0.8-0.6-1.2-0.9c-0.4-0.4-0.7-0.6-0.8-0.8c-0.6,0.4-1.4,0.6-2.3,0.6
			c-1.4,0-2.5-0.5-3.2-1.5c-0.9-1.2-1.4-2.9-1.4-5s0.4-3.7,1.2-4.9c0.8-1.2,2-1.7,3.4-1.7c1.5,0,2.7,0.6,3.5,1.7s1.2,2.7,1.2,4.8
			C114.2,132.7,113.9,134.2,113.2,135.3"/>
		<path class="st0" d="M122.4,137.1h-2.3v-1.5c-0.4,0.6-0.7,1-1.1,1.3s-0.8,0.4-1.3,0.4c-0.7,0-1.2-0.3-1.6-0.9
			c-0.4-0.6-0.6-1.5-0.6-2.7V128h2.5v5c0,0.6,0.1,1,0.2,1.2c0.2,0.2,0.4,0.4,0.6,0.4c0.3,0,0.5-0.2,0.7-0.5s0.3-0.9,0.3-1.7V128h2.5
			v9.1H122.4z"/>
		<path class="st0" d="M128.4,132.8c-0.3,0.2-0.7,0.3-1.1,0.5c-0.5,0.2-0.8,0.4-1,0.6c-0.1,0.2-0.2,0.4-0.2,0.6
			c0,0.3,0.1,0.5,0.2,0.7s0.3,0.3,0.6,0.3c0.3,0,0.5-0.1,0.8-0.3c0.2-0.2,0.4-0.4,0.5-0.7s0.2-0.6,0.2-1.1V132.8z M126.2,130.9
			l-2.4-0.4c0.1-0.6,0.2-1,0.4-1.4c0.2-0.3,0.4-0.6,0.7-0.9c0.2-0.2,0.5-0.3,1-0.4c0.4-0.1,0.8-0.1,1.3-0.1c0.8,0,1.4,0.1,1.8,0.2
			c0.5,0.1,0.8,0.4,1.1,0.7c0.2,0.3,0.4,0.6,0.5,1.1s0.2,0.9,0.2,1.4v4.1c0,0.4,0,0.8,0.1,1c0,0.2,0.1,0.6,0.3,0.9h-2.4
			c-0.1-0.2-0.2-0.4-0.2-0.5s-0.1-0.3-0.1-0.6c-0.3,0.4-0.7,0.8-1,0.9c-0.4,0.3-1,0.4-1.5,0.4c-0.8,0-1.4-0.3-1.8-0.8
			s-0.6-1.1-0.6-1.9c0-0.7,0.1-1.3,0.4-1.7s0.8-0.8,1.6-1c0.9-0.3,1.5-0.4,1.8-0.6c0.3-0.1,0.6-0.2,0.9-0.4c0-0.4-0.1-0.7-0.2-0.9
			c-0.1-0.2-0.3-0.3-0.7-0.3c-0.4,0-0.7,0.1-0.9,0.3C126.5,130.3,126.3,130.6,126.2,130.9"/>
		<path class="st0" d="M45,132.5c0-0.7-0.1-1.3-0.3-1.6c-0.2-0.4-0.5-0.5-0.8-0.5s-0.5,0.2-0.7,0.5s-0.3,0.9-0.3,1.7
			s0.1,1.3,0.3,1.6s0.5,0.5,0.8,0.5s0.6-0.2,0.8-0.5C44.9,133.9,45,133.3,45,132.5 M47.5,124.5v12.7h-2.3v-1.4
			c-0.3,0.6-0.6,1-0.9,1.2c-0.4,0.3-0.8,0.4-1.2,0.4c-0.9,0-1.6-0.5-2-1.4c-0.5-0.9-0.7-2.1-0.7-3.5c0-1.5,0.3-2.7,0.8-3.5
			s1.2-1.2,2-1.2c0.4,0,0.7,0.1,1.1,0.3c0.3,0.2,0.6,0.5,0.8,0.8v-4.4C45.1,124.5,47.5,124.5,47.5,124.5z"/>
		<path class="st0" d="M24.2,132.6c0,0.8,0.1,1.4,0.4,1.8c0.2,0.4,0.5,0.6,0.9,0.6s0.7-0.2,0.9-0.6c0.2-0.4,0.3-1,0.3-1.9
			c0-0.8-0.1-1.4-0.4-1.8c-0.2-0.4-0.5-0.6-0.9-0.6s-0.7,0.2-0.9,0.6C24.3,131.2,24.2,131.8,24.2,132.6 M21.7,132.6
			c0-1.4,0.3-2.5,1-3.5c0.7-0.9,1.6-1.4,2.7-1.4c1.3,0,2.3,0.5,3,1.6c0.5,0.9,0.8,1.9,0.8,3.2c0,1.4-0.3,2.6-1,3.5s-1.6,1.3-2.8,1.3
			c-1.1,0-1.9-0.4-2.5-1.1C22.1,135.3,21.7,134.1,21.7,132.6"/>
		<path class="st0" d="M30.4,128h2.3v1.5c0.2-0.6,0.5-1.1,0.7-1.3s0.5-0.4,0.9-0.4s0.8,0.2,1.2,0.5l-0.8,2.5
			c-0.3-0.2-0.5-0.3-0.7-0.3c-0.3,0-0.6,0.2-0.8,0.6c-0.3,0.5-0.4,1.5-0.4,3v3.1h-2.5L30.4,128L30.4,128z"/>
	</g>
	<g>
		<path class="st0" d="M312.5,67.8c-1.7,0-3.1-0.6-4.3-1.7c-1.2-1.1-1.7-2.6-1.7-4.3s0.6-3.2,1.7-4.3s2.6-1.7,4.3-1.7
			c1.7,0,3.1,0.5,4.3,1.6c1.1,1.1,1.7,2.5,1.7,4.3s-0.6,3.2-1.7,4.3C315.6,67.2,314.2,67.8,312.5,67.8z M308.1,61.8
			c0,1.3,0.4,2.5,1.2,3.4c0.8,0.9,1.9,1.3,3.1,1.3s2.2-0.4,3.1-1.3s1.3-2,1.3-3.4c0-1.3-0.4-2.4-1.3-3.3c-0.8-0.9-1.9-1.3-3.1-1.3
			c-1.3,0-2.3,0.4-3.1,1.3C308.6,59.3,308.1,60.4,308.1,61.8z M311.5,64.9h-1.4v-6.4h2.6c0.8,0,1.4,0.2,1.8,0.5s0.6,0.8,0.6,1.5
			c0,1-0.5,1.6-1.4,1.8l1.5,2.7h-1.6l-1.3-2.6h-0.9L311.5,64.9L311.5,64.9z M312.5,61.3c0.5,0,0.8-0.1,0.9-0.2
			c0.2-0.1,0.3-0.4,0.3-0.7s-0.1-0.4-0.3-0.6c-0.2-0.1-0.5-0.2-0.8-0.2h-1.1v1.6h1V61.3z"/>
	</g>
</g>
</svg>
