<?xml version="1.0" encoding="utf-8"?>
<!-- Generator: Adobe Illustrator 24.2.0, SVG Export Plug-In . SVG Version: 6.00 Build 0)  -->
<svg version="1.1" id="Capa_1" xmlns="http://www.w3.org/2000/svg" xmlns:xlink="http://www.w3.org/1999/xlink" x="0px" y="0px"
	 viewBox="0 0 320 200" style="enable-background:new 0 0 320 200;" xml:space="preserve">
<style type="text/css">
	.st0{fill:#B2B2B2;}
</style>
<g>
	<g>
		<path class="st0" d="M48.9,118.3c0,5.5,3.9,10.1,9.8,10.1c5.7,0,10.2-3.2,10.2-10.1V96.6c0-10.4,2.6-14.3,11.4-14.3
			c9,0,12,3.2,12,14.6V119c0,22.4-23.4,26.1-33.6,26.1c-11.6,0-22.2-3.6-28.1-10.9c-4.5-5.5-5.1-8.3-5.1-29v-8.6
			c0-9.4,2.4-14.4,10.6-14.4c9.6,0,12.8,3.4,12.8,14.4V118.3z"/>
		<path class="st0" d="M128.1,97.1c4.7,7.1,9.2,11.2,11.4,11.2c1.6,0,3.5-2.3,3.5-6.7c0-1.5-0.4-9.6,1.4-12.7
			c1.6-2.9,4.3-4.4,8.2-4.4c7.7,0,10,3.2,10,14.9v32.5c0,7.6-3.7,11.5-11,11.5c-5.9,0-9.4-1.8-12.2-4.1c-1.2-1-6.3-8.1-9.6-12.3
			c-3.1-3.9-6.3-7.5-8.1-7.5c-2.6,0-3.9,2.4-3.9,7c0,9.7-1,10.7-1.8,12.7c-1.4,2.6-4.1,3.9-7.7,3.9c-9.4,0-10-5.4-10-14.8V95.6
			c0-7.8,2.9-11.5,11.2-11.5c5.3,0,8.1,1.1,11,3.4C122,88.8,125.3,92.7,128.1,97.1z"/>
		<path class="st0" d="M259.1,98.3c-5.1,4.4-7.5,6.2-7.5,9.4c0,1.5,0.4,2.6,1.2,3.7c16.9,22.6,17.9,23.2,17.9,26.6
			c0,4.4-4.5,6.5-9.6,6.5c-9,0-13.2-2.3-16.7-6.8c-9.8-12.3-10.8-13.5-13.4-13.5c-4.1,0-6.5,3.6-6.5,9.1c0,8.1-5.1,11.2-12.6,11.2
			c-11,0-12.6-6.7-12.6-14.4l0.2-36c0-8,4.3-12,12.6-12c7.7,0,10.4,2.6,12,7.8c0.8,2.9,1.6,5,4.1,5c4.1,0,10.2-8,14.3-9.9
			c4.3-2.1,7.7-3.1,11-3.1c4.1,0,14.7-0.5,14.7,5.2C268.1,90,267.3,91.1,259.1,98.3z"/>
		<g>
			<path class="st0" d="M285.3,81.9c1.5,0,3.1,0.4,4.5,1.2c1.5,0.8,2.6,1.9,3.4,3.4c0.8,1.5,1.2,3,1.2,4.6c0,1.6-0.4,3.1-1.2,4.6
				c-0.8,1.5-1.9,2.6-3.4,3.4c-1.5,0.8-3,1.2-4.6,1.2s-3.1-0.4-4.6-1.2c-1.5-0.8-2.6-1.9-3.4-3.4c-0.8-1.5-1.2-3-1.2-4.6
				c0-1.6,0.4-3.2,1.2-4.6c0.8-1.5,2-2.6,3.5-3.4C282.2,82.3,283.8,81.9,285.3,81.9z M285.3,83.4c-1.3,0-2.6,0.3-3.8,1
				c-1.2,0.7-2.2,1.6-2.9,2.9c-0.7,1.2-1,2.5-1,3.9c0,1.3,0.3,2.6,1,3.8c0.7,1.2,1.6,2.2,2.9,2.9c1.2,0.7,2.5,1,3.8,1
				c1.3,0,2.6-0.3,3.8-1c1.2-0.7,2.2-1.6,2.8-2.9c0.7-1.2,1-2.5,1-3.8c0-1.3-0.3-2.6-1-3.9c-0.7-1.2-1.7-2.2-2.9-2.9
				C287.8,83.8,286.6,83.4,285.3,83.4z M281.2,96.3v-10h3.4c1.2,0,2,0.1,2.5,0.3c0.5,0.2,0.9,0.5,1.2,1c0.3,0.5,0.5,0.9,0.5,1.5
				c0,0.7-0.3,1.4-0.8,1.9c-0.5,0.5-1.2,0.8-2,0.9c0.3,0.1,0.6,0.3,0.8,0.5c0.4,0.4,0.9,1.1,1.5,2l1.2,2h-1.9l-0.9-1.6
				c-0.7-1.2-1.3-2-1.6-2.3c-0.3-0.2-0.7-0.3-1.3-0.3h-0.9v4.2H281.2z M282.9,90.7h1.9c0.9,0,1.6-0.1,1.9-0.4
				c0.3-0.3,0.5-0.7,0.5-1.1c0-0.3-0.1-0.6-0.2-0.8c-0.2-0.2-0.4-0.4-0.7-0.5c-0.3-0.1-0.8-0.2-1.6-0.2h-1.8V90.7z"/>
		</g>
		<path class="st0" d="M196.7,67.6c0,0-0.4,7-16.8,7s-16.6,4-16.6,4V65.3c0,0-0.3-4,16.6-4c16.8,0,16.8-7,16.8-7V67.6z"/>
		<g>
			<g>
				<path class="st0" d="M179.3,82.4c-7.5,0-11.2,5-11.2,12.2l-0.2,36c0,8.1,1.6,14.4,12.6,14.4c8.3,0,12.6-4.1,12.6-12V97.8
					C193.1,85.8,189.5,82.4,179.3,82.4z M192.3,124.9c0,0-0.3,7-11.7,7c-11.5,0-11.6,4-11.6,4v-13.4c0,0-0.2-4,11.6-4
					c11.7,0,11.7-7,11.7-7V124.9z M192.3,105.8c0,0-0.3,7-11.7,7c-11.5,0-11.6,4-11.6,4v-13.4c0,0-0.2-4,11.6-4
					c11.7,0,11.7-7,11.7-7V105.8z"/>
			</g>
		</g>
		<path class="st0" d="M196.5,29.9c0,0,0.7-13.5,32.2-13.5s31.8-7.7,31.8-7.7v25.7c0,0,0.5,7.7-31.8,7.7s-32.3,13.5-32.3,13.5V29.9z
			"/>
	</g>
	<g>
		<path class="st0" d="M41.8,175.2c-3.3,2.5-6.8,3.8-10.3,3.8c-2.5,0-4.3-0.8-5.4-2.3c-1.1-1.6-1.2-3.6-0.4-6c0.8-2.4,2.2-4.8,4.1-7
			c1.9-2.2,4-4,6.3-5.3c2.3-1.3,4.4-2,6.2-2c1.5,0,2.6,0.4,3.3,1.4c0.7,0.9,0.7,2.1,0.3,3.5c-0.6,1.9-1.8,3.5-3.4,4.9
			c-1.6,1.4-3.2,2.1-4.8,2.1c-0.8,0-1.4-0.2-1.8-0.6c-0.4-0.4-0.5-1-0.2-1.6c0.2-0.6,0.6-1.1,1.2-1.6c0.1,0.6,0.5,0.9,1.1,0.9
			c0.8,0,1.8-0.5,2.9-1.6c1.1-1,1.8-2.2,2.2-3.4c0.3-0.9,0.3-1.5,0.1-2.1c-0.2-0.5-0.7-0.8-1.4-0.8c-1,0-2.2,0.6-3.7,1.8
			c-1.5,1.2-3,2.8-4.3,4.6c-1.4,1.9-2.3,3.7-2.9,5.4c-0.7,2.2-0.7,4,0.1,5.3c0.8,1.4,2.1,2.1,4,2.1c1.2,0,2.4-0.3,3.6-0.8
			c1.2-0.6,2.5-1.4,3.9-2.6L41.8,175.2z"/>
		<path class="st0" d="M58.6,175.2c-2.2,1.6-3.8,2.6-4.6,3.1c-0.9,0.5-1.7,0.7-2.3,0.7c-1.7,0-1.9-1.5-0.9-4.3
			c-1.6,1.5-2.9,2.6-4,3.3c-1.1,0.7-2.2,1.1-3.1,1.1c-0.9,0-1.6-0.4-1.9-1.3c-0.4-0.9-0.3-1.9,0.1-3.2c0.5-1.6,1.5-3,2.8-4.5
			c1.3-1.4,2.8-2.6,4.5-3.4c1.6-0.9,3-1.3,4-1.3c1.3,0,2,0.6,2.2,1.8l3.8-1.8h0.9l-2.9,4.6c-1.5,2.3-2.4,3.9-2.7,4.7
			c-0.3,0.9-0.1,1.3,0.5,1.3c0.4,0,0.9-0.2,1.6-0.6c0.6-0.4,1.5-1.1,2.7-2L58.6,175.2z M46.8,176c1,0,2.3-0.9,3.9-2.7
			c1.5-1.8,2.5-3.4,3-4.9c0.2-0.6,0.2-1,0.1-1.4c-0.2-0.3-0.4-0.5-0.9-0.5c-1.1,0-2.3,0.9-3.9,2.6c-1.5,1.8-2.5,3.4-3,4.9
			c-0.2,0.6-0.2,1,0,1.4C46.1,175.9,46.4,176,46.8,176z"/>
		<path class="st0" d="M69,175.2c-1.9,1.3-3.4,2.3-4.7,2.9c-1.3,0.6-2.4,0.9-3.4,0.9c-1.1,0-1.9-0.4-2.3-1.3c-0.4-0.9-0.3-2,0.1-3.5
			c0.7-2.2,2.1-4.8,4.1-7.9c2-3.1,4.1-5.9,6.3-8.4l4.5-1.5c0.1,0,0.2-0.1,0.3-0.1c0.3,0,0.5,0.2,0.5,0.7c0,0.4-0.1,1-0.3,1.8
			c-0.7,2.1-1.9,4.2-3.5,6.2c-1.7,2-3.9,4.1-6.8,6.4c-0.4,1.1-0.7,1.8-0.9,2.2c-0.3,0.9-0.4,1.6-0.2,2.2c0.2,0.5,0.5,0.8,1.1,0.8
			c0.6,0,1.2-0.2,2-0.6c0.8-0.4,2-1.2,3.8-2.5L69,175.2z M65,169.1c1.8-1.5,3.5-3.1,4.9-4.9c1.4-1.8,2.4-3.4,2.8-4.7
			c0.1-0.4,0.2-0.7,0.1-0.9c0-0.2-0.1-0.4-0.3-0.4c-0.4,0-1.3,1-2.7,2.9C68.5,163,66.9,165.6,65,169.1z"/>
		<path class="st0" d="M76.7,175.2c-3.3,2.6-5.6,3.8-6.8,3.8c-0.7,0-1.1-0.3-1.4-1c-0.2-0.7-0.2-1.5,0.2-2.6
			c0.7-2.2,2.5-5.3,5.4-9.2l4.3-0.8h0.2l-3.2,4.9c-1.3,2-2.1,3.4-2.4,4.3c-0.1,0.3-0.1,0.6-0.1,0.8c0.1,0.2,0.2,0.3,0.5,0.3
			c0.4,0,0.9-0.1,1.4-0.4c0.5-0.3,1.4-0.9,2.6-1.9L76.7,175.2z M81.7,159.3c-0.8,2.5-2.2,3.7-4,3.7c-0.9,0-1.6-0.3-2-0.8
			c0.9-0.9,1.7-1.9,2.4-3.1c0.7,0.5,1.2,0.8,1.7,0.8C80.4,159.9,81,159.7,81.7,159.3z"/>
		<path class="st0" d="M93.5,175.2c-2,1.5-3.5,2.5-4.5,3c-1,0.5-1.8,0.8-2.4,0.8c-0.7,0-1.2-0.4-1.4-1.1c-0.2-0.7-0.1-1.8,0.4-3.2
			c-1.3,1.4-2.6,2.4-3.9,3.2c-1.3,0.7-2.3,1.1-3.1,1.1c-0.9,0-1.5-0.4-1.9-1.3c-0.4-0.8-0.4-1.8,0-2.9c0.8-2.3,2.3-4.5,4.7-6.4
			c2.4-2,4.5-3,6.5-3c0.5,0,0.9,0.1,1.2,0.2c0.3,0.2,0.5,0.4,0.7,0.8l5.4-9.3c2-0.4,3.3-0.6,3.9-0.6c0.2,0,0.3,0.1,0.2,0.2
			c0,0.1-0.7,1.2-1.9,3.2c-4.8,8.1-7.5,13.1-8.1,14.7c-0.1,0.4-0.2,0.7-0.1,0.9c0.1,0.2,0.3,0.4,0.5,0.4c0.7,0,2.1-0.9,4.2-2.6
			L93.5,175.2z M81.9,176c1,0,2.3-0.9,3.7-2.6c1.5-1.7,2.5-3.3,3-4.8c0.2-0.6,0.2-1.1,0.1-1.5c-0.2-0.4-0.5-0.5-0.9-0.5
			c-1,0-2.2,0.9-3.7,2.7c-1.5,1.8-2.5,3.4-3,4.9c-0.2,0.6-0.2,1-0.1,1.4C81.1,175.8,81.4,176,81.9,176z"/>
		<path class="st0" d="M110.3,175.2c-2.2,1.6-3.7,2.6-4.6,3.1c-0.9,0.5-1.7,0.7-2.3,0.7c-1.7,0-1.9-1.5-0.9-4.3
			c-1.5,1.5-2.9,2.6-4,3.3c-1.1,0.7-2.2,1.1-3.1,1.1c-0.9,0-1.6-0.4-1.9-1.3c-0.4-0.9-0.3-1.9,0.1-3.2c0.5-1.6,1.5-3,2.8-4.5
			c1.3-1.4,2.8-2.6,4.5-3.4c1.6-0.9,3-1.3,4-1.3c1.3,0,2,0.6,2.1,1.8l3.8-1.8h0.9l-2.9,4.6c-1.5,2.3-2.4,3.9-2.7,4.7
			c-0.3,0.9-0.1,1.3,0.5,1.3c0.4,0,0.9-0.2,1.6-0.6c0.6-0.4,1.5-1.1,2.7-2L110.3,175.2z M98.5,176c1,0,2.3-0.9,3.9-2.7
			c1.5-1.8,2.5-3.4,3-4.9c0.2-0.6,0.2-1,0.1-1.4c-0.2-0.3-0.4-0.5-0.9-0.5c-1,0-2.3,0.9-3.9,2.6c-1.5,1.8-2.5,3.4-3,4.9
			c-0.2,0.6-0.2,1,0,1.4C97.8,175.9,98.1,176,98.5,176z"/>
		<path class="st0" d="M127,175.2c-2,1.5-3.5,2.5-4.5,3c-1,0.5-1.8,0.8-2.4,0.8c-0.7,0-1.2-0.4-1.4-1.1c-0.2-0.7-0.1-1.8,0.4-3.2
			c-1.3,1.4-2.6,2.4-3.9,3.2c-1.3,0.7-2.3,1.1-3.1,1.1c-0.9,0-1.5-0.4-1.9-1.3c-0.4-0.8-0.4-1.8,0-2.9c0.8-2.3,2.4-4.5,4.7-6.4
			c2.4-2,4.5-3,6.5-3c0.5,0,0.9,0.1,1.2,0.2c0.3,0.2,0.5,0.4,0.7,0.8l5.4-9.3c2-0.4,3.3-0.6,3.9-0.6c0.2,0,0.3,0.1,0.2,0.2
			c0,0.1-0.7,1.2-1.9,3.2c-4.8,8.1-7.5,13.1-8.1,14.7c-0.1,0.4-0.2,0.7-0.1,0.9c0.1,0.2,0.3,0.4,0.5,0.4c0.7,0,2.1-0.9,4.2-2.6
			L127,175.2z M115.4,176c1,0,2.3-0.9,3.7-2.6c1.5-1.7,2.5-3.3,3-4.8c0.2-0.6,0.2-1.1,0.1-1.5c-0.2-0.4-0.5-0.5-0.9-0.5
			c-1,0-2.2,0.9-3.7,2.7c-1.5,1.8-2.5,3.4-3,4.9c-0.2,0.6-0.2,1-0.1,1.4C114.6,175.8,114.9,176,115.4,176z"/>
		<path class="st0" d="M151.8,175.2c-2.2,1.6-3.7,2.6-4.6,3.1c-0.9,0.5-1.7,0.7-2.3,0.7c-1.7,0-1.9-1.5-0.9-4.3
			c-1.5,1.5-2.9,2.6-4,3.3c-1.1,0.7-2.1,1.1-3.1,1.1c-0.9,0-1.6-0.4-1.9-1.3c-0.4-0.9-0.3-1.9,0.1-3.2c0.5-1.6,1.5-3,2.8-4.5
			c1.3-1.4,2.8-2.6,4.5-3.4c1.6-0.9,3-1.3,4-1.3c1.3,0,2,0.6,2.1,1.8l3.8-1.8h0.9l-2.9,4.6c-1.5,2.3-2.4,3.9-2.7,4.7
			c-0.3,0.9-0.1,1.3,0.5,1.3c0.4,0,0.9-0.2,1.6-0.6c0.6-0.4,1.5-1.1,2.7-2L151.8,175.2z M140,176c1,0,2.3-0.9,3.9-2.7
			c1.5-1.8,2.5-3.4,3-4.9c0.2-0.6,0.2-1,0.1-1.4c-0.2-0.3-0.4-0.5-0.9-0.5c-1,0-2.3,0.9-3.9,2.6c-1.5,1.8-2.5,3.4-3,4.9
			c-0.2,0.6-0.2,1,0,1.4C139.3,175.9,139.6,176,140,176z"/>
		<path class="st0" d="M168.9,175.2c-1.8,1.3-3.2,2.3-4.4,2.9c-1.2,0.6-2.2,0.9-3.1,0.9c-0.9,0-1.5-0.4-1.8-1.1
			c-0.3-0.8-0.3-1.7,0.2-3c0.4-1.1,1.1-2.5,2.2-4.3l1.5-2.4l-1.2,0.1l1.3-2.4l1.5-0.1l3.1-4.9l4.5-0.9l-3.4,5.4l2.3-0.1l-1.3,2.4
			l-2.5,0.2l-2.2,3.5c-0.8,1.2-1.3,2.2-1.5,2.9c-0.2,0.5-0.2,0.9,0,1.2c0.1,0.3,0.4,0.5,0.8,0.5c0.5,0,1.1-0.2,1.8-0.5
			c0.6-0.3,1.6-1,3-2.1L168.9,175.2z"/>
		<path class="st0" d="M185.7,175.2c-1.8,1.3-3.3,2.3-4.4,2.9c-1.1,0.6-2.1,0.9-2.8,0.9c-0.8,0-1.4-0.3-1.6-1
			c-0.2-0.7-0.2-1.5,0.2-2.7c-1.6,1.3-2.9,2.2-4,2.8c-1.1,0.6-2.1,0.9-3,0.9c-0.8,0-1.3-0.3-1.6-1c-0.3-0.7-0.2-1.5,0.2-2.7
			c0.7-2.2,2.5-5.2,5.3-9.1l4.5-0.8c-3.4,5-5.3,8.2-5.8,9.6c-0.3,1-0.1,1.5,0.6,1.5c0.5,0,1.4-0.4,2.5-1.3c1.1-0.9,1.9-1.6,2.3-2.3
			l4.3-6.6l4.6-0.9c-2,3.1-3.5,5.3-4.2,6.6c-0.8,1.3-1.3,2.2-1.4,2.7c-0.3,1-0.2,1.5,0.5,1.5c0.5,0,1.5-0.5,2.9-1.5l1.7-1.2
			L185.7,175.2z"/>
		<path class="st0" d="M215.5,175.2c-3.3,2.5-5.9,3.8-7.9,3.8c-1.1,0-1.9-0.4-2.2-1.2c-0.4-0.8-0.4-1.9,0-3.3
			c-1.8,1.5-3.3,2.7-4.5,3.4c-1.2,0.7-2.4,1.1-3.5,1.1c-1.4,0-2.4-0.6-2.8-1.8c-0.5-1.2-0.3-2.8,0.3-4.9c0.8-2.4,2.2-4.9,4.2-7.5
			c2-2.6,4.4-4.6,7.1-6.1c2.7-1.5,5.7-2.2,8.8-2.2c2.4,0,4.4,0.3,6.1,0.9l-0.3,1c-2.2,1.8-4.3,4.3-6.5,7.6c-2.1,3.3-3.5,5.7-4.1,7.4
			c-0.3,0.8-0.3,1.5-0.1,1.9c0.2,0.5,0.6,0.7,1.2,0.7c1.1,0,2.7-0.9,4.8-2.6L215.5,175.2z M216.6,158.4c-0.8-0.5-1.7-0.8-2.8-0.8
			c-1.8,0-3.6,0.7-5.5,2.2c-1.9,1.5-3.6,3.4-5.3,5.8c-1.6,2.4-2.7,4.5-3.3,6.2c-0.4,1.2-0.5,2.1-0.3,2.9c0.2,0.7,0.7,1.1,1.4,1.1
			c1.2,0,3-1.1,5.4-3.4C208.9,166.5,212.3,161.9,216.6,158.4z"/>
		<path class="st0" d="M225.9,175.2c-1.9,1.3-3.4,2.3-4.7,2.9c-1.3,0.6-2.4,0.9-3.4,0.9c-1.1,0-1.9-0.4-2.3-1.3s-0.4-2,0.1-3.5
			c0.7-2.2,2.1-4.8,4.1-7.9c2-3.1,4.1-5.9,6.3-8.4l4.5-1.5c0.1,0,0.2-0.1,0.3-0.1c0.3,0,0.5,0.2,0.5,0.7c0,0.4-0.1,1-0.3,1.8
			c-0.7,2.1-1.9,4.2-3.5,6.2c-1.7,2-3.9,4.1-6.8,6.4c-0.4,1.1-0.7,1.8-0.9,2.2c-0.3,0.9-0.4,1.6-0.2,2.2c0.2,0.5,0.5,0.8,1.1,0.8
			c0.6,0,1.2-0.2,2-0.6c0.8-0.4,2-1.2,3.8-2.5L225.9,175.2z M222,169.1c1.8-1.5,3.5-3.1,4.9-4.9c1.4-1.8,2.4-3.4,2.8-4.7
			c0.1-0.4,0.2-0.7,0.1-0.9c0-0.2-0.1-0.4-0.3-0.4c-0.4,0-1.3,1-2.7,2.9C225.5,163,223.8,165.6,222,169.1z"/>
		<path class="st0" d="M237.7,175.2c-1.8,1.3-3.3,2.3-4.7,2.9c-1.3,0.6-2.6,0.9-3.8,0.9c-1.4,0-2.3-0.4-2.9-1.3
			c-0.6-0.9-0.7-2-0.2-3.3c0.7-2.2,2.2-4.3,4.5-6.1c2.3-1.9,4.3-2.8,6.2-2.8c0.9,0,1.6,0.3,2,0.8c0.4,0.5,0.5,1.2,0.2,2
			c-0.1,0.3-0.2,0.5-0.4,0.7c-0.2,0.1-0.4,0.3-0.8,0.4l-2.1,0.9c-0.3,0.1-0.4,0.2-0.5,0.2c-0.1,0-0.2-0.1-0.1-0.3
			c0-0.1,0.2-0.4,0.4-0.8c0.2-0.5,0.3-0.7,0.4-0.8c0.2-0.5,0.2-0.8,0.1-1.1c-0.1-0.3-0.3-0.4-0.6-0.4c-0.8,0-1.7,0.6-2.7,1.7
			c-1,1.1-1.8,2.4-2.2,3.8c-0.4,1.2-0.4,2.2-0.1,3c0.3,0.7,1,1.1,2,1.1c0.8,0,1.7-0.2,2.6-0.7c0.9-0.5,2-1.2,3.3-2.2L237.7,175.2z"
			/>
		<path class="st0" d="M254.5,175.2c-2.2,1.6-3.8,2.6-4.6,3.1c-0.9,0.5-1.7,0.7-2.3,0.7c-1.7,0-1.9-1.5-0.9-4.3
			c-1.5,1.5-2.9,2.6-4,3.3c-1.1,0.7-2.2,1.1-3.1,1.1c-0.9,0-1.6-0.4-1.9-1.3c-0.4-0.9-0.3-1.9,0.1-3.2c0.5-1.6,1.5-3,2.8-4.5
			c1.3-1.4,2.8-2.6,4.5-3.4c1.6-0.9,3-1.3,4-1.3c1.3,0,2,0.6,2.1,1.8l3.8-1.8h0.9l-2.9,4.6c-1.5,2.3-2.4,3.9-2.7,4.7
			c-0.3,0.9-0.1,1.3,0.5,1.3c0.4,0,0.9-0.2,1.6-0.6c0.6-0.4,1.5-1.1,2.7-2L254.5,175.2z M242.7,176c1,0,2.3-0.9,3.9-2.7
			c1.5-1.8,2.5-3.4,3-4.9c0.2-0.6,0.2-1,0.1-1.4c-0.2-0.3-0.4-0.5-0.9-0.5c-1,0-2.3,0.9-3.9,2.6c-1.5,1.8-2.5,3.4-3,4.9
			c-0.2,0.6-0.2,1,0,1.4C242,175.9,242.3,176,242.7,176z"/>
		<path class="st0" d="M269.9,175.2c-3.3,2.5-5.8,3.8-7.5,3.8c-0.7,0-1.2-0.2-1.5-0.7c-0.3-0.5-0.3-1.1,0-2c0.4-1.1,1.4-2.8,3.1-5.1
			c0.9-1.2,1.4-2,1.5-2.3c0.1-0.3,0-0.5-0.2-0.5c-0.2,0-0.4,0.1-0.7,0.2c-0.3,0.1-0.6,0.3-1,0.6c-0.3,0.2-0.7,0.5-1.2,0.9
			c-0.4,0.3-0.8,0.6-1.2,1l-1.2,1c-0.5,0.5-0.9,1-1.2,1.5c-0.5,0.9-0.8,1.7-1.1,2.4c-0.2,0.5-0.5,1.3-0.8,2.2l-3.7,0.8
			c0.4-1.4,0.6-2.4,0.9-3.1c0.6-1.7,1.3-3.3,2.2-4.8c0.9-1.5,2.1-3.2,3.6-5l4.1-0.7c-1.5,2.1-2.6,3.8-3.3,5.1
			c2.3-1.9,4.2-3.2,5.4-3.9c1.3-0.7,2.3-1.1,3.1-1.1c0.5,0,0.9,0.2,1.1,0.6c0.2,0.4,0.2,0.9,0,1.5c-0.3,1-1.3,2.6-3,4.9
			c-1.1,1.6-1.8,2.6-2,3.1c-0.2,0.6-0.1,0.9,0.5,0.9c0.8,0,2.3-1,4.7-3L269.9,175.2z"/>
		<path class="st0" d="M281.7,175.2c-1.8,1.3-3.3,2.3-4.7,2.9c-1.3,0.6-2.6,0.9-3.8,0.9c-1.4,0-2.3-0.4-2.9-1.3
			c-0.6-0.9-0.7-2-0.2-3.3c0.7-2.2,2.2-4.3,4.5-6.1c2.3-1.9,4.3-2.8,6.2-2.8c0.9,0,1.6,0.3,2,0.8c0.4,0.5,0.5,1.2,0.2,2
			c-0.1,0.3-0.2,0.5-0.4,0.7c-0.2,0.1-0.4,0.3-0.8,0.4l-2.1,0.9c-0.3,0.1-0.4,0.2-0.5,0.2c-0.1,0-0.2-0.1-0.1-0.3
			c0-0.1,0.2-0.4,0.4-0.8c0.2-0.5,0.3-0.7,0.4-0.8c0.2-0.5,0.2-0.8,0.1-1.1c-0.1-0.3-0.3-0.4-0.6-0.4c-0.8,0-1.7,0.6-2.7,1.7
			c-1,1.1-1.8,2.4-2.2,3.8c-0.4,1.2-0.5,2.2-0.1,3c0.3,0.7,1,1.1,2,1.1c0.8,0,1.7-0.2,2.6-0.7c0.9-0.5,2-1.2,3.3-2.2L281.7,175.2z"
			/>
		<path class="st0" d="M293.4,175.2c-1.8,1.3-3.3,2.3-4.5,2.9c-1.3,0.6-2.5,0.9-3.8,0.9c-1.4,0-2.4-0.4-3-1.4
			c-0.6-0.9-0.6-2.1-0.1-3.6c0.7-2.2,2.2-4.2,4.3-6c2.1-1.8,4.1-2.7,6-2.7c1,0,1.7,0.2,2.1,0.7c0.4,0.5,0.5,1.2,0.2,2
			c-0.7,2.2-3.6,3.9-8.7,5.2c-0.3,2,0.5,3,2.3,3c0.7,0,1.4-0.2,2.2-0.6c0.8-0.4,2-1.2,3.7-2.5L293.4,175.2z M286.2,172.3
			c2.9-0.7,4.7-2.1,5.4-4.1c0.3-1,0.1-1.5-0.6-1.5c-0.7,0-1.5,0.5-2.5,1.6C287.5,169.3,286.7,170.6,286.2,172.3z"/>
	</g>
</g>
</svg>
